<?xml version="1.0" standalone="no"?>
<!DOCTYPE svg PUBLIC "-//W3C//DTD SVG 1.1//EN" 
    "http://www.w3.org/Graphics/SVG/1.1/DTD/svg11.dtd">
<svg width="6.5in" height="4.5in"
    xmlns="http://www.w3.org/2000/svg" version="1.1" viewBox="0 0 585 405">
  <g fill="none" stroke="black" stroke-width="0.01in">
    <path d="M57.915 40.095 L57.915 40.905 L59.085 40.905 L59.085 40.095 L57.915 40.095" />
    <path d="M57.915 76.095 L57.915 76.905 L59.085 76.905 L59.085 76.095 L57.915 76.095" />
    <path d="M57.915 112.095 L57.915 112.905 L59.085 112.905 L59.085 112.095 L57.915 112.095" />
    <path d="M57.915 148.095 L57.915 148.905 L59.085 148.905 L59.085 148.095 L57.915 148.095" />
    <path d="M57.915 184.095 L57.915 184.905 L59.085 184.905 L59.085 184.095 L57.915 184.095" />
    <path d="M57.915 220.095 L57.915 220.905 L59.085 220.905 L59.085 220.095 L57.915 220.095" />
    <path d="M57.915 256.095 L57.915 256.905 L59.085 256.905 L59.085 256.095 L57.915 256.095" />
    <path d="M57.915 292.095 L57.915 292.905 L59.085 292.905 L59.085 292.095 L57.915 292.095" />
    <path d="M57.915 328.095 L57.915 328.905 L59.085 328.905 L59.085 328.095 L57.915 328.095" />
    <path d="M57.915 364.095 L57.915 364.905 L59.085 364.905 L59.085 364.095 L57.915 364.095" />
    <path d="M109.915 364.095 L109.915 364.905 L111.085 364.905 L111.085 364.095 L109.915 364.095" />
    <path d="M109.915 328.095 L109.915 328.905 L111.085 328.905 L111.085 328.095 L109.915 328.095" />
    <path d="M109.915 292.095 L109.915 292.905 L111.085 292.905 L111.085 292.095 L109.915 292.095" />
    <path d="M109.915 256.095 L109.915 256.905 L111.085 256.905 L111.085 256.095 L109.915 256.095" />
    <path d="M109.915 220.095 L109.915 220.905 L111.085 220.905 L111.085 220.095 L109.915 220.095" />
    <path d="M109.915 184.095 L109.915 184.905 L111.085 184.905 L111.085 184.095 L109.915 184.095" />
    <path d="M109.915 148.095 L109.915 148.905 L111.085 148.905 L111.085 148.095 L109.915 148.095" />
    <path d="M109.915 112.095 L109.915 112.905 L111.085 112.905 L111.085 112.095 L109.915 112.095" />
    <path d="M109.915 76.095 L109.915 76.905 L111.085 76.905 L111.085 76.095 L109.915 76.095" />
    <path d="M109.915 40.095 L109.915 40.905 L111.085 40.905 L111.085 40.095 L109.915 40.095" />
    <path d="M161.915 40.095 L161.915 40.905 L163.085 40.905 L163.085 40.095 L161.915 40.095" />
    <path d="M161.915 76.095 L161.915 76.905 L163.085 76.905 L163.085 76.095 L161.915 76.095" />
    <path d="M161.915 112.095 L161.915 112.905 L163.085 112.905 L163.085 112.095 L161.915 112.095" />
    <path d="M161.915 148.095 L161.915 148.905 L163.085 148.905 L163.085 148.095 L161.915 148.095" />
    <path d="M161.915 184.095 L161.915 184.905 L163.085 184.905 L163.085 184.095 L161.915 184.095" />
    <path d="M161.915 220.095 L161.915 220.905 L163.085 220.905 L163.085 220.095 L161.915 220.095" />
    <path d="M161.915 256.095 L161.915 256.905 L163.085 256.905 L163.085 256.095 L161.915 256.095" />
    <path d="M161.915 292.095 L161.915 292.905 L163.085 292.905 L163.085 292.095 L161.915 292.095" />
    <path d="M161.915 328.095 L161.915 328.905 L163.085 328.905 L163.085 328.095 L161.915 328.095" />
    <path d="M161.915 364.095 L161.915 364.905 L163.085 364.905 L163.085 364.095 L161.915 364.095" />
    <path d="M213.915 364.095 L213.915 364.905 L215.085 364.905 L215.085 364.095 L213.915 364.095" />
    <path d="M213.915 328.095 L213.915 328.905 L215.085 328.905 L215.085 328.095 L213.915 328.095" />
    <path d="M213.915 292.095 L213.915 292.905 L215.085 292.905 L215.085 292.095 L213.915 292.095" />
    <path d="M213.915 256.095 L213.915 256.905 L215.085 256.905 L215.085 256.095 L213.915 256.095" />
    <path d="M213.915 220.095 L213.915 220.905 L215.085 220.905 L215.085 220.095 L213.915 220.095" />
    <path d="M213.915 184.095 L213.915 184.905 L215.085 184.905 L215.085 184.095 L213.915 184.095" />
    <path d="M213.915 148.095 L213.915 148.905 L215.085 148.905 L215.085 148.095 L213.915 148.095" />
    <path d="M213.915 112.095 L213.915 112.905 L215.085 112.905 L215.085 112.095 L213.915 112.095" />
    <path d="M213.915 76.095 L213.915 76.905 L215.085 76.905 L215.085 76.095 L213.915 76.095" />
    <path d="M213.915 40.095 L213.915 40.905 L215.085 40.905 L215.085 40.095 L213.915 40.095" />
    <path d="M265.915 40.095 L265.915 40.905 L267.085 40.905 L267.085 40.095 L265.915 40.095" />
    <path d="M265.915 76.095 L265.915 76.905 L267.085 76.905 L267.085 76.095 L265.915 76.095" />
    <path d="M265.915 112.095 L265.915 112.905 L267.085 112.905 L267.085 112.095 L265.915 112.095" />
    <path d="M265.915 148.095 L265.915 148.905 L267.085 148.905 L267.085 148.095 L265.915 148.095" />
    <path d="M265.915 184.095 L265.915 184.905 L267.085 184.905 L267.085 184.095 L265.915 184.095" />
    <path d="M265.915 220.095 L265.915 220.905 L267.085 220.905 L267.085 220.095 L265.915 220.095" />
    <path d="M265.915 256.095 L265.915 256.905 L267.085 256.905 L267.085 256.095 L265.915 256.095" />
    <path d="M265.915 292.095 L265.915 292.905 L267.085 292.905 L267.085 292.095 L265.915 292.095" />
    <path d="M265.915 328.095 L265.915 328.905 L267.085 328.905 L267.085 328.095 L265.915 328.095" />
    <path d="M265.915 364.095 L265.915 364.905 L267.085 364.905 L267.085 364.095 L265.915 364.095" />
    <path d="M317.915 364.095 L317.915 364.905 L319.085 364.905 L319.085 364.095 L317.915 364.095" />
    <path d="M317.915 328.095 L317.915 328.905 L319.085 328.905 L319.085 328.095 L317.915 328.095" />
    <path d="M317.915 292.095 L317.915 292.905 L319.085 292.905 L319.085 292.095 L317.915 292.095" />
    <path d="M317.915 256.095 L317.915 256.905 L319.085 256.905 L319.085 256.095 L317.915 256.095" />
    <path d="M317.915 220.095 L317.915 220.905 L319.085 220.905 L319.085 220.095 L317.915 220.095" />
    <path d="M317.915 184.095 L317.915 184.905 L319.085 184.905 L319.085 184.095 L317.915 184.095" />
    <path d="M317.915 148.095 L317.915 148.905 L319.085 148.905 L319.085 148.095 L317.915 148.095" />
    <path d="M317.915 112.095 L317.915 112.905 L319.085 112.905 L319.085 112.095 L317.915 112.095" />
    <path d="M317.915 76.095 L317.915 76.905 L319.085 76.905 L319.085 76.095 L317.915 76.095" />
    <path d="M317.915 40.095 L317.915 40.905 L319.085 40.905 L319.085 40.095 L317.915 40.095" />
    <path d="M369.915 40.095 L369.915 40.905 L371.085 40.905 L371.085 40.095 L369.915 40.095" />
    <path d="M369.915 76.095 L369.915 76.905 L371.085 76.905 L371.085 76.095 L369.915 76.095" />
    <path d="M369.915 112.095 L369.915 112.905 L371.085 112.905 L371.085 112.095 L369.915 112.095" />
    <path d="M369.915 148.095 L369.915 148.905 L371.085 148.905 L371.085 148.095 L369.915 148.095" />
    <path d="M369.915 184.095 L369.915 184.905 L371.085 184.905 L371.085 184.095 L369.915 184.095" />
    <path d="M369.915 220.095 L369.915 220.905 L371.085 220.905 L371.085 220.095 L369.915 220.095" />
    <path d="M369.915 256.095 L369.915 256.905 L371.085 256.905 L371.085 256.095 L369.915 256.095" />
    <path d="M369.915 292.095 L369.915 292.905 L371.085 292.905 L371.085 292.095 L369.915 292.095" />
    <path d="M369.915 328.095 L369.915 328.905 L371.085 328.905 L371.085 328.095 L369.915 328.095" />
    <path d="M369.915 364.095 L369.915 364.905 L371.085 364.905 L371.085 364.095 L369.915 364.095" />
    <path d="M421.915 364.095 L421.915 364.905 L423.085 364.905 L423.085 364.095 L421.915 364.095" />
    <path d="M421.915 328.095 L421.915 328.905 L423.085 328.905 L423.085 328.095 L421.915 328.095" />
    <path d="M421.915 292.095 L421.915 292.905 L423.085 292.905 L423.085 292.095 L421.915 292.095" />
    <path d="M421.915 256.095 L421.915 256.905 L423.085 256.905 L423.085 256.095 L421.915 256.095" />
    <path d="M421.915 220.095 L421.915 220.905 L423.085 220.905 L423.085 220.095 L421.915 220.095" />
    <path d="M421.915 184.095 L421.915 184.905 L423.085 184.905 L423.085 184.095 L421.915 184.095" />
    <path d="M421.915 148.095 L421.915 148.905 L423.085 148.905 L423.085 148.095 L421.915 148.095" />
    <path d="M421.915 112.095 L421.915 112.905 L423.085 112.905 L423.085 112.095 L421.915 112.095" />
    <path d="M421.915 76.095 L421.915 76.905 L423.085 76.905 L423.085 76.095 L421.915 76.095" />
    <path d="M421.915 40.095 L421.915 40.905 L423.085 40.905 L423.085 40.095 L421.915 40.095" />
    <path d="M473.915 40.095 L473.915 40.905 L475.085 40.905 L475.085 40.095 L473.915 40.095" />
    <path d="M473.915 76.095 L473.915 76.905 L475.085 76.905 L475.085 76.095 L473.915 76.095" />
    <path d="M473.915 112.095 L473.915 112.905 L475.085 112.905 L475.085 112.095 L473.915 112.095" />
    <path d="M473.915 148.095 L473.915 148.905 L475.085 148.905 L475.085 148.095 L473.915 148.095" />
    <path d="M473.915 184.095 L473.915 184.905 L475.085 184.905 L475.085 184.095 L473.915 184.095" />
    <path d="M473.915 220.095 L473.915 220.905 L475.085 220.905 L475.085 220.095 L473.915 220.095" />
    <path d="M473.915 256.095 L473.915 256.905 L475.085 256.905 L475.085 256.095 L473.915 256.095" />
    <path d="M473.915 292.095 L473.915 292.905 L475.085 292.905 L475.085 292.095 L473.915 292.095" />
    <path d="M473.915 328.095 L473.915 328.905 L475.085 328.905 L475.085 328.095 L473.915 328.095" />
    <path d="M473.915 364.095 L473.915 364.905 L475.085 364.905 L475.085 364.095 L473.915 364.095" />
    <path d="M525.915 364.095 L525.915 364.905 L527.085 364.905 L527.085 364.095 L525.915 364.095" />
    <path d="M525.915 328.095 L525.915 328.905 L527.085 328.905 L527.085 328.095 L525.915 328.095" />
    <path d="M525.915 292.095 L525.915 292.905 L527.085 292.905 L527.085 292.095 L525.915 292.095" />
    <path d="M525.915 256.095 L525.915 256.905 L527.085 256.905 L527.085 256.095 L525.915 256.095" />
    <path d="M525.915 220.095 L525.915 220.905 L527.085 220.905 L527.085 220.095 L525.915 220.095" />
    <path d="M525.915 184.095 L525.915 184.905 L527.085 184.905 L527.085 184.095 L525.915 184.095" />
    <path d="M525.915 148.095 L525.915 148.905 L527.085 148.905 L527.085 148.095 L525.915 148.095" />
    <path d="M525.915 112.095 L525.915 112.905 L527.085 112.905 L527.085 112.095 L525.915 112.095" />
    <path d="M525.915 76.095 L525.915 76.905 L527.085 76.905 L527.085 76.095 L525.915 76.095" />
    <path d="M525.915 40.095 L525.915 40.905 L527.085 40.905 L527.085 40.095 L525.915 40.095" />
  </g>
</svg>