<?xml version="1.0" standalone="no"?>
<!DOCTYPE svg PUBLIC "-//W3C//DTD SVG 1.1//EN" 
    "http://www.w3.org/Graphics/SVG/1.1/DTD/svg11.dtd">
<svg width="6.5in" height="4.5in"
    xmlns="http://www.w3.org/2000/svg" version="1.1" viewBox="0 0 585 405">
  <g fill="none" stroke="black" stroke-width="0.01in">
    <path d="M110.5 364.5 L185.59277 338.50635 L274.38855 307.76935 L307.31702 296.37103 L318.5 292.5 L58.5 292.5 L474.5 292.5 L402.03833 267.41711 L314.85327 237.23767 L285.97461 227.24121 L247.02539 213.75879 L60.35471 149.14201 L58.5 148.5 L309.84933 113.69778 L318.5 112.5 L393.59277 99.50317 L497.57849 81.50565 L526.5 76.5 L476.4158 103.46841 L368.05655 161.8157 L314.40894 190.70288 L270.59106 214.29712 L216.94345 243.1843 L157.75076 275.05728 L72.00161 321.2299 L58.5 328.5 L152.7627 263.24121 L209.66309 223.84863 L266.5 184.5" />
    <path d="M214.5 220.5 L214.5 328.5 L257.88226 318.48871 L355.89404 295.87061 L460.33282 271.76935 L516.1192 258.89557 L526.5 256.5 L510.17859 239.55084 L474.01282 201.99408 L432.2373 158.61182 L412.7627 138.38818 L370.98718 95.00592 L329.68298 52.1131 L318.5 40.5 L360.80078 84.42773 L380.19922 104.57227 L402.44775 127.67651 L420.69489 146.62546 L422.5 148.5 L296.57837 119.44116 L266.5 112.5 L266.5 292.5 L259.26962 272.47742 L252.29077 253.15137 L224.52612 176.26465 L214.5 148.5 L408.89102 121.58432 L474.5 112.5" />
    <path d="M422.5 148.5 L416.93509 167.76315 L411.47214 186.67337 L403.72681 213.48413 L398.93433 230.07349 L394.06567 246.92651 L389.27319 263.51587 L381.52786 290.32663 L377.73038 303.47177 L370.5 328.5 L370.5 112.5 L334.34811 127.51694 L110.5 220.5 L162.5 112.5 L214.5 184.5 L222.88724 192.24207 L257.12769 223.84863 L314.18042 276.5127 L370.5 328.5 L365.3096 322.51108 L343.32687 297.14639 L214.5 148.5 L244.57837 155.44116 L370.5 184.5" />
    <path d="M422.5 256.5 L468.12378 288.08569 L474.5 292.5 L474.5 76.5 L456.38458 114.12433 L452.44427 122.30804 L436.95361 154.48096 L398.91846 233.47705 L392.55573 246.69196 L388.61542 254.87567 L376.09149 280.8869 L370.5 292.5 L370.5 148.5 L58.5 328.5 L109.11264 293.46048 L165.74326 254.25467 L223.45972 214.29712 L257.54028 190.70288 L299.2662 161.8157 L330.64743 140.09024 L359.09604 120.39505 L419.3532 78.67855 L422.5 76.5 L422.5 112.5 L415.26962 137.52823 L411.47214 150.67337 L403.72681 177.48413 L398.93433 194.07349 L394.06567 210.92651 L389.27319 227.51587 L381.52786 254.32663 L376.06491 273.23685 L370.5 292.5" />
    <path d="M370.5 328.5 L432.19922 307.14258 L461.74756 296.91431 L474.5 292.5 L416.65698 282.48871 L285.97461 259.87061 L247.02539 253.12939 L116.34302 230.51129 L58.5 220.5 L285.97461 122.07349 L386.2771 78.67337 L429.98071 59.76315 L472.64529 41.30252 L474.5 40.5 L443.65039 125.92969 L432.52612 156.73535 L422.5 184.5 L436.96075 209.52823 L440.61542 215.85361 L444.55573 222.67337 L488.95361 299.51587 L504.44427 326.32663 L518.33929 350.3757 L526.5 364.5 L498.08154 344.82568 L484.19922 335.21484 L442.55225 306.38232 L424.30511 293.74969 L422.5 292.5 L408.03925 272.47742 L402.44775 264.73535 L375.36865 227.24121 L365.63135 213.75879 L338.55225 176.26465 L318.5 148.5 L360.80078 104.57227 L380.19922 84.42773 L402.44775 61.32349 L420.69489 42.37454 L422.5 40.5" />
    <path d="M370.5 76.5 L378.88724 74.56448 L426.81958 63.50317 L526.5 40.5 L497.93753 57.44916 L449.30496 86.30804 L327.45972 158.61182 L201.45438 233.38422 L162.5 256.5 L183.65039 212.57227 L204.47388 169.32349 L214.5 148.5 L184.42163 134.61768 L58.5 76.5 L152.7627 190.70288 L230.26917 284.60495 L266.5 328.5 L278.74106 317.20056 L389.41641 215.0387 L422.5 184.5 L420.69489 182.62546 L402.44775 163.67651 L380.19922 140.57227 L360.80078 120.42773 L318.5 76.5 L261.66309 115.84863 L110.5 220.5" />
    <path d="M58.5 148.5 L60.30511 151.62424 L162.5 328.5 L175.25244 332.91431 L266.5 364.5 L269.96027 354.91772 L280.96075 324.45483 L297.14093 279.64819 L313.63135 233.98242 L323.36865 207.01758 L344.25641 149.17456 L359.37018 107.32104 L370.5 76.5 L378.88724 91.98413 L387.19473 107.32104 L409.86539 149.17456 L426.81958 180.47461 L441.19702 207.01758 L455.80298 233.98242 L470.18042 260.52539 L487.13461 291.82544 L504.80887 324.45483 L526.5 364.5 L514.38907 359.70886 L487.54562 349.08948 L395.08765 312.5127 L254.35257 256.83728 L201.45438 235.91052 L162.5 220.5 L124.95361 272.4873 L58.5 364.5 L61.96027 353.71994 L162.5 40.5 L198.65189 80.54517 L256.36597 144.47461 L356.89102 255.82544 L377.21146 278.33423 L422.5 328.5" />
    <path d="M318.5 256.5 L222.66071 322.85028 L214.5 328.5 L214.5 184.5 L162.5 112.5 L183.65039 156.42773 L204.47388 199.67651 L214.5 220.5 L318.5 220.5 L247.80298 285.75879 L184.19113 344.47742 L162.5 364.5 L177.82047 290.25467 L195.72681 203.47778 L201.3782 176.09024 L205.44229 156.39505 L213.59744 116.87393 L214.5 112.5 L265.2146 77.38989 L266.5 76.5" />
    <path d="M266.5 256.5 L276.52612 228.73535 L287.65039 197.92969 L297.34961 171.07031 L304.29077 151.84863 L311.26962 132.52258 L318.5 112.5 L58.5 292.5 L65.42053 285.31329 L133.59277 214.51904 L266.5 76.5 L318.5 76.5 L319.40256 78.37454 L332.70923 106.01147 L356.29077 154.98853 L370.5 184.5 L392.19113 179.49435 L455.80298 164.8147 L526.5 148.5 L524.64529 149.30252 L481.98071 167.76315 L438.2771 186.67337 L337.97461 230.07349 L110.5 328.5 L103.26962 298.46613 L58.5 112.5" />
  </g>
</svg>