<?xml version="1.0" standalone="no"?>
<!DOCTYPE svg PUBLIC "-//W3C//DTD SVG 1.1//EN" 
    "http://www.w3.org/Graphics/SVG/1.1/DTD/svg11.dtd">
<svg width="6.5in" height="4.5in"
    xmlns="http://www.w3.org/2000/svg" version="1.1" viewBox="0 0 585 405">
  <g fill="none" stroke="black" stroke-width="0.01in">
    <path d="M58.5 202.5 L381.42 202.5 L386.1 217.11199 L388.00354 177.23395 L389.87765 137.97227 L390.78 119.0685 L394.55765 62.87334 L395.46 49.45025 L396.36235 75.01856 L399.23765 156.49074 L400.14 182.05906 L401.22545 193.44168 L403.73455 219.7535 L404.82 231.13612 L406.72354 197.80346 L408.59765 164.98599 L409.5 149.18499 L409.86723 165.78817 L410.77883 207.00311 L411.18959 225.57413 L412.49041 284.38665 L413.18749 315.90282 L413.67916 338.13186 L414.18 360.77579 L416.08354 301.86647 L417.95765 243.86767 L418.86 215.94233 L419.76235 243.57954 L422.63765 331.64419 L423.54 359.2814 L423.90723 336.43002 L424.19073 318.7888 L424.91884 273.48152 L425.22959 254.14505 L426.53041 173.19983 L427.22749 129.82331 L427.71916 99.22889 L428.19011 69.92313 L428.22 68.06347 L429.49883 96.25584 L430.12354 110.02773 L430.99646 129.27184 L432.32614 158.58511 L432.9 171.23609 L436.67765 223.39624 L437.58 235.85552 L442.26 247.9225 L444.16354 276.84543 L446.03765 305.32132 L446.94 319.03193 L450.53455 292.17508 L451.62 284.0651 L456.3 292.51788 L456.66723 275.4425 L457.57883 233.05537 L458.42091 193.90069 L458.85909 173.52645 L459.98749 121.05845 L460.82429 82.14949 L460.98 74.90926 L461.88235 98.83214 L464.75765 175.06122 L465.66 198.9841 L466.56235 223.58036 L469.43765 301.95517 L470.34 326.55143 L471.24235 302.04678 L474.11765 223.96391 L475.02 199.45926 L476.92354 152.09723 L478.79765 105.46724 L479.7 83.01577 L480.60235 106.05353 L483.47765 179.46224 L484.38 202.5 L521.82 202.5" />
  </g>
</svg>