<?xml version="1.0" standalone="no"?>
<!DOCTYPE svg PUBLIC "-//W3C//DTD SVG 1.1//EN" 
    "http://www.w3.org/Graphics/SVG/1.1/DTD/svg11.dtd">
<svg width="6.5in" height="4.5in"
    xmlns="http://www.w3.org/2000/svg" version="1.1" viewBox="0 0 585 405">
  <g fill="none" stroke="black" stroke-width="0.01in">
    <path d="M58.5 198.45 L58.5 206.55" />
    <path d="M63.22727 203.98133 L63.22727 195.88133" />
    <path d="M67.95455 193.32301 L67.95455 201.42301" />
    <path d="M72.68182 198.88532 L72.68182 190.78532" />
    <path d="M77.40909 188.27851 L77.40909 196.37851" />
    <path d="M82.13636 193.91265 L82.13636 185.81265" />
    <path d="M86.86364 183.39767 L86.86364 191.49767" />
    <path d="M91.59091 189.14331 L91.59091 181.04331" />
    <path d="M96.31818 178.75903 L96.31818 186.85903" />
    <path d="M101.04545 184.65405 L101.04545 176.55405" />
    <path d="M105.77273 174.43723 L105.77273 182.53723" />
    <path d="M110.5 180.5171 L110.5 172.4171" />
    <path d="M115.22727 170.5018 L115.22727 178.6018" />
    <path d="M119.95455 176.79904 L119.95455 168.69904" />
    <path d="M124.68182 167.01607 L124.68182 175.11607" />
    <path d="M129.40909 173.55967 L129.40909 165.45967" />
    <path d="M134.13636 164.03612 L134.13636 172.13612" />
    <path d="M138.86364 170.85114 L138.86364 162.75114" />
    <path d="M143.59091 161.6099 L143.59091 169.7099" />
    <path d="M148.31818 168.71701 L148.31818 160.61701" />
    <path d="M153.04545 159.77646 L153.04545 167.87646" />
    <path d="M157.77273 167.19163 L157.77273 159.09163" />
    <path d="M162.5 158.56529 L162.5 166.66529" />
    <path d="M167.22727 166.29954 L167.22727 158.19954" />
    <path d="M171.95455 157.99587 L171.95455 166.09587" />
    <path d="M176.68182 166.0551 L176.68182 157.9551" />
    <path d="M181.40909 158.07738 L181.40909 166.17738" />
    <path d="M186.13636 166.46223 L186.13636 158.36223" />
    <path d="M190.86364 158.8085 L190.86364 166.9085" />
    <path d="M195.59091 167.51439 L195.59091 159.41439" />
    <path d="M200.31818 160.17747 L200.31818 168.27747" />
    <path d="M205.04545 169.19465 L205.04545 161.09465" />
    <path d="M209.77273 162.16225 L209.77273 170.26225" />
    <path d="M214.5 171.47597 L214.5 163.37597" />
    <path d="M219.22727 164.73092 L219.22727 172.83092" />
    <path d="M223.95455 174.32165 L223.95455 166.22165" />
    <path d="M228.68182 167.84214 L228.68182 175.94214" />
    <path d="M233.40909 177.68589 L233.40909 169.58589" />
    <path d="M238.13636 171.44586 L238.13636 179.54586" />
    <path d="M242.86364 181.51456 L242.86364 173.41456" />
    <path d="M247.59091 175.48408 L247.59091 183.58408" />
    <path d="M252.31818 185.74607 L252.31818 177.64607" />
    <path d="M257.04545 179.89183 L257.04545 187.99183" />
    <path d="M261.77273 190.31231 L261.77273 182.21231" />
    <path d="M266.5 184.59818 L266.5 192.69818" />
    <path d="M271.22727 195.13983 L271.22727 187.03983" />
    <path d="M275.95455 189.52742 L275.95455 197.62742" />
    <path d="M280.68182 200.15094 L280.68182 192.05094" />
    <path d="M285.40909 194.60023 L285.40909 202.70023" />
    <path d="M290.13636 205.26502 L290.13636 197.16502" />
    <path d="M294.86364 199.73498 L294.86364 207.83498" />
    <path d="M299.59091 210.39977 L299.59091 202.29977" />
    <path d="M304.31818 204.84906 L304.31818 212.94906" />
    <path d="M309.04545 215.47258 L309.04545 207.37258" />
    <path d="M313.77273 209.86017 L313.77273 217.96017" />
    <path d="M318.5 220.40182 L318.5 212.30182" />
    <path d="M323.22727 214.68769 L323.22727 222.78769" />
    <path d="M327.95455 225.10817 L327.95455 217.00817" />
    <path d="M332.68182 219.25393 L332.68182 227.35393" />
    <path d="M337.40909 229.51592 L337.40909 221.41592" />
    <path d="M342.13636 223.48544 L342.13636 231.58544" />
    <path d="M346.86364 233.55414 L346.86364 225.45414" />
    <path d="M351.59091 227.31411 L351.59091 235.41411" />
    <path d="M356.31818 237.15786 L356.31818 229.05786" />
    <path d="M361.04545 230.67835 L361.04545 238.77835" />
    <path d="M365.77273 240.26908 L365.77273 232.16908" />
    <path d="M370.5 233.52403 L370.5 241.62403" />
    <path d="M375.22727 242.83775 L375.22727 234.73775" />
    <path d="M379.95455 235.80535 L379.95455 243.90535" />
    <path d="M384.68182 244.82253 L384.68182 236.72253" />
    <path d="M389.40909 237.48561 L389.40909 245.58561" />
    <path d="M394.13636 246.1915 L394.13636 238.0915" />
    <path d="M398.86364 238.53777 L398.86364 246.63777" />
    <path d="M403.59091 246.92262 L403.59091 238.82262" />
    <path d="M408.31818 238.9449 L408.31818 247.0449" />
    <path d="M413.04545 247.00413 L413.04545 238.90413" />
    <path d="M417.77273 238.70046 L417.77273 246.80046" />
    <path d="M422.5 246.43471 L422.5 238.33471" />
    <path d="M427.22727 237.80837 L427.22727 245.90837" />
    <path d="M431.95455 245.22354 L431.95455 237.12354" />
    <path d="M436.68182 236.28299 L436.68182 244.38299" />
    <path d="M441.40909 243.3901 L441.40909 235.2901" />
    <path d="M446.13636 234.14886 L446.13636 242.24886" />
    <path d="M450.86364 240.96388 L450.86364 232.86388" />
    <path d="M455.59091 231.44033 L455.59091 239.54033" />
    <path d="M460.31818 237.98393 L460.31818 229.88393" />
    <path d="M465.04545 228.20096 L465.04545 236.30096" />
    <path d="M469.77273 234.4982 L469.77273 226.3982" />
    <path d="M474.5 224.4829 L474.5 232.5829" />
    <path d="M479.22727 230.56277 L479.22727 222.46277" />
    <path d="M483.95455 220.34595 L483.95455 228.44595" />
    <path d="M488.68182 226.24097 L488.68182 218.14097" />
    <path d="M493.40909 215.85669 L493.40909 223.95669" />
    <path d="M498.13636 221.60233 L498.13636 213.50233" />
    <path d="M502.86364 211.08735 L502.86364 219.18735" />
    <path d="M507.59091 216.72149 L507.59091 208.62149" />
    <path d="M512.31818 206.11468 L512.31818 214.21468" />
    <path d="M517.04545 211.67699 L517.04545 203.57699" />
    <path d="M521.77273 201.01867 L521.77273 209.11867" />
  </g>
</svg>