<?xml version="1.0" standalone="no"?>
<!DOCTYPE svg PUBLIC "-//W3C//DTD SVG 1.1//EN" 
    "http://www.w3.org/Graphics/SVG/1.1/DTD/svg11.dtd">
<svg width="6.5in" height="4.5in"
    xmlns="http://www.w3.org/2000/svg" version="1.1" viewBox="0 0 585 405">
  <g fill="none" stroke="black" stroke-width="0.01in">
    <path d="M76.05 52.65 L76.05 149.85 L216.45 149.85 L216.45 52.65 L76.05 52.65" />
    <path d="M76.05 160.65 L76.05 257.85 L216.45 257.85 L216.45 160.65 L76.05 160.65" />
    <path d="M76.05 268.65 L76.05 365.85 L216.45 365.85 L216.45 268.65 L76.05 268.65" />
    <path d="M232.05 268.65 L232.05 365.85 L372.45 365.85 L372.45 268.65 L232.05 268.65" />
    <path d="M388.05 268.65 L388.05 365.85 L528.45 365.85 L528.45 268.65 L388.05 268.65" />
    <path d="M388.05 160.65 L388.05 257.85 L528.45 257.85 L528.45 160.65 L388.05 160.65" />
    <path d="M388.05 52.65 L388.05 149.85 L528.45 149.85 L528.45 52.65 L388.05 52.65" />
    <path d="M232.05 52.65 L232.05 149.85 L372.45 149.85 L372.45 52.65 L232.05 52.65" />
  </g>
</svg>