<?xml version="1.0" standalone="no"?>
<!DOCTYPE svg PUBLIC "-//W3C//DTD SVG 1.1//EN" 
    "http://www.w3.org/Graphics/SVG/1.1/DTD/svg11.dtd">
<svg width="6.5in" height="4.5in"
    xmlns="http://www.w3.org/2000/svg" version="1.1" viewBox="0 0 585 405">
  <g fill="none" stroke="black" stroke-width="0.01in">
    <path d="M29.25 12.27273 L65 12.27273" />
    <path d="M65 16.36364 L29.25 16.36364" />
    <path d="M29.25 20.45455 L65 20.45455" />
    <path d="M65 24.54545 L29.25 24.54545" />
    <path d="M29.25 28.63636 L65 28.63636" />
    <path d="M65 32.72727 L29.25 32.72727" />
    <path d="M29.25 36.81818 L65 36.81818" />
    <path d="M65 40.90909 L29.25 40.90909" />
    <path d="M29.25 45 L65 45" />
    <path d="M65 49.09091 L29.25 49.09091" />
    <path d="M29.25 53.18182 L65 53.18182" />
    <path d="M65 57.27273 L29.25 57.27273" />
    <path d="M29.25 61.36364 L65 61.36364" />
    <path d="M65 65.45455 L29.25 65.45455" />
    <path d="M29.25 69.54545 L65 69.54545" />
    <path d="M65 73.63636 L29.25 73.63636" />
    <path d="M29.25 77.72727 L65 77.72727" />
    <path d="M65 81.81818 L29.25 81.81818" />
    <path d="M29.25 85.90909 L65 85.90909" />
    <path d="M65 90 L29.25 90" />
    <path d="M29.25 94.09091 L65 94.09091" />
    <path d="M65 98.18182 L29.25 98.18182" />
    <path d="M29.25 102.27273 L65 102.27273" />
    <path d="M65 106.36364 L29.25 106.36364" />
    <path d="M29.25 110.45455 L65 110.45455" />
    <path d="M65 114.54545 L29.25 114.54545" />
    <path d="M29.25 118.63636 L65 118.63636" />
    <path d="M65 122.72727 L29.25 122.72727" />
    <path d="M29.25 126.81818 L65 126.81818" />
    <path d="M65 130.90909 L29.25 130.90909" />
    <path d="M29.25 135 L65 135" />
    <path d="M65 139.09091 L29.25 139.09091" />
    <path d="M29.25 143.18182 L65 143.18182" />
    <path d="M65 147.27273 L29.25 147.27273" />
    <path d="M29.25 151.36364 L65 151.36364" />
    <path d="M65 155.45455 L29.25 155.45455" />
    <path d="M29.25 159.54545 L65 159.54545" />
    <path d="M65 163.63636 L29.25 163.63636" />
    <path d="M29.25 167.72727 L65 167.72727" />
    <path d="M65 171.81818 L29.25 171.81818" />
    <path d="M29.25 175.90909 L65 175.90909" />
    <path d="M65 180 L29.25 180" />
    <path d="M29.25 184.09091 L65 184.09091" />
    <path d="M65 188.18182 L29.25 188.18182" />
    <path d="M29.25 192.27273 L65 192.27273" />
    <path d="M65 196.36364 L29.25 196.36364" />
    <path d="M29.25 200.45455 L65 200.45455" />
    <path d="M65 204.54545 L29.25 204.54545" />
    <path d="M29.25 208.63636 L65 208.63636" />
    <path d="M65 212.72727 L29.25 212.72727" />
    <path d="M29.25 216.81818 L65 216.81818" />
    <path d="M65 220.90909 L29.25 220.90909" />
    <path d="M29.25 225 L65 225" />
    <path d="M65 229.09091 L29.25 229.09091" />
    <path d="M29.25 233.18182 L65 233.18182" />
    <path d="M65 237.27273 L29.25 237.27273" />
    <path d="M29.25 241.36364 L65 241.36364" />
    <path d="M65 245.45455 L29.25 245.45455" />
    <path d="M29.25 249.54545 L65 249.54545" />
    <path d="M65 253.63636 L29.25 253.63636" />
    <path d="M29.25 257.72727 L65 257.72727" />
    <path d="M65 261.81818 L29.25 261.81818" />
    <path d="M29.25 265.90909 L65 265.90909" />
    <path d="M65 270 L29.25 270" />
    <path d="M29.25 274.09091 L65 274.09091" />
    <path d="M65 278.18182 L29.25 278.18182" />
    <path d="M29.25 282.27273 L65 282.27273" />
    <path d="M65 286.36364 L29.25 286.36364" />
    <path d="M29.25 290.45455 L65 290.45455" />
    <path d="M65 294.54545 L29.25 294.54545" />
    <path d="M29.25 298.63636 L65 298.63636" />
    <path d="M65 302.72727 L29.25 302.72727" />
    <path d="M29.25 306.81818 L65 306.81818" />
    <path d="M65 310.90909 L29.25 310.90909" />
    <path d="M29.25 315 L65 315" />
    <path d="M65 319.09091 L29.25 319.09091" />
    <path d="M29.25 323.18182 L65 323.18182" />
    <path d="M65 327.27273 L29.25 327.27273" />
    <path d="M29.25 331.36364 L65 331.36364" />
    <path d="M65 335.45455 L29.25 335.45455" />
    <path d="M29.25 339.54545 L65 339.54545" />
    <path d="M65 343.63636 L29.25 343.63636" />
    <path d="M29.25 347.72727 L65 347.72727" />
    <path d="M65 351.81818 L29.25 351.81818" />
    <path d="M29.25 355.90909 L65 355.90909" />
    <path d="M65 360 L29.25 360" />
    <path d="M29.25 364.09091 L65 364.09091" />
    <path d="M65 368.18182 L29.25 368.18182" />
    <path d="M29.25 372.27273 L65 372.27273" />
    <path d="M65 376.36364 L29.25 376.36364" />
    <path d="M29.25 380.45455 L65 380.45455" />
    <path d="M65 384.54545 L29.25 384.54545" />
    <path d="M29.25 388.63636 L65 388.63636" />
    <path d="M65 392.72727 L29.25 392.72727" />
    <path d="M91 392.72727 L126.75 392.72727" />
    <path d="M152.75 392.72727 L188.5 392.72727" />
    <path d="M188.5 388.63636 L152.75 388.63636" />
    <path d="M152.75 384.54545 L188.5 384.54545" />
    <path d="M188.5 380.45455 L152.75 380.45455" />
    <path d="M152.75 376.36364 L188.5 376.36364" />
    <path d="M188.5 372.27273 L152.75 372.27273" />
    <path d="M152.75 368.18182 L188.5 368.18182" />
    <path d="M188.5 364.09091 L152.75 364.09091" />
    <path d="M152.75 360 L188.5 360" />
    <path d="M188.5 355.90909 L152.75 355.90909" />
    <path d="M152.75 351.81818 L188.5 351.81818" />
    <path d="M188.5 347.72727 L152.75 347.72727" />
    <path d="M152.75 343.63636 L188.5 343.63636" />
    <path d="M188.5 339.54545 L152.75 339.54545" />
    <path d="M152.75 335.45455 L188.5 335.45455" />
    <path d="M188.5 331.36364 L152.75 331.36364" />
    <path d="M152.75 327.27273 L188.5 327.27273" />
    <path d="M188.5 323.18182 L152.75 323.18182" />
    <path d="M152.75 319.09091 L188.5 319.09091" />
    <path d="M188.5 315 L152.75 315" />
    <path d="M152.75 310.90909 L188.5 310.90909" />
    <path d="M188.5 306.81818 L152.75 306.81818" />
    <path d="M152.75 302.72727 L188.5 302.72727" />
    <path d="M188.5 298.63636 L152.75 298.63636" />
    <path d="M152.75 294.54545 L188.5 294.54545" />
    <path d="M188.5 290.45455 L152.75 290.45455" />
    <path d="M152.75 286.36364 L188.5 286.36364" />
    <path d="M188.5 282.27273 L152.75 282.27273" />
    <path d="M152.75 278.18182 L188.5 278.18182" />
    <path d="M188.5 274.09091 L152.75 274.09091" />
    <path d="M152.75 270 L188.5 270" />
    <path d="M188.5 265.90909 L152.75 265.90909" />
    <path d="M152.75 261.81818 L188.5 261.81818" />
    <path d="M188.5 257.72727 L152.75 257.72727" />
    <path d="M152.75 253.63636 L188.5 253.63636" />
    <path d="M188.5 249.54545 L152.75 249.54545" />
    <path d="M152.75 245.45455 L188.5 245.45455" />
    <path d="M188.5 241.36364 L152.75 241.36364" />
    <path d="M152.75 237.27273 L188.5 237.27273" />
    <path d="M188.5 233.18182 L152.75 233.18182" />
    <path d="M152.75 229.09091 L188.5 229.09091" />
    <path d="M188.5 225 L152.75 225" />
    <path d="M152.75 220.90909 L188.5 220.90909" />
    <path d="M188.5 216.81818 L152.75 216.81818" />
    <path d="M152.75 212.72727 L188.5 212.72727" />
    <path d="M188.5 208.63636 L152.75 208.63636" />
    <path d="M152.75 204.54545 L188.5 204.54545" />
    <path d="M188.5 200.45455 L152.75 200.45455" />
    <path d="M152.75 196.36364 L188.5 196.36364" />
    <path d="M188.5 192.27273 L152.75 192.27273" />
    <path d="M152.75 188.18182 L188.5 188.18182" />
    <path d="M188.5 184.09091 L152.75 184.09091" />
    <path d="M152.75 180 L188.5 180" />
    <path d="M188.5 175.90909 L152.75 175.90909" />
    <path d="M152.75 171.81818 L188.5 171.81818" />
    <path d="M188.5 167.72727 L152.75 167.72727" />
    <path d="M152.75 163.63636 L188.5 163.63636" />
    <path d="M188.5 159.54545 L152.75 159.54545" />
    <path d="M152.75 155.45455 L188.5 155.45455" />
    <path d="M188.5 151.36364 L152.75 151.36364" />
    <path d="M152.75 147.27273 L188.5 147.27273" />
    <path d="M188.5 143.18182 L152.75 143.18182" />
    <path d="M152.75 139.09091 L188.5 139.09091" />
    <path d="M188.5 135 L152.75 135" />
    <path d="M152.75 130.90909 L188.5 130.90909" />
    <path d="M188.5 126.81818 L152.75 126.81818" />
    <path d="M152.75 122.72727 L188.5 122.72727" />
    <path d="M188.5 118.63636 L152.75 118.63636" />
    <path d="M152.75 114.54545 L188.5 114.54545" />
    <path d="M188.5 110.45455 L152.75 110.45455" />
    <path d="M152.75 106.36364 L188.5 106.36364" />
    <path d="M188.5 102.27273 L152.75 102.27273" />
    <path d="M152.75 98.18182 L188.5 98.18182" />
    <path d="M188.5 94.09091 L152.75 94.09091" />
    <path d="M152.75 90 L188.5 90" />
    <path d="M188.5 85.90909 L152.75 85.90909" />
    <path d="M152.75 81.81818 L188.5 81.81818" />
    <path d="M188.5 77.72727 L152.75 77.72727" />
    <path d="M152.75 73.63636 L188.5 73.63636" />
    <path d="M188.5 69.54545 L152.75 69.54545" />
    <path d="M152.75 65.45455 L188.5 65.45455" />
    <path d="M188.5 61.36364 L152.75 61.36364" />
    <path d="M152.75 57.27273 L188.5 57.27273" />
    <path d="M214.5 57.27273 L250.25 57.27273" />
    <path d="M250.25 61.36364 L214.5 61.36364" />
    <path d="M214.5 65.45455 L250.25 65.45455" />
    <path d="M250.25 73.63636 L214.5 73.63636" />
    <path d="M214.5 77.72727 L250.25 77.72727" />
    <path d="M250.25 85.90909 L214.5 85.90909" />
    <path d="M214.5 90 L250.25 90" />
    <path d="M250.25 94.09091 L214.5 94.09091" />
    <path d="M214.5 98.18182 L250.25 98.18182" />
    <path d="M250.25 102.27273 L214.5 102.27273" />
    <path d="M214.5 106.36364 L250.25 106.36364" />
    <path d="M250.25 114.54545 L214.5 114.54545" />
    <path d="M214.5 110.45455 L250.25 110.45455" />
    <path d="M250.25 122.72727 L214.5 122.72727" />
    <path d="M214.5 118.63636 L250.25 118.63636" />
    <path d="M250.25 130.90909 L214.5 130.90909" />
    <path d="M214.5 126.81818 L250.25 126.81818" />
    <path d="M250.25 139.09091 L214.5 139.09091" />
    <path d="M214.5 135 L250.25 135" />
    <path d="M250.25 147.27273 L214.5 147.27273" />
    <path d="M214.5 151.36364 L250.25 151.36364" />
    <path d="M250.25 159.54545 L214.5 159.54545" />
    <path d="M214.5 155.45455 L250.25 155.45455" />
    <path d="M250.25 167.72727 L214.5 167.72727" />
    <path d="M214.5 163.63636 L250.25 163.63636" />
    <path d="M250.25 175.90909 L214.5 175.90909" />
    <path d="M214.5 171.81818 L250.25 171.81818" />
    <path d="M250.25 184.09091 L214.5 184.09091" />
    <path d="M214.5 180 L250.25 180" />
    <path d="M250.25 192.27273 L214.5 192.27273" />
    <path d="M214.5 188.18182 L250.25 188.18182" />
    <path d="M250.25 200.45455 L214.5 200.45455" />
    <path d="M214.5 196.36364 L250.25 196.36364" />
    <path d="M250.25 208.63636 L214.5 208.63636" />
    <path d="M214.5 204.54545 L250.25 204.54545" />
    <path d="M250.25 216.81818 L214.5 216.81818" />
    <path d="M214.5 212.72727 L250.25 212.72727" />
    <path d="M250.25 225 L214.5 225" />
    <path d="M214.5 220.90909 L250.25 220.90909" />
    <path d="M250.25 233.18182 L214.5 233.18182" />
    <path d="M214.5 229.09091 L250.25 229.09091" />
    <path d="M250.25 241.36364 L214.5 241.36364" />
    <path d="M214.5 237.27273 L250.25 237.27273" />
    <path d="M250.25 249.54545 L214.5 249.54545" />
    <path d="M214.5 253.63636 L250.25 253.63636" />
    <path d="M250.25 261.81818 L214.5 261.81818" />
    <path d="M214.5 257.72727 L250.25 257.72727" />
    <path d="M250.25 270 L214.5 270" />
    <path d="M214.5 265.90909 L250.25 265.90909" />
    <path d="M250.25 278.18182 L214.5 278.18182" />
    <path d="M214.5 274.09091 L250.25 274.09091" />
    <path d="M250.25 286.36364 L214.5 286.36364" />
    <path d="M214.5 282.27273 L250.25 282.27273" />
    <path d="M250.25 294.54545 L214.5 294.54545" />
    <path d="M214.5 298.63636 L250.25 298.63636" />
    <path d="M250.25 306.81818 L214.5 306.81818" />
    <path d="M214.5 302.72727 L250.25 302.72727" />
    <path d="M250.25 315 L214.5 315" />
    <path d="M214.5 310.90909 L250.25 310.90909" />
    <path d="M250.25 323.18182 L214.5 323.18182" />
    <path d="M214.5 319.09091 L250.25 319.09091" />
    <path d="M250.25 331.36364 L214.5 331.36364" />
    <path d="M214.5 327.27273 L250.25 327.27273" />
    <path d="M250.25 339.54545 L214.5 339.54545" />
    <path d="M214.5 343.63636 L250.25 343.63636" />
    <path d="M250.25 351.81818 L214.5 351.81818" />
    <path d="M214.5 347.72727 L250.25 347.72727" />
    <path d="M250.25 360 L214.5 360" />
    <path d="M214.5 355.90909 L250.25 355.90909" />
    <path d="M250.25 368.18182 L214.5 368.18182" />
    <path d="M214.5 364.09091 L250.25 364.09091" />
    <path d="M250.25 376.36364 L214.5 376.36364" />
    <path d="M214.5 372.27273 L250.25 372.27273" />
    <path d="M250.25 384.54545 L214.5 384.54545" />
    <path d="M214.5 380.45455 L250.25 380.45455" />
    <path d="M250.25 392.72727 L214.5 392.72727" />
    <path d="M214.5 388.63636 L250.25 388.63636" />
    <path d="M276.25 388.63636 L312 388.63636" />
    <path d="M312 392.72727 L276.25 392.72727" />
    <path d="M276.25 384.54545 L312 384.54545" />
    <path d="M312 380.45455 L276.25 380.45455" />
    <path d="M276.25 376.36364 L312 376.36364" />
    <path d="M312 372.27273 L276.25 372.27273" />
    <path d="M276.25 368.18182 L312 368.18182" />
    <path d="M312 364.09091 L276.25 364.09091" />
    <path d="M276.25 360 L312 360" />
    <path d="M312 355.90909 L276.25 355.90909" />
    <path d="M276.25 351.81818 L312 351.81818" />
    <path d="M312 347.72727 L276.25 347.72727" />
    <path d="M276.25 343.63636 L312 343.63636" />
    <path d="M312 339.54545 L276.25 339.54545" />
    <path d="M276.25 335.45455 L312 335.45455" />
    <path d="M312 331.36364 L276.25 331.36364" />
    <path d="M276.25 327.27273 L312 327.27273" />
    <path d="M312 323.18182 L276.25 323.18182" />
    <path d="M276.25 319.09091 L312 319.09091" />
    <path d="M312 315 L276.25 315" />
    <path d="M276.25 310.90909 L312 310.90909" />
    <path d="M312 306.81818 L276.25 306.81818" />
    <path d="M276.25 302.72727 L312 302.72727" />
    <path d="M312 298.63636 L276.25 298.63636" />
    <path d="M276.25 294.54545 L312 294.54545" />
    <path d="M312 290.45455 L276.25 290.45455" />
    <path d="M276.25 286.36364 L312 286.36364" />
    <path d="M312 282.27273 L276.25 282.27273" />
    <path d="M276.25 278.18182 L312 278.18182" />
    <path d="M312 274.09091 L276.25 274.09091" />
    <path d="M276.25 270 L312 270" />
    <path d="M312 265.90909 L276.25 265.90909" />
    <path d="M276.25 261.81818 L312 261.81818" />
    <path d="M312 257.72727 L276.25 257.72727" />
    <path d="M276.25 253.63636 L312 253.63636" />
    <path d="M312 249.54545 L276.25 249.54545" />
    <path d="M276.25 245.45455 L312 245.45455" />
    <path d="M312 241.36364 L276.25 241.36364" />
    <path d="M276.25 237.27273 L312 237.27273" />
    <path d="M312 233.18182 L276.25 233.18182" />
    <path d="M276.25 229.09091 L312 229.09091" />
    <path d="M312 225 L276.25 225" />
    <path d="M276.25 220.90909 L312 220.90909" />
    <path d="M312 216.81818 L276.25 216.81818" />
    <path d="M276.25 212.72727 L312 212.72727" />
    <path d="M312 208.63636 L276.25 208.63636" />
    <path d="M276.25 204.54545 L312 204.54545" />
    <path d="M312 200.45455 L276.25 200.45455" />
    <path d="M276.25 196.36364 L312 196.36364" />
    <path d="M312 192.27273 L276.25 192.27273" />
    <path d="M276.25 188.18182 L312 188.18182" />
    <path d="M312 184.09091 L276.25 184.09091" />
    <path d="M276.25 180 L312 180" />
    <path d="M312 175.90909 L276.25 175.90909" />
    <path d="M276.25 171.81818 L312 171.81818" />
    <path d="M312 167.72727 L276.25 167.72727" />
    <path d="M276.25 163.63636 L312 163.63636" />
    <path d="M312 159.54545 L276.25 159.54545" />
    <path d="M276.25 155.45455 L312 155.45455" />
    <path d="M312 151.36364 L276.25 151.36364" />
    <path d="M276.25 147.27273 L312 147.27273" />
    <path d="M312 143.18182 L276.25 143.18182" />
    <path d="M276.25 139.09091 L312 139.09091" />
    <path d="M312 135 L276.25 135" />
    <path d="M276.25 130.90909 L312 130.90909" />
    <path d="M312 126.81818 L276.25 126.81818" />
    <path d="M276.25 122.72727 L312 122.72727" />
    <path d="M312 118.63636 L276.25 118.63636" />
    <path d="M276.25 114.54545 L312 114.54545" />
    <path d="M312 110.45455 L276.25 110.45455" />
    <path d="M276.25 106.36364 L312 106.36364" />
    <path d="M312 102.27273 L276.25 102.27273" />
    <path d="M276.25 98.18182 L312 98.18182" />
    <path d="M312 94.09091 L276.25 94.09091" />
    <path d="M276.25 90 L312 90" />
    <path d="M312 85.90909 L276.25 85.90909" />
    <path d="M276.25 81.81818 L312 81.81818" />
    <path d="M338 81.81818 L373.75 81.81818" />
    <path d="M373.75 85.90909 L338 85.90909" />
    <path d="M338 90 L373.75 90" />
    <path d="M373.75 98.18182 L338 98.18182" />
    <path d="M338 94.09091 L373.75 94.09091" />
    <path d="M373.75 106.36364 L338 106.36364" />
    <path d="M338 102.27273 L373.75 102.27273" />
    <path d="M373.75 110.45455 L338 110.45455" />
    <path d="M338 114.54545 L373.75 114.54545" />
    <path d="M373.75 122.72727 L338 122.72727" />
    <path d="M338 118.63636 L373.75 118.63636" />
    <path d="M373.75 130.90909 L338 130.90909" />
    <path d="M338 126.81818 L373.75 126.81818" />
    <path d="M373.75 139.09091 L338 139.09091" />
    <path d="M338 135 L373.75 135" />
    <path d="M373.75 147.27273 L338 147.27273" />
    <path d="M338 151.36364 L373.75 151.36364" />
    <path d="M373.75 159.54545 L338 159.54545" />
    <path d="M338 155.45455 L373.75 155.45455" />
    <path d="M373.75 167.72727 L338 167.72727" />
    <path d="M338 163.63636 L373.75 163.63636" />
    <path d="M373.75 175.90909 L338 175.90909" />
    <path d="M338 171.81818 L373.75 171.81818" />
    <path d="M373.75 184.09091 L338 184.09091" />
    <path d="M338 180 L373.75 180" />
    <path d="M373.75 192.27273 L338 192.27273" />
    <path d="M338 188.18182 L373.75 188.18182" />
    <path d="M373.75 200.45455 L338 200.45455" />
    <path d="M338 196.36364 L373.75 196.36364" />
    <path d="M373.75 208.63636 L338 208.63636" />
    <path d="M338 204.54545 L373.75 204.54545" />
    <path d="M373.75 216.81818 L338 216.81818" />
    <path d="M338 212.72727 L373.75 212.72727" />
    <path d="M373.75 225 L338 225" />
    <path d="M338 220.90909 L373.75 220.90909" />
    <path d="M373.75 233.18182 L338 233.18182" />
    <path d="M338 229.09091 L373.75 229.09091" />
    <path d="M373.75 241.36364 L338 241.36364" />
    <path d="M338 237.27273 L373.75 237.27273" />
    <path d="M373.75 249.54545 L338 249.54545" />
    <path d="M338 253.63636 L373.75 253.63636" />
    <path d="M373.75 261.81818 L338 261.81818" />
    <path d="M338 257.72727 L373.75 257.72727" />
    <path d="M373.75 270 L338 270" />
    <path d="M338 265.90909 L373.75 265.90909" />
    <path d="M373.75 278.18182 L338 278.18182" />
    <path d="M338 274.09091 L373.75 274.09091" />
    <path d="M373.75 286.36364 L338 286.36364" />
    <path d="M338 282.27273 L373.75 282.27273" />
    <path d="M373.75 294.54545 L338 294.54545" />
    <path d="M338 298.63636 L373.75 298.63636" />
    <path d="M373.75 306.81818 L338 306.81818" />
    <path d="M338 302.72727 L373.75 302.72727" />
    <path d="M373.75 315 L338 315" />
    <path d="M338 310.90909 L373.75 310.90909" />
    <path d="M373.75 323.18182 L338 323.18182" />
    <path d="M338 319.09091 L373.75 319.09091" />
    <path d="M373.75 331.36364 L338 331.36364" />
    <path d="M338 327.27273 L373.75 327.27273" />
    <path d="M373.75 339.54545 L338 339.54545" />
    <path d="M338 343.63636 L373.75 343.63636" />
    <path d="M373.75 351.81818 L338 351.81818" />
    <path d="M338 347.72727 L373.75 347.72727" />
    <path d="M373.75 360 L338 360" />
    <path d="M338 355.90909 L373.75 355.90909" />
    <path d="M373.75 368.18182 L338 368.18182" />
    <path d="M338 364.09091 L373.75 364.09091" />
    <path d="M373.75 376.36364 L338 376.36364" />
    <path d="M338 372.27273 L373.75 372.27273" />
    <path d="M373.75 384.54545 L338 384.54545" />
    <path d="M338 380.45455 L373.75 380.45455" />
    <path d="M373.75 392.72727 L338 392.72727" />
    <path d="M338 388.63636 L373.75 388.63636" />
    <path d="M399.75 388.63636 L435.5 388.63636" />
    <path d="M435.5 392.72727 L399.75 392.72727" />
    <path d="M399.75 384.54545 L435.5 384.54545" />
    <path d="M435.5 380.45455 L399.75 380.45455" />
    <path d="M399.75 376.36364 L435.5 376.36364" />
    <path d="M435.5 372.27273 L399.75 372.27273" />
    <path d="M399.75 368.18182 L435.5 368.18182" />
    <path d="M435.5 364.09091 L399.75 364.09091" />
    <path d="M399.75 360 L435.5 360" />
    <path d="M435.5 355.90909 L399.75 355.90909" />
    <path d="M399.75 351.81818 L435.5 351.81818" />
    <path d="M435.5 347.72727 L399.75 347.72727" />
    <path d="M399.75 343.63636 L435.5 343.63636" />
    <path d="M435.5 339.54545 L399.75 339.54545" />
    <path d="M399.75 335.45455 L435.5 335.45455" />
    <path d="M435.5 331.36364 L399.75 331.36364" />
    <path d="M399.75 327.27273 L435.5 327.27273" />
    <path d="M435.5 323.18182 L399.75 323.18182" />
    <path d="M399.75 319.09091 L435.5 319.09091" />
    <path d="M435.5 315 L399.75 315" />
    <path d="M399.75 310.90909 L435.5 310.90909" />
    <path d="M435.5 306.81818 L399.75 306.81818" />
    <path d="M399.75 302.72727 L435.5 302.72727" />
    <path d="M435.5 298.63636 L399.75 298.63636" />
    <path d="M399.75 294.54545 L435.5 294.54545" />
    <path d="M435.5 290.45455 L399.75 290.45455" />
    <path d="M399.75 286.36364 L435.5 286.36364" />
    <path d="M435.5 282.27273 L399.75 282.27273" />
    <path d="M399.75 278.18182 L435.5 278.18182" />
    <path d="M435.5 274.09091 L399.75 274.09091" />
    <path d="M399.75 270 L435.5 270" />
    <path d="M435.5 265.90909 L399.75 265.90909" />
    <path d="M399.75 261.81818 L435.5 261.81818" />
    <path d="M435.5 257.72727 L399.75 257.72727" />
    <path d="M399.75 253.63636 L435.5 253.63636" />
    <path d="M435.5 249.54545 L399.75 249.54545" />
    <path d="M399.75 245.45455 L435.5 245.45455" />
    <path d="M435.5 241.36364 L399.75 241.36364" />
    <path d="M399.75 237.27273 L435.5 237.27273" />
    <path d="M435.5 233.18182 L399.75 233.18182" />
    <path d="M399.75 229.09091 L435.5 229.09091" />
    <path d="M435.5 225 L399.75 225" />
    <path d="M399.75 220.90909 L435.5 220.90909" />
    <path d="M435.5 216.81818 L399.75 216.81818" />
    <path d="M399.75 212.72727 L435.5 212.72727" />
    <path d="M435.5 208.63636 L399.75 208.63636" />
    <path d="M399.75 204.54545 L435.5 204.54545" />
    <path d="M435.5 200.45455 L399.75 200.45455" />
    <path d="M399.75 196.36364 L435.5 196.36364" />
    <path d="M435.5 192.27273 L399.75 192.27273" />
    <path d="M399.75 188.18182 L435.5 188.18182" />
    <path d="M435.5 184.09091 L399.75 184.09091" />
    <path d="M399.75 180 L435.5 180" />
    <path d="M435.5 175.90909 L399.75 175.90909" />
    <path d="M399.75 171.81818 L435.5 171.81818" />
    <path d="M435.5 167.72727 L399.75 167.72727" />
    <path d="M399.75 163.63636 L435.5 163.63636" />
    <path d="M435.5 159.54545 L399.75 159.54545" />
    <path d="M399.75 155.45455 L435.5 155.45455" />
    <path d="M435.5 151.36364 L399.75 151.36364" />
    <path d="M399.75 147.27273 L435.5 147.27273" />
    <path d="M435.5 143.18182 L399.75 143.18182" />
    <path d="M399.75 139.09091 L435.5 139.09091" />
    <path d="M435.5 135 L399.75 135" />
    <path d="M399.75 130.90909 L435.5 130.90909" />
    <path d="M435.5 126.81818 L399.75 126.81818" />
    <path d="M399.75 122.72727 L435.5 122.72727" />
    <path d="M435.5 118.63636 L399.75 118.63636" />
    <path d="M399.75 114.54545 L435.5 114.54545" />
    <path d="M435.5 110.45455 L399.75 110.45455" />
    <path d="M399.75 106.36364 L435.5 106.36364" />
    <path d="M435.5 102.27273 L399.75 102.27273" />
    <path d="M399.75 98.18182 L435.5 98.18182" />
    <path d="M435.5 94.09091 L399.75 94.09091" />
    <path d="M399.75 90 L435.5 90" />
    <path d="M435.5 85.90909 L399.75 85.90909" />
    <path d="M399.75 81.81818 L435.5 81.81818" />
    <path d="M461.5 81.81818 L497.25 81.81818" />
    <path d="M497.25 85.90909 L461.5 85.90909" />
    <path d="M461.5 90 L497.25 90" />
    <path d="M497.25 98.18182 L461.5 98.18182" />
    <path d="M461.5 94.09091 L497.25 94.09091" />
    <path d="M497.25 106.36364 L461.5 106.36364" />
    <path d="M461.5 102.27273 L497.25 102.27273" />
    <path d="M497.25 110.45455 L461.5 110.45455" />
    <path d="M461.5 114.54545 L497.25 114.54545" />
    <path d="M497.25 122.72727 L461.5 122.72727" />
    <path d="M461.5 118.63636 L497.25 118.63636" />
    <path d="M497.25 130.90909 L461.5 130.90909" />
    <path d="M461.5 126.81818 L497.25 126.81818" />
    <path d="M497.25 139.09091 L461.5 139.09091" />
    <path d="M461.5 135 L497.25 135" />
    <path d="M497.25 147.27273 L461.5 147.27273" />
    <path d="M461.5 151.36364 L497.25 151.36364" />
    <path d="M497.25 159.54545 L461.5 159.54545" />
    <path d="M461.5 155.45455 L497.25 155.45455" />
    <path d="M497.25 167.72727 L461.5 167.72727" />
    <path d="M461.5 163.63636 L497.25 163.63636" />
    <path d="M497.25 175.90909 L461.5 175.90909" />
    <path d="M461.5 171.81818 L497.25 171.81818" />
    <path d="M497.25 184.09091 L461.5 184.09091" />
    <path d="M461.5 180 L497.25 180" />
    <path d="M497.25 192.27273 L461.5 192.27273" />
    <path d="M461.5 188.18182 L497.25 188.18182" />
    <path d="M497.25 200.45455 L461.5 200.45455" />
    <path d="M461.5 196.36364 L497.25 196.36364" />
    <path d="M497.25 208.63636 L461.5 208.63636" />
    <path d="M461.5 204.54545 L497.25 204.54545" />
    <path d="M497.25 216.81818 L461.5 216.81818" />
    <path d="M461.5 212.72727 L497.25 212.72727" />
    <path d="M497.25 225 L461.5 225" />
    <path d="M461.5 220.90909 L497.25 220.90909" />
    <path d="M497.25 233.18182 L461.5 233.18182" />
    <path d="M461.5 229.09091 L497.25 229.09091" />
    <path d="M497.25 241.36364 L461.5 241.36364" />
    <path d="M461.5 237.27273 L497.25 237.27273" />
    <path d="M497.25 249.54545 L461.5 249.54545" />
    <path d="M461.5 253.63636 L497.25 253.63636" />
    <path d="M497.25 261.81818 L461.5 261.81818" />
    <path d="M461.5 257.72727 L497.25 257.72727" />
    <path d="M497.25 270 L461.5 270" />
    <path d="M461.5 265.90909 L497.25 265.90909" />
    <path d="M497.25 278.18182 L461.5 278.18182" />
    <path d="M461.5 274.09091 L497.25 274.09091" />
    <path d="M497.25 286.36364 L461.5 286.36364" />
    <path d="M461.5 282.27273 L497.25 282.27273" />
    <path d="M497.25 294.54545 L461.5 294.54545" />
    <path d="M461.5 298.63636 L497.25 298.63636" />
    <path d="M497.25 306.81818 L461.5 306.81818" />
    <path d="M461.5 302.72727 L497.25 302.72727" />
    <path d="M497.25 315 L461.5 315" />
    <path d="M461.5 310.90909 L497.25 310.90909" />
    <path d="M497.25 323.18182 L461.5 323.18182" />
    <path d="M461.5 319.09091 L497.25 319.09091" />
    <path d="M497.25 331.36364 L461.5 331.36364" />
    <path d="M461.5 327.27273 L497.25 327.27273" />
    <path d="M497.25 339.54545 L461.5 339.54545" />
    <path d="M461.5 343.63636 L497.25 343.63636" />
    <path d="M497.25 351.81818 L461.5 351.81818" />
    <path d="M461.5 347.72727 L497.25 347.72727" />
    <path d="M497.25 360 L461.5 360" />
    <path d="M461.5 355.90909 L497.25 355.90909" />
    <path d="M497.25 368.18182 L461.5 368.18182" />
    <path d="M461.5 364.09091 L497.25 364.09091" />
    <path d="M497.25 376.36364 L461.5 376.36364" />
    <path d="M461.5 372.27273 L497.25 372.27273" />
    <path d="M497.25 384.54545 L461.5 384.54545" />
    <path d="M461.5 380.45455 L497.25 380.45455" />
    <path d="M497.25 392.72727 L461.5 392.72727" />
    <path d="M461.5 388.63636 L497.25 388.63636" />
    <path d="M523.25 388.63636 L559 388.63636" />
    <path d="M559 392.72727 L523.25 392.72727" />
    <path d="M523.25 384.54545 L559 384.54545" />
    <path d="M559 380.45455 L523.25 380.45455" />
    <path d="M523.25 376.36364 L559 376.36364" />
    <path d="M559 372.27273 L523.25 372.27273" />
    <path d="M523.25 368.18182 L559 368.18182" />
    <path d="M559 364.09091 L523.25 364.09091" />
    <path d="M523.25 360 L559 360" />
    <path d="M559 355.90909 L523.25 355.90909" />
    <path d="M523.25 351.81818 L559 351.81818" />
    <path d="M559 347.72727 L523.25 347.72727" />
    <path d="M523.25 343.63636 L559 343.63636" />
    <path d="M559 339.54545 L523.25 339.54545" />
    <path d="M523.25 335.45455 L559 335.45455" />
    <path d="M559 331.36364 L523.25 331.36364" />
    <path d="M523.25 327.27273 L559 327.27273" />
    <path d="M559 323.18182 L523.25 323.18182" />
    <path d="M523.25 319.09091 L559 319.09091" />
    <path d="M559 315 L523.25 315" />
    <path d="M523.25 310.90909 L559 310.90909" />
    <path d="M559 306.81818 L523.25 306.81818" />
    <path d="M523.25 302.72727 L559 302.72727" />
    <path d="M559 298.63636 L523.25 298.63636" />
    <path d="M523.25 294.54545 L559 294.54545" />
    <path d="M559 290.45455 L523.25 290.45455" />
    <path d="M523.25 286.36364 L559 286.36364" />
    <path d="M559 282.27273 L523.25 282.27273" />
    <path d="M523.25 278.18182 L559 278.18182" />
    <path d="M559 274.09091 L523.25 274.09091" />
    <path d="M523.25 270 L559 270" />
    <path d="M559 265.90909 L523.25 265.90909" />
    <path d="M523.25 261.81818 L559 261.81818" />
    <path d="M559 257.72727 L523.25 257.72727" />
    <path d="M523.25 253.63636 L559 253.63636" />
    <path d="M559 249.54545 L523.25 249.54545" />
    <path d="M523.25 245.45455 L559 245.45455" />
    <path d="M559 241.36364 L523.25 241.36364" />
    <path d="M523.25 237.27273 L559 237.27273" />
    <path d="M559 233.18182 L523.25 233.18182" />
    <path d="M523.25 229.09091 L559 229.09091" />
    <path d="M559 225 L523.25 225" />
    <path d="M523.25 220.90909 L559 220.90909" />
    <path d="M559 216.81818 L523.25 216.81818" />
    <path d="M523.25 212.72727 L559 212.72727" />
    <path d="M559 208.63636 L523.25 208.63636" />
    <path d="M523.25 204.54545 L559 204.54545" />
    <path d="M559 200.45455 L523.25 200.45455" />
    <path d="M523.25 196.36364 L559 196.36364" />
    <path d="M559 192.27273 L523.25 192.27273" />
    <path d="M523.25 188.18182 L559 188.18182" />
    <path d="M559 184.09091 L523.25 184.09091" />
    <path d="M523.25 180 L559 180" />
    <path d="M559 175.90909 L523.25 175.90909" />
    <path d="M523.25 171.81818 L559 171.81818" />
    <path d="M559 167.72727 L523.25 167.72727" />
    <path d="M523.25 163.63636 L559 163.63636" />
    <path d="M559 159.54545 L523.25 159.54545" />
    <path d="M523.25 155.45455 L559 155.45455" />
    <path d="M559 151.36364 L523.25 151.36364" />
    <path d="M523.25 147.27273 L559 147.27273" />
    <path d="M559 143.18182 L523.25 143.18182" />
    <path d="M523.25 139.09091 L559 139.09091" />
    <path d="M559 135 L523.25 135" />
    <path d="M523.25 130.90909 L559 130.90909" />
    <path d="M559 126.81818 L523.25 126.81818" />
    <path d="M523.25 122.72727 L559 122.72727" />
    <path d="M559 118.63636 L523.25 118.63636" />
    <path d="M523.25 114.54545 L559 114.54545" />
    <path d="M559 110.45455 L523.25 110.45455" />
    <path d="M523.25 106.36364 L559 106.36364" />
    <path d="M559 102.27273 L523.25 102.27273" />
    <path d="M523.25 98.18182 L559 98.18182" />
    <path d="M559 94.09091 L523.25 94.09091" />
    <path d="M523.25 90 L559 90" />
    <path d="M559 85.90909 L523.25 85.90909" />
    <path d="M523.25 81.81818 L559 81.81818" />
    <path d="M523.25 77.72727 L559 77.72727" />
    <path d="M523.25 73.63636 L559 73.63636" />
    <path d="M559 69.54545 L523.25 69.54545" />
    <path d="M523.25 65.45455 L559 65.45455" />
    <path d="M559 61.36364 L523.25 61.36364" />
    <path d="M523.25 57.27273 L559 57.27273" />
    <path d="M523.25 53.18182 L559 53.18182" />
    <path d="M523.25 49.09091 L559 49.09091" />
    <path d="M523.25 45 L559 45" />
    <path d="M523.25 40.90909 L559 40.90909" />
    <path d="M523.25 36.81818 L559 36.81818" />
    <path d="M523.25 32.72727 L559 32.72727" />
    <path d="M523.25 28.63636 L559 28.63636" />
    <path d="M523.25 24.54545 L559 24.54545" />
    <path d="M523.25 20.45455 L559 20.45455" />
    <path d="M523.25 16.36364 L559 16.36364" />
    <path d="M523.25 12.27273 L559 12.27273" />
    <path d="M497.25 16.36364 L461.5 16.36364" />
    <path d="M461.5 20.45455 L497.25 20.45455" />
    <path d="M497.25 28.63636 L461.5 28.63636" />
    <path d="M461.5 24.54545 L497.25 24.54545" />
    <path d="M497.25 36.81818 L461.5 36.81818" />
    <path d="M461.5 40.90909 L497.25 40.90909" />
    <path d="M497.25 49.09091 L461.5 49.09091" />
    <path d="M461.5 45 L497.25 45" />
    <path d="M497.25 57.27273 L461.5 57.27273" />
    <path d="M461.5 53.18182 L497.25 53.18182" />
    <path d="M497.25 65.45455 L461.5 65.45455" />
    <path d="M461.5 69.54545 L497.25 69.54545" />
    <path d="M497.25 77.72727 L461.5 77.72727" />
    <path d="M461.5 73.63636 L497.25 73.63636" />
    <path d="M461.5 61.36364 L497.25 61.36364" />
    <path d="M461.5 32.72727 L497.25 32.72727" />
    <path d="M461.5 12.27273 L497.25 12.27273" />
    <path d="M435.5 16.36364 L399.75 16.36364" />
    <path d="M399.75 20.45455 L435.5 20.45455" />
    <path d="M435.5 28.63636 L399.75 28.63636" />
    <path d="M399.75 24.54545 L435.5 24.54545" />
    <path d="M435.5 36.81818 L399.75 36.81818" />
    <path d="M399.75 40.90909 L435.5 40.90909" />
    <path d="M435.5 49.09091 L399.75 49.09091" />
    <path d="M399.75 45 L435.5 45" />
    <path d="M435.5 57.27273 L399.75 57.27273" />
    <path d="M399.75 53.18182 L435.5 53.18182" />
    <path d="M435.5 65.45455 L399.75 65.45455" />
    <path d="M399.75 69.54545 L435.5 69.54545" />
    <path d="M435.5 77.72727 L399.75 77.72727" />
    <path d="M399.75 73.63636 L435.5 73.63636" />
    <path d="M399.75 61.36364 L435.5 61.36364" />
    <path d="M399.75 32.72727 L435.5 32.72727" />
    <path d="M399.75 12.27273 L435.5 12.27273" />
    <path d="M373.75 16.36364 L338 16.36364" />
    <path d="M338 20.45455 L373.75 20.45455" />
    <path d="M373.75 28.63636 L338 28.63636" />
    <path d="M338 24.54545 L373.75 24.54545" />
    <path d="M373.75 36.81818 L338 36.81818" />
    <path d="M338 40.90909 L373.75 40.90909" />
    <path d="M373.75 49.09091 L338 49.09091" />
    <path d="M338 45 L373.75 45" />
    <path d="M373.75 57.27273 L338 57.27273" />
    <path d="M338 53.18182 L373.75 53.18182" />
    <path d="M373.75 65.45455 L338 65.45455" />
    <path d="M338 69.54545 L373.75 69.54545" />
    <path d="M373.75 77.72727 L338 77.72727" />
    <path d="M338 73.63636 L373.75 73.63636" />
    <path d="M338 61.36364 L373.75 61.36364" />
    <path d="M338 32.72727 L373.75 32.72727" />
    <path d="M338 12.27273 L373.75 12.27273" />
    <path d="M312 16.36364 L276.25 16.36364" />
    <path d="M276.25 20.45455 L312 20.45455" />
    <path d="M312 28.63636 L276.25 28.63636" />
    <path d="M276.25 24.54545 L312 24.54545" />
    <path d="M312 36.81818 L276.25 36.81818" />
    <path d="M276.25 40.90909 L312 40.90909" />
    <path d="M312 49.09091 L276.25 49.09091" />
    <path d="M276.25 45 L312 45" />
    <path d="M312 57.27273 L276.25 57.27273" />
    <path d="M276.25 53.18182 L312 53.18182" />
    <path d="M312 65.45455 L276.25 65.45455" />
    <path d="M276.25 69.54545 L312 69.54545" />
    <path d="M312 77.72727 L276.25 77.72727" />
    <path d="M276.25 73.63636 L312 73.63636" />
    <path d="M276.25 61.36364 L312 61.36364" />
    <path d="M276.25 32.72727 L312 32.72727" />
    <path d="M276.25 12.27273 L312 12.27273" />
    <path d="M250.25 16.36364 L214.5 16.36364" />
    <path d="M214.5 20.45455 L250.25 20.45455" />
    <path d="M250.25 28.63636 L214.5 28.63636" />
    <path d="M214.5 24.54545 L250.25 24.54545" />
    <path d="M250.25 36.81818 L214.5 36.81818" />
    <path d="M214.5 40.90909 L250.25 40.90909" />
    <path d="M250.25 49.09091 L214.5 49.09091" />
    <path d="M214.5 45 L250.25 45" />
    <path d="M250.25 69.54545 L214.5 69.54545" />
    <path d="M214.5 81.81818 L250.25 81.81818" />
    <path d="M214.5 53.18182 L250.25 53.18182" />
    <path d="M214.5 32.72727 L250.25 32.72727" />
    <path d="M214.5 12.27273 L250.25 12.27273" />
    <path d="M188.5 16.36364 L152.75 16.36364" />
    <path d="M152.75 20.45455 L188.5 20.45455" />
    <path d="M188.5 28.63636 L152.75 28.63636" />
    <path d="M152.75 24.54545 L188.5 24.54545" />
    <path d="M188.5 36.81818 L152.75 36.81818" />
    <path d="M152.75 40.90909 L188.5 40.90909" />
    <path d="M188.5 49.09091 L152.75 49.09091" />
    <path d="M152.75 45 L188.5 45" />
    <path d="M152.75 53.18182 L188.5 53.18182" />
    <path d="M152.75 32.72727 L188.5 32.72727" />
    <path d="M152.75 12.27273 L188.5 12.27273" />
    <path d="M126.75 12.27273 L91 12.27273" />
    <path d="M91 16.36364 L126.75 16.36364" />
    <path d="M126.75 20.45455 L91 20.45455" />
    <path d="M91 24.54545 L126.75 24.54545" />
    <path d="M126.75 28.63636 L91 28.63636" />
    <path d="M91 32.72727 L126.75 32.72727" />
    <path d="M126.75 36.81818 L91 36.81818" />
    <path d="M91 40.90909 L126.75 40.90909" />
    <path d="M126.75 45 L91 45" />
    <path d="M91 49.09091 L126.75 49.09091" />
    <path d="M126.75 53.18182 L91 53.18182" />
    <path d="M91 57.27273 L126.75 57.27273" />
    <path d="M126.75 61.36364 L91 61.36364" />
    <path d="M91 65.45455 L126.75 65.45455" />
    <path d="M126.75 69.54545 L91 69.54545" />
    <path d="M91 73.63636 L126.75 73.63636" />
    <path d="M126.75 77.72727 L91 77.72727" />
    <path d="M91 81.81818 L126.75 81.81818" />
    <path d="M126.75 85.90909 L91 85.90909" />
    <path d="M91 90 L126.75 90" />
    <path d="M126.75 94.09091 L91 94.09091" />
    <path d="M91 98.18182 L126.75 98.18182" />
    <path d="M126.75 102.27273 L91 102.27273" />
    <path d="M91 106.36364 L126.75 106.36364" />
    <path d="M126.75 110.45455 L91 110.45455" />
    <path d="M91 114.54545 L126.75 114.54545" />
    <path d="M126.75 118.63636 L91 118.63636" />
    <path d="M91 122.72727 L126.75 122.72727" />
    <path d="M126.75 126.81818 L91 126.81818" />
    <path d="M91 130.90909 L126.75 130.90909" />
    <path d="M126.75 135 L91 135" />
    <path d="M91 139.09091 L126.75 139.09091" />
    <path d="M126.75 143.18182 L91 143.18182" />
    <path d="M91 147.27273 L126.75 147.27273" />
    <path d="M126.75 151.36364 L91 151.36364" />
    <path d="M91 155.45455 L126.75 155.45455" />
    <path d="M126.75 159.54545 L91 159.54545" />
    <path d="M91 163.63636 L126.75 163.63636" />
    <path d="M126.75 167.72727 L91 167.72727" />
    <path d="M91 171.81818 L126.75 171.81818" />
    <path d="M126.75 175.90909 L91 175.90909" />
    <path d="M91 180 L126.75 180" />
    <path d="M126.75 184.09091 L91 184.09091" />
    <path d="M91 188.18182 L126.75 188.18182" />
    <path d="M126.75 192.27273 L91 192.27273" />
    <path d="M91 196.36364 L126.75 196.36364" />
    <path d="M126.75 200.45455 L91 200.45455" />
    <path d="M91 204.54545 L126.75 204.54545" />
    <path d="M126.75 208.63636 L91 208.63636" />
    <path d="M91 212.72727 L126.75 212.72727" />
    <path d="M126.75 216.81818 L91 216.81818" />
    <path d="M91 220.90909 L126.75 220.90909" />
    <path d="M126.75 225 L91 225" />
    <path d="M91 229.09091 L126.75 229.09091" />
    <path d="M126.75 233.18182 L91 233.18182" />
    <path d="M91 237.27273 L126.75 237.27273" />
    <path d="M126.75 241.36364 L91 241.36364" />
    <path d="M91 245.45455 L126.75 245.45455" />
    <path d="M126.75 249.54545 L91 249.54545" />
    <path d="M91 253.63636 L126.75 253.63636" />
    <path d="M126.75 257.72727 L91 257.72727" />
    <path d="M91 261.81818 L126.75 261.81818" />
    <path d="M126.75 265.90909 L91 265.90909" />
    <path d="M91 270 L126.75 270" />
    <path d="M126.75 274.09091 L91 274.09091" />
    <path d="M91 278.18182 L126.75 278.18182" />
    <path d="M126.75 282.27273 L91 282.27273" />
    <path d="M91 286.36364 L126.75 286.36364" />
    <path d="M126.75 290.45455 L91 290.45455" />
    <path d="M91 294.54545 L126.75 294.54545" />
    <path d="M126.75 298.63636 L91 298.63636" />
    <path d="M91 302.72727 L126.75 302.72727" />
    <path d="M126.75 306.81818 L91 306.81818" />
    <path d="M91 310.90909 L126.75 310.90909" />
    <path d="M126.75 315 L91 315" />
    <path d="M91 319.09091 L126.75 319.09091" />
    <path d="M126.75 323.18182 L91 323.18182" />
    <path d="M91 327.27273 L126.75 327.27273" />
    <path d="M126.75 331.36364 L91 331.36364" />
    <path d="M91 335.45455 L126.75 335.45455" />
    <path d="M126.75 339.54545 L91 339.54545" />
    <path d="M91 343.63636 L126.75 343.63636" />
    <path d="M126.75 347.72727 L91 347.72727" />
    <path d="M91 351.81818 L126.75 351.81818" />
    <path d="M126.75 355.90909 L91 355.90909" />
    <path d="M91 360 L126.75 360" />
    <path d="M126.75 364.09091 L91 364.09091" />
    <path d="M91 368.18182 L126.75 368.18182" />
    <path d="M126.75 372.27273 L91 372.27273" />
    <path d="M91 376.36364 L126.75 376.36364" />
    <path d="M126.75 380.45455 L91 380.45455" />
    <path d="M91 384.54545 L126.75 384.54545" />
    <path d="M126.75 388.63636 L91 388.63636" />
    <path d="M214.5 335.45455 L250.25 335.45455" />
    <path d="M214.5 290.45455 L250.25 290.45455" />
    <path d="M214.5 245.45455 L250.25 245.45455" />
    <path d="M338 245.45455 L373.75 245.45455" />
    <path d="M338 290.45455 L373.75 290.45455" />
    <path d="M338 335.45455 L373.75 335.45455" />
    <path d="M461.5 335.45455 L497.25 335.45455" />
    <path d="M461.5 290.45455 L497.25 290.45455" />
    <path d="M461.5 245.45455 L497.25 245.45455" />
    <path d="M461.5 143.18182 L497.25 143.18182" />
    <path d="M338 143.18182 L373.75 143.18182" />
    <path d="M250.25 143.18182 L214.5 143.18182" />
  </g>
</svg>