<?xml version="1.0" standalone="no"?>
<!DOCTYPE svg PUBLIC "-//W3C//DTD SVG 1.1//EN" 
    "http://www.w3.org/Graphics/SVG/1.1/DTD/svg11.dtd">
<svg width="6.5in" height="4.5in"
    xmlns="http://www.w3.org/2000/svg" version="1.1" viewBox="0 0 585 405">
  <g fill="none" stroke="black" stroke-width="0.01in">
    <path d="M308.7 202.5 L308.69676 202.82398 L308.68704 203.14783 L308.67085 203.47142 L308.64819 203.79462 L308.61907 204.1173 L308.5835 204.43934 L308.54079 204.75989 L308.4869 205.07478 L308.4149 205.37691 L308.31673 205.6581 L308.18425 205.91003 L308.01074 206.12585 L307.79223 206.30142 L307.52825 206.43611 L307.2221 206.53308 L306.88082 206.59919 L306.51484 206.64471 L306.13742 206.68273 L305.76397 206.72851 L305.41126 206.79865 L305.09666 206.91034 L304.83727 207.08051 L304.64916 207.32507 L304.54673 207.65823 L304.542 208.09186 L304.64419 208.63497 L304.85926 209.29338 L305.1897 210.06938 L305.63432 210.96162 L306.1883 211.96508 L306.84325 213.07118 L307.5874 214.26801 L308.40597 215.54059 L309.28154 216.87131 L310.1945 218.24039 L311.12364 219.62642 L312.04666 221.00693 L312.9408 222.35898 L313.78333 223.65966 L314.5509 224.88542 L315.21917 226.01174 L315.76409 227.01441 L316.16313 227.8707 L316.39629 228.56041 L316.44694 229.06676 L316.30248 229.37694 L315.95478 229.48265 L315.40049 229.38037 L314.64119 229.07148 L313.68336 228.56229 L312.53839 227.86401 L311.22302 226.9932 L309.76031 225.97274 L308.17889 224.83108 L306.51154 223.60085 L304.7938 222.31737 L303.06255 221.01738 L301.35469 219.7376 L299.70586 218.5135 L298.14922 217.37806 L296.71428 216.36063 L295.42589 215.48589 L294.30337 214.773 L293.35974 214.23481 L292.60125 213.87741 L292.02711 213.69986 L291.62952 213.69418 L291.39406 213.8458 L291.30049 214.13434 L291.32406 214.53488 L291.43732 215.01982 L291.61256 215.56132 L291.82501 216.13445 L292.0564 216.72079 L292.29122 217.3047 L292.50834 217.8649 L292.68278 218.37628 L292.78889 218.81305 L292.80273 219.15114 L292.70388 219.37001 L292.47679 219.45397 L292.11154 219.39297 L291.60429 219.18306 L290.95741 218.8265 L290.17927 218.33153 L289.28385 217.71201 L288.29011 216.9868 L287.2213 216.17904 L286.10404 215.31526 L284.96743 214.42443 L283.84202 213.53703 L282.75877 212.68391 L281.748 211.8953 L280.83834 211.19973 L280.05562 210.62297 L279.42186 210.18694 L278.95423 209.90873 L278.664 209.79954 L278.55556 209.86369 L278.62608 210.09828 L278.86713 210.4948 L279.26563 211.04013 L279.80439 211.717 L280.46277 212.50473 L281.21775 213.38025 L282.0448 214.31897 L282.91884 215.29577 L283.81541 216.28615 L284.71097 217.26653 L285.58215 218.21351 L286.40612 219.10423 L287.16122 219.917 L287.82763 220.63197 L288.38831 221.2321 L288.82976 221.70386 L289.14221 222.03746 L289.31975 222.22701 L289.36041 222.27051 L289.26613 222.16989 L289.04259 221.93087 L288.69908 221.56272 L288.2481 221.07795 L287.70502 220.49195 L287.08753 219.82243 L286.41512 219.08889 L285.70838 218.31196 L284.98834 217.51268 L284.27573 216.71183 L283.59022 215.9291 L282.94968 215.1824 L282.36947 214.48714 L281.86182 213.85559 L281.43524 213.29633 L281.09418 212.81382 L280.83868 212.4082 L280.6643 212.07507 L280.5622 211.80566 L280.51962 211.58726 L280.52078 211.40418 L280.54827 211.23908 L280.58498 211.07492 L280.61665 210.89753 L280.63498 210.69868 L280.63747 210.47596 L280.62286 210.22822 L280.59023 209.95461 L280.539 209.65466 L280.46897 209.32826 L280.38027 208.97565 L280.27341 208.59744 L280.14925 208.1946 L280.00899 207.76843 L279.85408 207.32052 L279.68563 206.85208 L279.50337 206.36297 L279.30281 205.8488 L279.07499 205.30077 L278.80925 204.70832 L278.49549 204.06149 L278.12575 203.35246 L277.69534 202.57668 L277.20347 201.73347 L276.65345 200.82629 L276.05263 199.86266 L275.41211 198.8538 L274.74621 197.81419 L274.0718 196.76083 L273.40757 195.71258 L272.77325 194.68932 L272.18876 193.71112 L271.67347 192.79752 L271.24543 191.96672 L270.92073 191.23496 L270.71287 190.61592 L270.63234 190.12025 L270.68626 189.75523 L270.87814 189.52455 L271.20779 189.42818 L271.67142 189.4625 L272.26174 189.62039 L272.96835 189.89164 L273.77818 190.26333 L274.67601 190.72042 L275.64495 191.24621 L276.66685 191.82272 L277.72407 192.43249 L278.79954 193.05862 L279.87603 193.68408 L280.93586 194.29134 L281.96084 194.86242 L282.9326 195.37911 L283.83299 195.82346 L284.64469 196.17832 L285.35175 196.42793 L285.94026 196.55856 L286.39884 196.559 L286.71906 196.42103 L286.89573 196.13962 L286.92691 195.71303 L286.81381 195.14264 L286.56057 194.43278 L286.17644 193.59288 L285.6772 192.6389 L285.08347 191.59165 L284.419 190.47506 L283.70921 189.31472 L282.97986 188.13659 L282.25601 186.96589 L281.56102 185.82615 L280.91573 184.73843 L280.33785 183.72058 L279.84144 182.78685 L279.43656 181.94747 L279.12922 181.20862 L278.92151 180.57257 L278.81208 180.03814 L278.79696 179.60153 L278.87086 179.25762 L279.02894 179.00174 L279.26914 178.83198 L279.59309 178.75015 L280.00723 178.76285 L280.52299 178.88166 L281.15345 179.11983 L281.91051 179.48941 L282.80279 179.99919 L283.83418 180.65319 L285.00289 181.44979 L286.30111 182.38131 L287.71499 183.43406 L289.22506 184.58873 L290.80694 185.82105 L292.43224 187.10278 L294.0697 188.40281 L295.68648 189.68842 L297.24945 190.92662 L298.72655 192.08548 L300.08807 193.13542 L301.30792 194.05047 L302.36459 194.80924 L303.242 195.39577 L303.93004 195.80007 L304.42468 196.01822 L304.72769 196.05211 L304.84585 195.90862 L304.78946 195.59815 L304.57025 195.13253 L304.19852 194.52217 L303.68332 193.77621 L303.03685 192.90695 L302.27516 191.93051 L301.4176 190.86635 L300.48608 189.73644 L299.50429 188.56456 L298.49709 187.37565 L297.4899 186.1952 L296.5081 185.04865 L295.57636 183.96075 L294.71809 182.95496 L293.9548 182.05287 L293.30605 181.27406 L292.78971 180.63648 L292.42152 180.15591 L292.21431 179.84523 L292.17742 179.71383 L292.31628 179.76715 L292.6321 180.00644 L293.12175 180.42862 L293.77778 181.02626 L294.58861 181.7878 L295.53882 182.69783 L296.60959 183.73757 L297.77931 184.8854 L299.0242 186.11757 L300.31917 187.40896 L301.63858 188.73397 L302.95718 190.06733 L304.25092 191.38498 L305.49786 192.66498 L306.67896 193.88828 L307.77889 195.03951 L308.78655 196.10757 L309.69555 197.08605 L310.50433 197.97335 L311.21601 198.77255 L311.8378 199.49086 L312.38009 200.13859 L312.85478 200.72762 L313.27322 201.26925 L313.64326 201.77129 L313.96634 202.23511 L314.24014 202.65835 L314.46263 203.0389 L314.63242 203.37533 L314.74884 203.66689 L314.81195 203.91357 L314.8225 204.11605 L314.7815 204.27526 L314.68907 204.39125 L314.54457 204.46328 L314.34727 204.49054 L314.09681 204.4726 L313.79366 204.4098 L313.44011 204.30436 L313.04199 204.16201 L312.60824 203.99158 L312.15016 203.80426 L311.68059 203.61279 L311.21324 203.43077 L310.76209 203.27206 L310.34077 203.15017 L309.9621 203.07782 L309.63766 203.06645 L309.37741 203.12589" />
    <path d="M318.42 202.5 L318.41482 203.01837 L318.39927 203.53652 L318.37336 204.05427 L318.3371 204.57139 L318.29051 205.08768 L318.2336 205.60294 L318.16562 206.11618 L318.08213 206.62273 L317.97552 207.11474 L317.83695 207.58313 L317.65745 208.0187 L317.42965 208.41382 L317.14921 208.76391 L316.81562 209.0682 L316.43253 209.3301 L316.00771 209.5571 L315.55264 209.76042 L315.08193 209.95443 L314.61255 210.15582 L314.16298 210.38281 L313.75235 210.65424 L313.39948 210.98867 L313.1221 211.40356 L312.93606 211.91446 L312.85462 212.53439 L312.88794 213.2732 L313.04263 214.13722 L313.32143 215.12893 L313.7231 216.24677 L314.24235 217.48519 L314.86999 218.83469 L315.59311 220.2821 L316.3955 221.81089 L317.25803 223.40166 L318.15918 225.03259 L319.07563 226.68008 L319.98292 228.31936 L320.85605 229.92514 L321.67006 231.47219 L322.39931 232.93454 L323.01707 234.2852 L323.49695 235.49746 L323.81419 236.54629 L323.94685 237.40944 L323.87668 238.06838 L323.58987 238.50901 L323.07754 238.72214 L322.33605 238.70386 L321.36719 238.45566 L320.17815 237.98444 L318.7815 237.30249 L317.19571 236.42799 L315.4462 235.38609 L313.56454 234.20805 L311.58683 232.92971 L309.55221 231.58992 L307.50132 230.22905 L305.47481 228.88746 L303.51194 227.60416 L301.64924 226.41538 L299.91924 225.35339 L298.34933 224.44533 L296.96082 223.71223 L295.7681 223.16822 L294.77812 222.81998 L293.99005 222.66643 L293.39537 222.69882 L292.9783 222.90108 L292.71663 223.25079 L292.5832 223.72051 L292.54788 224.27989 L292.58024 224.89826 L292.65313 225.54823 L292.74648 226.2095 L292.84332 226.86488 L292.92045 227.49094 L292.95047 228.06007 L292.90523 228.54388 L292.75845 228.91591 L292.48776 229.15356 L292.07608 229.23956 L291.51259 229.16288 L290.79313 228.91916 L289.92036 228.5109 L288.90356 227.94716 L287.75816 227.24321 L286.5051 226.41981 L285.17001 225.5024 L283.78223 224.52017 L282.37384 223.50504 L280.9785 222.49051 L279.63034 221.51056 L278.36277 220.59845 L277.20734 219.78557 L276.19253 219.1003 L275.34264 218.56676 L274.67658 218.20379 L274.20684 218.02371 L273.9383 218.03131 L273.8679 218.22342 L273.98643 218.59071 L274.27957 219.11877 L274.72845 219.78863 L275.31044 220.57758 L276.00027 221.46027 L276.77102 222.40969 L277.59514 223.39822 L278.44579 224.39897 L279.29713 225.38603 L280.12351 226.33368 L280.89986 227.21683 L281.60242 228.01166 L282.20941 228.69636 L282.70218 229.25224 L283.0659 229.66446 L283.28988 229.92229 L283.36766 230.01927 L283.29714 229.95329 L283.08046 229.72649 L282.72396 229.34521 L282.23787 228.8197 L281.63601 228.16377 L280.9353 227.39439 L280.15526 226.53111 L279.31736 225.59541 L278.4443 224.61003 L277.55925 223.5982 L276.68504 222.58279 L275.84334 221.58554 L275.05384 220.6262 L274.3335 219.72177 L273.69577 218.88581 L273.15008 218.12781 L272.70131 217.45274 L272.34956 216.8608 L272.08998 216.34721 L271.91286 215.90239 L271.80419 215.51242 L271.74664 215.16009 L271.7211 214.82639 L271.70874 214.49265 L271.69391 214.14331 L271.6675 213.76942 L271.62678 213.36838 L271.57038 212.93896 L271.4973 212.48032 L271.40694 211.99199 L271.29905 211.47391 L271.17382 210.92642 L271.03182 210.35025 L270.87398 209.74653 L270.70165 209.11676 L270.51644 208.46274 L270.31955 207.78588 L270.11071 207.08607 L269.88498 206.35857 L269.6325 205.59374 L269.34155 204.78007 L269.00101 203.90662 L268.60213 202.96488 L268.13976 201.94989 L267.61301 200.861 L267.02551 199.70206 L266.38535 198.4814 L265.70474 197.21144 L264.9994 195.90816 L264.28789 194.59034 L263.59075 193.27878 L262.92968 191.99539 L262.32657 190.76235 L261.80271 189.60119 L261.37795 188.532 L261.06995 187.57271 L260.89355 186.73843 L260.86028 186.04093 L260.97793 185.48829 L261.25034 185.0846 L261.6773 184.82993 L262.25459 184.72032 L262.97417 184.74802 L263.82458 184.90184 L264.7914 185.16764 L265.85787 185.52894 L267.00538 185.9674 L268.21392 186.46332 L269.46407 186.99754 L270.737 187.55153 L272.01373 188.10661 L273.27477 188.64355 L274.50009 189.14261 L275.66942 189.58384 L276.76277 189.94752 L277.76103 190.21484 L278.64664 190.36852 L279.40424 190.39351 L280.02126 190.27752 L280.4884 190.01154 L280.79988 189.59011 L280.95356 189.01134 L280.95068 188.2768 L280.79577 187.3913 L280.49894 186.36524 L280.07752 185.21624 L279.55412 183.96721 L278.95483 182.64452 L278.30754 181.27636 L277.64055 179.89131 L276.98136 178.51716 L276.35561 177.17984 L275.78619 175.9025 L275.29251 174.70487 L274.88996 173.60261 L274.58958 172.60703 L274.39791 171.72495 L274.31719 170.95888 L274.34587 170.30757 L274.47954 169.76685 L274.7123 169.33112 L275.03879 168.99526 L275.45666 168.7572 L275.96765 168.61894 L276.57879 168.58777 L277.30257 168.67645 L278.15334 168.89954 L279.14411 169.27036 L280.28432 169.79855 L281.57815 170.48857 L283.0236 171.33864 L284.612 172.34032 L286.32805 173.47857 L288.15028 174.73214 L290.0518 176.07436 L292.0013 177.47417 L293.96437 178.89734 L295.90478 180.30789 L297.78605 181.66952 L299.57282 182.94711 L301.23238 184.10815 L302.73594 185.12402 L304.05979 185.97123 L305.18617 186.6322 L306.10389 187.09594 L306.80846 187.35813 L307.30176 187.42084 L307.59118 187.29161 L307.688 186.9819 L307.60505 186.5047 L307.35359 185.87144 L306.94352 185.09215 L306.3882 184.18036 L305.70521 183.15378 L304.91579 182.03379 L304.04397 180.84455 L303.11575 179.61219 L302.15842 178.36412 L301.19987 177.12835 L300.26796 175.93285 L299.38978 174.80481 L298.59101 173.77001 L297.89527 172.85217 L297.32399 172.07281 L296.89679 171.45163 L296.63093 171.00596 L296.54045 170.74994 L296.6356 170.69384 L296.92226 170.84365 L297.40173 171.20068 L298.07051 171.76151 L298.92036 172.51793 L299.93848 173.45719 L301.10786 174.56229 L302.40776 175.81253 L303.81434 177.18409 L305.30141 178.6508 L306.84131 180.18498 L308.4058 181.75843 L309.96706 183.3433 L311.49859 184.91309 L312.97621 186.4436 L314.37894 187.91384 L315.68986 189.30686 L316.89674 190.61038 L317.9925 191.8173 L318.97538 192.92581 L319.84878 193.93925 L320.62061 194.8655 L321.30223 195.71583 L321.90674 196.50328 L322.44655 197.24021 L322.9303 197.93514 L323.35951 198.58955 L323.73162 199.20075 L324.04436 199.76639 L324.29617 200.28483 L324.4863 200.75518 L324.61478 201.17737 L324.68242 201.55209 L324.6903 201.88032 L324.63854 202.16202 L324.52641 202.39634 L324.35308 202.58232 L324.11816 202.71942 L323.82212 202.80795 L323.46749 202.8503 L323.06066 202.85269 L322.61146 202.8248 L322.13229 202.77885 L321.63727 202.72879 L321.14149 202.68953 L320.66029 202.67624 L320.20868 202.70373 L319.80076 202.78591 L319.44925 202.93531 L319.16511 203.16268" />
    <path d="M328.14 202.5 L328.13287 203.21275 L328.11149 203.92522 L328.07587 204.63712 L328.02601 205.34816 L327.96195 206.05806 L327.8837 206.76654 L327.79045 207.47247 L327.67737 208.17069 L327.53615 208.85257 L327.35716 209.50816 L327.13064 210.12736 L326.84856 210.7018 L326.5062 211.22641 L326.103 211.7003 L325.64297 212.12712 L325.1346 212.515 L324.59044 212.87614 L324.02643 213.22612 L323.46113 213.58312 L322.91471 213.96696 L322.40804 214.39813 L321.9617 214.89683 L321.59505 215.48204 L321.32539 216.1707 L321.16724 216.97692 L321.13169 217.91143 L321.22599 218.98106 L321.45317 220.18847 L321.81188 221.53193 L322.2964 223.0053 L322.89673 224.59819 L323.59883 226.29618 L324.38504 228.0812 L325.23452 229.93201 L326.12385 231.82479 L327.02762 233.73374 L327.91918 235.63178 L328.7713 237.4913 L329.5568 239.28472 L330.24772 240.98367 L330.81498 242.55866 L331.22981 243.98051 L331.46525 245.22188 L331.4974 246.25847 L331.30641 247.07001 L330.87726 247.64107 L330.2003 247.96162 L329.27161 248.02735 L328.0932 247.83984 L326.67293 247.40658 L325.0246 246.74097 L323.16839 245.86279 L321.1321 244.79944 L318.95018 243.58502 L316.66211 242.25857 L314.31062 240.86248 L311.94009 239.44072 L309.59493 238.03733 L307.31802 236.69482 L305.14926 235.4527 L303.12419 234.34616 L301.27277 233.40477 L299.61827 232.65146 L298.17647 232.10162 L296.95498 231.76254 L295.95298 231.63301 L295.16122 231.70346 L294.56254 231.95637 L294.13277 232.36723 L293.84234 232.90614 L293.65843 233.53995 L293.54793 234.23521 L293.48124 234.962 L293.43656 235.69822 L293.39541 236.42506 L293.33255 237.11698 L293.21816 237.74385 L293.02157 238.27472 L292.71417 238.68068 L292.27163 238.9371 L291.67538 239.02515 L290.91364 238.93278 L289.98197 238.65527 L288.88331 238.1953 L287.62785 237.5628 L286.23248 236.77442 L284.7201 235.85281 L283.11871 234.82575 L281.46041 233.72509 L279.78024 232.58565 L278.11498 231.444 L276.5019 230.33721 L274.97754 229.30159 L273.57634 228.37142 L272.32945 227.57762 L271.26341 226.94659 L270.39894 226.49884 L269.74968 226.24788 L269.32104 226.19893 L269.10972 226.34856 L269.10573 226.68661 L269.29351 227.1974 L269.65251 227.86026 L270.15811 228.65043 L270.7828 229.54029 L271.49723 230.5004 L272.27143 231.50068 L273.07617 232.51179 L273.88329 233.50552 L274.66487 234.45386 L275.3936 235.32944 L276.04361 236.10632 L276.5912 236.76076 L277.01605 237.27239 L277.30204 237.62505 L277.43755 237.80711 L277.41558 237.81154 L277.23386 237.63606 L276.8948 237.28309 L276.40533 236.75955 L275.77667 236.07668 L275.02391 235.24959 L274.16558 234.29684 L273.223 233.23978 L272.21961 232.10192 L271.18023 230.9081 L270.13016 229.68371 L269.09434 228.45375 L268.09645 227.24198 L267.15801 226.07 L266.29753 224.95641 L265.52973 223.91604 L264.86491 222.95929 L264.30843 222.09166 L263.86044 221.31339 L263.51566 220.61936 L263.26352 219.99912 L263.08876 219.43758 L262.97251 218.916 L262.89392 218.4137 L262.8325 217.91037 L262.77117 217.3891 L262.70003 216.84017 L262.61609 216.26079 L262.5179 215.6497 L262.40438 215.00602 L262.27487 214.32932 L262.12913 213.61957 L261.96737 212.8772 L261.79022 212.10307 L261.59871 211.29847 L261.39431 210.46509 L261.17879 209.60496 L260.95348 208.71967 L260.71806 207.80917 L260.46714 206.86834 L260.19 205.88672 L259.87385 204.85181 L259.50653 203.75175 L259.07852 202.57729 L258.58418 201.32311 L258.02254 199.98854 L257.39757 198.57783 L256.71807 197.10014 L255.99736 195.56908 L255.25259 194.00213 L254.50398 192.41985 L253.77394 190.84497 L253.08611 189.30146 L252.46438 187.81358 L251.93195 186.40486 L251.51046 185.09729 L251.21916 183.91047 L251.07423 182.86094 L251.08821 181.96161 L251.26959 181.22134 L251.62255 180.64465 L252.14681 180.23167 L252.83775 179.97813 L253.6866 179.87564 L254.68081 179.91204 L255.80462 180.07195 L257.03974 180.33745 L258.36581 180.68859 L259.761 181.10392 L261.20406 181.56259 L262.67446 182.04445 L264.15144 182.52914 L265.61369 182.99575 L267.03933 183.42281 L268.40623 183.78856 L269.69254 184.07158 L270.87738 184.25136 L271.94153 184.30912 L272.86821 184.22845 L273.64368 183.99603 L274.25773 183.60206 L274.70404 183.04059 L274.9802 182.30965 L275.08755 181.41097 L275.03096 180.34982 L274.82145 179.13761 L274.47783 177.79358 L274.02477 176.34277 L273.49065 174.81398 L272.90587 173.238 L272.30124 171.64603 L271.70671 170.06844 L271.15021 168.53352 L270.65665 167.06658 L270.24716 165.68916 L269.93849 164.41838 L269.74261 163.26659 L269.6666 162.24127 L269.71287 161.3452 L269.87967 160.577 L270.16212 159.93217 L270.55375 159.40462 L271.04864 158.98878 L271.64418 158.68242 L272.34221 158.48774 L273.15034 158.4127 L274.08216 158.47123 L275.15323 158.67926 L276.37772 159.0513 L277.76584 159.59791 L279.32213 160.32395 L281.04431 161.22748 L282.92289 162.29933 L284.94111 163.52308 L287.0755 164.87556 L289.29665 166.32768 L291.57037 167.84556 L293.85903 169.39187 L296.12308 170.92735 L298.32264 172.41242 L300.4191 173.80875 L302.3767 175.08087 L304.16397 176.19758 L305.75499 177.13322 L307.13034 177.86864 L308.27774 178.39181 L309.19224 178.69804 L309.87583 178.78956 L310.33652 178.67461 L310.58654 178.36566 L310.63984 177.87687 L310.50866 177.2207 L310.20372 176.40809 L309.73955 175.45376 L309.13527 174.37705 L308.41399 173.20123 L307.60187 171.95266 L306.72722 170.65982 L305.81975 169.35258 L304.90984 168.0615 L304.02783 166.81705 L303.20321 165.64887 L302.46393 164.58506 L301.83573 163.65148 L301.34193 162.87156 L301.00387 162.26678 L300.84033 161.85601 L300.8666 161.65464 L301.09377 161.67386 L301.52824 161.92015 L302.17137 162.39492 L303.01928 163.0944 L304.06294 164.00961 L305.28835 165.12657 L306.67691 166.42675 L308.20593 167.88749 L309.84937 169.48278 L311.57862 171.18402 L313.36345 172.961 L315.17303 174.78289 L316.97695 176.61928 L318.74627 178.44121 L320.45456 180.22223 L322.07892 181.93941 L323.60084 183.5742 L325.00693 185.11318 L326.28945 186.54854 L327.44643 187.87827 L328.48155 189.10596 L329.40342 190.24014 L330.22438 191.29308 L330.95869 192.27895 L331.61989 193.21117 L332.21733 194.09899 L332.75268 194.94398 L333.22309 195.74315 L333.62608 196.49388 L333.95992 197.19432 L334.22376 197.84346 L334.41761 198.44117 L334.54233 198.98814 L334.59911 199.48538 L334.58801 199.9328 L334.50824 200.32941 L334.35889 200.6741 L334.13951 200.96623 L333.85058 201.2061 L333.49488 201.39623 L333.07933 201.54337 L332.61467 201.65801 L332.11441 201.75343 L331.59395 201.84479 L331.06973 201.94829 L330.55849 202.08042 L330.07659 202.25729 L329.63942 202.494 L329.26084 202.80417 L328.95281 203.19947" />
    <path d="M337.86 202.5 L337.85093 203.40714 L337.82372 204.31392 L337.77838 205.21997 L337.71493 206.12493 L337.63339 207.02844 L337.5338 207.93014 L337.41528 208.82876 L337.2726 209.71864 L337.09677 210.5904 L336.87737 211.43319 L336.60384 212.23602 L336.26748 212.98978 L335.86318 213.6889 L335.39037 214.33239 L334.85341 214.92414 L334.26149 215.47291 L333.62823 215.99186 L332.97094 216.49782 L332.30971 217.01043 L331.66643 217.55111 L331.06372 218.14202 L330.52391 218.80499 L330.06799 219.56053 L329.71472 220.42693 L329.47985 221.41945 L329.37545 222.54965 L329.40936 223.8249 L329.58491 225.24802 L329.90066 226.81708 L330.35045 228.52541 L330.92347 230.36169 L331.60454 232.31026 L332.37457 234.35151 L333.21102 236.46237 L334.08852 238.61699 L334.97961 240.78739 L335.85544 242.94421 L336.68655 245.05747 L337.44353 247.09725 L338.09614 249.03279 L338.61289 250.83211 L338.96266 252.46356 L339.1163 253.89748 L339.04795 255.10749 L338.73615 256.07163 L338.16465 256.77314 L337.32306 257.20111 L336.20718 257.35084 L334.8192 257.22402 L333.16772 256.82873 L331.2677 256.17944 L329.14108 255.29758 L326.81799 254.2128 L324.33583 252.96198 L321.73739 251.58744 L319.06903 250.13503 L316.37886 248.65239 L313.71505 247.18719 L311.1241 245.78547 L308.64928 244.49003 L306.32915 243.33893 L304.19621 242.36421 L302.27573 241.59069 L300.58484 241.03503 L299.13185 240.7051 L297.91591 240.59959 L296.92707 240.70811 L296.14678 241.01165 L295.54891 241.48368 L295.10149 242.09178 L294.76899 242.80001 L294.51562 243.57215 L294.30936 244.37578 L294.12664 245.18693 L293.94751 245.98524 L293.74466 246.74302 L293.48585 247.42764 L293.13791 248.00555 L292.6699 248.44545 L292.0555 248.72065 L291.27467 248.81075 L290.31469 248.70269 L289.1708 248.39137 L287.84626 247.8797 L286.35214 247.17844 L284.70679 246.30563 L282.93509 245.28582 L281.06742 244.14911 L279.1386 242.93001 L277.18665 241.66626 L275.25146 240.39749 L273.37347 239.16386 L271.59231 238.00474 L269.94534 236.95726 L268.46637 236.05495 L267.18418 235.32641 L266.12129 234.7939 L265.29252 234.47205 L264.70377 234.36654 L264.35154 234.47369 L264.22503 234.78252 L264.30744 235.27604 L264.57658 235.93189 L265.00578 236.72328 L265.56532 237.62031 L266.22345 238.59112 L266.94773 239.60313 L267.70655 240.62461 L268.46945 241.62502 L269.20622 242.57403 L269.88734 243.44204 L270.4848 244.20098 L270.97299 244.82515 L271.32992 245.29253 L271.53818 245.58565 L271.58521 245.69193 L271.46349 245.6038 L271.17058 245.31884 L270.70913 244.83968 L270.0867 244.17389 L269.31546 243.33365 L268.41182 242.33541 L267.39586 241.19928 L266.29073 239.94846 L265.12186 238.60843 L263.91616 237.20618 L262.70106 235.76922 L261.50364 234.32471 L260.34957 232.89842 L259.26218 231.5138 L258.26156 230.19104 L257.36369 228.94626 L256.57974 227.79077 L255.91556 226.73057 L255.37133 225.76599 L254.94134 224.8915 L254.61418 224.09586 L254.37334 223.36274 L254.19838 222.67191 L254.06675 222.00102 L253.95626 221.32809 L253.84843 220.63489 L253.73255 219.91091 L253.60541 219.1532 L253.46543 218.36044 L253.31146 217.53173 L253.1428 216.66665 L252.95922 215.76522 L252.76093 214.82797 L252.54862 213.85588 L252.32344 212.8504 L252.08698 211.81342 L251.84115 210.74718 L251.5874 209.65346 L251.3254 208.53227 L251.04931 207.37811 L250.74751 206.1797 L250.40614 204.92355 L250.01205 203.59687 L249.55491 202.18971 L249.0286 200.69633 L248.43208 199.11607 L247.76963 197.4536 L247.0508 195.71889 L246.28999 193.92672 L245.50577 192.09611 L244.72006 190.24935 L243.95712 188.41116 L243.24254 186.60754 L242.60219 184.86481 L242.06119 183.20853 L241.64298 181.66257 L241.36838 180.24822 L241.25491 178.98345 L241.31615 177.88229 L241.56126 176.95439 L241.99475 176.20471 L242.61632 175.63341 L243.42092 175.23595 L244.39903 175.00326 L245.53704 174.92224 L246.81785 174.97626 L248.2216 175.14596 L249.72624 175.40978 L251.30807 175.74452 L252.94406 176.12764 L254.61192 176.53736 L256.28914 176.95167 L257.9526 177.34796 L259.57858 177.703 L261.14305 177.99329 L262.62232 178.19563 L263.99372 178.28788 L265.23642 178.24971 L266.33219 178.0634 L267.2661 177.71455 L268.02707 177.19257 L268.6082 176.49108 L269.00684 175.60796 L269.22442 174.54513 L269.26616 173.30834 L269.14395 171.90998 L268.87815 170.37092 L268.49542 168.71833 L268.02648 166.98345 L267.5042 165.19963 L266.96193 163.40076 L266.43206 161.61971 L265.94481 159.8872 L265.52711 158.23066 L265.20181 156.67345 L264.98701 155.23414 L264.89563 153.92615 L264.93529 152.7576 L265.10855 151.73151 L265.41346 150.84643 L265.84469 150.09749 L266.39519 149.47812 L267.05848 148.98231 L267.83169 148.60764 L268.71677 148.35653 L269.7219 148.23762 L270.86174 148.26602 L272.15312 148.45898 L273.61132 148.83225 L275.24737 149.39728 L277.0661 150.15933 L279.06503 151.11633 L281.23378 152.25835 L283.55418 153.56759 L286.00072 155.01898 L288.54151 156.581 L291.13944 158.21695 L293.7537 159.88639 L296.34138 161.54681 L298.85923 163.15532 L301.26537 164.67039 L303.52101 166.05359 L305.59199 167.27113 L307.45019 168.29521 L309.0745 169.10507 L310.45159 169.68768 L311.57602 170.03795 L312.4499 170.15829 L313.08186 170.0576 L313.48509 169.74941 L313.67464 169.24903 L313.66373 168.56996 L313.46392 167.72403 L313.09089 166.72717 L312.56532 165.60032 L311.91218 164.36868 L311.15976 163.06077 L310.33868 161.70745 L309.48107 160.34105 L308.61981 158.99465 L307.78769 157.70125 L307.01663 156.49293 L306.33686 155.40011 L305.7762 154.45078 L305.35987 153.67031 L305.11096 153.08193 L305.04974 152.70606 L305.19275 152.55934 L305.55195 152.65387 L306.13422 152.99665 L306.941 153.58916 L307.96804 154.42729 L309.20553 155.50128 L310.63823 156.79596 L312.24595 158.2912 L314.0041 159.96245 L315.8844 161.78147 L317.85583 163.71725 L319.88559 165.73702 L321.94025 167.80735 L323.98683 169.89525 L325.99394 171.96932 L327.93292 174.00086 L329.7789 175.96498 L331.51181 177.84155 L333.11712 179.61599 L334.58639 181.27979 L335.91748 182.83073 L337.11433 184.27266 L338.18622 185.61478 L339.14653 186.87033 L340.01065 188.05461 L340.79322 189.18212 L341.50437 190.26285 L342.14585 191.29841 L342.71457 192.28555 L343.20781 193.22137 L343.62367 194.10382 L343.96122 194.93175 L344.22044 195.70497 L344.40225 196.42419 L344.50791 197.09044 L344.53748 197.70357 L344.49008 198.26247 L344.3647 198.76588 L344.16085 199.21305 L343.87905 199.60425 L343.52226 199.94217 L343.09801 200.23406 L342.61789 200.49123 L342.09654 200.72802 L341.55063 200.96079 L340.99797 201.20705 L340.45669 201.4846 L339.94451 201.81084 L339.47808 202.20209 L339.07243 202.67303 L338.74051 203.23625" />
    <path d="M347.58 202.5 L347.56898 203.60153 L347.53594 204.70261 L347.48089 205.80282 L347.40384 206.9017 L347.30483 207.99882 L347.1839 209.09375 L347.04011 210.18504 L346.86783 211.2666 L346.65739 212.32823 L346.39758 213.35822 L346.07703 214.34469 L345.68639 215.27775 L345.22016 216.1514 L344.67774 216.96448 L344.06384 217.72116 L343.38838 218.43082 L342.66603 219.10757 L341.91545 219.76951 L341.15829 220.43774 L340.41815 221.13527 L339.71941 221.88592 L339.08613 222.71315 L338.54093 223.63902 L338.10405 224.68317 L337.79247 225.86198 L337.6192 227.18788 L337.59273 228.66874 L337.71664 230.30757 L337.98944 232.10224 L338.4045 234.04552 L338.95021 236.1252 L339.61026 238.32435 L340.36411 240.62181 L341.18751 242.99272 L342.05319 245.4092 L342.9316 247.84105 L343.7917 250.25663 L344.6018 252.62363 L345.33026 254.90978 L345.94455 257.08192 L346.4108 259.10557 L346.69552 260.94661 L346.76736 262.57307 L346.59851 263.95652 L346.16588 265.07325 L345.45204 265.90521 L344.44582 266.4406 L343.14274 266.67433 L341.5452 266.60819 L339.6625 266.25087 L337.51081 265.61792 L335.11376 264.73238 L332.50389 263.62615 L329.72148 262.33895 L326.81268 260.9163 L323.82743 259.40758 L320.81763 257.86406 L317.83516 256.33706 L314.93017 254.87613 L312.1493 253.52735 L309.53411 252.3317 L307.11965 251.32365 L304.93318 250.52992 L302.9932 249.96844 L301.30871 249.64766 L299.87885 249.56617 L298.69292 249.71275 L297.73102 250.06693 L296.96505 250.60013 L296.36063 251.27741 L295.87955 252.06007 L295.48331 252.90909 L295.13748 253.78956 L294.81672 254.67565 L294.4996 255.54542 L294.15677 256.36906 L293.75354 257.11143 L293.25424 257.73638 L292.62562 258.21022 L291.83937 258.5042 L290.87396 258.59634 L289.71575 258.4726 L288.35964 258.12747 L286.80921 257.5641 L285.07642 256.79408 L283.18111 255.83684 L281.15008 254.71882 L279.01613 253.47246 L276.81679 252.13493 L274.59305 250.74687 L272.38794 249.35097 L270.24504 247.99052 L268.20708 246.70789 L266.31435 245.5431 L264.60328 244.53228 L263.10496 243.70623 L261.84364 243.08895 L260.83536 242.69622 L260.08651 242.53416 L259.59336 242.59883 L259.34434 242.87842 L259.32138 243.35467 L259.50064 244.00352 L259.85346 244.79613 L260.34784 245.70033 L260.94966 246.68183 L261.62403 247.70558 L262.33692 248.73743 L263.05561 249.74451 L263.74758 250.6942 L264.38108 251.55464 L264.926 252.29563 L265.35478 252.88954 L265.64379 253.31267 L265.77432 253.54625 L265.73288 253.57675 L265.5114 253.39607 L265.1073 253.00162 L264.52347 252.39628 L263.76807 251.58823 L262.85426 250.59063 L261.79973 249.42123 L260.62614 248.10172 L259.35846 246.65713 L258.02411 245.11495 L256.65208 243.50425 L255.27197 241.85474 L253.91295 240.19568 L252.60269 238.55486 L251.36635 236.9576 L250.22559 235.42567 L249.19764 233.97648 L248.29457 232.62226 L247.52269 231.36949 L246.88221 230.21859 L246.36702 229.16364 L245.96484 228.19259 L245.65791 227.28789 L245.42425 226.42782 L245.23957 225.58833 L245.08002 224.74582 L244.92569 223.88068 L244.76507 222.98165 L244.59472 222.04562 L244.41295 221.07118 L244.21854 220.05744 L244.01074 219.00398 L243.7893 217.91088 L243.55448 216.77875 L243.30702 215.6087 L243.04817 214.40234 L242.77964 213.16174 L242.5035 211.8894 L242.22132 210.58726 L241.93274 209.25537 L241.63148 207.88787 L241.30502 206.47268 L240.93844 204.99529 L240.51757 203.442 L240.03129 201.80212 L239.47302 200.06955 L238.84162 198.2436 L238.14169 196.32937 L237.38352 194.33763 L236.58261 192.28436 L235.75896 190.19008 L234.93615 188.07886 L234.1403 185.97735 L233.39897 183.91361 L232.74 181.91604 L232.19044 180.0122 L231.77549 178.22786 L231.5176 176.58598 L231.43559 175.10596 L231.54408 173.80297 L231.85293 172.68744 L232.36696 171.76476 L233.08583 171.03515 L234.00409 170.49376 L235.11146 170.13089 L236.39327 169.93244 L237.83107 169.88057 L239.40346 169.95448 L241.08667 170.13097 L242.85514 170.38512 L244.68406 170.6927 L246.54938 171.03027 L248.42684 171.3742 L250.29152 171.70016 L252.11782 171.98319 L253.87987 172.19801 L255.55209 172.31969 L257.11006 172.3244 L258.53131 172.19031 L259.79616 171.89835 L260.88852 171.43306 L261.7964 170.78308 L262.51235 169.94157 L263.03349 168.90628 L263.36129 167.6793 L263.50136 166.26686 L263.46646 164.68234 L263.27847 162.94826 L262.96607 161.09389 L262.56231 159.15291 L262.10253 157.16127 L261.62262 155.15548 L261.15741 153.17099 L260.7394 151.24088 L260.39757 149.39474 L260.15647 147.65774 L260.03553 146.04991 L260.04865 144.58572 L260.20398 143.27393 L260.50423 142.11782 L260.94725 141.11585 L261.52727 140.26281 L262.23664 139.55162 L263.06833 138.97583 L264.01921 138.53286 L265.09133 138.22533 L266.29345 138.06255 L267.64132 138.0608 L269.15301 138.2387 L270.84492 138.6132 L272.72889 139.19664 L274.81007 139.99471 L277.08574 141.00518 L279.54467 142.21736 L282.16724 143.6121 L284.92594 145.1624 L287.78636 146.83432 L290.7085 148.58834 L293.64836 150.38092 L296.55968 152.16628 L299.39583 153.89821 L302.11165 155.53202 L304.66532 157.02631 L307.02002 158.34468 L309.14539 159.4572 L311.01867 160.3415 L312.62544 160.98355 L313.9598 161.37786 L315.02398 161.52701 L315.82719 161.4406 L316.38363 161.13316 L316.70943 160.6212 L316.8188 159.91922 L316.72412 159.03996 L316.44224 158.00058 L315.99538 156.82359 L315.41037 155.53612 L314.71766 154.16889 L313.95015 152.75508 L313.1424 151.32952 L312.32978 149.9278 L311.54756 148.58544 L310.83005 147.33699 L310.20978 146.21516 L309.71666 145.25008 L309.37781 144.46906 L309.21804 143.89708 L309.25915 143.55611 L309.51889 143.46404 L310.01012 143.63389 L310.74021 144.07314 L311.71063 144.7834 L312.91681 145.76019 L314.34811 146.99295 L315.9881 148.46535 L317.815 150.15566 L319.80226 152.0374 L321.91943 154.08015 L324.13304 156.25047 L326.40773 158.51304 L328.70748 160.83181 L330.99672 163.17123 L333.24162 165.49743 L335.41127 167.77949 L337.47888 169.99055 L339.42278 172.1089 L341.22731 174.11879 L342.88334 176.01103 L344.38853 177.78319 L345.7471 179.43936 L346.96903 180.98942 L348.06868 182.44758 L349.06261 183.83027 L349.96656 185.15308 L350.7914 186.4267 L351.53902 187.65284 L352.20605 188.82795 L352.78953 189.94886 L353.28743 191.01332 L353.69868 192.02004 L354.02327 192.96878 L354.26217 193.86024 L354.41671 194.6955 L354.48694 195.47434 L354.47192 196.19553 L354.37052 196.85766 L354.1822 197.45987 L353.90751 198.0024 L353.54965 198.48811 L353.11668 198.92474 L352.6211 199.32444 L352.07866 199.7026 L351.50731 200.07679 L350.92621 200.46581 L350.35489 200.88879 L349.81242 201.3644 L349.31673 201.91018 L348.88402 202.54189 L348.52821 203.27304" />
    <path d="M357.3 202.5 L357.28704 203.79591 L357.24817 205.09131 L357.18339 206.38567 L357.09275 207.67847 L356.97627 208.96921 L356.834 210.25735 L356.66493 211.54133 L356.46306 212.81455 L356.21802 214.06606 L355.9178 215.28326 L355.55022 216.45335 L355.1053 217.56573 L354.57714 218.61389 L353.96512 219.59657 L353.27428 220.51818 L352.51527 221.38873 L351.70383 222.22329 L350.85995 223.04121 L350.00687 223.86504 L349.16987 224.71942 L348.3751 225.62981 L347.64834 226.62131 L347.01387 227.71751 L346.49338 228.9394 L346.10509 230.30452 L345.86296 231.82611 L345.77609 233.51258 L345.84838 235.36711 L346.07822 237.38739 L346.45855 239.56563 L346.97695 241.8887 L347.61597 244.33843 L348.35364 246.89212 L349.164 249.52308 L350.01787 252.2014 L350.88359 254.89471 L351.72796 257.56906 L352.51705 260.18979 L353.217 262.7223 L353.79297 265.13105 L354.20871 267.37902 L354.42838 269.42966 L354.41842 271.24867 L354.14906 272.80555 L353.59562 274.07488 L352.73943 275.03727 L351.56858 275.68008 L350.0783 275.99782 L348.2712 275.99237 L346.15729 275.67302 L343.75391 275.0564 L341.08645 274.16717 L338.18978 273.0395 L335.10713 271.71592 L331.88796 270.24517 L328.58584 268.68013 L325.2564 267.07573 L321.95528 265.48692 L318.73625 263.96679 L315.64932 262.56467 L312.73907 261.32446 L310.04309 260.28309 L307.59063 259.46915 L305.40157 258.90185 L303.48558 258.59023 L301.84178 258.53275 L300.45877 258.71739 L299.31526 259.12222 L298.38119 259.71658 L297.61977 260.46304 L296.99011 261.32013 L296.45099 262.24604 L295.96559 263.20334 L295.5068 264.16436 L295.05169 265.1056 L294.56888 265.99511 L294.02123 266.79522 L293.37058 267.46722 L292.58135 267.97499 L291.62325 268.28774 L290.47325 268.38193 L289.1168 268.24251 L287.54848 267.86357 L285.77216 267.2485 L283.80071 266.40971 L281.65542 265.36804 L279.36507 264.15183 L276.96483 262.79581 L274.49498 261.33985 L271.99946 259.82748 L269.52442 258.30446 L267.11661 256.81717 L264.82185 255.41104 L262.68335 254.12894 L260.7402 253.00961 L259.02573 252.08606 L257.56599 251.38401 L256.3782 250.92038 L255.46925 250.70178 L254.83518 250.72397 L254.46364 250.97433 L254.33532 251.43331 L254.4247 252.07515 L254.70113 252.86899 L255.13036 253.78035 L255.67588 254.77255 L256.30032 255.80804 L256.9673 256.85026 L257.64177 257.86401 L258.28893 258.81437 L258.87482 259.66725 L259.36719 260.39029 L259.73657 260.95394 L259.95767 261.33282 L260.01047 261.50685 L259.88055 261.46157 L259.55931 261.18833 L259.04402 260.6844 L258.3378 259.95288 L257.44944 259.00257 L256.39305 257.84761 L255.18763 256.50705 L253.85643 255.00417 L252.4262 253.36581 L250.92636 251.62146 L249.38801 249.80233 L247.84288 247.94025 L246.32225 246.06664 L244.8558 244.21131 L243.47052 242.4014 L242.18962 240.66031 L241.0316 239.0067 L240.0094 237.45374 L239.12982 236.00841 L238.39309 234.67118 L237.7927 233.43578 L237.3155 232.28932 L236.94248 231.21305 L236.65011 230.18373 L236.4124 229.17564 L236.20378 228.16354 L236.00296 227.12646 L235.7976 226.0524 L235.58404 224.93803 L235.36048 223.78192 L235.12562 222.58315 L234.87867 221.3413 L234.61938 220.05653 L234.34803 218.72953 L234.06542 217.36152 L233.7729 215.95427 L233.4723 214.51007 L233.16586 213.03162 L232.85525 211.52105 L232.54008 209.97847 L232.21365 208.39764 L231.86253 206.76565 L231.47074 205.06703 L231.0231 203.28712 L230.50768 201.41454 L229.91744 199.44277 L229.25115 197.37113 L228.51375 195.20514 L227.71624 192.95637 L226.87524 190.642 L226.01215 188.28405 L225.15224 185.90837 L224.32349 183.54354 L223.5554 181.21969 L222.87781 178.96727 L222.31968 176.81587 L221.90801 174.79314 L221.66682 172.92373 L221.61627 171.22848 L221.77201 169.72366 L222.14459 168.42049 L222.73916 167.32481 L223.55533 166.4369 L224.58726 165.75158 L225.82389 165.25851 L227.2495 164.94264 L228.84429 164.78488 L230.58533 164.76299 L232.4471 164.85216 L234.40222 165.02572 L236.42406 165.25775 L238.48684 165.52318 L240.56454 165.79672 L242.63043 166.05237 L244.65707 166.26338 L246.61668 166.40274 L248.48187 166.44375 L250.22641 166.36093 L251.8262 166.1309 L253.26014 165.7333 L254.51094 165.15158 L255.56574 164.3736 L256.41651 163.39206 L257.06013 162.20459 L257.49815 160.81346 L257.73655 159.22538 L257.78896 157.45471 L257.67879 155.5256 L257.43673 153.46945 L257.09813 151.32237 L256.70086 149.12291 L256.2833 146.9102 L255.88276 144.72226 L255.534 142.59456 L255.26803 140.55882 L255.11112 138.64203 L255.08406 136.86567 L255.20167 135.24528 L255.47267 133.79026 L255.8999 132.50414 L256.48104 131.38528 L257.20985 130.42813 L258.07808 129.62512 L259.07818 128.96935 L260.20673 128.45808 L261.46589 128.09412 L262.86501 127.88747 L264.42091 127.85559 L266.1529 128.01842 L268.07853 128.39415 L270.21041 128.996 L272.55405 129.83009 L275.10645 130.89403 L277.85556 132.17637 L280.7803 133.65661 L283.85116 135.30582 L287.03122 137.08764 L290.27757 138.95973 L293.54303 140.87545 L296.77798 142.78574 L299.93242 144.64111 L302.95792 146.39366 L305.80963 147.99903 L308.44804 149.41824 L310.84059 150.61919 L312.96284 151.57793 L314.79929 152.27943 L316.34358 152.71776 L317.59805 152.89573 L318.57253 152.82359 L319.28217 152.51692 L319.74423 151.99336 L319.97387 151.26848 L319.98432 150.3559 L319.79359 149.27399 L319.42544 148.04686 L318.90857 146.70356 L318.27555 145.277 L317.56161 143.80271 L316.80373 142.31798 L316.03975 140.86095 L315.30742 139.46964 L314.64348 138.18104 L314.08271 137.03021 L313.65713 136.04939 L313.39575 135.2678 L313.32512 134.71222 L313.46856 134.40616 L313.84504 134.36875 L314.46829 134.61391 L315.34619 135.14964 L316.48026 135.97764 L317.86557 137.09308 L319.49069 138.48462 L321.33797 140.13474 L323.38404 142.02012 L325.60043 144.11236 L327.95446 146.37884 L330.41024 148.7837 L332.92987 151.28906 L335.4747 153.85627 L338.00661 156.4472 L340.48929 159.02554 L342.88963 161.55811 L345.17886 164.01611 L347.33376 166.37624 L349.3375 168.6216 L351.18028 170.74228 L352.85958 172.73565 L354.37988 174.60606 L355.75184 176.36406 L356.99083 178.02483 L358.11457 179.60594 L359.13989 181.12403 L360.07844 182.59055 L360.93219 184.00727 L361.69752 185.37034 L362.37126 186.67635 L362.95118 187.92281 L363.43614 189.10833 L363.8261 190.23258 L364.12209 191.29629 L364.32551 192.30056 L364.43641 193.24512 L364.45375 194.12859 L364.37633 194.94943 L364.20354 195.70668 L363.93598 196.40055 L363.57703 197.03404 L363.13535 197.61543 L362.62432 198.15766 L362.06079 198.67718 L361.46399 199.19279 L360.85445 199.72457 L360.25309 200.29297 L359.68033 200.91796 L359.15539 201.61827 L358.69561 202.41075 L358.31591 203.30983" />
    <path d="M367.02 202.5 L367.0051 203.9903 L366.96039 205.48001 L366.8859 206.96852 L366.78166 208.45524 L366.64771 209.93959 L366.4841 211.42095 L366.28976 212.89762 L366.05829 214.36251 L365.77864 215.80389 L365.43801 217.20829 L365.02342 218.56201 L364.52421 219.85371 L363.93413 221.07639 L363.25249 222.22866 L362.48471 223.3152 L361.64216 224.34663 L360.74163 225.33901 L359.80446 226.3129 L358.85545 227.29235 L357.92159 228.30358 L357.03078 229.3737 L356.21056 230.52947 L355.48681 231.79599 L354.88271 233.19564 L354.41771 234.74705 L354.10671 236.46433 L353.95946 238.35642 L353.98011 240.42666 L354.167 242.67255 L354.5126 245.08575 L355.00369 247.6522 L355.62169 250.35252 L356.34317 253.16242 L357.14049 256.05343 L357.98254 258.9936 L358.83559 261.94837 L359.66423 264.88148 L360.43231 267.75595 L361.10373 270.53483 L361.64138 273.18017 L362.00661 275.65248 L362.16124 277.91271 L362.06947 279.92426 L361.69961 281.65457 L361.02535 283.0765 L360.02683 284.16934 L358.69134 284.91957 L357.01386 285.3213 L354.9972 285.37655 L352.65207 285.09516 L349.99701 284.49487 L347.05914 283.60197 L343.87567 282.45286 L340.49278 281.09288 L336.96324 279.57403 L333.34425 277.95268 L329.69517 276.2874 L326.0754 274.63679 L322.54233 273.05745 L319.14934 271.60199 L315.94403 270.31723 L312.96652 269.24253 L310.24809 268.40838 L307.80994 267.83526 L305.66244 267.53279 L303.80471 267.49933 L302.22462 267.72203 L300.89949 268.1775 L299.79733 268.83302 L298.87891 269.64867 L298.10067 270.58019 L297.41868 271.58298 L296.79371 272.61712 L296.19688 273.65307 L295.60379 274.66578 L294.98098 275.62115 L294.28892 276.479 L293.48692 277.19805 L292.53707 277.73976 L291.40712 278.07129 L290.07254 278.16753 L288.51785 278.01242 L286.73731 277.59967 L284.7351 276.9329 L282.525 276.02535 L280.12974 274.89925 L277.58006 273.58484 L274.91354 272.11917 L272.17317 270.54477 L269.40587 268.90809 L266.6609 267.25795 L263.98818 265.64382 L261.43661 264.11418 L259.05235 262.71478 L256.87711 261.48694 L254.94651 260.46588 L253.28835 259.67906 L251.92104 259.14455 L250.85198 258.86939 L250.077 258.8491 L249.58294 259.07023 L249.34925 259.51194 L249.34876 260.14678 L249.5488 260.94184 L249.91288 261.86038 L250.40209 262.86326 L250.97662 263.91049 L251.59768 264.96308 L252.22793 265.9835 L252.83029 266.93455 L253.36855 267.77985 L253.80838 268.48495 L254.11835 269.01833 L254.27154 269.35296 L254.24661 269.46745 L254.02822 269.34639 L253.60722 268.9806 L252.98074 268.36718 L252.15214 267.50947 L251.13081 266.41691 L249.93185 265.10459 L248.57554 263.59286 L247.08671 261.90661 L245.49393 260.07448 L243.82861 258.12797 L242.12393 256.1004 L240.41379 254.02577 L238.73156 251.9376 L237.10892 249.86775 L235.57469 247.8452 L234.15365 245.89494 L232.86556 244.03693 L231.72424 242.28522 L230.73695 240.64733 L229.90397 239.12378 L229.21838 237.70792 L228.66616 236.38605 L228.22706 235.13821 L227.87598 233.93963 L227.58523 232.76295 L227.32754 231.58127 L227.08022 230.37225 L226.83012 229.12314 L226.57335 227.83044 L226.308 226.49266 L226.0327 225.10886 L225.74661 223.67863 L225.44946 222.20219 L225.14158 220.6803 L224.82383 219.11433 L224.49763 217.50621 L224.16496 215.8584 L223.82821 214.17384 L223.48917 212.45484 L223.14743 210.70157 L222.79582 208.90741 L222.42004 207.05863 L222.00304 205.13877 L221.52862 203.13225 L220.98407 201.02695 L220.36186 198.81599 L219.66069 196.49867 L218.88581 194.08091 L218.04896 191.57511 L217.16786 188.99965 L216.26534 186.37802 L215.36833 183.73787 L214.50667 181.10973 L213.71183 178.52576 L213.01562 176.01849 L212.44892 173.61955 L212.04052 171.35843 L211.81603 169.26149 L211.79696 167.35099 L211.99995 165.64434 L212.43626 164.15354 L213.11137 162.88486 L214.02484 161.83864 L215.17042 161.0094 L216.53632 160.38614 L218.10572 159.95284 L219.85752 159.6892 L221.76719 159.5715 L223.80753 159.57335 L225.94929 159.66632 L228.16406 159.8228 L230.42429 160.01609 L232.70224 160.21925 L234.96935 160.40457 L237.19631 160.54358 L239.3535 160.60746 L241.41164 160.5678 L243.34275 160.39745 L245.12109 160.07149 L246.72411 159.56825 L248.13336 158.87009 L249.33507 157.96411 L250.32066 156.84255 L251.08677 155.5029 L251.63502 153.94762 L251.97175 152.1839 L252.11146 150.22708 L252.07911 148.10294 L251.90738 145.84502 L251.63396 143.49183 L251.29919 141.08455 L250.94399 138.66493 L250.60811 136.27353 L250.3286 133.94824 L250.13849 131.7229 L250.06577 129.62632 L250.13258 127.68144 L250.35469 125.90484 L250.74136 124.30658 L251.29558 122.89045 L252.01484 121.65471 L252.89243 120.59346 L253.91953 119.69862 L255.08802 118.96287 L256.39425 118.38331 L257.84045 117.96292 L259.43656 117.71239 L261.20049 117.65037 L263.15279 117.79814 L265.31213 118.17509 L267.69194 118.79536 L270.29802 119.66547 L273.12716 120.78288 L276.16645 122.13538 L279.39337 123.70112 L282.77638 125.44923 L286.27607 127.34095 L289.84664 129.33112 L293.43769 131.36998 L296.99628 133.40521 L300.46902 135.38401 L303.8042 137.25529 L306.95394 138.97175 L309.87607 140.49179 L312.53579 141.78118 L314.90701 142.81436 L316.97314 143.5753 L318.72736 144.05767 L320.17212 144.26446 L321.31786 144.20659 L322.18071 143.90067 L322.77903 143.36553 L323.12893 142.61774 L323.24452 141.67184 L323.14494 140.5474 L322.85549 139.27012 L322.40676 137.871 L321.83345 136.38511 L321.17307 134.85033 L320.46506 133.30645 L319.74972 131.7941 L319.06729 130.35384 L318.4569 129.0251 L317.95563 127.84526 L317.5976 126.84869 L317.41369 126.06655 L317.43221 125.52737 L317.67797 125.2562 L318.17118 125.27345 L318.92647 125.59392 L319.95217 126.22614 L321.2499 127.17188 L322.81434 128.42597 L324.63327 129.97629 L326.68785 131.80412 L328.95309 133.88457 L331.3986 136.18732 L333.98949 138.67753 L336.68745 141.31693 L339.45202 144.06508 L342.24193 146.88073 L345.01649 149.72318 L347.73697 152.55366 L350.36798 155.33674 L352.87884 158.04168 L355.24473 160.64359 L357.44769 163.1244 L359.47723 165.47353 L361.33063 167.68811 L363.01265 169.77277 L364.53464 171.73869 L365.91298 173.60208 L367.16653 175.3816 L368.31323 177.09499 L369.36547 178.7544 L370.32535 180.3617 L371.189 181.91274 L371.95298 183.40383 L372.61493 184.83231 L373.1736 186.19662 L373.62894 187.49638 L373.98201 188.73234 L374.23431 189.90562 L374.38588 191.01589 L374.43559 192.06166 L374.38214 193.04121 L374.22489 193.9535 L373.96444 194.7987 L373.60441 195.57998 L373.15402 196.30611 L372.62753 196.99087 L372.04291 197.65177 L371.42067 198.30879 L370.78269 198.98333 L370.15129 199.69715 L369.54824 200.47151 L368.99405 201.32636 L368.5072 202.27961 L368.10361 203.34662" />
    <path d="M376.74 202.5 L376.72315 204.18469 L376.67262 205.8687 L376.58841 207.55137 L376.47058 209.23201 L376.31915 210.90997 L376.1342 212.58455 L375.91459 214.25391 L375.65352 215.91046 L375.33926 217.54172 L374.95822 219.13332 L374.49661 220.67068 L373.94312 222.14168 L373.29111 223.53888 L372.53987 224.86075 L371.69515 226.11222 L370.76905 227.30454 L369.77942 228.45472 L368.74896 229.5846 L367.70403 230.71966 L366.67331 231.88773 L365.68647 233.1176 L364.77277 234.43763 L363.95975 235.87448 L363.27205 237.45187 L362.73033 239.18958 L362.35046 241.10256 L362.14283 243.20026 L362.11185 245.48621 L362.25578 247.9577 L362.56665 250.60586 L363.03043 253.41571 L363.6274 256.3666 L364.33271 259.43273 L365.11699 262.58379 L365.94721 265.7858 L366.78758 269.00203 L367.60049 272.19391 L368.34756 275.32211 L368.99046 278.34736 L369.48979 281.2293 L369.80452 283.92593 L369.8941 286.39576 L369.72053 288.59986 L369.25017 290.5036 L368.45509 292.07812 L367.31422 293.30141 L365.8141 294.15905 L363.94942 294.64479 L361.7232 294.76072 L359.14686 294.51731 L356.24012 293.93335 L353.03182 293.03676 L349.56157 291.86621 L345.87843 290.46985 L342.03853 288.9029 L338.10266 287.22523 L334.13394 285.49906 L330.19552 283.78665 L326.34841 282.14811 L322.64936 280.63932 L319.14899 279.31 L315.88996 278.20197 L312.90554 277.34761 L310.2183 276.76867 L307.83931 276.47535 L305.76764 276.4659 L303.99047 276.72668 L302.48373 277.23278 L301.21347 277.94947 L300.13805 278.8343 L299.21122 279.84026 L298.38637 280.91993 L297.62182 282.0309 L296.88696 283.14179 L296.15588 284.22596 L295.39309 285.24719 L294.55661 286.16279 L293.60326 286.92888 L292.49279 287.50453 L291.19099 287.85484 L289.67183 287.95312 L287.9189 287.78233 L285.92615 287.33577 L283.69805 286.6173 L281.24928 285.64099 L278.60405 284.43046 L275.79506 283.01784 L272.86225 281.44252 L269.85135 279.74968 L266.81227 277.9887 L263.79738 276.21143 L260.85975 274.47048 L258.05138 272.81733 L255.42135 271.30062 L253.01403 269.96426 L250.86728 268.8457 L249.0107 267.97412 L247.46388 267.36872 L246.23472 267.03701 L245.31882 266.97424 L244.70224 267.16614 L244.36319 267.59058 L244.27282 268.21841 L244.39647 269.01469 L244.6954 269.9404 L245.1283 270.95398 L245.65292 272.01295 L246.22806 273.0759 L246.81409 274.103 L247.37165 275.05472 L247.86229 275.89245 L248.24958 276.57961 L248.50014 277.08272 L248.58541 277.3731 L248.48275 277.42805 L248.17589 277.23121 L247.65514 276.77286 L246.91747 276.04995 L245.96648 275.06607 L244.81218 273.83125 L243.47064 272.36157 L241.96345 270.67868 L240.31699 268.80905 L238.56166 266.78315 L236.73086 264.63449 L234.85986 262.39847 L232.9847 260.11128 L231.14086 257.80856 L229.36204 255.52419 L227.67886 253.289 L226.11768 251.12957 L224.69951 249.06715 L223.43907 247.1167 L222.34408 245.28624 L221.41486 243.57638 L220.64406 241.98007 L220.01682 240.48279 L219.51163 239.06337 L219.10185 237.69554 L218.75805 236.35026 L218.4513 234.99899 L218.15748 233.61804 L217.86265 232.19389 L217.56267 230.72286 L217.25553 229.20341 L216.93977 227.63456 L216.61454 226.01596 L216.27955 224.34784 L215.93513 222.63108 L215.58223 220.86715 L215.22236 219.05814 L214.85763 217.20673 L214.49057 215.31606 L214.12309 213.38864 L213.75477 211.42467 L213.37799 209.41717 L212.97755 207.35161 L212.53533 205.21051 L212.03414 202.97738 L211.46046 200.63937 L210.80628 198.18921 L210.07022 195.6262 L209.25787 192.95668 L208.38169 190.19385 L207.46049 187.35729 L206.51853 184.472 L205.58442 181.56738 L204.68985 178.67592 L203.86826 175.83183 L203.15343 173.06972 L202.57816 170.42322 L202.17304 167.92371 L201.96525 165.59925 L201.97764 163.4735 L202.22788 161.56502 L202.72793 159.8866 L203.48357 158.44492 L204.49435 157.24038 L205.75359 156.26721 L207.24875 155.51376 L208.96195 154.96304 L210.87074 154.59351 L212.94906 154.38002 L215.16796 154.29454 L217.49637 154.30692 L219.90405 154.38785 L222.36175 154.509 L224.83994 154.64178 L227.30826 154.75678 L229.73556 154.82377 L232.09032 154.81219 L234.34142 154.69186 L236.4591 154.43397 L238.41597 154.01209 L240.18809 153.4032 L241.75578 152.58861 L243.10441 151.55462 L244.22482 150.29304 L245.11342 148.80121 L245.77189 147.08179 L246.20695 145.14242 L246.43397 142.99944 L246.47943 140.68028 L246.37803 138.22058 L246.16979 135.66129 L245.89752 133.04619 L245.60468 130.41965 L245.33346 127.82481 L245.1232 125.30192 L245.00895 122.88698 L245.02042 120.61061 L245.1811 118.4972 L245.50771 116.5644 L246.01005 114.82291 L246.69126 113.27676 L247.54863 111.92414 L248.57501 110.75878 L249.76097 109.77212 L251.09787 108.9564 L252.58176 108.30853 L254.21501 107.83171 L256.00812 107.53732 L257.98008 107.44516 L260.15268 107.57786 L262.54574 107.95604 L265.17346 108.59472 L268.04199 109.50084 L271.14787 110.67172 L274.47734 112.09439 L278.00643 113.74563 L281.7016 115.59265 L285.52093 117.59427 L289.4157 119.70251 L293.33236 121.86451 L297.21458 124.02467 L301.00561 126.1269 L304.65047 128.11693 L308.09825 129.94447 L311.30409 131.56534 L314.23099 132.94317 L316.85118 134.05079 L319.14699 134.87117 L321.11113 135.39758 L322.74619 135.63318 L324.0632 135.58959 L325.07925 135.28442 L325.81382 134.7377 L326.284 133.96701 L326.50472 132.98778 L326.49629 131.82081 L326.28555 130.49339 L325.90496 129.03845 L325.39134 127.49322 L324.78454 125.89796 L324.12639 124.29491 L323.45969 122.72725 L322.82715 121.23803 L322.27032 119.86916 L321.82856 118.66031 L321.53806 117.648 L321.43163 116.8653 L321.53929 116.34252 L321.88738 116.10625 L322.49733 116.17815 L323.38464 116.57394 L324.55815 117.30264 L326.01953 118.36612 L327.76311 119.75886 L329.77585 121.46797 L332.03772 123.47351 L334.52213 125.74903 L337.19677 128.26228 L340.02452 130.97621 L342.96466 133.85015 L345.97416 136.8411 L349.00915 139.90519 L352.02638 142.99915 L354.98464 146.08177 L357.84634 149.11537 L360.57882 152.06725 L363.15571 154.91094 L365.55788 157.6272 L367.77418 160.20477 L369.80168 162.64057 L371.64542 164.93947 L373.31745 167.11333 L374.83512 169.17932 L376.21848 171.15726 L377.48656 173.06594 L378.6525 174.91825 L379.71852 176.71613 L380.68047 178.45514 L381.53471 180.13132 L382.27868 181.7418 L382.91106 183.2849 L383.43177 184.76018 L383.84193 186.16839 L384.14312 187.51068 L384.33535 188.78667 L384.41742 189.99472 L384.38796 191.13299 L384.24624 192.20032 L383.99291 193.19685 L383.6318 194.12592 L383.1727 194.9968 L382.63074 195.82409 L382.02504 196.62635 L381.37735 197.42479 L380.71094 198.24208 L380.04949 199.10133 L379.41616 200.02507 L378.83271 201.03445 L378.31879 202.14848 L377.89131 203.3834" />
    <path d="M386.46 202.5 L386.44121 204.37907 L386.38484 206.2574 L386.29092 208.13422 L386.15949 210.00878 L385.99059 211.88035 L385.7843 213.74815 L385.53942 215.6102 L385.24875 217.45842 L384.89989 219.27955 L384.47843 221.05835 L383.96981 222.77934 L383.36204 224.42966 L382.64809 226.00138 L381.82724 227.49285 L380.90558 228.90924 L379.89594 230.26245 L378.81722 231.57044 L377.69347 232.85629 L376.55261 234.14697 L375.42503 235.47188 L374.34216 236.86149 L373.33499 238.34579 L372.43269 239.95297 L371.66138 241.70811 L371.04295 243.63211 L370.59422 245.74079 L370.32619 248.0441 L370.24359 250.54575 L370.34456 253.24286 L370.6207 256.12597 L371.05717 259.17921 L371.63312 262.38069 L372.32224 265.70303 L373.09348 269.11414 L373.91188 272.578 L374.73957 276.05568 L375.53675 279.50633 L376.26281 282.88828 L376.87719 286.15989 L377.33821 289.27842 L377.60243 292.19939 L377.62695 294.87881 L377.37159 297.27545 L376.80072 299.35263 L375.88482 301.07975 L374.60161 302.43347 L372.93686 303.39854 L370.88498 303.96828 L368.44921 304.1449 L365.64164 303.93945 L362.48322 303.37182 L359.00451 302.47155 L355.24746 301.27956 L351.26407 299.84682 L347.11381 298.23176 L342.86107 296.49778 L338.57271 294.71073 L334.31564 292.93652 L330.15448 291.23877 L326.14938 289.67664 L322.35394 288.30277 L318.8134 287.16141 L315.56299 286.28685 L312.62667 285.70208 L310.01618 285.41791 L307.73058 285.43248 L305.75632 285.73132 L304.06797 286.28807 L302.62961 287.06592 L301.39719 288.01993 L300.32178 289.10032 L299.35406 290.25687 L298.44994 291.44468 L297.57704 292.6305 L296.70798 293.78614 L295.8052 294.87323 L294.8243 295.84658 L293.7196 296.65972 L292.44852 297.2693 L290.97486 297.63839 L289.27112 297.73871 L287.31995 297.55223 L285.11499 297.07187 L282.661 296.3017 L279.97357 295.25663 L277.07836 293.96167 L274.01005 292.45085 L270.81096 290.76588 L267.52954 288.9546 L264.21868 287.06931 L260.93386 285.16492 L257.73132 283.29713 L254.66615 281.52048 L251.79036 279.88646 L249.15095 278.44159 L246.78805 277.22552 L244.73305 276.26917 L243.00672 275.59289 L241.61746 275.20463 L240.56064 275.09938 L239.82154 275.26204 L239.37713 275.66921 L239.19688 276.29004 L239.24414 277.08754 L239.47793 278.02042 L239.85452 279.04469 L240.32921 280.1154 L240.85844 281.18872 L241.40025 282.22249 L241.913 283.17489 L242.35603 284.00506 L242.69077 284.67427 L242.88193 285.14712 L242.89928 285.39325 L242.71889 285.38864 L242.32356 285.11603 L241.70305 284.56513 L240.85419 283.73273 L239.78081 282.62267 L238.49355 281.24558 L237.00944 279.61855 L235.35135 277.7645 L233.54727 275.7115 L231.6294 273.49183 L229.6331 271.141 L227.59579 268.69655 L225.55561 266.19679 L223.55016 263.67952 L221.61515 261.18063 L219.78303 258.7328 L218.08171 256.36421 L216.53347 254.09737 L215.1539 251.94818 L213.95121 249.92516 L212.92574 248.02897 L212.06974 246.25221 L211.36748 244.57952 L210.7962 242.98853 L210.32772 241.45145 L209.93088 239.93758 L209.57505 238.41671 L209.23474 236.86383 L208.89517 235.26463 L208.55198 233.61527 L208.20305 231.91415 L207.84685 230.16027 L207.48247 228.35329 L207.10963 226.4935 L206.72868 224.58185 L206.34063 222.61996 L205.94709 220.61008 L205.55029 218.55506 L205.15292 216.45828 L204.75701 214.32243 L204.36211 212.14777 L203.96016 209.92694 L203.53506 207.64458 L203.06763 205.28226 L202.53966 202.8225 L201.93684 200.25178 L201.2507 197.56242 L200.47976 194.75373 L199.62993 191.83245 L198.71441 188.8126 L197.75311 185.71493 L196.77171 182.56597 L195.8005 179.39689 L194.87303 176.24211 L194.02469 173.13791 L193.29124 170.12095 L192.70741 167.22689 L192.30555 164.489 L192.11447 161.937 L192.15832 159.59601 L192.45582 157.4857 L193.0196 155.61965 L193.85578 154.00497 L194.96386 152.64212 L196.33676 151.52503 L197.96118 150.64138 L199.81818 149.97324 L201.88396 149.49782 L204.13092 149.18853 L206.52839 149.01573 L209.04344 148.94752 L211.64405 148.9529 L214.29921 149.00191 L216.97764 149.06431 L219.64717 149.10898 L222.2748 149.10396 L224.82714 149.01691 L227.27119 148.81592 L229.57544 148.47049 L231.71086 147.95268 L233.65206 147.23815 L235.37819 146.30712 L236.87374 145.14514 L238.12898 143.74353 L239.14006 142.09952 L239.90876 140.21595 L240.44214 138.10094 L240.75647 135.77181 L240.87975 133.25762 L240.84868 130.59614 L240.70561 127.83075 L240.49585 125.00782 L240.26537 122.17437 L240.05881 119.37608 L239.91779 116.6556 L239.87941 114.05106 L239.97508 111.5949 L240.22963 109.31297 L240.66073 107.22397 L241.27874 105.33924 L242.08694 103.66308 L243.08242 102.19357 L244.25759 100.9241 L245.60241 99.84562 L247.10772 98.94992 L248.76928 98.23375 L250.58957 97.70051 L252.57967 97.36224 L254.75966 97.23994 L257.15257 97.35758 L259.77934 97.73699 L262.65499 98.39409 L265.78597 99.33622 L269.16858 100.56057 L272.78823 102.0534 L276.61949 103.79014 L280.62682 105.73607 L284.76578 107.84759 L288.98477 110.0739 L293.22702 112.35904 L297.43288 114.64413 L301.5422 116.8698 L305.49675 118.97856 L309.24256 120.91719 L312.73211 122.6389 L315.92619 124.10516 L318.79534 125.28723 L321.32084 126.16704 L323.49491 126.73749 L325.32026 127.00191 L326.80853 126.97258 L327.97779 126.66818 L328.84862 126.10986 L329.43907 125.31627 L329.76492 124.30372 L329.84764 123.09421 L329.7156 121.71666 L329.40315 120.20589 L328.94924 118.60133 L328.396 116.94559 L327.78772 115.28338 L327.16966 113.6604 L326.58702 112.12223 L326.08374 110.71322 L325.70148 109.47536 L325.47853 108.4473 L325.44957 107.66405 L325.64637 107.15767 L326.09679 106.9563 L326.82348 107.08285 L327.84282 107.55396 L329.16413 108.37914 L330.78916 109.56036 L332.71187 111.09175 L334.91844 112.95964 L337.38759 115.1429 L340.09118 117.61348 L342.99494 120.33723 L346.05955 123.2749 L349.24187 126.38338 L352.4963 129.61712 L355.77638 132.92965 L359.03626 136.27513 L362.23232 139.60988 L365.32469 142.894 L368.2788 146.09282 L371.06668 149.17828 L373.66807 152.13001 L376.07112 154.93602 L378.27273 157.59303 L380.2782 160.10617 L382.10026 162.48797 L383.75727 164.75657 L385.27044 166.93292 L386.6599 169.0369 L387.93954 171.0821 L389.11169 173.07056 L390.17195 174.99754 L391.11643 176.85881 L391.94243 178.6513 L392.64852 180.37319 L393.2346 182.02399 L393.70185 183.60444 L394.05192 185.11574 L394.28482 186.55744 L394.39926 187.92778 L394.39377 189.22477 L394.26758 190.44713 L394.02137 191.595 L393.65918 192.67185 L393.19137 193.68748 L392.63396 194.65731 L392.00716 195.60094 L391.33403 196.54079 L390.63918 197.50084 L389.94769 198.50551 L389.28407 199.57863 L388.67137 200.74254 L388.13038 202.01734 L387.67901 203.42019" />
    <path d="M396.18 202.5 L396.15926 204.57346 L396.09707 206.64609 L395.99343 208.71707 L395.8484 210.78556 L395.66203 212.85073 L395.43439 214.91176 L395.16425 216.96649 L394.84399 219.00637 L394.46051 221.01738 L393.99865 222.98338 L393.443 224.888 L392.78095 226.71763 L392.00507 228.46387 L391.11461 230.12494 L390.11602 231.70627 L389.02283 233.22036 L387.85502 234.68615 L386.63798 236.12799 L385.40119 237.57427 L384.17675 239.05604 L382.99784 240.60539 L381.8972 242.25395 L380.90564 244.03145 L380.05071 245.96434 L379.35557 248.07465 L378.83797 250.37901 L378.50956 252.88794 L378.37532 255.6053 L378.43334 258.52802 L378.67474 261.64608 L379.08391 264.94271 L379.63883 268.39477 L380.31178 271.97334 L381.06997 275.64449 L381.87655 279.37021 L382.69156 283.10934 L383.47301 286.81876 L384.17806 290.45444 L384.76393 293.97242 L385.18662 297.32755 L385.40034 300.47284 L385.35981 303.36187 L385.02265 305.95105 L384.35128 308.20165 L383.31456 310.08137 L381.889 311.56554 L380.05962 312.63802 L377.82054 313.29177 L375.17521 313.52908 L372.13643 313.3616 L368.72632 312.8103 L364.97719 311.90635 L360.93336 310.69292 L356.64972 309.22378 L352.18909 307.56062 L347.61947 305.77033 L343.01148 303.9224 L338.43576 302.08638 L333.96056 300.32943 L329.6494 298.71396 L325.5589 297.29553 L321.73684 296.12085 L318.22045 295.22608 L315.03504 294.63549 L312.19304 294.36048 L309.69351 294.39906 L307.52217 294.73596 L305.65221 295.34335 L304.04575 296.18237 L302.65633 297.20556 L301.43234 298.36038 L300.32174 299.59382 L299.27806 300.85845 L298.26712 302.11922 L297.26007 303.34632 L296.2173 304.49927 L295.09199 305.53037 L293.83593 306.39055 L292.40424 307.03407 L290.75874 307.42193 L288.87041 307.52431 L286.721 307.32214 L284.30383 306.80797 L281.62395 305.9861 L278.69786 304.87226 L275.55268 303.49287 L272.22504 301.88385 L268.75966 300.08923 L265.20773 298.15952 L261.62508 296.14992 L258.07034 294.11841 L254.60289 292.12378 L251.28092 290.22362 L248.15936 288.4723 L245.28786 286.91892 L242.70883 285.60535 L240.4554 284.56423 L238.54956 283.81705 L237.0002 283.37225 L235.80246 283.22452 L234.94084 283.35795 L234.39106 283.74785 L234.12095 284.36167 L234.09182 285.16039 L234.26045 286.10044 L234.58073 287.13541 L235.00551 288.21785 L235.48881 289.30154 L235.98641 290.34199 L236.45436 291.29506 L236.84977 292.11766 L237.13196 292.76893 L237.26372 293.21151 L237.21315 293.41339 L236.95503 293.34924 L236.47122 293.00085 L235.75096 292.3574 L234.79091 291.41551 L233.59515 290.17926 L232.17492 288.65992 L230.54823 286.87553 L228.73926 284.85032 L226.77756 282.61394 L224.69713 280.2005 L222.53535 277.64751 L220.33171 274.99462 L218.12651 272.28231 L215.95947 269.55048 L213.86827 266.83708 L211.88719 264.1766 L210.04574 261.59884 L208.36742 259.12759 L206.86873 256.77967 L205.55834 254.56408 L204.43662 252.48157 L203.49542 250.52435 L202.71814 248.67625 L202.08078 246.91369 L201.55358 245.20736 L201.1037 243.52489 L200.69881 241.83444 L200.312 240.10961 L199.92769 238.33537 L199.54129 236.50768 L199.15058 234.62489 L198.75393 232.68598 L198.35041 230.69062 L197.93971 228.63916 L197.52223 226.53263 L197.09903 224.37278 L196.67182 222.16201 L196.24295 219.90339 L195.81528 217.6005 L195.39094 215.25622 L194.96945 212.87087 L194.54233 210.43671 L194.09257 207.93756 L193.59993 205.354 L193.04518 202.66763 L192.41323 199.8642 L191.69512 196.93564 L190.8893 193.88127 L190.00199 190.70822 L189.04713 187.43134 L188.04574 184.07257 L187.0249 180.65994 L186.01659 177.22639 L185.05622 173.8083 L184.18112 170.44398 L183.42905 167.17218 L182.83665 164.03056 L182.43807 161.05428 L182.26369 158.27476 L182.339 155.71852 L182.68375 153.40638 L183.31126 151.3527 L184.22799 149.56502 L185.43337 148.04387 L186.91993 146.78285 L188.67361 145.76901 L190.67441 144.98344 L192.89719 144.40213 L195.31278 143.99704 L197.88882 143.73692 L200.59052 143.58812 L203.38405 143.51795 L206.23667 143.49483 L209.11534 143.48684 L211.98609 143.46119 L214.81405 143.38416 L217.56395 143.22164 L220.20097 142.93997 L222.69178 142.50701 L225.00575 141.89328 L227.11604 141.0731 L229.00061 140.02564 L230.64308 138.73565 L232.03313 137.19402 L233.1667 135.39783 L234.04563 133.35011 L234.67734 131.05946 L235.07898 128.54418 L235.28007 125.83496 L235.31933 122.9717 L235.24144 120.00021 L235.09418 116.96946 L234.92606 113.92909 L234.78416 110.92736 L234.71239 108.00928 L234.74987 105.21514 L234.92973 102.57919 L235.27815 100.12874 L235.81375 97.88353 L236.54743 95.85556 L237.48262 94.04939 L238.61622 92.463 L239.94016 91.08942 L241.44386 89.91912 L243.11756 88.94344 L244.9568 88.15897 L246.96413 87.5693 L249.15123 87.18717 L251.53924 87.03473 L254.15246 87.1373 L257.01295 87.51793 L260.13651 88.19345 L263.52994 89.1716 L267.18929 90.44942 L271.09912 92.01241 L275.23256 93.83465 L279.55204 95.87949 L284.01064 98.10091 L288.55384 100.44529 L293.12169 102.85357 L297.65118 105.2636 L302.0788 107.6127 L306.34303 109.8402 L310.38687 111.88992 L314.16014 113.71245 L317.62139 115.26715 L320.73951 116.52366 L323.49469 117.46291 L325.87869 118.07739 L327.89433 118.37063 L329.55387 118.35558 L330.87633 118.05193 L331.88342 117.48203 L332.59414 116.66553 L333.02512 115.61965 L333.19899 114.36762 L333.14566 112.93993 L332.90135 111.37333 L332.50713 109.70944 L332.00747 107.99322 L331.44904 106.27185 L330.87963 104.59355 L330.34688 103.00643 L329.89717 101.55727 L329.57441 100.29041 L329.41899 99.2466 L329.46751 98.4628 L329.75345 97.97282 L330.3062 97.80635 L331.14962 97.98756 L332.30099 98.53397 L333.77011 99.45564 L335.5588 100.7546 L337.66064 102.42464 L340.06102 104.45131 L342.73747 106.81229 L345.66022 109.47794 L348.7931 112.41219 L352.09458 115.57359 L355.51907 118.91661 L359.01844 122.39314 L362.5436 125.95411 L366.04615 129.5511 L369.47999 133.13799 L372.80305 136.67262 L375.97878 140.11839 L378.97766 143.44563 L381.77826 146.63281 L384.36807 149.66726 L386.74378 152.54549 L388.91097 155.27287 L390.88307 157.86261 L392.67942 160.33382 L394.3224 162.70859 L395.83323 165.00786 L397.22657 167.24596 L398.50486 169.42499 L399.66343 171.53994 L400.69816 173.5863 L401.60618 175.5608 L402.38598 177.46148 L403.03743 179.28779 L403.56177 181.04048 L403.96072 182.72079 L404.23429 184.32822 L404.3811 185.86084 L404.39958 187.31655 L404.28893 188.69395 L404.04983 189.99315 L403.68657 191.21779 L403.21004 192.37816 L402.63717 193.49052 L401.98929 194.57552 L401.29071 195.65679 L400.56742 196.7596 L399.84589 197.90969 L399.15198 199.13218 L398.51002 200.45063 L397.94197 201.8862 L397.46671 203.45698" />
    <path d="M405.9 202.5 L405.87732 204.76785 L405.80929 207.03479 L405.69594 209.29992 L405.53731 211.56233 L405.33347 213.82111 L405.08449 216.07536 L404.78908 218.32277 L404.43922 220.55433 L404.02114 222.75521 L403.51886 224.90841 L402.9162 226.99667 L402.19986 229.00561 L401.36205 230.92636 L400.40199 232.75703 L399.32645 234.50329 L398.14971 236.17827 L396.89281 237.80187 L395.58248 239.39968 L394.24977 241.00158 L392.92847 242.64019 L391.65353 244.34928 L390.45942 246.16211 L389.37858 248.10994 L388.44004 250.22057 L387.66819 252.51718 L387.08173 255.01724 L386.69293 257.73178 L386.50706 260.66484 L386.52212 263.81317 L386.72879 267.16619 L387.11065 270.70622 L387.64455 274.40885 L388.30131 278.24364 L389.04647 282.17485 L389.84123 286.16241 L390.64355 290.163 L391.40927 294.13118 L392.09331 298.0206 L392.65066 301.78495 L393.03504 305.37668 L393.19825 308.7463 L393.09267 311.84492 L392.6737 314.62664 L391.90183 317.05068 L390.74429 319.083 L389.17639 320.69761 L387.18238 321.87751 L384.7561 322.61526 L381.90121 322.91326 L378.63121 322.78374 L374.96943 322.24878 L370.94988 321.34114 L366.61925 320.10627 L362.03537 318.60075 L357.26437 316.88949 L352.37788 315.04288 L347.45025 313.13407 L342.55588 311.23625 L337.76664 309.42008 L333.14942 307.75128 L328.76386 306.2883 L324.66028 305.08029 L320.8779 304.16531 L317.4434 303.5689 L314.36991 303.30304 L311.65644 303.36564 L309.28802 303.7406 L307.23645 304.39863 L305.46189 305.29881 L303.91547 306.39119 L302.5429 307.62044 L301.28943 308.93076 L300.10617 310.27223 L298.9572 311.60793 L297.81216 312.9065 L296.62941 314.12532 L295.35968 315.21415 L293.95227 316.12138 L292.35997 316.79885 L290.54261 317.20548 L288.4697 317.3099 L286.12205 317.09205 L283.49266 316.54407 L280.5869 315.6705 L277.42215 314.4879 L274.02699 313.02408 L270.44003 311.31686 L266.70837 309.41258 L262.88592 307.36444 L259.03149 305.23053 L255.20682 303.07189 L251.47446 300.95043 L247.89569 298.92677 L244.52836 297.05814 L241.42478 295.39625 L238.6296 293.98517 L236.17776 292.85928 L234.09241 292.04122 L232.38293 291.53986 L231.04427 291.34965 L230.06014 291.45385 L229.405 291.82648 L229.04501 292.4333 L228.93949 293.23324 L229.04297 294.18046 L229.30695 295.22612 L229.68181 296.32031 L230.11919 297.41436 L230.57257 298.46149 L230.99571 299.41523 L231.34351 300.23026 L231.57315 300.86359 L231.64551 301.27591 L231.52702 301.43354 L231.19117 301.30984 L230.61889 300.88568 L229.79887 300.14966 L228.72763 299.09829 L227.40948 297.73586 L225.85629 296.07426 L224.08703 294.13251 L222.12717 291.93614 L220.00784 289.51638 L217.76487 286.90918 L215.4376 284.15403 L213.06764 281.2927 L210.69742 278.36782 L208.36877 275.42145 L206.12139 272.49352 L203.99136 269.6204 L202.00977 266.83347 L200.20138 264.15781 L198.58356 261.61115 L197.16546 259.20299 L195.94751 256.93417 L194.92109 254.79649 L194.0688 252.77298 L193.36535 250.83884 L192.77945 248.96327 L192.27653 247.1122 L191.82257 245.25216 L191.38926 243.3554 L190.96022 241.40612 L190.53061 239.4001 L190.0981 237.33563 L189.66101 235.21169 L189.21834 233.02795 L188.76979 230.78481 L188.31579 228.48341 L187.85744 226.12559 L187.39655 223.71395 L186.93562 221.25172 L186.47764 218.74272 L186.02486 216.19002 L185.5768 213.59397 L185.1245 210.94648 L184.65008 208.23054 L184.13222 205.42574 L183.55071 202.51276 L182.88962 199.47662 L182.13954 196.30886 L181.29883 193.0088 L180.37405 189.58399 L179.37986 186.05008 L178.33836 182.43021 L177.27809 178.75392 L176.23268 175.0559 L175.2394 171.37449 L174.33755 167.75005 L173.56686 164.22341 L172.96589 160.83423 L172.57059 157.61957 L172.4129 154.61251 L172.51968 151.84103 L172.91169 149.32706 L173.60293 147.08575 L174.60019 145.12507 L175.90288 143.44561 L177.5031 142.04066 L179.38604 140.89663 L181.53064 139.99364 L183.91041 139.30644 L186.49465 138.80556 L189.24925 138.45811 L192.13759 138.22872 L195.12405 138.08301 L198.17413 137.98774 L201.25304 137.90937 L204.325 137.81339 L207.3533 137.66435 L210.30077 137.42636 L213.13074 137.06403 L215.80813 136.54353 L218.30064 135.83387 L220.58001 134.90805 L222.62303 133.74415 L224.41241 132.32617 L225.93729 130.64451 L227.19335 128.69615 L228.18249 126.48428 L228.91253 124.01798 L229.40148 121.31655 L229.68039 118.4123 L229.78998 115.34726 L229.77726 112.16968 L229.69251 108.9311 L229.58674 105.68382 L229.50951 102.47863 L229.50699 99.36296 L229.62033 96.37921 L229.88438 93.56348 L230.32667 90.9445 L230.96677 88.54309 L231.81612 86.37189 L232.87829 84.4357 L234.15001 82.73243 L235.62274 81.25474 L237.2853 79.99262 L239.12741 78.93697 L241.14432 78.08419 L243.33869 77.4381 L245.72278 77.01209 L248.31883 76.82951 L251.15235 76.91701 L254.24655 77.29888 L257.61804 77.99281 L261.27391 79.00698 L265.21 80.33827 L269.41001 81.97142 L273.84562 83.87916 L278.47726 86.02291 L283.25549 88.35422 L288.1229 90.81668 L293.01635 93.3481 L297.86949 95.88306 L302.61539 98.3556 L307.1893 100.70183 L311.53118 102.86264 L315.58816 104.786 L319.31659 106.42914 L322.68368 107.76009 L325.66854 108.75878 L328.26247 109.4173 L330.4684 109.73935 L332.2992 109.73857 L333.77487 109.43568 L334.91821 108.8542 L335.74921 108.01479 L336.28532 106.93559 L336.55033 105.64103 L336.57571 104.1632 L336.39954 102.54078 L336.06502 100.81755 L335.61893 99.04085 L335.11037 97.26031 L334.5896 95.5267 L334.10675 93.89062 L333.71059 92.40133 L333.44733 91.10546 L333.35946 90.04591 L333.48545 89.26155 L333.86054 88.78797 L334.51561 88.6564 L335.47577 88.89226 L336.75917 89.51399 L338.37609 90.53214 L340.32843 91.94884 L342.6094 93.75753 L345.2036 95.94298 L348.08734 98.48167 L351.22927 101.3424 L354.59127 104.48715 L358.12961 107.87228 L361.79628 111.44983 L365.54058 115.16916 L369.31083 118.97857 L373.05603 122.82708 L376.72767 126.6661 L380.2814 130.45125 L383.67876 134.14395 L386.88863 137.71298 L389.88845 141.13562 L392.66502 144.39851 L395.21483 147.49795 L397.54375 150.43958 L399.66587 153.23725 L401.60157 155.91107 L403.37436 158.48425 L405.00657 160.97881 L406.51361 163.40981 L407.89803 165.77942 L409.1549 168.08234 L410.27988 170.31379 L411.26993 172.47029 L412.12344 174.54977 L412.84026 176.55159 L413.42169 178.47653 L413.86952 180.32585 L414.18376 182.09899 L414.36293 183.79391 L414.40539 185.40833 L414.31027 186.94077 L414.0783 188.3913 L413.71395 189.76372 L413.22872 191.06885 L412.64039 192.32374 L411.97141 193.55011 L411.24739 194.77279 L410.49566 196.01836 L409.74409 197.31388 L409.0199 198.68574 L408.34868 200.15872 L407.75356 201.75506 L407.25441 203.49377" />
    <path d="M415.62 202.5 L415.59538 204.96224 L415.52152 207.42349 L415.39845 209.88277 L415.22623 212.3391 L415.00491 214.79149 L414.73459 217.23896 L414.41391 219.67906 L414.03445 222.10228 L413.58176 224.49305 L413.03907 226.83344 L412.38939 229.10533 L411.61877 231.29359 L410.71904 233.38886 L409.68936 235.38912 L408.53689 237.30031 L407.2766 239.13617 L405.93061 240.91759 L404.52699 242.67138 L403.09835 244.42889 L401.68019 246.22435 L400.30922 248.09317 L399.02163 250.07027 L397.85152 252.18843 L396.82937 254.47681 L395.9808 256.95971 L395.32548 259.65547 L394.87629 262.57562 L394.6388 265.72439 L394.6109 269.09833 L394.78284 272.6863 L395.13739 276.46972 L395.65026 280.42294 L396.29084 284.51395 L397.02296 288.7052 L397.8059 292.95461 L398.59554 297.21666 L399.34553 301.44361 L400.00856 305.58676 L400.53739 309.59748 L400.88345 313.4258 L400.99616 317.01976 L400.82553 320.32797 L400.32476 323.30223 L399.45238 325.8997 L398.17403 328.08462 L396.46378 329.82968 L394.30514 331.117 L391.69166 331.93875 L388.62721 332.29743 L385.126 332.20588 L381.21253 331.68725 L376.92257 330.77594 L372.30515 329.51962 L367.42102 327.97772 L362.33966 326.21835 L357.13629 324.31543 L351.88902 322.34574 L346.676 320.38611 L341.57271 318.51074 L336.64944 316.78861 L331.96882 315.28107 L327.58372 314.03973 L323.53535 313.10454 L319.85177 312.50231 L316.54677 312.2456 L313.61937 312.33222 L311.05387 312.74525 L308.82069 313.45392 L306.87803 314.41526 L305.17461 315.57682 L303.65346 316.8805 L302.25712 318.2677 L300.93429 319.68601 L299.64728 321.09664 L298.36426 322.46668 L297.04152 323.75136 L295.62736 324.89794 L294.06861 325.85222 L292.31569 326.56362 L290.32648 326.98903 L288.06899 327.09549 L285.52311 326.86196 L282.6815 326.28017 L279.54985 325.3549 L276.14643 324.10354 L272.50131 322.55529 L268.65502 320.74986 L264.65708 318.73594 L260.56411 316.56936 L256.4379 314.31114 L252.3433 312.02538 L248.34603 309.77709 L244.51046 307.62992 L240.89736 305.64398 L237.5617 303.87357 L234.55037 302.36499 L231.90011 301.15434 L229.63525 300.26539 L227.76567 299.70748 L226.28609 299.47479 L225.17945 299.54976 L224.41894 299.90512 L223.96907 300.50493 L223.78716 301.30609 L223.82549 302.26048 L224.03316 303.31684 L224.3581 304.42276 L224.74957 305.52718 L225.15872 306.58098 L225.53707 307.53541 L225.83725 308.34286 L226.01435 308.95825 L226.02729 309.3403 L225.84089 309.45368 L225.42731 309.27044 L224.76656 308.7705 L223.84678 307.94193 L222.66435 306.78107 L221.22382 305.29246 L219.53766 303.4886 L217.62583 301.38949 L215.51507 299.02196 L213.23812 296.41882 L210.8326 293.61785 L208.33985 290.66054 L205.80356 287.59077 L203.26833 284.45333 L200.77808 281.29241 L198.3745 278.14996 L196.09553 275.0642 L193.9738 272.06811 L192.03534 269.18804 L190.2984 266.44263 L188.77259 263.84191 L187.45839 261.38676 L186.34677 259.06863 L185.41946 256.86972 L184.64992 254.764 L184.00532 252.71918 L183.44936 250.69951 L182.94633 248.66988 L182.46652 246.60119 L181.99274 244.47686 L181.51992 242.29251 L181.04562 240.04637 L180.56809 237.7374 L180.08627 235.36528 L179.59988 232.93047 L179.10934 230.43418 L178.61584 227.87841 L178.12128 225.26588 L177.62828 222.60004 L177.13999 219.88494 L176.65878 217.12381 L176.18414 214.31707 L175.70666 211.45624 L175.20759 208.52352 L174.66452 205.49748 L174.05623 202.35788 L173.366 199.08903 L172.58396 195.68208 L171.70837 192.13633 L170.74611 188.45976 L169.71258 184.66882 L168.63099 180.78785 L167.53128 176.84789 L166.44877 172.88541 L165.42258 168.94068 L164.49398 165.05613 L163.70467 161.27464 L163.09513 157.63791 L162.7031 154.18486 L162.56212 150.95027 L162.70036 147.96355 L163.13962 145.24774 L163.8946 142.8188 L164.9724 140.68512 L166.37238 138.84735 L168.08626 137.29848 L170.09848 136.02425 L172.38687 135.00384 L174.92363 134.21076 L177.67651 133.61407 L180.60968 133.1793 L183.68466 132.86932 L186.86405 132.64806 L190.11159 132.48065 L193.39074 132.3319 L196.66392 132.1656 L199.89254 131.94454 L203.03759 131.63109 L206.06052 131.18809 L208.92447 130.58005 L211.59553 129.77447 L214.04399 128.743 L216.24545 127.46267 L218.18175 125.91668 L219.84144 124.09499 L221.21999 121.99446 L222.31936 119.61844 L223.14773 116.9765 L223.72399 114.08891 L224.08071 110.98964 L224.26064 107.72282 L224.31309 104.33914 L224.29084 100.89274 L224.24743 97.43854 L224.23486 94.02991 L224.30159 90.71664 L224.49079 87.54329 L224.83904 84.54777 L225.3752 81.76027 L226.1198 79.20266 L227.08481 76.88822 L228.27397 74.82202 L229.6838 73.00186 L231.30532 71.42006 L233.12675 70.06612 L235.13726 68.93049 L237.33184 68.00941 L239.71325 67.30689 L242.29434 66.83702 L245.09841 66.6243 L248.15224 66.69673 L251.48016 67.07983 L255.09956 67.79217 L259.01789 68.84236 L263.23071 70.22711 L267.7209 71.93044 L272.45868 73.92367 L277.40248 76.16632 L282.50035 78.60754 L287.69197 81.18807 L292.91102 83.84263 L298.08779 86.50253 L303.15199 89.09849 L308.03558 91.56347 L312.67549 93.83536 L317.01619 95.85956 L321.01179 97.59113 L324.62785 98.99652 L327.84239 100.05465 L330.64625 100.75721 L333.04247 101.10808 L335.04454 101.12157 L336.67341 100.81944 L337.95301 100.22636 L338.90428 99.36405 L339.54552 98.25153 L339.90168 96.91444 L340.00577 95.38647 L339.89773 93.70822 L339.62292 91.92566 L339.23039 90.08848 L338.7717 88.24878 L338.29957 86.45985 L337.86661 84.77482 L337.52401 83.24539 L337.32025 81.92051 L337.29992 80.84521 L337.50339 80.0603 L337.96762 79.60312 L338.72502 79.50644 L339.80192 79.79696 L341.21734 80.494 L342.98207 81.60864 L345.09806 83.14308 L347.55817 85.09042 L350.34618 87.43465 L353.43721 90.15106 L356.79831 93.20685 L360.38944 96.56211 L364.16464 100.17096 L368.07349 103.98306 L372.06272 107.94518 L376.07805 112.00303 L380.06592 116.10305 L383.97534 120.19422 L387.75975 124.22988 L391.37874 128.16952 L394.7996 131.98032 L397.99864 135.63842 L400.96196 139.12975 L403.68588 142.45041 L406.17652 145.60628 L408.44868 148.61189 L410.52372 151.48832 L412.42631 154.25991 L414.1799 156.94977 L415.80064 159.57366 L417.2912 162.13385 L418.64638 164.62474 L419.86161 167.04128 L420.93368 169.37979 L421.8609 171.63806 L422.64309 173.81539 L423.28161 175.91258 L423.77832 177.93091 L424.13322 179.86977 L424.34477 181.72697 L424.41121 183.50011 L424.33162 185.18758 L424.10676 186.78944 L423.74133 188.30966 L423.24739 189.75953 L422.6436 191.15695 L421.95354 192.52469 L421.20407 193.88879 L420.4239 195.27712 L419.64229 196.71806 L418.88781 198.2393 L418.18734 199.86681 L417.56515 201.62392 L417.04211 203.53056" />
    <path d="M425.34 202.5 L425.31343 205.15662 L425.23374 207.81218 L425.10096 210.46562 L424.91514 213.11587 L424.67635 215.76187 L424.38469 218.40256 L424.03874 221.03535 L423.62968 223.65024 L423.14238 226.23088 L422.55929 228.75848 L421.86259 231.21399 L421.03768 233.58156 L420.07602 235.85135 L418.97673 238.02121 L417.74732 240.09733 L416.40349 242.09408 L414.96841 244.0333 L413.4715 245.94307 L411.94693 247.85619 L410.43191 249.8085 L408.9649 251.83707 L407.58385 253.97843 L406.32446 256.26691 L405.2187 258.73304 L404.29342 261.40224 L403.56923 264.29369 L403.05966 267.41946 L402.77053 270.78394 L402.69968 274.38348 L402.83689 278.20641 L403.16413 282.23322 L403.65598 286.43702 L404.28038 290.78425 L404.99945 295.23556 L405.77057 299.74681 L406.54753 304.27032 L407.28179 308.75603 L407.92381 313.15292 L408.42413 317.41001 L408.73186 321.47493 L408.79406 325.29321 L408.55839 328.81102 L407.97582 331.97783 L407.00294 334.74873 L405.60376 337.08624 L403.75117 338.96174 L401.4279 340.35648 L398.62722 341.26224 L395.35321 341.68161 L391.62078 341.62803 L387.45563 341.12573 L382.89525 340.21073 L377.99104 338.93298 L372.80667 337.35468 L367.41494 335.54722 L361.8947 333.58799 L356.32779 331.55741 L350.79612 329.53598 L345.37879 327.6014 L340.14946 325.82593 L335.17378 324.27383 L330.50716 322.99917 L326.19281 322.04377 L322.26014 321.43572 L318.72364 321.18816 L315.58231 321.29879 L312.81972 321.74989 L310.40493 322.5092 L308.29417 323.53171 L306.43375 324.76245 L304.76402 326.14056 L303.22481 327.60465 L301.76241 329.09979 L300.33736 330.58536 L298.91635 332.02685 L297.45363 333.3774 L295.89505 334.58173 L294.18495 335.58305 L292.27141 336.32839 L290.11035 336.77257 L287.66828 336.88109 L284.92416 336.63187 L281.87034 336.01627 L278.5128 335.03929 L274.87072 333.71918 L270.97562 332.0865 L266.87002 330.18287 L262.60579 328.05929 L258.24229 325.77427 L253.8443 323.39175 L249.47978 320.97887 L245.2176 318.60374 L241.12523 316.33307 L237.26637 314.22982 L233.69861 312.3509 L230.47115 310.74481 L227.62246 309.44939 L225.17809 308.48956 L223.14841 307.8751 L221.52791 307.59993 L220.29875 307.64566 L219.43287 307.98376 L218.89313 308.57656 L218.63483 309.37894 L218.60801 310.3405 L218.75938 311.40755 L219.0344 312.52521 L219.37995 313.64 L219.74488 314.70048 L220.07843 315.65558 L220.33099 316.45547 L220.45554 317.05291 L220.40908 317.40469 L220.15476 317.47382 L219.66345 317.23104 L218.91423 316.65532 L217.8947 315.73419 L216.60107 314.46384 L215.03815 312.84905 L213.21903 310.90294 L211.16462 308.64647 L208.90298 306.10778 L206.4684 303.32127 L203.90033 300.32653 L201.2421 297.16705 L198.53949 293.88884 L195.83924 290.53885 L193.18738 287.16337 L190.62762 283.8064 L188.1997 280.508 L185.93783 277.30274 L183.86929 274.21826 L182.01323 271.27411 L180.37972 268.48083 L178.96927 265.83936 L177.77245 263.34078 L176.77012 260.96645 L175.93449 258.68916 L175.23119 256.47509 L174.62218 254.28682 L174.07009 252.08761 L173.54379 249.84698 L173.02526 247.54761 L172.50924 245.18492 L171.99315 242.75711 L171.47517 240.2631 L170.95421 237.70261 L170.42996 235.07612 L169.90289 232.38496 L169.37424 229.63123 L168.84601 226.81781 L168.32094 223.94837 L167.80235 221.02716 L167.2927 218.05761 L166.79148 215.04017 L166.28883 211.96601 L165.76509 208.81649 L165.19682 205.56922 L164.56175 202.20301 L163.84239 198.70145 L163.02838 195.0553 L162.1179 191.26387 L161.11817 187.33553 L160.0453 183.28757 L158.92361 179.14549 L157.78446 174.94186 L156.66485 170.71492 L155.60576 166.50687 L154.65041 162.3622 L153.84248 158.32587 L153.22438 154.44158 L152.83562 150.75014 L152.71134 147.28802 L152.88104 144.08606 L153.36756 141.16842 L154.18626 138.55185 L155.3446 136.24518 L156.84189 134.24909 L158.66943 132.55629 L160.81091 131.15188 L163.24309 130.01404 L165.93686 129.11507 L168.85838 128.42258 L171.97011 127.90049 L175.23174 127.50991 L178.60405 127.21311 L182.04905 126.97356 L185.52844 126.75443 L189.00283 126.5178 L192.43179 126.22474 L195.7744 125.83582 L198.99029 125.31214 L202.04081 124.61658 L204.89042 123.71506 L207.50796 122.57795 L209.86787 121.18118 L211.95108 119.50719 L213.7456 117.54548 L215.24663 115.29277 L216.45623 112.75261 L217.38293 109.93502 L218.04649 106.86128 L218.48102 103.56698 L218.73129 100.09838 L218.84892 96.5086 L218.88917 92.85438 L218.90812 89.19326 L218.96021 85.58118 L219.09618 82.07032 L219.36125 78.70737 L219.79369 75.53205 L220.42372 72.57603 L221.27282 69.86222 L222.35349 67.40455 L223.66965 65.20833 L225.21759 63.27129 L226.9879 61.58538 L228.96819 60.13962 L231.1471 58.92401 L233.51935 57.93463 L236.08781 57.17569 L238.8659 56.66194 L241.87799 56.41908 L245.15213 56.47645 L248.71376 56.86077 L252.58108 57.59153 L256.76186 58.67774 L261.25142 60.11596 L266.03179 61.88945 L271.07175 63.96818 L276.3277 66.30974 L281.7452 68.86086 L287.26104 71.55946 L292.80568 74.33716 L298.30609 77.12199 L303.68858 79.84139 L308.88185 82.4251 L313.81981 84.80808 L318.44421 86.93311 L322.70699 88.75312 L326.57202 90.23295 L330.01624 91.35052 L333.03003 92.09712 L335.61654 92.4768 L337.78987 92.50456 L339.57195 92.20319 L340.98781 91.59853 L342.05935 90.71331 L342.80572 89.56747 L343.25303 88.18785 L343.43582 86.60973 L343.39593 84.87566 L343.18081 83.03378 L342.84186 81.13611 L342.43303 79.23724 L342.00954 77.393 L341.62648 75.65902 L341.33743 74.08945 L341.19318 72.73556 L341.24039 71.64452 L341.52133 70.85905 L342.0747 70.41826 L342.93443 70.35649 L344.12806 70.70167 L345.67551 71.47402 L347.58805 72.68514 L349.8677 74.33732 L352.50693 76.42331 L355.48877 78.92633 L358.78709 81.82045 L362.36736 85.07131 L366.18761 88.63706 L370.19967 92.46965 L374.3507 96.51629 L378.58487 100.7212 L382.84528 105.02749 L387.0758 109.37903 L391.22302 113.72233 L395.23811 118.0085 L399.07872 122.19509 L402.71058 126.24767 L406.10882 130.14122 L409.25891 133.861 L412.15693 137.40287 L414.80929 140.77298 L417.23149 143.98653 L419.44587 147.06557 L421.47827 150.03558 L423.35324 152.92072 L425.08768 155.73751 L426.68436 158.48829 L428.13785 161.16714 L429.44333 163.76877 L430.59743 166.28928 L431.59835 168.72634 L432.44592 171.0792 L433.14153 173.34863 L433.68713 175.53597 L434.08269 177.64054 L434.32661 179.66003 L434.41702 181.59188 L434.35297 183.4344 L434.13523 185.18759 L433.76872 186.8556 L433.26606 188.45022 L432.64682 189.99017 L431.93566 191.49927 L431.16074 193.00479 L430.35214 194.53588 L429.54049 196.12224 L428.75572 197.79285 L428.026 199.5749 L427.37674 201.49278 L426.82981 203.56734" />
    <path d="M435.06 202.5 L435.03149 205.35101 L434.94597 208.20088 L434.80347 211.04847 L434.60405 213.89264 L434.34779 216.73225 L434.03479 219.56617 L433.66356 222.39164 L433.22491 225.19819 L432.70301 227.96871 L432.0795 230.68351 L431.33578 233.32266 L430.45659 235.86954 L429.433 238.31385 L428.26411 240.65331 L426.95776 242.89435 L425.53038 245.05199 L424.00621 247.14902 L422.416 249.21477 L420.79551 251.2835 L419.18363 253.39265 L417.62059 255.58096 L416.14606 257.88659 L414.7974 260.3454 L413.60803 262.98928 L412.60604 265.84478 L411.81299 268.93192 L411.24303 272.2633 L410.90227 275.84348 L410.78846 279.66864 L410.89094 283.72653 L411.19087 287.99673 L411.6617 292.45111 L412.26991 297.05456 L412.97594 301.76591 L413.73524 306.53901 L414.49952 311.32397 L415.21805 316.06846 L415.83907 320.71909 L416.31086 325.22254 L416.58028 329.52405 L416.59197 333.56667 L416.29124 337.29407 L415.62687 340.65342 L414.55349 343.59776 L413.0335 346.08787 L411.03856 348.09381 L408.55067 349.59597 L405.56279 350.58573 L402.07922 351.06579 L398.11557 351.05017 L393.69874 350.56421 L388.86794 349.64553 L383.67694 348.34633 L378.19232 346.73165 L372.49022 344.87608 L366.65311 342.86054 L360.76656 340.76908 L354.91624 338.68584 L349.18487 336.69206 L343.64948 334.86325 L338.37874 333.2666 L333.4306 331.95861 L328.85026 330.983 L324.6685 330.36912 L320.9005 330.13073 L317.54524 330.26537 L314.58557 330.75453 L311.98917 331.56448 L309.71031 332.64815 L307.69289 333.94809 L305.87457 335.40063 L304.1925 336.94159 L302.59052 338.51357 L301.02745 340.07407 L299.46844 341.58703 L297.86573 343.00344 L296.16274 344.26551 L294.30128 345.31388 L292.22714 346.09316 L289.89422 346.55612 L287.26757 346.66668 L284.32521 346.40178 L281.05918 345.75237 L277.47574 344.72369 L273.59501 343.33481 L269.44994 341.61771 L265.08501 339.61587 L260.55449 337.38265 L255.92048 334.97919 L251.25071 332.47236 L246.61626 329.93236 L242.08917 327.43039 L237.74 325.03621 L233.63537 322.81566 L229.83553 320.82823 L226.39192 319.12464 L223.34481 317.74445 L220.72093 316.71373 L218.53115 316.04271 L216.76973 315.72507 L215.41805 315.74157 L214.44681 316.06239 L213.81719 316.64819 L213.4825 317.45179 L213.39053 318.42052 L213.48559 319.49827 L213.7107 320.62767 L214.01033 321.75282 L214.33104 322.81997 L214.61978 323.77575 L214.82473 324.56807 L214.89673 325.14756 L214.79087 325.46909 L214.46863 325.49397 L213.89959 325.19163 L213.0619 324.54014 L211.94261 323.52646 L210.5378 322.14662 L208.85249 320.40565 L206.9004 318.31728 L204.70342 315.90345 L202.29089 313.1936 L199.69868 310.22371 L196.96807 307.0352 L194.14435 303.67357 L191.27542 300.18692 L188.41015 296.62436 L185.59668 293.03433 L182.88074 289.46285 L180.30387 285.95181 L177.90186 282.53737 L175.70325 279.24848 L173.72806 276.1056 L171.98685 273.11974 L170.48016 270.29196 L169.19813 267.61292 L168.12078 265.06318 L167.21907 262.61432 L166.45705 260.231 L165.79501 257.87414 L165.19385 255.50533 L164.62105 253.09276 L164.05779 250.61835 L163.49855 248.07734 L162.94067 245.46785 L162.38225 242.78881 L161.82214 240.03994 L161.26004 237.22178 L160.69644 234.33573 L160.13264 231.38404 L159.57074 228.36975 L159.01361 225.2967 L158.4647 222.16937 L157.92663 218.9914 L157.39882 215.76327 L156.871 212.47578 L156.3226 209.10947 L155.72912 205.64096 L155.06727 202.04813 L154.31878 198.31386 L153.4728 194.42852 L152.52744 190.3914 L151.49023 186.2113 L150.37803 181.90631 L149.21624 177.50313 L148.03765 173.03584 L146.88094 168.54442 L145.78895 164.07306 L144.80684 159.66827 L143.98029 155.3771 L143.35362 151.24525 L142.96813 147.31543 L142.86056 143.62578 L143.06173 140.20857 L143.59549 137.0891 L144.47793 134.28491 L145.71681 131.80523 L147.3114 129.65083 L149.2526 127.81411 L151.52334 126.2795 L154.09932 125.02424 L156.95008 124.01938 L160.04024 123.2311 L163.33054 122.62168 L166.77881 122.15051 L170.34404 121.77816 L173.98651 121.46647 L177.66614 121.17695 L181.34175 120.87001 L184.97103 120.50493 L188.51122 120.04054 L191.92007 119.4362 L195.15716 118.6531 L198.18531 117.65565 L200.97194 116.4129 L203.49029 114.8997 L205.72042 113.09771 L207.64975 110.99597 L209.27327 108.59108 L210.5931 105.88677 L211.61812 102.89354 L212.36899 99.63365 L212.88134 96.14432 L213.20194 92.47394 L213.38474 88.67806 L213.4875 84.81601 L213.56881 80.94798 L213.68556 77.13245 L213.89078 73.424 L214.23171 69.87145 L214.74834 66.51634 L215.47224 63.3918 L216.42584 60.52178 L217.62218 57.92087 L219.06533 55.59464 L220.75139 53.54071 L222.67048 51.7507 L224.80963 50.21312 L227.15695 48.91754 L229.70687 47.85985 L232.46237 47.04448 L235.43745 46.48686 L238.65758 46.21387 L242.15203 46.25617 L245.94737 46.64172 L250.06261 47.3909 L254.50583 48.51312 L259.27213 50.00481 L264.34268 51.84846 L269.68481 54.01269 L275.25292 56.45316 L280.99006 59.11418 L286.83011 61.93085 L292.70035 64.83168 L298.52439 67.74145 L304.22517 70.58429 L309.72813 73.28674 L314.96412 75.7808 L319.87223 78.00666 L324.40219 79.91511 L328.51618 81.46938 L332.19009 82.64639 L335.41381 83.43702 L338.19061 83.84552 L340.53521 83.88756 L342.47049 83.58694 L344.0226 82.9707 L345.21442 82.06258 L346.06592 80.88341 L346.60438 79.46126 L346.86588 77.833 L346.89412 76.04311 L346.73871 74.14189 L346.45332 72.18374 L346.09436 70.22571 L345.71951 68.32615 L345.38634 66.54322 L345.15086 64.93351 L345.0661 63.55061 L345.18085 62.44382 L345.53928 61.6578 L346.18179 61.23341 L347.14384 61.20654 L348.45421 61.60637 L350.13369 62.45404 L352.19403 63.76164 L354.63733 65.53156 L357.4557 67.7562 L360.63135 70.418 L364.13696 73.48984 L367.9364 76.93577 L371.98578 80.71202 L376.2347 84.76834 L380.6279 89.04951 L385.10701 93.49722 L389.6125 98.05195 L394.08569 102.655 L398.47069 107.25044 L402.71646 111.78713 L406.7787 116.22066 L410.62155 120.51502 L414.21901 124.64403 L417.55585 128.59224 L420.62798 132.35533 L423.44207 135.93968 L426.01429 139.36117 L428.36801 142.64282 L430.53023 145.81124 L432.52657 148.89168 L434.37471 151.90136 L436.07753 154.84272 L437.62933 157.70954 L439.02506 160.49626 L440.26118 163.19878 L441.33581 165.81463 L442.24876 168.343 L443.00145 170.78468 L443.59593 173.14103 L444.03216 175.41132 L444.30844 177.59309 L444.42283 179.68366 L444.37431 181.68122 L444.16369 183.58574 L443.7961 185.40153 L443.28474 187.1409 L442.65003 188.82338 L441.91779 190.47386 L441.11742 192.12079 L440.28038 193.79464 L439.43869 195.52642 L438.62363 197.34641 L437.86466 199.28299 L437.18833 201.36164 L436.61751 203.60413" />
    <path d="M444.78 202.5 L444.74955 205.5454 L444.65819 208.58958 L444.50598 211.63132 L444.29296 214.66941 L444.01923 217.70263 L443.68489 220.72977 L443.28839 223.74793 L442.82014 226.74615 L442.26363 229.70654 L441.59971 232.60854 L440.80898 235.43132 L439.87551 238.15751 L438.78998 240.77634 L437.55148 243.2854 L436.1682 245.69137 L434.65727 248.0099 L433.044 250.26474 L431.36051 252.48646 L429.64409 254.71081 L427.93535 256.97681 L426.27628 259.32486 L424.70828 261.79476 L423.27034 264.42389 L421.99737 267.24551 L420.91866 270.28731 L420.05674 273.57015 L419.42639 277.10714 L419.034 280.90303 L418.87724 284.95379 L418.94499 289.24664 L419.21761 293.76023 L419.66741 298.46519 L420.25945 303.32486 L420.95244 308.29626 L421.69991 313.33122 L422.45151 318.37763 L423.15431 323.38089 L423.75432 328.28525 L424.19759 333.03507 L424.42869 337.57318 L424.38988 341.84012 L424.0241 345.77712 L423.27793 349.32902 L422.10404 352.44678 L420.46324 355.08949 L418.32595 357.22588 L415.67343 358.83545 L412.49835 359.90922 L408.80522 360.44996 L404.61035 360.47232 L399.94184 360.00268 L394.84063 359.08032 L389.36283 357.75968 L383.57797 356.10862 L377.56551 354.20495 L371.41152 352.13309 L365.20533 349.98075 L359.03635 347.83571 L352.99095 345.78272 L347.1495 343.90057 L341.58369 342.25937 L336.35404 340.91805 L331.50771 339.92223 L327.07687 339.30253 L323.07737 339.07329 L319.50817 339.23195 L316.35143 339.75917 L313.57341 340.61976 L311.12645 341.7646 L308.95203 343.13372 L306.98513 344.66069 L305.16018 346.27854 L303.41864 347.92735 L301.71753 349.56279 L300.02054 351.14721 L298.27784 352.62948 L296.43043 353.9493 L294.41762 355.04472 L292.18286 355.85793 L289.6781 356.33967 L286.86686 356.45228 L283.72626 356.17169 L280.24801 355.48847 L276.43869 354.40809 L272.31929 352.95045 L267.92425 351.14891 L263.3 349.04888 L258.5032 346.706 L253.59867 344.18411 L248.65711 341.55297 L243.75274 338.88584 L238.96074 336.25704 L234.35476 333.73936 L230.00437 331.4015 L225.97244 329.30556 L222.3127 327.50446 L219.06717 326.0395 L216.26377 324.93789 L213.91388 324.21033 L212.01155 323.8502 L210.53735 323.83748 L209.46074 324.14103 L208.74125 324.71982 L208.33017 325.52464 L208.17306 326.50054 L208.2118 327.58898 L208.38699 328.73012 L208.6407 329.86564 L208.9172 330.93947 L209.16114 331.89592 L209.31846 332.68067 L209.33793 333.24222 L209.17266 333.53348 L208.7825 333.51411 L208.13573 333.15223 L207.20957 332.42496 L205.99052 331.31872 L204.47452 329.8294 L202.66683 327.96225 L200.58177 325.73162 L198.24221 323.16043 L195.67879 320.27941 L192.92897 317.12615 L190.0358 313.74388 L187.04659 310.18008 L184.01134 306.48499 L180.98106 302.70988 L178.00599 298.90529 L175.13386 295.11929 L172.40804 291.39561 L169.86589 287.77201 L167.53721 284.2787 L165.44289 280.93708 L163.59398 277.75866 L161.99104 274.74455 L160.62381 271.88506 L159.47143 269.15991 L158.50364 266.53948 L157.68292 263.98691 L156.96783 261.46145 L156.31761 258.92306 L155.69831 256.33855 L155.09031 253.68909 L154.48786 250.96975 L153.8882 248.17859 L153.28932 245.31452 L152.69008 242.37726 L152.09013 239.36743 L151.48999 236.28651 L150.89104 233.13686 L150.29547 229.92168 L149.70627 226.64503 L149.12706 223.31159 L148.56055 219.92519 L148.00617 216.48637 L147.45317 212.98555 L146.88011 209.40245 L146.26141 205.7127 L145.5728 201.89326 L144.79516 197.92628 L143.91722 193.80174 L142.93698 189.51893 L141.86229 185.08707 L140.71075 180.52505 L139.50886 175.86077 L138.29084 171.12981 L137.09703 166.37393 L135.97213 161.63925 L134.96327 156.97435 L134.1181 152.42833 L133.48286 148.04892 L133.10065 143.88071 L133.00977 139.96353 L133.24241 136.33108 L133.82343 133.00978 L134.7696 130.01796 L136.08901 127.36528 L137.78091 125.05258 L139.83577 123.07193 L142.23577 121.40713 L144.95555 120.03444 L147.9633 118.92369 L151.22211 118.03961 L154.69097 117.34287 L158.32589 116.79111 L162.08404 116.34321 L165.92397 115.95938 L169.80384 115.59948 L173.68066 115.22221 L177.51028 114.78512 L181.24804 114.24527 L184.84984 113.56026 L188.2735 112.68962 L191.4802 111.59625 L194.43591 110.24785 L197.11271 108.61821 L199.48975 106.68822 L201.55391 104.44646 L203.29992 101.88939 L204.72997 99.02093 L205.85332 95.85206 L206.6915 92.40601 L207.28166 88.72166 L207.67259 84.8495 L207.92057 80.84752 L208.08583 76.77765 L208.2295 72.70271 L208.41091 68.68373 L208.68538 64.77768 L209.10217 61.03553 L209.70299 57.50063 L210.52077 54.20756 L211.57886 51.18134 L212.89087 48.4372 L214.46101 45.98096 L216.28518 43.81014 L218.35305 41.91602 L220.65108 40.28662 L223.1668 38.91106 L225.89439 37.78507 L228.83693 36.91328 L232.00901 36.31179 L235.43716 36.00865 L239.15192 36.03589 L243.18097 36.42267 L247.54413 37.19026 L252.24981 38.3485 L257.29284 39.89366 L262.65357 41.80747 L268.29787 44.0572 L274.17814 46.59658 L280.23492 49.3675 L286.39917 52.30224 L292.59501 55.32621 L298.74269 58.36092 L304.76177 61.32718 L310.5744 64.14837 L316.10843 66.75352 L321.30026 69.08022 L326.09739 71.0771 L330.46035 72.70582 L334.36394 73.94226 L337.79759 74.77693 L340.76468 75.21425 L343.28054 75.27055 L345.36904 74.9707 L347.0574 74.34286 L348.36949 73.41184 L349.32613 72.19934 L349.95573 70.73466 L350.29593 69.05627 L350.39232 67.21055 L350.2966 65.25 L350.06479 63.23137 L349.75569 61.21418 L349.42948 59.25929 L349.14621 57.42741 L348.96428 55.77756 L348.93903 54.36566 L349.12132 53.24312 L349.55722 52.45655 L350.28887 52.04856 L351.35324 52.05659 L352.78036 52.51107 L354.59186 53.43405 L356.80001 54.83814 L359.40696 56.7258 L362.40447 59.08909 L365.77393 61.90967 L369.48683 65.15922 L373.50545 68.80022 L377.78394 72.78698 L382.26973 77.06703 L386.90511 81.58274 L391.62915 86.27323 L396.37973 91.07641 L401.09557 95.93098 L405.71837 100.77855 L410.19482 105.56576 L414.47868 110.24622 L418.53253 114.78237 L422.3292 119.14683 L425.8528 123.32349 L429.09903 127.30779 L432.07484 131.10639 L434.7971 134.73581 L437.29016 138.22006 L439.58219 141.5869 L441.69991 144.86263 L443.66174 148.06521 L445.4707 151.19715 L447.12081 154.25194 L448.60678 157.22374 L449.92494 160.10828 L451.07327 162.90292 L452.05159 165.6068 L452.86137 168.22073 L453.50473 170.74609 L453.98163 173.18209 L454.29028 175.52616 L454.42864 177.77544 L454.39566 179.92803 L454.19215 181.98389 L453.82349 183.94747 L453.30341 185.83158 L452.65325 187.6566 L451.89991 189.44844 L451.0741 191.23679 L450.20863 193.0534 L449.33689 194.9306 L448.49155 196.89997 L447.70331 198.99108 L446.99992 201.2305 L446.40521 203.64092" />
  </g>
</svg>