<?xml version="1.0" standalone="no"?>
<!DOCTYPE svg PUBLIC "-//W3C//DTD SVG 1.1//EN" 
    "http://www.w3.org/Graphics/SVG/1.1/DTD/svg11.dtd">
<svg width="6.5in" height="4.5in"
    xmlns="http://www.w3.org/2000/svg" version="1.1" viewBox="0 0 585 405">
  <g fill="none" stroke="black" stroke-width="0.01in">
    <path d="M443.16 202.5 L443.14933 204.29284 L443.064 207.87738 L442.98935 209.66869" />
    <path d="M442.85667 212.05545 L442.73232 213.844 L442.41982 217.41591 L442.2317 219.19888" />
    <path d="M441.94791 221.57242 L441.71037 223.34948 L441.17195 226.89438 L440.87114 228.66183" />
    <path d="M440.43738 231.01259 L440.08761 232.77101 L439.32544 236.27462 L438.91313 238.01944" />
    <path d="M438.33115 240.33796 L437.87056 242.07065 L436.88772 245.51887 L436.36557 247.23402" />
    <path d="M435.63771 249.51096 L435.06815 251.21096 L433.86859 254.58989 L433.23872 256.26848" />
    <path d="M432.36791 258.49467 L431.69168 260.15512 L430.28023 263.45117 L429.54516 265.08643" />
    <path d="M428.53491 267.2529 L427.75473 268.86712 L426.13707 272.06702 L425.29976 273.65236" />
    <path d="M424.15415 275.7504 L423.27315 277.31189 L421.4558 280.40274 L420.51963 281.93179" />
    <path d="M419.24326 283.95295 L418.265 285.45541 L416.25527 288.42478 L415.22401 289.89137" />
    <path d="M413.82202 291.82751 L412.75044 293.2649 L410.55643 296.10083 L409.43423 297.49906" />
    <path d="M407.91226 299.34238 L406.75167 300.70892 L404.38221 303.39998 L403.17359 304.72423" />
    <path d="M401.53777 306.4673 L400.29285 307.75748 L397.75748 310.29285 L396.4673 311.53777" />
    <path d="M394.72423 313.17359 L393.39998 314.38221 L390.70892 316.75167 L389.34238 317.91226" />
    <path d="M387.49906 319.43423 L386.10083 320.55643 L383.2649 322.75044 L381.82751 323.82202" />
    <path d="M379.89137 325.22401 L378.42478 326.25527 L375.45541 328.265 L373.95295 329.24326" />
    <path d="M371.93179 330.51963 L370.40274 331.4558 L367.31189 333.27315 L365.7504 334.15415" />
    <path d="M363.65236 335.29976 L362.06702 336.13707 L358.86712 337.75473 L357.2529 338.53491" />
    <path d="M355.08643 339.54516 L353.45117 340.28023 L350.15512 341.69168 L348.49467 342.36791" />
    <path d="M346.26848 343.23872 L344.58989 343.86859 L341.21096 345.06815 L339.51096 345.63771" />
    <path d="M337.23402 346.36557 L335.51887 346.88772 L332.07065 347.87056 L330.33796 348.33115" />
    <path d="M328.01944 348.91313 L326.27462 349.32544 L322.77101 350.08761 L321.01259 350.43738" />
    <path d="M318.66183 350.87114 L316.89438 351.17195 L313.34948 351.71037 L311.57242 351.94791" />
    <path d="M309.19888 352.2317 L307.41591 352.41982 L303.844 352.73232 L302.05545 352.85667" />
    <path d="M299.66869 352.98935 L297.87738 353.064 L294.29284 353.14933 L292.5 353.16" />
    <path d="M290.10963 353.14104 L288.31719 353.10192 L284.73446 352.95974 L282.94455 352.85667" />
    <path d="M280.5602 352.68614 L278.77385 352.53342 L275.20735 352.16429 L273.42758 351.94791" />
    <path d="M271.05885 351.6265 L269.28577 351.36079 L265.74987 350.7662 L263.98741 350.43738" />
    <path d="M261.64383 349.96638 L259.89118 349.58875 L256.4001 348.77109 L254.66204 348.33115" />
    <path d="M252.35306 347.71246 L250.62788 347.22443 L247.19569 346.18701 L245.48904 345.63771" />
    <path d="M243.22394 344.87382 L241.5332 344.27736 L238.17371 343.02434 L236.50533 342.36791" />
    <path d="M234.29324 341.4619 L232.64373 340.7594 L229.37049 339.29583 L227.7471 338.53491" />
    <path d="M225.59692 337.49042 L223.99529 336.68472 L220.82146 335.0165 L219.2496 334.15415" />
    <path d="M217.17 332.97539 L215.62269 332.06973 L212.56105 330.20357 L211.04705 329.24326" />
    <path d="M209.0464 327.93497 L207.55965 326.933 L204.62254 324.87642 L203.17249 323.82202" />
    <path d="M201.25884 322.38948 L199.83863 321.29523 L197.03787 319.0565 L195.65762 317.91226" />
    <path d="M193.83868 316.36123 L192.49073 315.17911 L189.8376 312.76725 L188.5327 311.53777" />
    <path d="M186.81579 309.8745 L185.54553 308.60927 L183.05071 306.03399 L181.82641 304.72423" />
    <path d="M180.21846 302.95542 L179.031 301.61217 L176.70453 298.88384 L175.56577 297.49906" />
    <path d="M174.07324 295.63183 L172.97337 294.21597 L170.82463 291.34559 L169.77599 289.89137" />
    <path d="M168.40489 287.93324 L167.39703 286.45047 L165.43466 283.44959 L164.48037 281.93179" />
    <path d="M163.23622 279.89064 L162.32443 278.34693 L160.55635 275.22763 L159.70024 273.65236" />
    <path d="M158.58805 271.53641 L157.77601 269.93798 L156.20932 266.71282 L155.45484 265.08643" />
    <path d="M154.4791 262.90419 L153.77007 261.25748 L152.41109 257.93945 L151.76128 256.26848" />
    <path d="M150.92591 254.02875 L150.32275 252.34039 L149.17695 248.94284 L148.63443 247.23402" />
    <path d="M147.94279 244.94583 L147.44792 243.2226 L146.51991 239.75923 L146.08687 238.01944" />
    <path d="M145.54175 235.69198 L145.15717 233.94085 L144.45069 230.42558 L144.12886 228.66183" />
    <path d="M143.73246 226.30449 L143.45972 224.53249 L142.97761 220.97949 L142.7683 219.19888" />
    <path d="M142.5222 216.82114 L142.3624 215.03541 L142.10661 211.45899 L142.01065 209.66869" />
    <path d="M141.91585 207.28013 L141.86963 205.48786 L141.84119 201.90242 L141.85896 200.10963" />
    <path d="M141.91585 197.71987 L141.9834 195.92827 L142.18241 192.34825 L142.31386 190.5602" />
    <path d="M142.5222 188.17886 L142.70324 186.39515 L143.12891 182.83496 L143.3735 181.05885" />
    <path d="M143.73246 178.69551 L144.02626 176.92688 L144.67688 173.40085 L145.03362 171.64383" />
    <path d="M145.54175 169.30802 L145.94714 167.56158 L146.82008 164.08391 L147.28754 162.35306" />
    <path d="M147.94279 160.05417 L148.45813 158.33696 L149.54988 154.92166 L150.12618 153.22394" />
    <path d="M150.92591 150.97125 L151.54912 149.29018 L152.85529 145.951 L153.5381 144.29324" />
    <path d="M154.4791 142.09581 L155.20768 140.45765 L156.723 137.20803 L157.50958 135.59692" />
    <path d="M158.58805 133.46359 L159.41906 131.87494 L161.13743 128.72798 L162.02461 127.17" />
    <path d="M163.23622 125.10936 L164.16631 123.57662 L166.08082 120.54498 L167.06503 119.0464" />
    <path d="M168.40489 117.06676 L169.43032 115.59609 L171.53325 112.69198 L172.61052 111.25884" />
    <path d="M174.07324 109.36817 L175.18989 107.96549 L177.47277 105.20061 L178.63877 103.83868" />
    <path d="M180.21846 102.04458 L181.42182 100.71556 L183.87547 98.10102 L185.1255 96.81579" />
    <path d="M186.81579 95.1255 L188.10102 93.87547 L190.71556 91.42182 L192.04458 90.21846" />
    <path d="M193.83868 88.63877 L195.20061 87.47277 L197.96549 85.18989 L199.36817 84.07324" />
    <path d="M201.25884 82.61052 L202.69198 81.53325 L205.59609 79.43032 L207.06676 78.40489" />
    <path d="M209.0464 77.06503 L210.54498 76.08082 L213.57662 74.16631 L215.10936 73.23622" />
    <path d="M217.17 72.02461 L218.72798 71.13743 L221.87494 69.41906 L223.46359 68.58805" />
    <path d="M225.59692 67.50958 L227.20803 66.723 L230.45765 65.20768 L232.09581 64.4791" />
    <path d="M234.29324 63.5381 L235.951 62.85529 L239.29018 61.54912 L240.97125 60.92591" />
    <path d="M243.22394 60.12618 L244.92166 59.54988 L248.33696 58.45813 L250.05417 57.94279" />
    <path d="M252.35306 57.28754 L254.08391 56.82008 L257.56158 55.94714 L259.30802 55.54175" />
    <path d="M261.64383 55.03362 L263.40085 54.67688 L266.92688 54.02626 L268.69551 53.73246" />
    <path d="M271.05885 53.3735 L272.83496 53.12891 L276.39515 52.70324 L278.17886 52.5222" />
    <path d="M280.5602 52.31386 L282.34825 52.18241 L285.92827 51.9834 L287.71987 51.91585" />
    <path d="M290.10963 51.85896 L291.90242 51.84119 L295.48786 51.86963 L297.28013 51.91585" />
    <path d="M299.66869 52.01065 L301.45899 52.10661 L305.03541 52.3624 L306.82114 52.5222" />
    <path d="M309.19888 52.7683 L310.97949 52.97761 L314.53249 53.45972 L316.30449 53.73246" />
    <path d="M318.66183 54.12886 L320.42558 54.45069 L323.94085 55.15717 L325.69198 55.54175" />
    <path d="M328.01944 56.08687 L329.75923 56.51991 L333.2226 57.44792 L334.94583 57.94279" />
    <path d="M337.23402 58.63443 L338.94284 59.17695 L342.34039 60.32275 L344.02875 60.92591" />
    <path d="M346.26848 61.76128 L347.93945 62.41109 L351.25748 63.77007 L352.90419 64.4791" />
    <path d="M355.08643 65.45484 L356.71282 66.20932 L359.93798 67.77601 L361.53641 68.58805" />
    <path d="M363.65236 69.70024 L365.22763 70.55635 L368.34693 72.32443 L369.89064 73.23622" />
    <path d="M371.93179 74.48037 L373.44959 75.43466 L376.45047 77.39703 L377.93324 78.40489" />
    <path d="M379.89137 79.77599 L381.34559 80.82463 L384.21597 82.97337 L385.63183 84.07324" />
    <path d="M387.49906 85.56577 L388.88384 86.70453 L391.61217 89.031 L392.95542 90.21846" />
    <path d="M394.72423 91.82641 L396.03399 93.05071 L398.60927 95.54553 L399.8745 96.81579" />
    <path d="M401.53777 98.5327 L402.76725 99.8376 L405.17911 102.49073 L406.36123 103.83868" />
    <path d="M407.91226 105.65762 L409.0565 107.03787 L411.29523 109.83863 L412.38948 111.25884" />
    <path d="M413.82202 113.17249 L414.87642 114.62254 L416.933 117.55965 L417.93497 119.0464" />
    <path d="M419.24326 121.04705 L420.20357 122.56105 L422.06973 125.62269 L422.97539 127.17" />
    <path d="M424.15415 129.2496 L425.0165 130.82146 L426.68472 133.99529 L427.49042 135.59692" />
    <path d="M428.53491 137.7471 L429.29583 139.37049 L430.7594 142.64373 L431.4619 144.29324" />
    <path d="M432.36791 146.50533 L433.02434 148.17371 L434.27736 151.5332 L434.87382 153.22394" />
    <path d="M435.63771 155.48904 L436.18701 157.19569 L437.22443 160.62788 L437.71246 162.35306" />
    <path d="M438.33115 164.66204 L438.77109 166.4001 L439.58875 169.89118 L439.96638 171.64383" />
    <path d="M440.43738 173.98741 L440.7662 175.74987 L441.36079 179.28577 L441.6265 181.05885" />
    <path d="M441.94791 183.42758 L442.16429 185.20735 L442.53342 188.77385 L442.68614 190.5602" />
    <path d="M442.85667 192.94455 L442.95974 194.73446 L443.10192 198.31719 L443.14104 200.10963" />
    <path d="M447.84857 200.03493 L447.80823 198.18648 L447.6616 194.49179 L447.55532 192.64594" />
    <path d="M452.25396 192.34734 L452.36347 194.24911 L452.51454 198.05576 L452.5561 199.96024" />
    <path d="M452.57625 202.5 L452.56492 204.40489 L452.47425 208.21346 L452.39494 210.11673" />
    <path d="M452.25396 212.65266 L452.12184 214.553 L451.7898 218.34815 L451.58993 220.24256" />
    <path d="M451.28841 222.76445 L451.03602 224.65258 L450.46395 228.41903 L450.14433 230.29695" />
    <path d="M449.68346 232.79463 L449.31183 234.66295 L448.50203 238.38554 L448.06395 240.23941" />
    <path d="M447.4456 242.70283 L446.95622 244.54382 L445.91195 248.20755 L445.35717 250.0299" />
    <path d="M444.58382 252.44914 L443.97866 254.25539 L442.70413 257.84551 L442.03489 259.62901" />
    <path d="M441.10966 261.99433 L440.39116 263.75856 L438.89149 267.26062 L438.11048 268.99808" />
    <path d="M437.03709 271.29996 L436.20815 273.01506 L434.48938 276.41496 L433.59975 278.09938" />
    <path d="M432.38253 280.32855 L431.44647 281.98763 L429.51554 285.27167 L428.52086 286.89628" />
    <path d="M427.16471 289.04375 L426.12531 290.64012 L423.98998 293.79508 L422.89426 295.35333" />
    <path d="M421.40464 297.41048 L420.26609 298.93771 L417.93495 301.95088 L416.74262 303.43651" />
    <path d="M415.12552 305.39503 L413.8924 306.84698 L411.37485 309.70623 L410.09069 311.11324" />
    <path d="M408.35263 312.96526 L407.0299 314.33607 L404.33607 317.0299 L402.96526 318.35263" />
    <path d="M401.11324 320.09069 L399.70623 321.37485 L396.84698 323.8924 L395.39503 325.12552" />
    <path d="M393.43651 326.74262 L391.95088 327.93495 L388.93771 330.26609 L387.41048 331.40464" />
    <path d="M385.35333 332.89426 L383.79508 333.98998 L380.64012 336.12531 L379.04375 337.16471" />
    <path d="M376.89628 338.52086 L375.27167 339.51554 L371.98763 341.44647 L370.32855 342.38253" />
    <path d="M368.09938 343.59975 L366.41496 344.48938 L363.01506 346.20815 L361.29996 347.03709" />
    <path d="M358.99808 348.11048 L357.26062 348.89149 L353.75856 350.39116 L351.99433 351.10966" />
    <path d="M349.62901 352.03489 L347.84551 352.70413 L344.25539 353.97866 L342.44914 354.58382" />
    <path d="M340.0299 355.35717 L338.20755 355.91195 L334.54382 356.95622 L332.70283 357.4456" />
    <path d="M330.23941 358.06395 L328.38554 358.50203 L324.66295 359.31183 L322.79463 359.68346" />
    <path d="M320.29695 360.14433 L318.41903 360.46395 L314.65258 361.03602 L312.76445 361.28841" />
    <path d="M310.24256 361.58993 L308.34815 361.7898 L304.553 362.12184 L302.65266 362.25396" />
    <path d="M300.11673 362.39494 L298.21346 362.47425 L294.40489 362.56492 L292.5 362.57625" />
    <path d="M289.96024 362.5561 L288.05576 362.51454 L284.24911 362.36347 L282.34734 362.25396" />
    <path d="M279.81396 362.07277 L277.91596 361.91051 L274.12656 361.51831 L272.23555 361.28841" />
    <path d="M269.71877 360.9469 L267.83488 360.66459 L264.07798 360.03284 L262.20537 359.68346" />
    <path d="M259.71532 359.18303 L257.85313 358.7818 L254.14386 357.91304 L252.29717 357.4456" />
    <path d="M249.84387 356.78824 L248.01088 356.26971 L244.36418 355.16744 L242.55086 354.58382" />
    <path d="M240.14419 353.77219 L238.34777 353.13845 L234.77832 351.80711 L233.00567 351.10966" />
    <path d="M230.65532 350.14702 L228.90272 349.40062 L225.42489 347.84557 L223.70004 347.03709" />
    <path d="M221.41548 345.92732 L219.71374 345.07127 L216.34155 343.29878 L214.67145 342.38253" />
    <path d="M212.46188 341.1301 L210.81786 340.16784 L207.56487 338.18504 L205.95625 337.16471" />
    <path d="M203.83055 335.77466 L202.25088 334.71007 L199.13019 332.52494 L197.58952 331.40464" />
    <path d="M195.55627 329.88257 L194.0473 328.71993 L191.07149 326.34128 L189.60497 325.12552" />
    <path d="M187.67235 323.47756 L186.24015 322.22155 L183.4212 319.65895 L182.03474 318.35263" />
    <path d="M180.21053 316.58541 L178.86088 315.2411 L176.21013 312.50487 L174.90931 311.11324" />
    <path d="M173.20086 309.23388 L171.93919 307.80668 L169.46732 304.90783 L168.25738 303.43651" />
    <path d="M166.67157 301.45257 L165.50295 299.94822 L163.21991 296.89844 L162.10574 295.35333" />
    <path d="M160.64894 293.27282 L159.57809 291.69737 L157.49308 288.50893 L156.47914 286.89628" />
    <path d="M155.15723 284.72755 L154.18846 283.08736 L152.30987 279.7731 L151.40025 278.09938" />
    <path d="M150.21855 275.85118 L149.35576 274.15285 L147.69115 270.72612 L146.88952 268.99808" />
    <path d="M145.85279 266.67946 L145.09945 264.92982 L143.65553 261.40441 L142.96511 259.62901" />
    <path d="M142.07753 257.2493 L141.43667 255.45541 L140.21925 251.84552 L139.64283 250.0299" />
    <path d="M138.90796 247.59869 L138.38217 245.76777 L137.39616 242.08793 L136.93605 240.23941" />
    <path d="M136.35686 237.76648 L135.94825 235.9059 L135.19761 232.17093 L134.85567 230.29695" />
    <path d="M134.43449 227.79227 L134.1447 225.90952 L133.63246 222.13446 L133.41007 220.24256" />
    <path d="M133.14859 217.71621 L132.9788 215.81887 L132.70702 212.01893 L132.60506 210.11673" />
    <path d="M132.50434 207.57889 L132.45523 205.6746 L132.42501 201.86507 L132.4439 199.96024" />
    <path d="M132.50434 197.42111 L132.57611 195.51754 L132.78756 191.71376 L132.92723 189.81396" />
    <path d="M133.14859 187.28379 L133.34094 185.3886 L133.79322 181.60589 L134.0531 179.71877" />
    <path d="M134.43449 177.20773 L134.74665 175.32856 L135.43793 171.58215 L135.81697 169.71532" />
    <path d="M136.35686 167.23352 L136.78758 165.37793 L137.71508 161.68291 L138.21176 159.84387" />
    <path d="M138.90796 157.40131 L139.45551 155.57677 L140.61549 151.94802 L141.22781 150.14419" />
    <path d="M142.07753 147.7507 L142.73969 145.96456 L144.12749 142.41669 L144.85298 140.65532" />
    <path d="M145.85279 138.32054 L146.62691 136.58 L148.23693 133.12729 L149.07268 131.41548" />
    <path d="M150.21855 129.14882 L151.1015 127.46088 L152.92727 124.11723 L153.8699 122.46187" />
    <path d="M155.15723 120.27245 L156.14546 118.64391 L158.17962 115.42279 L159.22534 113.83055" />
    <path d="M160.64894 111.72718 L161.73847 110.1646 L163.97283 107.07898 L165.11743 105.55627" />
    <path d="M166.67157 103.54743 L167.858 102.05709 L170.28357 99.11939 L171.52244 97.67235" />
    <path d="M173.20086 95.76612 L174.47943 94.35403 L177.08643 91.57609 L178.41459 90.21053" />
    <path d="M180.21053 88.41459 L181.57609 87.08643 L184.35403 84.47943 L185.76612 83.20086" />
    <path d="M187.67235 81.52244 L189.11939 80.28357 L192.05709 77.858 L193.54743 76.67157" />
    <path d="M195.55627 75.11743 L197.07898 73.97283 L200.1646 71.73847 L201.72718 70.64894" />
    <path d="M203.83055 69.22534 L205.42279 68.17962 L208.64391 66.14546 L210.27245 65.15723" />
    <path d="M212.46187 63.8699 L214.11723 62.92727 L217.46088 61.1015 L219.14882 60.21855" />
    <path d="M221.41548 59.07268 L223.12729 58.23693 L226.58 56.62691 L228.32054 55.85279" />
    <path d="M230.65532 54.85298 L232.41669 54.12749 L235.96456 52.73969 L237.7507 52.07753" />
    <path d="M240.14419 51.22781 L241.94802 50.61549 L245.57677 49.45551 L247.40131 48.90796" />
    <path d="M249.84387 48.21176 L251.68291 47.71508 L255.37793 46.78758 L257.23352 46.35686" />
    <path d="M259.71532 45.81697 L261.58215 45.43793 L265.32856 44.74665 L267.20773 44.43449" />
    <path d="M269.71877 44.0531 L271.60589 43.79322 L275.3886 43.34094 L277.28379 43.14859" />
    <path d="M279.81396 42.92723 L281.71376 42.78756 L285.51754 42.57611 L287.42111 42.50434" />
    <path d="M289.96024 42.4439 L291.86507 42.42501 L295.6746 42.45523 L297.57889 42.50434" />
    <path d="M300.11673 42.60506 L302.01893 42.70702 L305.81887 42.9788 L307.71621 43.14859" />
    <path d="M310.24256 43.41007 L312.13446 43.63246 L315.90952 44.1447 L317.79227 44.43449" />
    <path d="M320.29695 44.85567 L322.17093 45.19761 L325.9059 45.94825 L327.76648 46.35686" />
    <path d="M330.23941 46.93605 L332.08793 47.39616 L335.76777 48.38217 L337.59869 48.90796" />
    <path d="M340.0299 49.64283 L341.84552 50.21925 L345.45541 51.43667 L347.2493 52.07753" />
    <path d="M349.62901 52.96511 L351.40441 53.65553 L354.92982 55.09945 L356.67946 55.85279" />
    <path d="M358.99808 56.88952 L360.72612 57.69115 L364.15285 59.35576 L365.85118 60.21855" />
    <path d="M368.09938 61.40025 L369.7731 62.30987 L373.08736 64.18846 L374.72755 65.15723" />
    <path d="M376.89628 66.47914 L378.50893 67.49308 L381.69737 69.57809 L383.27282 70.64894" />
    <path d="M385.35333 72.10574 L386.89844 73.21991 L389.94822 75.50295 L391.45257 76.67157" />
    <path d="M393.43651 78.25738 L394.90783 79.46732 L397.80668 81.93919 L399.23388 83.20086" />
    <path d="M401.11324 84.90931 L402.50487 86.21013 L405.2411 88.86088 L406.58541 90.21053" />
    <path d="M408.35263 92.03474 L409.65895 93.4212 L412.22155 96.24015 L413.47756 97.67235" />
    <path d="M415.12552 99.60497 L416.34128 101.07149 L418.71993 104.0473 L419.88257 105.55627" />
    <path d="M421.40464 107.58952 L422.52494 109.13019 L424.71007 112.25088 L425.77466 113.83055" />
    <path d="M427.16471 115.95625 L428.18504 117.56487 L430.16784 120.81786 L431.1301 122.46187" />
    <path d="M432.38253 124.67145 L433.29878 126.34155 L435.07127 129.71374 L435.92732 131.41548" />
    <path d="M437.03709 133.70004 L437.84557 135.42489 L439.40062 138.90272 L440.14702 140.65532" />
    <path d="M441.10966 143.00567 L441.80711 144.77832 L443.13845 148.34777 L443.77219 150.14419" />
    <path d="M444.58382 152.55086 L445.16744 154.36418 L446.26971 158.01088 L446.78824 159.84387" />
    <path d="M447.4456 162.29717 L447.91304 164.14386 L448.7818 167.85313 L449.18303 169.71532" />
    <path d="M449.68346 172.20537 L450.03284 174.07798 L450.66459 177.83488 L450.9469 179.71877" />
    <path d="M451.28841 182.23555 L451.51831 184.12656 L451.91051 187.91596 L452.07277 189.81396" />
    <path d="M456.76609 189.44085 L456.59906 187.48702 L456.19532 183.58616 L455.95865 181.63954" />
    <path d="M455.60711 179.04874 L455.31649 177.10944 L454.66616 173.24204 L454.30651 171.31435" />
    <path d="M453.79135 168.75106 L453.37832 166.8341 L452.48401 163.01573 L452.00282 161.11474" />
    <path d="M451.32613 158.58928 L450.79235 156.70237 L449.65766 152.94842 L449.05688 151.08176" />
    <path d="M448.22137 148.60431 L447.56899 146.75506 L446.1985 143.08062 L445.48053 141.25583" />
    <path d="M444.48958 138.83636 L443.72122 137.03221 L442.12044 133.45209 L441.28819 131.67651" />
    <path d="M440.14577 129.32476 L439.26454 127.57297 L437.43992 124.10159 L436.49672 122.38237" />
    <path d="M435.20745 120.10781 L434.21689 118.41544 L432.17577 115.06678 L431.12544 113.41084" />
    <path d="M429.6945 111.22263 L428.5986 109.59649 L426.3492 106.38402 L425.19596 104.79804" />
    <path d="M423.62912 102.70499 L422.43228 101.15163 L419.98367 98.0883 L418.73215 96.57865" />
    <path d="M417.03572 94.58918 L415.74278 93.11486 L413.10481 90.213 L411.76006 88.78576" />
    <path d="M409.94086 86.9079 L408.55701 85.51855 L405.74031 82.78984 L404.30775 81.45076" />
    <path d="M402.37311 79.69206 L400.90393 78.39328 L397.91983 75.84871 L396.40523 74.60319" />
    <path d="M394.36294 72.97073 L392.81434 71.76774 L389.67486 69.41756 L388.08432 68.27061" />
    <path d="M385.94261 66.77097 L384.32083 65.66862 L381.03861 63.52229 L379.37852 62.47853" />
    <path d="M377.14601 61.11774 L375.45758 60.12047 L372.04584 58.18663 L370.32289 57.25026" />
    <path d="M368.00857 56.03381 L366.26029 55.14563 L362.73277 53.43207 L360.9539 52.60686" />
    <path d="M358.56709 51.53964 L356.766 50.76414 L353.1369 49.27775 L351.30927 48.56703" />
    <path d="M348.85958 47.65334 L347.01292 46.99363 L343.29686 45.74041 L341.42784 45.14703" />
    <path d="M338.92512 44.39055 L337.04035 43.84929 L333.25228 42.83428 L331.34939 42.36064" />
    <path d="M328.80373 41.76441 L326.88843 41.34378 L323.04361 40.57107 L321.11451 40.21907" />
    <path d="M318.53616 39.7855 L316.59803 39.48719 L312.71195 38.95989 L310.7644 38.73095" />
    <path d="M308.16375 38.46178 L306.2106 38.287 L302.2989 38.00723 L300.34076 37.90227" />
    <path d="M297.72827 37.79859 L295.76797 37.74803 L291.84639 37.71692 L289.88554 37.73637" />
    <path d="M287.27173 37.79859 L285.31217 37.87246 L281.39652 38.09014 L279.44085 38.23391" />
    <path d="M276.83625 38.46178 L274.88532 38.65979 L270.99136 39.12537 L269.04874 39.39289" />
    <path d="M266.46384 39.7855 L264.5294 40.10685 L260.6728 40.81846 L258.75106 41.20865" />
    <path d="M256.19627 41.76441 L254.2861 42.2078 L250.4824 43.16258 L248.58928 43.67387" />
    <path d="M246.07488 44.39055 L244.19668 44.9542 L240.4612 46.1483 L238.60431 46.77863" />
    <path d="M236.14042 47.65334 L234.30175 48.33498 L230.64953 49.76359 L228.83636 50.51042" />
    <path d="M226.43291 51.53964 L224.64118 52.33652 L221.08691 53.9939 L219.32476 54.85423" />
    <path d="M216.99143 56.03381 L215.25384 56.94272 L211.81185 58.82219 L210.10781 59.79255" />
    <path d="M207.85399 61.11774 L206.17755 62.13503 L202.86169 64.22902 L201.22263 65.3055" />
    <path d="M199.05739 66.77097 L197.44885 67.89254 L194.27248 70.19262 L192.70499 71.37088" />
    <path d="M190.63706 72.97073 L189.10288 74.19206 L186.07879 76.68897 L184.58918 77.96428" />
    <path d="M182.62689 79.69206 L181.17326 81.00824 L178.31362 83.69192 L176.9079 85.05914" />
    <path d="M175.05914 86.9079 L173.69192 88.31362 L171.00824 91.17326 L169.69206 92.62689" />
    <path d="M167.96428 94.58918 L166.68897 96.07879 L164.19206 99.10288 L162.97073 100.63706" />
    <path d="M161.37088 102.70499 L160.19262 104.27248 L157.89254 107.44885 L156.77097 109.05739" />
    <path d="M155.3055 111.22263 L154.22902 112.86169 L152.13503 116.17755 L151.11774 117.85399" />
    <path d="M149.79255 120.10781 L148.82219 121.81185 L146.94272 125.25384 L146.03381 126.99143" />
    <path d="M144.85423 129.32476 L143.9939 131.08691 L142.33652 134.64118 L141.53964 136.43291" />
    <path d="M140.51042 138.83636 L139.76359 140.64953 L138.33498 144.30175 L137.65334 146.14042" />
    <path d="M136.77863 148.60431 L136.1483 150.4612 L134.9542 154.19668 L134.39055 156.07488" />
    <path d="M133.67387 158.58928 L133.16258 160.4824 L132.2078 164.2861 L131.76441 166.19627" />
    <path d="M131.20865 168.75106 L130.81846 170.6728 L130.10685 174.5294 L129.7855 176.46384" />
    <path d="M129.39289 179.04874 L129.12537 180.99136 L128.65979 184.88532 L128.46178 186.83625" />
    <path d="M128.23391 189.44085 L128.09014 191.39652 L127.87246 195.31217 L127.79859 197.27173" />
    <path d="M127.73637 199.88554 L127.71692 201.84639 L127.74803 205.76797 L127.79859 207.72827" />
    <path d="M127.90227 210.34076 L128.00723 212.2989 L128.287 216.2106 L128.46178 218.16375" />
    <path d="M128.73095 220.7644 L128.95989 222.71195 L129.48719 226.59803 L129.7855 228.53616" />
    <path d="M130.21907 231.11451 L130.57107 233.04361 L131.34378 236.88843 L131.76441 238.80373" />
    <path d="M132.36064 241.34939 L132.83428 243.25228 L133.84929 247.04035 L134.39055 248.92512" />
    <path d="M135.14703 251.42784 L135.74041 253.29686 L136.99363 257.01292 L137.65334 258.85958" />
    <path d="M138.56703 261.30927 L139.27775 263.1369 L140.76414 266.766 L141.53964 268.56709" />
    <path d="M142.60686 270.9539 L143.43207 272.73277 L145.14563 276.26029 L146.03381 278.00857" />
    <path d="M147.25026 280.32289 L148.18663 282.04584 L150.12047 285.45758 L151.11774 287.14601" />
    <path d="M152.47853 289.37852 L153.52229 291.03861 L155.66862 294.32083 L156.77097 295.94261" />
    <path d="M158.27061 298.08432 L159.41756 299.67486 L161.76774 302.81434 L162.97073 304.36294" />
    <path d="M164.60319 306.40523 L165.84871 307.91983 L168.39328 310.90393 L169.69206 312.37311" />
    <path d="M171.45076 314.30775 L172.78984 315.74031 L175.51855 318.55701 L176.9079 319.94086" />
    <path d="M178.78576 321.76006 L180.213 323.10481 L183.11486 325.74278 L184.58918 327.03572" />
    <path d="M186.57865 328.73215 L188.0883 329.98367 L191.15163 332.43228 L192.70499 333.62912" />
    <path d="M194.79804 335.19596 L196.38402 336.3492 L199.59649 338.5986 L201.22263 339.6945" />
    <path d="M203.41084 341.12544 L205.06678 342.17577 L208.41544 344.21689 L210.10781 345.20745" />
    <path d="M212.38237 346.49672 L214.10159 347.43992 L217.57297 349.26454 L219.32476 350.14577" />
    <path d="M221.67651 351.28819 L223.45209 352.12044 L227.03221 353.72122 L228.83636 354.48958" />
    <path d="M231.25583 355.48053 L233.08062 356.1985 L236.75506 357.56899 L238.60431 358.22137" />
    <path d="M241.08176 359.05688 L242.94842 359.65766 L246.70237 360.79235 L248.58928 361.32613" />
    <path d="M251.11474 362.00282 L253.01573 362.48401 L256.8341 363.37832 L258.75106 363.79135" />
    <path d="M261.31435 364.30651 L263.24204 364.66616 L267.10944 365.31649 L269.04874 365.60711" />
    <path d="M271.63954 365.95865 L273.58616 366.19532 L277.48702 366.59906 L279.44085 366.76609" />
    <path d="M282.04873 366.95261 L284.00644 367.06534 L287.92505 367.22086 L289.88554 367.26363" />
    <path d="M292.5 367.28438 L294.46092 367.27271 L298.3815 367.17938 L300.34076 367.09773" />
    <path d="M302.95127 366.95261 L304.9075 366.8166 L308.81427 366.4748 L310.7644 366.26905" />
    <path d="M313.36046 365.95865 L315.30412 365.69884 L319.18135 365.10995 L321.11451 364.78093" />
    <path d="M323.68565 364.30651 L325.60892 363.92394 L329.441 363.09033 L331.34939 362.63936" />
    <path d="M333.88526 362.00282 L335.7804 361.49905 L339.55189 360.42406 L341.42784 359.85297" />
    <path d="M343.91824 359.05688 L345.77761 358.43392 L349.47332 357.1219 L351.30927 356.43297" />
    <path d="M353.74417 355.48053 L355.56028 354.7409 L359.16534 353.19712 L360.9539 352.39314" />
    <path d="M363.32349 351.28819 L365.08904 350.43486 L368.58893 348.66554 L370.32289 347.74974" />
    <path d="M372.61763 346.49672 L374.3255 345.53314 L377.70613 343.54541 L379.37852 342.52147" />
    <path d="M381.58916 341.12544 L383.23248 340.05547 L386.48023 337.85733 L388.08432 336.72939" />
    <path d="M390.20196 335.19596 L391.77411 334.02392 L394.87591 331.62422 L396.40523 330.39681" />
    <path d="M398.42135 328.73215 L399.916 327.46276 L402.85936 324.87117 L404.30775 323.54924" />
    <path d="M406.21424 321.76006 L407.62537 320.39843 L410.39843 317.62537 L411.76006 316.21424" />
    <path d="M413.54924 314.30775 L414.87117 312.85936 L417.46276 309.916 L418.73215 308.42135" />
    <path d="M420.39681 306.40523 L421.62422 304.87591 L424.02392 301.77411 L425.19596 300.20196" />
    <path d="M426.72939 298.08432 L427.85733 296.48023 L430.05547 293.23248 L431.12544 291.58916" />
    <path d="M432.52147 289.37852 L433.54541 287.70613 L435.53314 284.3255 L436.49672 282.61763" />
    <path d="M437.74974 280.32289 L438.66554 278.58893 L440.43486 275.08904 L441.28819 273.32349" />
    <path d="M442.39314 270.9539 L443.19712 269.16534 L444.7409 265.56028 L445.48053 263.74417" />
    <path d="M446.43297 261.30927 L447.1219 259.47332 L448.43392 255.77761 L449.05688 253.91824" />
    <path d="M449.85297 251.42784 L450.42406 249.55189 L451.49905 245.7804 L452.00282 243.88526" />
    <path d="M452.63936 241.34939 L453.09033 239.441 L453.92394 235.60892 L454.30651 233.68565" />
    <path d="M454.78093 231.11451 L455.10995 229.18135 L455.69884 225.30412 L455.95865 223.36046" />
    <path d="M456.26905 220.7644 L456.4748 218.81427 L456.8166 214.9075 L456.95261 212.95127" />
    <path d="M457.09773 210.34076 L457.17938 208.3815 L457.27271 204.46092 L457.28438 202.5" />
    <path d="M457.26363 199.88554 L457.22086 197.92505 L457.06534 194.00644 L456.95261 192.04873" />
    <path d="M461.65126 191.75012 L461.7672 193.76377 L461.92717 197.79434 L461.97117 199.81084" />
    <path d="M461.9925 202.5 L461.9805 204.51694 L461.88451 208.54955 L461.80052 210.56478" />
    <path d="M461.65126 213.24988 L461.51136 215.262 L461.15979 219.2804 L460.94817 221.28624" />
    <path d="M460.6289 223.95647 L460.36167 225.95567 L459.75595 229.94368 L459.41753 231.93206" />
    <path d="M458.92955 234.57667 L458.53606 236.55489 L457.67862 240.49645 L457.21477 242.45937" />
    <path d="M456.56005 245.0677 L456.04188 247.01698 L454.93618 250.89623 L454.34877 252.82578" />
    <path d="M453.52993 255.38733 L452.88917 257.29982 L451.53966 261.10113 L450.83106 262.98954" />
    <path d="M449.8514 265.494 L449.09064 267.362 L447.50275 271.07007 L446.6758 272.90973" />
    <path d="M445.53928 275.34701 L444.66157 277.16301 L442.8417 280.7629 L441.89973 282.54641" />
    <path d="M440.61092 284.9067 L439.6198 286.66337 L437.57527 290.14059 L436.52209 291.86076" />
    <path d="M435.08616 294.13456 L433.98563 295.82484 L431.72468 299.16538 L430.56451 300.8153" />
    <path d="M428.98727 302.99345 L427.78174 304.61052 L425.31348 307.80094 L424.051 309.37395" />
    <path d="M422.33879 311.44768 L421.03313 312.98503 L418.36748 316.01248 L417.00779 317.50226" />
    <path d="M415.16749 319.46322 L413.76696 320.91467 L410.91467 323.76696 L409.46322 325.16749" />
    <path d="M407.50226 327.00779 L406.01248 328.36748 L402.98503 331.03313 L401.44768 332.33879" />
    <path d="M399.37395 334.051 L397.80094 335.31348 L394.61052 337.78174 L392.99345 338.98727" />
    <path d="M390.8153 340.56451 L389.16538 341.72468 L385.82484 343.98563 L384.13456 345.08616" />
    <path d="M381.86076 346.52209 L380.14059 347.57527 L376.66337 349.6198 L374.9067 350.61092" />
    <path d="M372.54641 351.89973 L370.7629 352.8417 L367.16301 354.66157 L365.34701 355.53928" />
    <path d="M362.90973 356.6758 L361.07007 357.50275 L357.362 359.09064 L355.494 359.8514" />
    <path d="M352.98954 360.83106 L351.10113 361.53966 L347.29982 362.88917 L345.38733 363.52993" />
    <path d="M342.82578 364.34877 L340.89623 364.93618 L337.01698 366.04188 L335.0677 366.56005" />
    <path d="M332.45937 367.21477 L330.49645 367.67862 L326.55489 368.53606 L324.57667 368.92955" />
    <path d="M321.93206 369.41753 L319.94368 369.75595 L315.95567 370.36167 L313.95647 370.6289" />
    <path d="M311.28624 370.94817 L309.2804 371.15979 L305.262 371.51136 L303.24988 371.65126" />
    <path d="M300.56478 371.80052 L298.54955 371.88451 L294.51694 371.9805 L292.5 371.9925" />
    <path d="M289.81084 371.97117 L287.79434 371.92717 L283.76377 371.7672 L281.75012 371.65126" />
    <path d="M279.06773 371.45941 L277.05808 371.2876 L273.04577 370.87233 L271.04353 370.6289" />
    <path d="M268.3787 370.26731 L266.384 369.96839 L262.4061 369.29947 L260.42333 368.92955" />
    <path d="M257.78681 368.39967 L255.81507 367.97484 L251.88761 367.05498 L249.9323 366.56005" />
    <path d="M247.33469 365.86402 L245.39387 365.31499 L241.53266 364.14788 L239.61267 363.52993" />
    <path d="M237.06443 362.67055 L235.16234 361.99953 L231.38293 360.58988 L229.506 359.8514" />
    <path d="M227.0174 358.83214 L225.1617 358.04183 L221.4793 356.39531 L219.65299 355.53928" />
    <path d="M217.23404 354.36422 L215.4322 353.45781 L211.86164 351.58106 L210.0933 350.61092" />
    <path d="M207.75375 349.28481 L206.01303 348.26595 L202.56869 346.16651 L200.86544 345.08616" />
    <path d="M198.6147 343.61435 L196.9421 342.48713 L193.63785 340.17347 L192.00655 338.98727" />
    <path d="M189.8537 337.37566 L188.25596 336.14463 L185.1051 333.62606 L183.55232 332.33879" />
    <path d="M181.50602 330.59388 L179.98957 329.264 L177.0048 326.55066 L175.53678 325.16749" />
    <path d="M173.60527 323.29632 L172.17622 321.87293 L169.36955 318.97574 L167.99221 317.50226" />
    <path d="M166.18327 315.51234 L164.84737 314.00119 L162.2301 310.93182 L160.949 309.37395" />
    <path d="M159.2699 307.27331 L158.03254 305.68047 L155.6152 302.45129 L154.43549 300.8153" />
    <path d="M152.893 298.61239 L151.75915 296.94428 L149.55149 293.56828 L148.47791 291.86076" />
    <path d="M147.07825 289.56447 L146.05248 287.8278 L144.06339 284.31858 L143.10027 282.54641" />
    <path d="M141.84906 280.16596 L140.93551 278.36773 L139.17298 274.73942 L138.3242 272.90973" />
    <path d="M137.22649 270.45472 L136.42883 268.60217 L134.89997 264.86938 L134.16894 262.98954" />
    <path d="M133.22915 260.46985 L132.55059 258.57044 L131.26156 254.7482 L130.65123 252.82578" />
    <path d="M129.87314 250.25156 L129.31641 248.31293 L128.2724 244.41663 L127.78523 242.45937" />
    <path d="M127.17197 239.84098 L126.73932 237.87095 L125.94453 233.91628 L125.58247 231.93206" />
    <path d="M125.13651 229.28005 L124.82968 227.28655 L124.28732 223.28943 L124.05183 221.28624" />
    <path d="M123.77498 218.61129 L123.5952 216.60233 L123.30744 212.57887 L123.19948 210.56478" />
    <path d="M123.09283 207.87765 L123.04083 205.86134 L123.00883 201.82772 L123.02883 199.81084" />
    <path d="M123.09283 197.12235 L123.16882 195.10681 L123.39271 191.07928 L123.54059 189.06773" />
    <path d="M123.77498 186.38871 L123.97864 184.38204 L124.45753 180.37682 L124.73269 178.3787" />
    <path d="M125.13651 175.71995 L125.46704 173.73024 L126.19899 169.76345 L126.60033 167.78681" />
    <path d="M127.17197 165.15902 L127.62803 163.19427 L128.61009 159.2819 L129.13598 157.33469" />
    <path d="M129.87314 154.74844 L130.45289 152.81658 L131.68111 148.97437 L132.32945 147.06443" />
    <path d="M133.22915 144.53015 L133.93026 142.63895 L135.3997 138.88237 L136.16786 137.0174" />
    <path d="M137.22649 134.54528 L138.04614 132.70235 L139.75087 129.04654 L140.63578 127.23404" />
    <path d="M141.84906 124.83404 L142.78394 123.04681 L144.71711 119.50648 L145.71519 117.75375" />
    <path d="M147.07825 115.43553 L148.1246 113.71119 L150.27842 110.3006 L151.38565 108.6147" />
    <path d="M152.893 106.38761 L154.04661 104.7331 L156.41241 101.46598 L157.62434 99.8537" />
    <path d="M159.2699 97.72669 L160.52612 96.14868 L163.09437 93.03818 L164.40612 91.50602" />
    <path d="M166.18327 89.48766 L167.53705 87.9925 L170.2974 85.05115 L171.70368 83.60527" />
    <path d="M173.60527 81.70368 L175.05115 80.2974 L177.9925 77.53705 L179.48766 76.18327" />
    <path d="M181.50602 74.40612 L183.03818 73.09437 L186.14868 70.52612 L187.72669 69.2699" />
    <path d="M189.8537 67.62434 L191.46598 66.41241 L194.7331 64.04661 L196.38761 62.893" />
    <path d="M198.6147 61.38565 L200.3006 60.27842 L203.71119 58.1246 L205.43553 57.07825" />
    <path d="M207.75375 55.71519 L209.50648 54.71711 L213.04681 52.78394 L214.83404 51.84906" />
    <path d="M217.23404 50.63578 L219.04654 49.75087 L222.70235 48.04614 L224.54528 47.22649" />
    <path d="M227.0174 46.16786 L228.88237 45.3997 L232.63895 43.93026 L234.53015 43.22915" />
    <path d="M237.06443 42.32945 L238.97437 41.68111 L242.81658 40.45289 L244.74844 39.87314" />
    <path d="M247.33469 39.13598 L249.2819 38.61009 L253.19427 37.62803 L255.15902 37.17197" />
    <path d="M257.78681 36.60033 L259.76345 36.19899 L263.73024 35.46704 L265.71995 35.13651" />
    <path d="M268.3787 34.73269 L270.37682 34.45753 L274.38204 33.97864 L276.38871 33.77498" />
    <path d="M279.06773 33.54059 L281.07928 33.39271 L285.10681 33.16882 L287.12235 33.09283" />
    <path d="M289.81084 33.02883 L291.82772 33.00883 L295.86134 33.04083 L297.87765 33.09283" />
    <path d="M300.56478 33.19948 L302.57887 33.30744 L306.60233 33.5952 L308.61129 33.77498" />
    <path d="M311.28624 34.05183 L313.28943 34.28732 L317.28655 34.82968 L319.28005 35.13651" />
    <path d="M321.93206 35.58247 L323.91628 35.94453 L327.87095 36.73932 L329.84098 37.17197" />
    <path d="M332.45937 37.78523 L334.41663 38.2724 L338.31293 39.31641 L340.25156 39.87314" />
    <path d="M342.82578 40.65123 L344.7482 41.26156 L348.57044 42.55059 L350.46985 43.22915" />
    <path d="M352.98954 44.16894 L354.86938 44.89997 L358.60217 46.42883 L360.45472 47.22649" />
    <path d="M362.90973 48.3242 L364.73942 49.17298 L368.36773 50.93551 L370.16596 51.84906" />
    <path d="M372.54641 53.10027 L374.31858 54.06339 L377.8278 56.05248 L379.56447 57.07825" />
    <path d="M381.86076 58.47791 L383.56828 59.55149 L386.94428 61.75915 L388.61239 62.893" />
    <path d="M390.8153 64.43549 L392.45129 65.6152 L395.68047 68.03254 L397.27331 69.2699" />
    <path d="M399.37395 70.949 L400.93182 72.2301 L404.00119 74.84737 L405.51234 76.18327" />
    <path d="M407.50226 77.99221 L408.97574 79.36955 L411.87293 82.17622 L413.29632 83.60527" />
    <path d="M415.16749 85.53678 L416.55066 87.0048 L419.264 89.98957 L420.59388 91.50602" />
    <path d="M422.33879 93.55232 L423.62606 95.1051 L426.14463 98.25596 L427.37566 99.8537" />
    <path d="M428.98727 102.00655 L430.17347 103.63785 L432.48713 106.9421 L433.61435 108.6147" />
    <path d="M435.08616 110.86544 L436.16651 112.56869 L438.26595 116.01303 L439.28481 117.75375" />
    <path d="M440.61092 120.0933 L441.58106 121.86164 L443.45781 125.4322 L444.36422 127.23404" />
    <path d="M445.53928 129.65299 L446.39531 131.4793 L448.04183 135.1617 L448.83214 137.0174" />
    <path d="M449.8514 139.506 L450.58988 141.38293 L451.99953 145.16234 L452.67055 147.06443" />
    <path d="M453.52993 149.61267 L454.14788 151.53266 L455.31499 155.39387 L455.86402 157.33469" />
    <path d="M456.56005 159.9323 L457.05498 161.88761 L457.97484 165.81507 L458.39967 167.78681" />
    <path d="M458.92955 170.42333 L459.29947 172.4061 L459.96839 176.384 L460.26731 178.3787" />
    <path d="M460.6289 181.04353 L460.87233 183.04577 L461.2876 187.05808 L461.45941 189.06773" />
    <path d="M466.3499 191.45151 L466.46907 193.52109 L466.63348 197.66363 L466.6787 199.73614" />
    <path d="M466.70063 202.5 L466.68829 204.57297 L466.58963 208.71759 L466.50331 210.7888" />
    <path d="M466.3499 213.54849 L466.20612 215.6165 L465.84479 219.74652 L465.62728 221.80808" />
    <path d="M465.29915 224.55248 L465.02449 226.60722 L464.40195 230.706 L464.05413 232.74962" />
    <path d="M463.55259 235.46769 L463.14817 237.50086 L462.26692 241.55191 L461.79018 243.56935" />
    <path d="M461.11727 246.25014 L460.58471 248.25357 L459.4483 252.24057 L458.84457 254.22371" />
    <path d="M458.00298 256.85642 L457.34443 258.82204 L455.95743 262.72894 L455.22914 264.6698" />
    <path d="M454.22227 267.24383 L453.44038 269.16373 L451.80839 272.97479 L450.95846 274.86555" />
    <path d="M449.79037 277.37054 L448.88828 279.23698 L447.01786 282.93686 L446.04973 284.76992" />
    <path d="M444.72511 287.19578 L443.70646 289.00124 L441.60514 292.57505 L440.5227 294.34301" />
    <path d="M439.04689 296.67997 L437.91578 298.41719 L435.59203 301.85053 L434.39964 303.54628" />
    <path d="M432.77858 305.78493 L431.53957 307.44692 L429.00274 310.72596 L427.7052 312.34267" />
    <path d="M425.94542 314.474 L424.60349 316.05406 L421.8638 319.16561 L420.46633 320.69676" />
    <path d="M418.57492 322.7122 L417.13548 324.20396 L414.20396 327.13548 L412.7122 328.57492" />
    <path d="M410.69676 330.46633 L409.16561 331.8638 L406.05406 334.60349 L404.474 335.94542" />
    <path d="M402.34267 337.7052 L400.72596 339.00274 L397.44692 341.53957 L395.78493 342.77858" />
    <path d="M393.54628 344.39964 L391.85053 345.59203 L388.41719 347.91578 L386.67997 349.04689" />
    <path d="M384.34301 350.5227 L382.57505 351.60514 L379.00124 353.70646 L377.19578 354.72511" />
    <path d="M374.76992 356.04973 L372.93686 357.01786 L369.23698 358.88828 L367.37054 359.79037" />
    <path d="M364.86555 360.95846 L362.97479 361.80839 L359.16373 363.44038 L357.24383 364.22227" />
    <path d="M354.6698 365.22914 L352.72894 365.95743 L348.82204 367.34443 L346.85642 368.00298" />
    <path d="M344.22371 368.84457 L342.24057 369.4483 L338.25357 370.58471 L336.25014 371.11727" />
    <path d="M333.56935 371.79018 L331.55191 372.26692 L327.50086 373.14817 L325.46769 373.55259" />
    <path d="M322.74962 374.05413 L320.706 374.40195 L316.60722 375.02449 L314.55248 375.29915" />
    <path d="M311.80808 375.62728 L309.74652 375.84479 L305.6165 376.20612 L303.54849 376.3499" />
    <path d="M300.7888 376.50331 L298.71759 376.58963 L294.57297 376.68829 L292.5 376.70063" />
    <path d="M289.73614 376.6787 L287.66363 376.63348 L283.52109 376.46907 L281.45151 376.3499" />
    <path d="M278.69461 376.15273 L276.62914 375.97615 L272.50537 375.54934 L270.44752 375.29915" />
    <path d="M267.70867 374.92751 L265.65855 374.62029 L261.57016 373.93279 L259.53231 373.55259" />
    <path d="M256.82255 373.008 L254.79605 372.57137 L250.75949 371.62595 L248.74986 371.11727" />
    <path d="M246.0801 370.40191 L244.08537 369.83763 L240.1169 368.6381 L238.14358 368.00298" />
    <path d="M235.52456 367.11973 L233.56963 366.43007 L229.68523 364.98127 L227.75617 364.22227" />
    <path d="M225.19844 363.17469 L223.29119 362.36244 L219.5065 360.67018 L217.62946 359.79037" />
    <path d="M215.14332 358.58268 L213.29143 357.65109 L209.62169 355.7222 L207.80422 354.72511" />
    <path d="M205.39969 353.36217 L203.61061 352.315 L200.07059 350.15725 L198.32003 349.04689" />
    <path d="M196.00678 347.53419 L194.28772 346.37566 L190.89168 343.99773 L189.21507 342.77858" />
    <path d="M187.00241 341.12221 L185.36029 339.85698 L182.12191 337.26845 L180.526 335.94542" />
    <path d="M178.42285 334.15205 L176.86428 332.78522 L173.7966 329.99651 L172.2878 328.57492" />
    <path d="M170.30264 326.65177 L168.83389 325.18884 L165.94926 322.21118 L164.53367 320.69676" />
    <path d="M162.67447 318.65158 L161.30147 317.09844 L158.61149 313.94382 L157.2948 312.34267" />
    <path d="M155.56906 310.18368 L154.29733 308.54659 L151.81285 305.22771 L150.60036 303.54628" />
    <path d="M149.01502 301.28218 L147.84969 299.56773 L145.5807 296.09796 L144.4773 294.34301" />
    <path d="M143.03875 291.98292 L141.9845 290.19801 L139.94015 286.59132 L138.95027 284.76992" />
    <path d="M137.66431 282.32335 L136.72538 280.47516 L134.9139 276.74607 L134.04154 274.86555" />
    <path d="M132.91333 272.34235 L132.09352 270.43834 L130.5222 266.60186 L129.77086 264.6698" />
    <path d="M128.80496 262.08012 L128.10755 260.12795 L126.78272 256.19954 L126.15543 254.22371" />
    <path d="M125.35572 251.57799 L124.78354 249.58551 L123.71053 245.58098 L123.20982 243.56935" />
    <path d="M122.57952 240.87823 L122.13486 238.85348 L121.31799 234.78896 L120.94587 232.74962" />
    <path d="M120.48753 230.02394 L120.17218 227.97506 L119.61474 223.86691 L119.37272 221.80808" />
    <path d="M119.08817 219.05882 L118.9034 216.99407 L118.60764 212.85883 L118.49669 210.7888" />
    <path d="M118.38708 208.02703 L118.33363 205.95471 L118.30075 201.80904 L118.3213 199.73614" />
    <path d="M118.38708 196.97297 L118.46518 194.90144 L118.69529 190.76204 L118.84727 188.69461" />
    <path d="M119.08817 185.94118 L119.2975 183.87877 L119.78968 179.76229 L120.07249 177.70867" />
    <path d="M120.48753 174.97606 L120.82724 172.93108 L121.57952 168.85411 L121.992 166.82255" />
    <path d="M122.57952 164.12177 L123.04825 162.10245 L124.05759 158.0814 L124.59809 156.0801" />
    <path d="M125.35572 153.42201 L125.95158 151.43649 L127.21392 147.48755 L127.88027 145.52456" />
    <path d="M128.80496 142.91988 L129.52555 140.97614 L131.0358 137.11522 L131.82531 135.19844" />
    <path d="M132.91333 132.65765 L133.75575 130.76353 L135.50784 127.00616 L136.41732 125.14332" />
    <path d="M137.66431 122.67665 L138.62516 120.83978 L140.61203 117.2011 L141.63783 115.39969" />
    <path d="M143.03875 113.01708 L144.11417 111.24484 L146.32782 107.7395 L147.46581 106.00678" />
    <path d="M149.01502 103.71782 L150.20068 102.01735 L152.63219 98.65947 L153.87779 97.00241" />
    <path d="M155.56906 94.81632 L156.86018 93.19448 L159.49977 89.99757 L160.84795 88.42285" />
    <path d="M162.67447 86.34842 L164.06585 84.81174 L166.90288 81.78868 L168.34823 80.30264" />
    <path d="M170.30264 78.34823 L171.78868 76.90288 L174.81174 74.06585 L176.34842 72.67447" />
    <path d="M178.42285 70.84795 L179.99757 69.49977 L183.19448 66.86018 L184.81632 65.56906" />
    <path d="M187.00241 63.87779 L188.65947 62.63219 L192.01735 60.20068 L193.71782 59.01502" />
    <path d="M196.00678 57.46581 L197.7395 56.32782 L201.24484 54.11417 L203.01708 53.03875" />
    <path d="M205.39969 51.63783 L207.2011 50.61203 L210.83978 48.62516 L212.67665 47.66431" />
    <path d="M215.14332 46.41732 L217.00616 45.50784 L220.76353 43.75575 L222.65765 42.91333" />
    <path d="M225.19844 41.82531 L227.11522 41.0358 L230.97614 39.52555 L232.91988 38.80496" />
    <path d="M235.52456 37.88027 L237.48755 37.21392 L241.43649 35.95158 L243.42201 35.35572" />
    <path d="M246.0801 34.59809 L248.0814 34.05759 L252.10245 33.04825 L254.12177 32.57952" />
    <path d="M256.82255 31.992 L258.85411 31.57952 L262.93108 30.82724 L264.97606 30.48753" />
    <path d="M267.70867 30.07249 L269.76229 29.78968 L273.87877 29.2975 L275.94118 29.08817" />
    <path d="M278.69461 28.84727 L280.76204 28.69529 L284.90144 28.46518 L286.97297 28.38708" />
    <path d="M289.73614 28.3213 L291.80904 28.30075 L295.95471 28.33363 L298.02703 28.38708" />
    <path d="M300.7888 28.49669 L302.85883 28.60764 L306.99407 28.9034 L309.05882 29.08817" />
    <path d="M311.80808 29.37272 L313.86691 29.61474 L317.97506 30.17218 L320.02394 30.48753" />
    <path d="M322.74962 30.94587 L324.78896 31.31799 L328.85348 32.13486 L330.87823 32.57952" />
    <path d="M333.56935 33.20982 L335.58098 33.71053 L339.58551 34.78354 L341.57799 35.35572" />
    <path d="M344.22371 36.15543 L346.19954 36.78272 L350.12795 38.10755 L352.08012 38.80496" />
    <path d="M354.6698 39.77086 L356.60186 40.5222 L360.43834 42.09352 L362.34235 42.91333" />
    <path d="M364.86555 44.04154 L366.74607 44.9139 L370.47516 46.72538 L372.32335 47.66431" />
    <path d="M374.76992 48.95027 L376.59132 49.94015 L380.19801 51.9845 L381.98292 53.03875" />
    <path d="M384.34301 54.4773 L386.09796 55.5807 L389.56773 57.84969 L391.28218 59.01502" />
    <path d="M393.54628 60.60036 L395.22771 61.81285 L398.54659 64.29733 L400.18368 65.56906" />
    <path d="M402.34267 67.2948 L403.94382 68.61149 L407.09844 71.30147 L408.65158 72.67447" />
    <path d="M410.69676 74.53367 L412.21118 75.94926 L415.18884 78.83389 L416.65177 80.30264" />
    <path d="M418.57492 82.2878 L419.99651 83.7966 L422.78522 86.86428 L424.15205 88.42285" />
    <path d="M425.94542 90.526 L427.26845 92.12191 L429.85698 95.36029 L431.12221 97.00241" />
    <path d="M432.77858 99.21507 L433.99773 100.89168 L436.37566 104.28772 L437.53419 106.00678" />
    <path d="M439.04689 108.32003 L440.15725 110.07059 L442.315 113.61061 L443.36217 115.39969" />
    <path d="M444.72511 117.80422 L445.7222 119.62169 L447.65109 123.29143 L448.58268 125.14332" />
    <path d="M449.79037 127.62946 L450.67018 129.5065 L452.36244 133.29119 L453.17469 135.19844" />
    <path d="M454.22227 137.75617 L454.98127 139.68523 L456.43007 143.56963 L457.11973 145.52456" />
    <path d="M458.00298 148.14358 L458.6381 150.1169 L459.83763 154.08537 L460.40191 156.0801" />
    <path d="M461.11727 158.74986 L461.62595 160.75949 L462.57137 164.79605 L463.008 166.82255" />
    <path d="M463.55259 169.53231 L463.93279 171.57016 L464.62029 175.65855 L464.92751 177.70867" />
    <path d="M465.29915 180.44752 L465.54934 182.50537 L465.97615 186.62914 L466.15273 188.69461" />
    <path d="M471.04855 191.15291 L471.17094 193.27842 L471.33979 197.53291 L471.38623 199.66144" />
    <path d="M471.40875 202.5 L471.39608 204.629 L471.29476 208.88563 L471.20611 211.01282" />
    <path d="M471.04855 213.84709 L470.90088 215.971 L470.52978 220.21264 L470.3064 222.32992" />
    <path d="M469.9694 225.1485 L469.68731 227.25876 L469.04795 231.46833 L468.69072 233.56718" />
    <path d="M468.17564 236.3587 L467.76028 238.44683 L466.85521 242.60737 L466.36559 244.67934" />
    <path d="M465.67449 247.43257 L465.12754 249.49015 L463.96041 253.58491 L463.34037 255.62165" />
    <path d="M462.47604 258.32551 L461.79968 260.34426 L460.3752 264.35675 L459.62723 266.35007" />
    <path d="M458.59315 268.99367 L457.79012 270.96545 L456.11402 274.87951 L455.24112 276.82138" />
    <path d="M454.04146 279.39407 L453.11499 281.31095 L451.19402 285.11083 L450.19972 286.99343" />
    <path d="M448.8393 289.48485 L447.79312 291.33911 L445.63501 295.00951 L444.52331 296.82525" />
    <path d="M443.00762 299.22537 L441.84594 301.00955 L439.45939 304.53568 L438.23477 306.27726" />
    <path d="M436.5699 308.57642 L435.2974 310.28332 L432.69201 313.65099 L431.35939 315.31139" />
    <path d="M429.55205 317.50033 L428.17386 319.12309 L425.36012 322.31873 L423.92488 323.89127" />
    <path d="M421.98235 325.96117 L420.50401 327.49326 L417.49326 330.50401 L415.96117 331.98235" />
    <path d="M413.89127 333.92488 L412.31873 335.36012 L409.12309 338.17386 L407.50033 339.55205" />
    <path d="M405.31139 341.35939 L403.65099 342.69201 L400.28332 345.2974 L398.57642 346.5699" />
    <path d="M396.27726 348.23477 L394.53568 349.45939 L391.00955 351.84594 L389.22537 353.00762" />
    <path d="M386.82525 354.52331 L385.00951 355.63501 L381.33911 357.79312 L379.48485 358.8393" />
    <path d="M376.99343 360.19972 L375.11083 361.19402 L371.31095 363.11499 L369.39407 364.04146" />
    <path d="M366.82138 365.24112 L364.87951 366.11402 L360.96545 367.79012 L358.99367 368.59315" />
    <path d="M356.35007 369.62723 L354.35675 370.3752 L350.34426 371.79968 L348.32551 372.47604" />
    <path d="M345.62165 373.34037 L343.58491 373.96041 L339.49015 375.12754 L337.43257 375.67449" />
    <path d="M334.67934 376.36559 L332.60737 376.85521 L328.44683 377.76028 L326.3587 378.17564" />
    <path d="M323.56718 378.69072 L321.46833 379.04795 L317.25876 379.68731 L315.1485 379.9694" />
    <path d="M312.32992 380.3064 L310.21264 380.52978 L305.971 380.90088 L303.84709 381.04855" />
    <path d="M301.01282 381.20611 L298.88563 381.29476 L294.629 381.39608 L292.5 381.40875" />
    <path d="M289.66144 381.38623 L287.53291 381.33979 L283.27842 381.17094 L281.15291 381.04855" />
    <path d="M278.32149 380.84604 L276.20019 380.66469 L271.96497 380.22634 L269.8515 379.9694" />
    <path d="M267.03863 379.58772 L264.93311 379.27219 L260.73422 378.56611 L258.6413 378.17564" />
    <path d="M255.8583 377.61632 L253.77702 377.16789 L249.63137 376.19692 L247.56743 375.67449" />
    <path d="M244.8255 374.9398 L242.77686 374.36026 L238.70114 373.12832 L236.67449 372.47604" />
    <path d="M233.98468 371.56892 L231.97692 370.86062 L227.98753 369.37265 L226.00633 368.59315" />
    <path d="M223.37948 367.51725 L221.42068 366.68304 L217.5337 364.94505 L215.60593 364.04146" />
    <path d="M213.0526 362.80113 L211.15066 361.84436 L207.38173 359.86334 L205.51515 358.8393" />
    <path d="M203.04563 357.43952 L201.20819 356.36405 L197.5725 354.14798 L195.77463 353.00762" />
    <path d="M193.39885 351.45403 L191.63333 350.26419 L188.14551 347.82199 L186.42358 346.5699" />
    <path d="M184.15113 344.86876 L182.46463 343.56933 L179.13872 340.91084 L177.49967 339.55205" />
    <path d="M175.33968 337.71021 L173.73899 336.30644 L170.5884 333.44236 L169.03883 331.98235" />
    <path d="M167 330.00722 L165.49157 328.50476 L162.52897 325.44662 L161.07512 323.89127" />
    <path d="M159.16567 321.79081 L157.75556 320.1957 L154.99288 316.95581 L153.64061 315.31139" />
    <path d="M151.86822 313.09405 L150.56212 311.41272 L148.01049 308.00414 L146.76523 306.27726" />
    <path d="M145.13705 303.95197 L143.94022 302.19118 L141.60991 298.62763 L140.47669 296.82525" />
    <path d="M138.99926 294.40138 L137.91651 292.56823 L135.81691 288.86406 L134.80028 286.99343" />
    <path d="M133.47956 284.48073 L132.51526 282.5826 L130.65482 278.75272 L129.75888 276.82138" />
    <path d="M128.60018 274.22998 L127.75821 272.27451 L126.14442 268.33434 L125.37277 266.35007" />
    <path d="M124.38077 263.6904 L123.66451 261.68546 L122.30387 257.65088 L121.65963 255.62165" />
    <path d="M120.83831 252.90442 L120.25066 250.85809 L119.14865 246.74533 L118.63441 244.67934" />
    <path d="M117.98708 241.91548 L117.53039 239.836 L116.69145 235.66163 L116.30928 233.56718" />
    <path d="M115.83854 230.76783 L115.51467 228.66358 L114.94217 224.4444 L114.6936 222.32992" />
    <path d="M114.40136 219.50636 L114.2116 217.3858 L113.90785 213.1388 L113.79389 211.01282" />
    <path d="M113.68132 208.1764 L113.62644 206.04808 L113.59266 201.79037 L113.61377 199.66144" />
    <path d="M113.68132 196.8236 L113.76153 194.69607 L113.99786 190.44479 L114.15396 188.32149" />
    <path d="M114.40136 185.49364 L114.61635 183.37549 L115.12183 179.14776 L115.41228 177.03863" />
    <path d="M115.83854 174.23217 L116.18744 172.13192 L116.96004 167.94476 L117.38368 165.8583" />
    <path d="M117.98708 163.08452 L118.46847 161.01062 L119.50509 156.8809 L120.0602 154.8255" />
    <path d="M120.83831 152.09558 L121.45027 150.05639 L122.74673 146.00073 L123.43108 143.98468" />
    <path d="M124.38077 141.3096 L125.12083 139.31333 L126.6719 135.34806 L127.48275 133.37948" />
    <path d="M128.60018 130.77002 L129.46537 128.82471 L131.26481 124.96579 L132.19887 123.0526" />
    <path d="M133.47956 120.51927 L134.46638 118.63274 L136.50695 114.89572 L137.56048 113.04562" />
    <path d="M138.99926 110.59862 L140.10375 108.77848 L142.37722 105.17841 L143.54597 103.39885" />
    <path d="M145.13705 101.04803 L146.35476 99.30161 L148.85198 95.85297 L150.13124 94.15113" />
    <path d="M151.86822 91.90595 L153.19424 90.24027 L155.90517 86.95697 L157.28979 85.33968" />
    <path d="M159.16567 83.20919 L160.59466 81.63097 L163.50837 78.52621 L164.99278 77" />
    <path d="M167 74.99278 L168.52621 73.50837 L171.63097 70.59466 L173.20919 69.16567" />
    <path d="M175.33968 67.28979 L176.95697 65.90517 L180.24027 63.19424 L181.90595 61.86822" />
    <path d="M184.15113 60.13124 L185.85297 58.85198 L189.30161 56.35476 L191.04803 55.13705" />
    <path d="M193.39885 53.54597 L195.17841 52.37722 L198.77848 50.10375 L200.59862 48.99926" />
    <path d="M203.04562 47.56048 L204.89572 46.50695 L208.63274 44.46638 L210.51927 43.47956" />
    <path d="M213.0526 42.19887 L214.96579 41.26481 L218.82471 39.46537 L220.77002 38.60018" />
    <path d="M223.37948 37.48275 L225.34806 36.6719 L229.31333 35.12083 L231.3096 34.38077" />
    <path d="M233.98468 33.43108 L236.00073 32.74673 L240.05639 31.45027 L242.09558 30.83831" />
    <path d="M244.8255 30.0602 L246.8809 29.50509 L251.01062 28.46847 L253.08452 27.98708" />
    <path d="M255.8583 27.38368 L257.94476 26.96004 L262.13192 26.18744 L264.23217 25.83854" />
    <path d="M267.03863 25.41228 L269.14776 25.12183 L273.37549 24.61635 L275.49364 24.40136" />
    <path d="M278.32149 24.15396 L280.44479 23.99786 L284.69607 23.76153 L286.8236 23.68132" />
    <path d="M289.66144 23.61377 L291.79037 23.59266 L296.04808 23.62644 L298.1764 23.68132" />
    <path d="M301.01282 23.79389 L303.1388 23.90785 L307.3858 24.2116 L309.50636 24.40136" />
    <path d="M312.32992 24.6936 L314.4444 24.94217 L318.66358 25.51467 L320.76783 25.83854" />
    <path d="M323.56718 26.30928 L325.66163 26.69145 L329.836 27.53039 L331.91548 27.98708" />
    <path d="M334.67934 28.63441 L336.74533 29.14865 L340.85809 30.25066 L342.90442 30.83831" />
    <path d="M345.62165 31.65963 L347.65088 32.30387 L351.68546 33.66451 L353.6904 34.38077" />
    <path d="M356.35007 35.37277 L358.33434 36.14442 L362.27451 37.75821 L364.22998 38.60018" />
    <path d="M366.82138 39.75888 L368.75272 40.65482 L372.5826 42.51526 L374.48073 43.47956" />
    <path d="M376.99343 44.80028 L378.86406 45.81691 L382.56823 47.91651 L384.40138 48.99926" />
    <path d="M386.82525 50.47669 L388.62763 51.60991 L392.19118 53.94022 L393.95197 55.13705" />
    <path d="M396.27726 56.76523 L398.00414 58.01049 L401.41272 60.56212 L403.09405 61.86822" />
    <path d="M405.31139 63.64061 L406.95581 64.99288 L410.1957 67.75556 L411.79081 69.16567" />
    <path d="M413.89127 71.07512 L415.44662 72.52897 L418.50476 75.49157 L420.00722 77" />
    <path d="M421.98235 79.03883 L423.44236 80.5884 L426.30644 83.73899 L427.71021 85.33968" />
    <path d="M429.55205 87.49967 L430.91084 89.13872 L433.56933 92.46463 L434.86876 94.15113" />
    <path d="M436.5699 96.42358 L437.82199 98.14551 L440.26419 101.63333 L441.45403 103.39885" />
    <path d="M443.00762 105.77463 L444.14798 107.5725 L446.36405 111.20819 L447.43952 113.04562" />
    <path d="M448.8393 115.51515 L449.86334 117.38173 L451.84436 121.15066 L452.80113 123.0526" />
    <path d="M454.04146 125.60593 L454.94505 127.5337 L456.68304 131.42068 L457.51725 133.37948" />
    <path d="M458.59315 136.00633 L459.37265 137.98753 L460.86062 141.97692 L461.56892 143.98468" />
    <path d="M462.47604 146.67449 L463.12832 148.70114 L464.36026 152.77686 L464.9398 154.8255" />
    <path d="M465.67449 157.56743 L466.19692 159.63137 L467.16789 163.77702 L467.61632 165.8583" />
    <path d="M468.17564 168.6413 L468.56611 170.73422 L469.27219 174.93311 L469.58772 177.03863" />
    <path d="M469.9694 179.8515 L470.22634 181.96497 L470.66469 186.20019 L470.84604 188.32149" />
    <path d="M475.74719 190.8543 L475.8728 193.03575 L476.0461 197.4022 L476.09376 199.58674" />
    <path d="M476.11688 202.5 L476.10387 204.68502 L475.99988 209.05368 L475.9089 211.23684" />
    <path d="M475.74719 214.1457 L475.59564 216.3255 L475.21478 220.67876 L474.98551 222.85176" />
    <path d="M474.63964 225.74451 L474.35014 227.91031 L473.69394 232.23065 L473.32732 234.38474" />
    <path d="M472.79868 237.24972 L472.37239 239.3928 L471.44351 243.66282 L470.941 245.78932" />
    <path d="M470.23172 248.61501 L469.67037 250.72673 L468.47253 254.92925 L467.83617 257.01959" />
    <path d="M466.94909 259.79461 L466.25494 261.86648 L464.79297 265.98456 L464.02531 268.03033" />
    <path d="M462.96402 270.7435 L462.13986 272.76717 L460.41965 276.78424 L459.52378 278.77721" />
    <path d="M458.29255 281.4176 L457.3417 283.38493 L455.37018 287.2848 L454.34971 289.21694" />
    <path d="M452.95349 291.77393 L451.87978 293.67698 L449.66488 297.44397 L448.52393 299.30749" />
    <path d="M446.96834 301.77078 L445.77609 303.60191 L443.32674 307.22083 L442.06989 309.00824" />
    <path d="M440.36121 311.3679 L439.05522 313.11973 L436.38127 316.57601 L435.01359 318.28011" />
    <path d="M433.15869 320.52665 L431.74422 322.19212 L428.85644 325.47186 L427.38343 327.08578" />
    <path d="M425.38978 329.21015 L423.87253 330.78256 L420.78256 333.87253 L419.21015 335.38978" />
    <path d="M417.08578 337.38343 L415.47186 338.85644 L412.19212 341.74422 L410.52665 343.15869" />
    <path d="M408.28011 345.01359 L406.57601 346.38127 L403.11973 349.05522 L401.3679 350.36121" />
    <path d="M399.00824 352.06989 L397.22083 353.32674 L393.60191 355.77609 L391.77078 356.96834" />
    <path d="M389.30749 358.52393 L387.44397 359.66488 L383.67698 361.87978 L381.77393 362.95349" />
    <path d="M379.21694 364.34971 L377.2848 365.37018 L373.38493 367.3417 L371.4176 368.29255" />
    <path d="M368.77721 369.52378 L366.78424 370.41965 L362.76717 372.13986 L360.7435 372.96402" />
    <path d="M358.03033 374.02531 L355.98456 374.79297 L351.86648 376.25494 L349.79461 376.94909" />
    <path d="M347.01959 377.83617 L344.92925 378.47253 L340.72673 379.67037 L338.61501 380.23172" />
    <path d="M335.78932 380.941 L333.66282 381.44351 L329.3928 382.37239 L327.24972 382.79868" />
    <path d="M324.38474 383.32732 L322.23065 383.69394 L317.91031 384.35014 L315.74451 384.63964" />
    <path d="M312.85176 384.98551 L310.67876 385.21478 L306.3255 385.59564 L304.1457 385.74719" />
    <path d="M301.23684 385.9089 L299.05368 385.99988 L294.68502 386.10387 L292.5 386.11688" />
    <path d="M289.58674 386.09376 L287.4022 386.0461 L283.03575 385.8728 L280.8543 385.74719" />
    <path d="M277.94837 385.53936 L275.77125 385.35324 L271.42458 384.90335 L269.25549 384.63964" />
    <path d="M266.36859 384.24792 L264.20766 383.92409 L259.89828 383.19943 L257.75028 382.79868" />
    <path d="M254.89404 382.22465 L252.758 381.76441 L248.50325 380.7679 L246.38499 380.23172" />
    <path d="M243.57091 379.47769 L241.46836 378.8829 L237.28538 377.61854 L235.20539 376.94909" />
    <path d="M232.4448 376.0181 L230.38421 375.29116 L226.28984 373.76404 L224.2565 372.96402" />
    <path d="M221.56052 371.85981 L219.55017 371.00365 L215.5609 369.21992 L213.5824 368.29255" />
    <path d="M210.96188 367.01958 L209.00988 366.03763 L205.14178 364.00448 L203.22607 362.95349" />
    <path d="M200.69156 361.51688 L198.80578 360.41311 L195.07441 358.13872 L193.22922 356.96834" />
    <path d="M190.79093 355.37387 L188.97895 354.15272 L185.39934 351.64626 L183.6321 350.36121" />
    <path d="M181.29984 348.6153 L179.56896 347.28169 L176.15553 344.55323 L174.47335 343.15869" />
    <path d="M172.25652 341.26838 L170.6137 339.82766 L167.3802 336.88821 L165.78985 335.38978" />
    <path d="M163.69737 333.36268 L162.14924 331.82067 L159.10868 328.68206 L157.61657 327.08578" />
    <path d="M155.65687 324.93004 L154.20965 323.29295 L151.37427 319.96781 L149.98641 318.28011" />
    <path d="M148.16739 316.00442 L146.82692 314.27884 L144.20814 310.78056 L142.93011 309.00824" />
    <path d="M141.25908 306.62176 L140.03075 304.81464 L137.63912 301.15731 L136.47607 299.30749" />
    <path d="M134.95977 296.81984 L133.84852 294.93845 L131.69367 291.13679 L130.65029 289.21694" />
    <path d="M129.29481 286.63812 L128.30513 284.69004 L126.39573 280.75937 L125.47622 278.77721" />
    <path d="M124.28703 276.11761 L123.4229 274.11068 L121.76664 270.06683 L120.97469 268.03033" />
    <path d="M119.95658 265.30067 L119.22147 263.24297 L117.82503 259.10221 L117.16383 257.01959" />
    <path d="M116.3209 254.23085 L115.71778 252.13067 L114.58677 247.90968 L114.059 245.78932" />
    <path d="M113.39463 242.95273 L112.92593 240.81853 L112.06491 236.53431 L111.67268 234.38474" />
    <path d="M111.18956 231.51172 L110.85716 229.35209 L110.26959 225.02188 L110.01449 222.85176" />
    <path d="M109.71456 219.95389 L109.5198 217.77753 L109.20805 213.41877 L109.0911 211.23684" />
    <path d="M108.97557 208.32578 L108.91924 206.14145 L108.88457 201.7717 L108.90624 199.58674" />
    <path d="M108.97557 196.67422 L109.05789 194.49071 L109.30044 190.12755 L109.46064 187.94837" />
    <path d="M109.71456 185.04611 L109.9352 182.87221 L110.45399 178.53323 L110.75208 176.36859" />
    <path d="M111.18956 173.48828 L111.54763 171.33276 L112.34057 167.03541 L112.77535 164.89404" />
    <path d="M113.39463 162.04727 L113.8887 159.9188 L114.95259 155.68039 L115.52231 153.57091" />
    <path d="M116.3209 150.76915 L116.94897 148.6763 L118.27954 144.5139 L118.9819 142.4448" />
    <path d="M119.95658 139.69933 L120.71612 137.65053 L122.30801 133.5809 L123.14019 131.56052" />
    <path d="M124.28703 128.88239 L125.17498 126.88588 L127.02178 122.92542 L127.98042 120.96188" />
    <path d="M129.29481 118.36188 L130.3076 116.42571 L132.40187 112.59035 L133.48312 110.69156" />
    <path d="M134.95977 108.18016 L136.09332 106.31213 L138.42662 102.61731 L139.62613 100.79093" />
    <path d="M141.25908 98.37824 L142.50883 96.58586 L145.07177 93.04647 L146.3847 91.29984" />
    <path d="M148.16739 88.99558 L149.5283 87.28607 L152.31056 83.91636 L153.73162 82.25652" />
    <path d="M155.65687 80.06996 L157.12347 78.45021 L160.11385 75.26375 L161.63732 73.69737" />
    <path d="M163.69737 71.63732 L165.26375 70.11385 L168.45021 67.12347 L170.06996 65.65687" />
    <path d="M172.25652 63.73162 L173.91636 62.31056 L177.28607 59.5283 L178.99558 58.16739" />
    <path d="M181.29984 56.3847 L183.04647 55.07177 L186.58586 52.50883 L188.37824 51.25908" />
    <path d="M190.79093 49.62613 L192.61731 48.42662 L196.31213 46.09332 L198.18016 44.95977" />
    <path d="M200.69156 43.48312 L202.59035 42.40187 L206.42571 40.3076 L208.36188 39.29481" />
    <path d="M210.96188 37.98042 L212.92542 37.02178 L216.88588 35.17498 L218.88239 34.28703" />
    <path d="M221.56052 33.14019 L223.5809 32.30801 L227.65053 30.71612 L229.69933 29.95658" />
    <path d="M232.4448 28.9819 L234.5139 28.27954 L238.6763 26.94897 L240.76915 26.3209" />
    <path d="M243.57091 25.52231 L245.68039 24.95259 L249.9188 23.8887 L252.04727 23.39463" />
    <path d="M254.89404 22.77535 L257.03541 22.34057 L261.33276 21.54763 L263.48828 21.18956" />
    <path d="M266.36859 20.75208 L268.53323 20.45399 L272.87221 19.9352 L275.04611 19.71456" />
    <path d="M277.94837 19.46064 L280.12755 19.30044 L284.49071 19.05789 L286.67422 18.97557" />
    <path d="M289.58674 18.90624 L291.7717 18.88457 L296.14145 18.91924 L298.32578 18.97557" />
    <path d="M301.23684 19.0911 L303.41877 19.20805 L307.77753 19.5198 L309.95389 19.71456" />
    <path d="M312.85176 20.01449 L315.02188 20.26959 L319.35209 20.85716 L321.51172 21.18956" />
    <path d="M324.38474 21.67268 L326.53431 22.06491 L330.81853 22.92593 L332.95273 23.39463" />
    <path d="M335.78932 24.059 L337.90968 24.58677 L342.13067 25.71778 L344.23085 26.3209" />
    <path d="M347.01959 27.16383 L349.10221 27.82503 L353.24297 29.22147 L355.30067 29.95658" />
    <path d="M358.03033 30.97469 L360.06683 31.76664 L364.11068 33.4229 L366.11761 34.28703" />
    <path d="M368.77721 35.47622 L370.75937 36.39573 L374.69004 38.30513 L376.63812 39.29481" />
    <path d="M379.21694 40.65029 L381.13679 41.69367 L384.93845 43.84852 L386.81984 44.95977" />
    <path d="M389.30749 46.47607 L391.15731 47.63912 L394.81464 50.03075 L396.62176 51.25908" />
    <path d="M399.00824 52.93011 L400.78056 54.20814 L404.27884 56.82692 L406.00442 58.16739" />
    <path d="M408.28011 59.98641 L409.96781 61.37427 L413.29295 64.20965 L414.93004 65.65687" />
    <path d="M417.08578 67.61657 L418.68206 69.10868 L421.82067 72.14924 L423.36268 73.69737" />
    <path d="M425.38978 75.78985 L426.88821 77.3802 L429.82766 80.6137 L431.26838 82.25652" />
    <path d="M433.15869 84.47335 L434.55323 86.15553 L437.28169 89.56896 L438.6153 91.29984" />
    <path d="M440.36121 93.6321 L441.64626 95.39934 L444.15272 98.97895 L445.37387 100.79093" />
    <path d="M446.96834 103.22922 L448.13872 105.07441 L450.41311 108.80578 L451.51688 110.69156" />
    <path d="M452.95349 113.22607 L454.00448 115.14178 L456.03763 119.00988 L457.01958 120.96188" />
    <path d="M458.29255 123.5824 L459.21992 125.5609 L461.00365 129.55017 L461.85981 131.56052" />
    <path d="M462.96402 134.2565 L463.76404 136.28984 L465.29116 140.38421 L466.0181 142.4448" />
    <path d="M466.94909 145.20539 L467.61854 147.28538 L468.8829 151.46836 L469.47769 153.57091" />
    <path d="M470.23172 156.38499 L470.7679 158.50325 L471.76441 162.758 L472.22465 164.89404" />
    <path d="M472.79868 167.75028 L473.19943 169.89828 L473.92409 174.20766 L474.24792 176.36859" />
    <path d="M474.63964 179.25549 L474.90335 181.42458 L475.35324 185.77125 L475.53936 187.94837" />
    <path d="M480.44584 190.55569 L480.57467 192.79307 L480.75241 197.27149 L480.8013 199.51204" />
    <path d="M480.825 202.5 L480.81167 204.74105 L480.70501 209.22172 L480.61169 211.46086" />
    <path d="M480.44584 214.44431 L480.2904 216.68 L479.89977 221.14489 L479.66463 223.3736" />
    <path d="M479.30989 226.34052 L479.01296 228.56186 L478.33994 232.99298 L477.96392 235.20229" />
    <path d="M477.42172 238.14074 L476.98451 240.33877 L476.0318 244.71828 L475.51641 246.8993" />
    <path d="M474.78894 249.79744 L474.2132 251.96332 L472.98464 256.27359 L472.33196 258.41753" />
    <path d="M471.42214 261.2637 L470.71019 263.38869 L469.21074 267.61237 L468.4234 269.7106" />
    <path d="M467.33489 272.49333 L466.4896 274.56889 L464.72528 278.68896 L463.80645 280.73303" />
    <path d="M462.54364 283.44113 L461.56841 285.4589 L459.54633 289.45877 L458.4997 291.44045" />
    <path d="M457.06768 294.063 L455.96644 296.01486 L453.69475 299.87843 L452.52454 301.78974" />
    <path d="M450.92907 304.31618 L449.70625 306.19426 L447.19409 309.90598 L445.90502 311.73922" />
    <path d="M444.15252 314.15939 L442.81305 315.95613 L440.07053 319.50104 L438.66778 321.24883" />
    <path d="M436.76532 323.55298 L435.31459 325.26115 L432.35276 328.62498 L430.84198 330.28028" />
    <path d="M428.79721 332.45913 L427.24106 334.07185 L424.07185 337.24106 L422.45913 338.79721" />
    <path d="M420.28028 340.84198 L418.62498 342.35276 L415.26115 345.31459 L413.55298 346.76532" />
    <path d="M411.24883 348.66778 L409.50104 350.07053 L405.95613 352.81305 L404.15939 354.15252" />
    <path d="M401.73922 355.90502 L399.90598 357.19409 L396.19426 359.70625 L394.31618 360.92907" />
    <path d="M391.78974 362.52454 L389.87843 363.69475 L386.01486 365.96644 L384.063 367.06768" />
    <path d="M381.44045 368.4997 L379.45877 369.54633 L375.4589 371.56841 L373.44113 372.54364" />
    <path d="M370.73303 373.80645 L368.68896 374.72528 L364.56889 376.4896 L362.49333 377.33489" />
    <path d="M359.7106 378.4234 L357.61237 379.21074 L353.38869 380.71019 L351.2637 381.42214" />
    <path d="M348.41753 382.33196 L346.27359 382.98464 L341.96332 384.2132 L339.79744 384.78894" />
    <path d="M336.8993 385.51641 L334.71828 386.0318 L330.33877 386.98451 L328.14074 387.42172" />
    <path d="M325.20229 387.96392 L322.99298 388.33994 L318.56186 389.01296 L316.34052 389.30989" />
    <path d="M313.3736 389.66463 L311.14489 389.89977 L306.68 390.2904 L304.44431 390.44584" />
    <path d="M301.46086 390.61169 L299.22172 390.70501 L294.74105 390.81167 L292.5 390.825" />
    <path d="M289.51204 390.8013 L287.27149 390.75241 L282.79307 390.57467 L280.55569 390.44584" />
    <path d="M277.57525 390.23268 L275.34231 390.04178 L270.88418 389.58036 L268.65948 389.30989" />
    <path d="M265.69856 388.90812 L263.48222 388.57599 L259.06233 387.83275 L256.85926 387.42172" />
    <path d="M253.92978 386.83297 L251.73897 386.36094 L247.37512 385.33887 L245.20256 384.78894" />
    <path d="M242.31632 384.01557 L240.15985 383.40554 L235.86962 382.10876 L233.7363 381.42214" />
    <path d="M230.90493 380.46728 L228.79149 379.7217 L224.59214 378.15543 L222.50667 377.33489" />
    <path d="M219.74155 376.20237 L217.67966 375.32425 L213.58811 373.49479 L211.55887 372.54364" />
    <path d="M208.87116 371.23803 L206.86911 370.2309 L202.90182 368.14562 L200.937 367.06768" />
    <path d="M198.3375 365.59423 L196.40336 364.46216 L192.57632 362.12946 L190.68382 360.92907" />
    <path d="M188.183 359.29372 L186.32456 358.04125 L182.65317 355.47052 L180.84061 354.15252" />
    <path d="M178.44856 352.36185 L176.67329 350.99404 L173.17234 348.19562 L171.44702 346.76532" />
    <path d="M169.17335 344.82654 L167.48841 343.34889 L164.172 340.33406 L162.54087 338.79721" />
    <path d="M160.39474 336.71813 L158.80691 335.13659 L155.68838 331.91749 L154.15802 330.28028" />
    <path d="M152.14807 328.06927 L150.66375 326.39021 L147.75567 322.97981 L146.33222 321.24883" />
    <path d="M144.46655 318.91479 L143.09171 317.14496 L140.40578 313.55699 L139.09498 311.73922" />
    <path d="M137.38111 309.29155 L136.12128 307.43809 L133.66833 303.68698 L132.47546 301.78974" />
    <path d="M130.92027 299.23829 L129.78054 297.30866 L127.57043 293.40953 L126.5003 291.44045" />
    <path d="M125.11006 288.79551 L124.09501 286.79748 L122.13665 282.76602 L121.19355 280.73303" />
    <path d="M119.97387 278.00524 L119.08759 275.94685 L117.38886 271.79931 L116.5766 269.7106" />
    <path d="M115.53239 266.91094 L114.77843 264.80049 L113.34618 260.55355 L112.66804 258.41753" />
    <path d="M111.80349 255.55728 L111.1849 253.40326 L110.02489 249.07404 L109.48359 246.8993" />
    <path d="M108.80219 243.98998 L108.32147 241.80106 L107.43837 237.40698 L107.03608 235.20229" />
    <path d="M106.54057 232.25561 L106.19965 230.04061 L105.59702 225.59937 L105.33537 223.3736" />
    <path d="M105.02775 220.40143 L104.828 218.16926 L104.50826 213.69874 L104.38831 211.46086" />
    <path d="M104.26981 208.47516 L104.21204 206.23482 L104.17648 201.75302 L104.1987 199.51204" />
    <path d="M104.26981 196.52484 L104.35425 194.28534 L104.60301 189.81031 L104.76732 187.57525" />
    <path d="M105.02775 184.59857 L105.25405 182.36894 L105.78614 177.91869 L106.09188 175.69856" />
    <path d="M106.54057 172.74439 L106.90783 170.5336 L107.7211 166.12606 L108.16703 163.92978" />
    <path d="M108.80219 161.01002 L109.30892 158.82697 L110.4001 154.47989 L110.98443 152.31632" />
    <path d="M111.80349 149.44272 L112.44766 147.2962 L113.81235 143.02708 L114.53272 140.90493" />
    <path d="M115.53239 138.08906 L116.3114 135.98772 L117.94411 131.81375 L118.79763 129.74155" />
    <path d="M119.97387 126.99476 L120.8846 124.94706 L122.77875 120.88504 L123.76197 118.87116" />
    <path d="M125.11006 116.20449 L126.14882 114.21868 L128.29679 110.28497 L129.40577 108.3375" />
    <path d="M130.92027 105.76171 L132.08289 103.84577 L134.47602 100.05622 L135.70628 98.183" />
    <path d="M137.38111 95.70845 L138.6629 93.87011 L141.29156 90.23997 L142.63815 88.44856" />
    <path d="M144.46655 86.08521 L145.86236 84.33187 L148.71596 80.87576 L150.17346 79.17335" />
    <path d="M152.14807 76.93073 L153.65227 75.26944 L156.71933 72.00128 L158.28187 70.39474" />
    <path d="M160.39474 68.28187 L162.00128 66.71933 L165.26944 63.65227 L166.93073 62.14807" />
    <path d="M169.17335 60.17346 L170.87576 58.71596 L174.33187 55.86236 L176.08521 54.46655" />
    <path d="M178.44856 52.63815 L180.23997 51.29156 L183.87011 48.6629 L185.70845 47.38111" />
    <path d="M188.183 45.70628 L190.05622 44.47602 L193.84577 42.08289 L195.76171 40.92027" />
    <path d="M198.3375 39.40577 L200.28497 38.29679 L204.21868 36.14882 L206.20449 35.11006" />
    <path d="M208.87116 33.76197 L210.88504 32.77875 L214.94706 30.8846 L216.99476 29.97387" />
    <path d="M219.74155 28.79763 L221.81375 27.94411 L225.98772 26.3114 L228.08906 25.53239" />
    <path d="M230.90493 24.53272 L233.02708 23.81235 L237.2962 22.44766 L239.44272 21.80349" />
    <path d="M242.31632 20.98443 L244.47989 20.4001 L248.82697 19.30892 L251.01002 18.80219" />
    <path d="M253.92978 18.16703 L256.12606 17.7211 L260.53359 16.90783 L262.74439 16.54057" />
    <path d="M265.69856 16.09188 L267.91869 15.78614 L272.36894 15.25405 L274.59857 15.02775" />
    <path d="M277.57525 14.76732 L279.81031 14.60301 L284.28534 14.35425 L286.52484 14.26981" />
    <path d="M289.51204 14.1987 L291.75302 14.17648 L296.23482 14.21204 L298.47516 14.26981" />
    <path d="M301.46086 14.38831 L303.69874 14.50826 L308.16926 14.828 L310.40143 15.02775" />
    <path d="M313.3736 15.33537 L315.59937 15.59702 L320.04061 16.19965 L322.25561 16.54057" />
    <path d="M325.20229 17.03608 L327.40698 17.43837 L331.80106 18.32147 L333.98998 18.80219" />
    <path d="M336.8993 19.48359 L339.07404 20.02489 L343.40326 21.1849 L345.55728 21.80349" />
    <path d="M348.41753 22.66804 L350.55355 23.34618 L354.80049 24.77843 L356.91094 25.53239" />
    <path d="M359.7106 26.5766 L361.79931 27.38886 L365.94685 29.08759 L368.00524 29.97387" />
    <path d="M370.73303 31.19355 L372.76602 32.13665 L376.79748 34.09501 L378.79551 35.11006" />
    <path d="M381.44045 36.5003 L383.40953 37.57043 L387.30866 39.78054 L389.23829 40.92027" />
    <path d="M391.78974 42.47546 L393.68698 43.66833 L397.43809 46.12128 L399.29155 47.38111" />
    <path d="M401.73922 49.09498 L403.55699 50.40578 L407.14496 53.09171 L408.91479 54.46655" />
    <path d="M411.24883 56.33222 L412.97981 57.75567 L416.39021 60.66375 L418.06927 62.14807" />
    <path d="M420.28028 64.15802 L421.91749 65.68838 L425.13659 68.80691 L426.71813 70.39474" />
    <path d="M428.79721 72.54087 L430.33406 74.172 L433.34889 77.48841 L434.82654 79.17335" />
    <path d="M436.76532 81.44702 L438.19562 83.17234 L440.99404 86.67329 L442.36185 88.44856" />
    <path d="M444.15252 90.84061 L445.47052 92.65317 L448.04125 96.32456 L449.29372 98.183" />
    <path d="M450.92907 100.68382 L452.12946 102.57632 L454.46216 106.40336 L455.59423 108.3375" />
    <path d="M457.06768 110.937 L458.14562 112.90182 L460.2309 116.86911 L461.23803 118.87116" />
    <path d="M462.54364 121.55887 L463.49479 123.58811 L465.32425 127.67966 L466.20237 129.74155" />
    <path d="M467.33489 132.50667 L468.15543 134.59214 L469.7217 138.79149 L470.46728 140.90493" />
    <path d="M471.42214 143.7363 L472.10876 145.86962 L473.40554 150.15985 L474.01557 152.31632" />
    <path d="M474.78894 155.20256 L475.33887 157.37512 L476.36094 161.73897 L476.83297 163.92978" />
    <path d="M477.42172 166.85926 L477.83275 169.06233 L478.57599 173.48222 L478.90812 175.69856" />
    <path d="M479.30989 178.65948 L479.58036 180.88418 L480.04178 185.34231 L480.23268 187.57525" />
    <path d="M446.61816 182.83157 L446.8413 184.66695 L447.22197 188.3449 L447.37946 190.18708" />
    <path d="M446.2867 180.38881 L446.01269 178.56033 L445.39952 174.91393 L445.06042 173.09639" />
    <path d="M442.88837 163.47961 L443.34207 165.27198 L444.18527 168.87215 L444.5747 170.67957" />
    <path d="M440.11077 154.01995 L440.67722 155.77993 L441.74707 159.31938 L442.25035 161.09846" />
    <path d="M436.73879 144.7555 L437.41573 146.47602 L438.7079 149.94048 L439.32301 151.68406" />
    <path d="M432.786 135.72357 L433.5707 137.39769 L435.08001 140.77322 L435.80446 142.47428" />
    <path d="M428.26834 126.96052 L429.15764 128.5815 L430.878 131.85452 L431.70887 133.5062" />
    <path d="M423.20398 118.50165 L424.1943 120.06296 L426.11878 123.22027 L427.05274 124.81594" />
    <path d="M417.61333 110.38101 L418.70068 111.87637 L420.82153 114.90526 L421.85482 116.43848" />
    <path d="M411.51889 102.63129 L412.69889 104.05468 L415.00758 106.94296 L416.13603 108.40756" />
    <path d="M404.9452 95.28372 L406.2131 96.6294 L408.70033 99.36544 L409.91939 100.75552" />
    <path d="M397.91874 88.36786 L399.26943 89.63042 L401.92518 92.2032 L403.22996 93.51316" />
    <path d="M390.46779 81.91158 L391.89584 83.08592 L394.70942 85.48509 L396.09465 86.70966" />
    <path d="M382.62235 75.94086 L384.12201 77.02227 L387.0821 79.23816 L388.5422 80.3724" />
    <path d="M374.41403 70.47975 L375.97926 71.46387 L379.07392 73.48756 L380.60303 74.52691" />
    <path d="M365.87587 65.55024 L367.50036 66.43311 L370.71715 68.25644 L372.30909 69.19673" />
    <path d="M357.04225 61.17218 L358.71947 61.95024 L362.04542 63.56588 L363.6938 64.4033" />
    <path d="M347.94874 57.3632 L349.67193 58.03331 L353.09365 59.43476 L354.79183 60.16595" />
    <path d="M338.63196 54.13863 L340.39418 54.6981 L343.8979 55.87971 L345.63903 56.50172" />
    <path d="M329.12942 51.51146 L330.92358 51.95804 L334.49519 52.91505 L336.27226 53.42538" />
    <path d="M319.47939 49.49227 L321.29826 49.82415 L324.92337 50.55271 L326.72923 50.9493" />
    <path d="M309.72072 48.08918 L311.55698 48.30504 L315.221 48.80221 L317.04838 49.08347" />
    <path d="M299.89271 47.30785 L301.73896 47.40682 L305.42714 47.6706 L307.26868 47.83539" />
    <path d="M290.03493 47.15143 L291.88374 47.1331 L295.58123 47.16243 L297.42951 47.2101" />
    <path d="M280.18708 47.62054 L282.031 47.48499 L285.72291 47.27975 L287.57049 47.2101" />
    <path d="M270.38881 48.7133 L272.22042 48.46107 L275.89187 48.02209 L277.73132 47.83539" />
    <path d="M260.67957 50.4253 L262.4915 50.05741 L266.12772 49.38646 L267.95162 49.08347" />
    <path d="M251.09846 52.74965 L252.88341 52.26758 L256.46975 51.36736 L258.27077 50.9493" />
    <path d="M241.68406 55.67699 L243.43484 55.08269 L246.95687 53.95682 L248.72774 53.42538" />
    <path d="M232.47428 59.19554 L234.18384 58.49139 L237.62737 57.14441 L239.36097 56.50172" />
    <path d="M223.5062 63.29113 L225.16766 62.47996 L228.51882 60.91729 L230.20817 60.16595" />
    <path d="M214.81594 67.94726 L216.4226 67.03235 L219.66791 65.26028 L221.3062 64.4033" />
    <path d="M206.43848 73.14518 L207.98388 72.13022 L211.11026 70.15588 L212.69091 69.19673" />
    <path d="M198.40756 78.86397 L199.88548 77.75304 L202.88034 75.58439 L204.39697 74.52691" />
    <path d="M190.75552 85.08061 L192.16 83.87817 L195.01129 81.52394 L196.4578 80.3724" />
    <path d="M183.51316 91.77004 L184.83855 90.48095 L187.53479 87.95062 L188.90535 86.70966" />
    <path d="M176.70966 98.90535 L177.95062 97.53479 L180.48095 94.83855 L181.77004 93.51316" />
    <path d="M170.3724 106.4578 L171.52394 105.01129 L173.87817 102.16 L175.08061 100.75552" />
    <path d="M164.52691 114.39697 L165.58439 112.88034 L167.75304 109.88548 L168.86397 108.40756" />
    <path d="M159.19673 122.69091 L160.15588 121.11026 L162.13022 117.98388 L163.14518 116.43848" />
    <path d="M154.4033 131.3062 L155.26028 129.66791 L157.03235 126.4226 L157.94726 124.81594" />
    <path d="M150.16595 140.20817 L150.91729 138.51882 L152.47996 135.16766 L153.29113 133.5062" />
    <path d="M146.50172 149.36097 L147.14441 147.62737 L148.49139 144.18384 L149.19554 142.47428" />
    <path d="M143.42538 158.72774 L143.95682 156.95687 L145.08269 153.43484 L145.67699 151.68406" />
    <path d="M140.9493 168.27077 L141.36736 166.46975 L142.26758 162.88341 L142.74965 161.09846" />
    <path d="M139.08347 177.95162 L139.38646 176.12772 L140.05741 172.4915 L140.4253 170.67957" />
    <path d="M137.83539 187.73132 L138.02209 185.89187 L138.46107 182.22042 L138.7133 180.38881" />
    <path d="M137.2101 197.57049 L137.27975 195.7229 L137.48499 192.031 L137.62054 190.18708" />
    <path d="M137.2101 207.42951 L137.16243 205.58123 L137.1331 201.88374 L137.15143 200.03493" />
    <path d="M137.83539 217.26868 L137.6706 215.42714 L137.40682 211.73896 L137.30785 209.89271" />
    <path d="M139.08347 227.04838 L138.80221 225.221 L138.30504 221.55698 L138.08918 219.72072" />
    <path d="M140.9493 236.72923 L140.55271 234.92337 L139.82415 231.29826 L139.49227 229.47939" />
    <path d="M143.42538 246.27226 L142.91505 244.49519 L141.95804 240.92358 L141.51146 239.12942" />
    <path d="M146.50172 255.63903 L145.87971 253.8979 L144.6981 250.39418 L144.13863 248.63196" />
    <path d="M150.16595 264.79183 L149.43476 263.09365 L148.03331 259.67193 L147.3632 257.94874" />
    <path d="M154.4033 273.6938 L153.56588 272.04542 L151.95024 268.71947 L151.17218 267.04225" />
    <path d="M159.19673 282.30909 L158.25644 280.71715 L156.43311 277.50036 L155.55024 275.87587" />
    <path d="M164.52691 290.60303 L163.48756 289.07392 L161.46387 285.97926 L160.47975 284.41403" />
    <path d="M170.3724 298.5422 L169.23816 297.0821 L167.02227 294.12201 L165.94086 292.62235" />
    <path d="M176.70966 306.09465 L175.48509 304.70942 L173.08592 301.89584 L171.91158 300.46779" />
    <path d="M183.51316 313.22996 L182.2032 311.92518 L179.63042 309.26943 L178.36786 307.91874" />
    <path d="M190.75552 319.91939 L189.36544 318.70033 L186.6294 316.2131 L185.28372 314.9452" />
    <path d="M198.40756 326.13603 L196.94296 325.00758 L194.05468 322.69889 L192.63129 321.51889" />
    <path d="M206.43848 331.85482 L204.90526 330.82153 L201.87637 328.70068 L200.38101 327.61333" />
    <path d="M214.81594 337.05274 L213.22027 336.11878 L210.06296 334.1943 L208.50165 333.20398" />
    <path d="M223.5062 341.70887 L221.85452 340.878 L218.5815 339.15764 L216.96052 338.26834" />
    <path d="M232.47428 345.80446 L230.77322 345.08001 L227.39769 343.5707 L225.72357 342.786" />
    <path d="M241.68406 349.32301 L239.94048 348.7079 L236.47602 347.41573 L234.7555 346.73879" />
    <path d="M251.09846 352.25035 L249.31938 351.74707 L245.77993 350.67722 L244.01995 350.11077" />
    <path d="M260.67957 354.5747 L258.87215 354.18527 L255.27198 353.34207 L253.47961 352.88837" />
    <path d="M270.38881 356.2867 L268.56033 356.01269 L264.91393 355.39952 L263.09639 355.06042" />
    <path d="M280.18708 357.37946 L278.3449 357.22197 L274.66695 356.8413 L272.83157 356.61816" />
    <path d="M290.03493 357.84857 L288.18648 357.80823 L284.49179 357.6616 L282.64594 357.55532" />
    <path d="M299.89271 357.69215 L298.04542 357.76913 L294.34887 357.85712 L292.5 357.86813" />
    <path d="M309.72072 356.91082 L307.88203 357.10481 L304.1985 357.42708 L302.35406 357.55532" />
    <path d="M319.47939 355.50773 L317.6567 355.81795 L314.00103 356.37319 L312.16843 356.61816" />
    <path d="M329.12942 353.48854 L327.33008 353.91374 L323.71698 354.69972 L321.90361 355.06042" />
    <path d="M338.63196 350.86137 L336.86321 351.39983 L333.30724 352.41339 L331.52039 352.88837" />
    <path d="M347.94874 347.6368 L346.2177 348.28636 L342.73317 349.52341 L340.98005 350.11077" />
    <path d="M357.04225 343.82782 L355.35589 344.58586 L351.95684 346.04142 L350.2445 346.73879" />
    <path d="M365.87587 339.44976 L364.24099 340.31323 L360.94109 341.98144 L359.27643 342.786" />
    <path d="M374.41403 334.52025 L372.8372 335.48567 L369.64976 337.35981 L368.03948 338.26834" />
    <path d="M382.62235 329.05914 L381.10993 330.12262 L378.04777 332.19516 L376.49835 333.20398" />
    <path d="M390.46779 323.08842 L389.02586 324.24569 L386.10131 326.50826 L384.61899 327.61333" />
    <path d="M397.91874 316.63214 L396.55311 317.87853 L393.77795 320.32203 L392.36871 321.51889" />
    <path d="M404.9452 309.71628 L403.66138 311.04678 L401.04678 313.66138 L399.71628 314.9452" />
    <path d="M411.51889 302.36871 L410.32203 303.77795 L407.87853 306.55311 L406.63214 307.91874" />
    <path d="M417.61333 294.61899 L416.50826 296.10131 L414.24569 299.02586 L413.08842 300.46779" />
    <path d="M423.20398 286.49835 L422.19516 288.04777 L420.12262 291.10993 L419.05914 292.62235" />
    <path d="M428.26834 278.03948 L427.35981 279.64976 L425.48567 282.8372 L424.52025 284.41403" />
    <path d="M432.786 269.27643 L431.98144 270.94109 L430.31323 274.24099 L429.44976 275.87587" />
    <path d="M436.73879 260.2445 L436.04142 261.95684 L434.58586 265.35589 L433.82782 267.04225" />
    <path d="M440.11077 250.98005 L439.52341 252.73317 L438.28636 256.2177 L437.6368 257.94874" />
    <path d="M442.88837 241.52039 L442.41339 243.30724 L441.39983 246.86321 L440.86137 248.63196" />
    <path d="M445.06042 231.90361 L444.69972 233.71698 L443.91374 237.33008 L443.48854 239.12942" />
    <path d="M446.61816 222.16843 L446.37319 224.00103 L445.81795 227.6567 L445.50773 229.47939" />
    <path d="M447.55532 212.35406 L447.42708 214.1985 L447.10481 217.88203 L446.91082 219.72072" />
    <path d="M447.69215 209.89271 L447.76913 208.04542 L447.85712 204.34887 L447.86813 202.5" />
  </g>
</svg>