<?xml version="1.0" standalone="no"?>
<!DOCTYPE svg PUBLIC "-//W3C//DTD SVG 1.1//EN" 
    "http://www.w3.org/Graphics/SVG/1.1/DTD/svg11.dtd">
<svg width="6.5in" height="4.5in"
    xmlns="http://www.w3.org/2000/svg" version="1.1" viewBox="0 0 585 405">
  <g fill="none" stroke="black" stroke-width="0.01in">
    <path d="M276.75 202.5 L276.73458 204.26706 L276.68832 206.03357 L276.61124 207.79902 L276.50336 209.56284 L276.36471 211.32452 L276.19534 213.08351 L275.9953 214.83927 L275.76464 216.59128 L275.50344 218.33899 L275.21178 220.08188 L274.88975 221.81941 L274.53744 223.55106 L274.15497 225.27629 L273.74244 226.99459 L273.29999 228.70543 L272.82775 230.40828 L272.32586 232.10264 L271.79447 233.78797 L271.23376 235.46378 L270.64388 237.12954 L270.02502 238.78475 L269.37737 240.42892 L268.70112 242.06153 L267.99648 243.68209 L267.26366 245.2901 L266.5029 246.88508 L265.71441 248.46654 L264.89844 250.034 L264.05525 251.58697 L263.18507 253.125 L262.28819 254.64761 L261.36487 256.15433 L260.4154 257.6447 L259.44005 259.11828 L258.43914 260.57461 L257.41297 262.01326 L256.36185 263.43377 L255.28609 264.83572 L254.18603 266.21869 L253.062 267.58225 L251.91434 268.92598 L250.74341 270.24947 L249.54956 271.55233 L248.33315 272.83416 L247.09456 274.09456 L245.83416 275.33315 L244.55233 276.54956 L243.24947 277.74341 L241.92598 278.91434 L240.58225 280.062 L239.21869 281.18603 L237.83572 282.28609 L236.43377 283.36185 L235.01326 284.41297 L233.57461 285.43914 L232.11828 286.44005 L230.6447 287.4154 L229.15433 288.36487 L227.64761 289.28819 L226.125 290.18507 L224.58697 291.05525 L223.034 291.89844 L221.46654 292.71441 L219.88508 293.5029 L218.2901 294.26366 L216.68209 294.99648 L215.06153 295.70112 L213.42892 296.37737 L211.78475 297.02502 L210.12954 297.64388 L208.46378 298.23376 L206.78797 298.79447 L205.10264 299.32586 L203.40828 299.82775 L201.70543 300.29999 L199.99459 300.74244 L198.27629 301.15497 L196.55106 301.53744 L194.81941 301.88975 L193.08188 302.21178 L191.33899 302.50344 L189.59128 302.76464 L187.83927 302.9953 L186.08351 303.19534 L184.32452 303.36471 L182.56284 303.50336 L180.79902 303.61124 L179.03357 303.68832 L177.26706 303.73458 L175.5 303.75 L173.73294 303.73458 L171.96643 303.68832 L170.20098 303.61124 L168.43716 303.50336 L166.67548 303.36471 L164.91649 303.19534 L163.16073 302.9953 L161.40872 302.76464 L159.66101 302.50344 L157.91812 302.21178 L156.18059 301.88975 L154.44894 301.53744 L152.72371 301.15497 L151.00541 300.74244 L149.29457 300.29999 L147.59172 299.82775 L145.89736 299.32586 L144.21203 298.79447 L142.53622 298.23376 L140.87046 297.64388 L139.21525 297.02502 L137.57108 296.37737 L135.93847 295.70112 L134.31791 294.99648 L132.7099 294.26366 L131.11492 293.5029 L129.53346 292.71441 L127.966 291.89844 L126.41303 291.05525 L124.875 290.18507 L123.35239 289.28819 L121.84567 288.36487 L120.3553 287.4154 L118.88172 286.44005 L117.42539 285.43914 L115.98674 284.41297 L114.56623 283.36185 L113.16428 282.28609 L111.78131 281.18603 L110.41775 280.062 L109.07402 278.91434 L107.75053 277.74341 L106.44767 276.54956 L105.16584 275.33315 L103.90544 274.09456 L102.66685 272.83416 L101.45044 271.55233 L100.25659 270.24947 L99.08566 268.92598 L97.938 267.58225 L96.81397 266.21869 L95.71391 264.83572 L94.63815 263.43377 L93.58703 262.01326 L92.56086 260.57461 L91.55995 259.11828 L90.5846 257.6447 L89.63513 256.15433 L88.71181 254.64761 L87.81493 253.125 L86.94475 251.58697 L86.10156 250.034 L85.28559 248.46654 L84.4971 246.88508 L83.73634 245.2901 L83.00352 243.68209 L82.29888 242.06153 L81.62263 240.42892 L80.97498 238.78475 L80.35612 237.12954 L79.76624 235.46378 L79.20553 233.78797 L78.67414 232.10264 L78.17225 230.40828 L77.70001 228.70543 L77.25756 226.99459 L76.84503 225.27629 L76.46256 223.55106 L76.11025 221.81941 L75.78822 220.08188 L75.49656 218.33899 L75.23536 216.59128 L75.0047 214.83927 L74.80466 213.08351 L74.63529 211.32452 L74.49664 209.56284 L74.38876 207.79902 L74.31168 206.03357 L74.26542 204.26706 L74.25 202.5 L74.26542 200.73294 L74.31168 198.96643 L74.38876 197.20098 L74.49664 195.43716 L74.63529 193.67548 L74.80466 191.91649 L75.0047 190.16073 L75.23536 188.40872 L75.49656 186.66101 L75.78822 184.91812 L76.11025 183.18059 L76.46256 181.44894 L76.84503 179.72371 L77.25756 178.00541 L77.70001 176.29457 L78.17225 174.59172 L78.67414 172.89736 L79.20553 171.21203 L79.76624 169.53622 L80.35612 167.87046 L80.97498 166.21525 L81.62263 164.57108 L82.29888 162.93847 L83.00352 161.31791 L83.73634 159.7099 L84.4971 158.11492 L85.28559 156.53346 L86.10156 154.966 L86.94475 153.41303 L87.81493 151.875 L88.71181 150.35239 L89.63513 148.84567 L90.5846 147.3553 L91.55995 145.88172 L92.56086 144.42539 L93.58703 142.98674 L94.63815 141.56623 L95.71391 140.16428 L96.81397 138.78131 L97.938 137.41775 L99.08566 136.07402 L100.25659 134.75053 L101.45044 133.44767 L102.66685 132.16584 L103.90544 130.90544 L105.16584 129.66685 L106.44767 128.45044 L107.75053 127.25659 L109.07402 126.08566 L110.41775 124.938 L111.78131 123.81397 L113.16428 122.71391 L114.56623 121.63815 L115.98674 120.58703 L117.42539 119.56086 L118.88172 118.55995 L120.3553 117.5846 L121.84567 116.63513 L123.35239 115.71181 L124.875 114.81493 L126.41303 113.94475 L127.966 113.10156 L129.53346 112.28559 L131.11492 111.4971 L132.7099 110.73634 L134.31791 110.00352 L135.93847 109.29888 L137.57108 108.62263 L139.21525 107.97498 L140.87046 107.35612 L142.53622 106.76624 L144.21203 106.20553 L145.89736 105.67414 L147.59172 105.17225 L149.29457 104.70001 L151.00541 104.25756 L152.72371 103.84503 L154.44894 103.46256 L156.18059 103.11025 L157.91812 102.78822 L159.66101 102.49656 L161.40872 102.23536 L163.16073 102.0047 L164.91649 101.80466 L166.67548 101.63529 L168.43716 101.49664 L170.20098 101.38876 L171.96643 101.31168 L173.73294 101.26542 L175.5 101.25 L177.26706 101.26542 L179.03357 101.31168 L180.79902 101.38876 L182.56284 101.49664 L184.32452 101.63529 L186.08351 101.80466 L187.83927 102.0047 L189.59128 102.23536 L191.33899 102.49656 L193.08188 102.78822 L194.81941 103.11025 L196.55106 103.46256 L198.27629 103.84503 L199.99459 104.25756 L201.70543 104.70001 L203.40828 105.17225 L205.10264 105.67414 L206.78797 106.20553 L208.46378 106.76624 L210.12954 107.35612 L211.78475 107.97498 L213.42892 108.62263 L215.06153 109.29888 L216.68209 110.00352 L218.2901 110.73634 L219.88508 111.4971 L221.46654 112.28559 L223.034 113.10156 L224.58697 113.94475 L226.125 114.81493 L227.64761 115.71181 L229.15433 116.63513 L230.6447 117.5846 L232.11828 118.55995 L233.57461 119.56086 L235.01326 120.58703 L236.43377 121.63815 L237.83572 122.71391 L239.21869 123.81397 L240.58225 124.938 L241.92598 126.08566 L243.24947 127.25659 L244.55233 128.45044 L245.83416 129.66685 L247.09456 130.90544 L248.33315 132.16584 L249.54956 133.44767 L250.74341 134.75053 L251.91434 136.07402 L253.062 137.41775 L254.18603 138.78131 L255.28609 140.16428 L256.36185 141.56623 L257.41297 142.98674 L258.43914 144.42539 L259.44005 145.88172 L260.4154 147.3553 L261.36487 148.84567 L262.28819 150.35239 L263.18507 151.875 L264.05525 153.41303 L264.89844 154.966 L265.71441 156.53346 L266.5029 158.11492 L267.26366 159.7099 L267.99648 161.31791 L268.70112 162.93847 L269.37737 164.57108 L270.02502 166.21525 L270.64388 167.87046 L271.23376 169.53622 L271.79447 171.21203 L272.32586 172.89736 L272.82775 174.59172 L273.29999 176.29457 L273.74244 178.00541 L274.15497 179.72371 L274.53744 181.44894 L274.88975 183.18059 L275.21178 184.91812 L275.50344 186.66101 L275.76464 188.40872 L275.9953 190.16073 L276.19534 191.91649 L276.36471 193.67548 L276.50336 195.43716 L276.61124 197.20098 L276.68832 198.96643 L276.73458 200.73294 L276.75 202.5" />
    <path d="M277.5 101.25 L281.13191 101.31141 L288.26195 101.79575 L295.20466 102.74667 L301.94936 104.14563 L308.48533 105.97408 L314.80188 108.21349 L320.8883 110.84531 L326.73388 113.85102 L332.32792 117.21206 L337.65973 120.90991 L342.71858 124.92601 L347.49379 129.24183 L351.97464 133.83884 L356.15044 138.69849 L360.01048 143.80224 L363.54405 149.13155 L366.74046 154.66789 L369.58899 160.39271 L372.07895 166.28747 L374.19963 172.33365 L375.94033 178.51268 L377.29034 184.80605 L378.23896 191.1952 L378.77548 197.6616 L378.88921 204.1867 L378.56944 210.75198 L377.80546 217.33888 L376.58657 223.92888 L374.90206 230.50342 L372.74125 237.04398 L370.09341 243.532 L366.94784 249.94896 L365.18507 253.125 L363.4449 256.02643 L359.70416 261.61253 L355.63158 266.90072 L351.2456 271.88038 L346.56468 276.54084 L341.60725 280.87146 L336.39176 284.86159 L330.93665 288.50058 L325.26036 291.77778 L319.38135 294.68255 L313.31805 297.20424 L307.08891 299.33219 L300.71237 301.05575 L294.20688 302.36429 L287.59087 303.24715 L280.8828 303.69368 L277.5 303.75" />
    <path d="M271.5 303.75 L274.8828 303.69368 L281.59087 303.24715 L288.20688 302.36429 L294.71237 301.05575 L301.08891 299.33219 L307.31805 297.20424 L313.38135 294.68255 L319.26036 291.77778 L324.93665 288.50058 L330.39176 284.86159 L335.60725 280.87146 L340.56468 276.54084 L345.2456 271.88038 L349.63158 266.90072 L353.70416 261.61253 L357.4449 256.02643 L359.18507 253.125 L360.94784 249.94896 L364.09341 243.532 L366.74125 237.04398 L368.90206 230.50342 L370.58657 223.92888 L371.80546 217.33888 L372.56944 210.75198 L372.88921 204.1867 L372.77548 197.6616 L372.23896 191.1952 L371.29034 184.80605 L369.94033 178.51268 L368.19963 172.33365 L366.07895 166.28747 L363.58899 160.39271 L360.74046 154.66789 L357.54405 149.13155 L354.01048 143.80224 L350.15044 138.69849 L345.97464 133.83884 L341.49379 129.24183 L336.71858 124.92601 L331.65973 120.90991 L326.32792 117.21206 L320.73388 113.85102 L314.8883 110.84531 L308.80188 108.21349 L302.48533 105.97408 L295.94936 104.14563 L289.20466 102.74667 L282.26195 101.79575 L275.13191 101.31141 L271.5 101.25" />
    <path d="M265.5 101.25 L269.13191 101.31141 L276.26195 101.79575 L283.20466 102.74667 L289.94936 104.14563 L296.48533 105.97408 L302.80188 108.21349 L308.8883 110.84531 L314.73388 113.85102 L320.32792 117.21206 L325.65973 120.90991 L330.71858 124.92601 L335.49379 129.24183 L339.97464 133.83884 L344.15044 138.69849 L348.01048 143.80224 L351.54405 149.13155 L354.74046 154.66789 L357.58899 160.39271 L360.07895 166.28747 L362.19963 172.33365 L363.94033 178.51268 L365.29034 184.80605 L366.23896 191.1952 L366.77548 197.6616 L366.88921 204.1867 L366.56944 210.75198 L365.80546 217.33888 L364.58657 223.92888 L362.90206 230.50342 L360.74125 237.04398 L358.09341 243.532 L354.94784 249.94896 L353.18507 253.125 L351.4449 256.02643 L347.70416 261.61253 L343.63158 266.90072 L339.2456 271.88038 L334.56468 276.54084 L329.60725 280.87146 L324.39176 284.86159 L318.93665 288.50058 L313.26036 291.77778 L307.38135 294.68255 L301.31805 297.20424 L295.08891 299.33219 L288.71237 301.05575 L282.20688 302.36429 L275.59087 303.24715 L268.8828 303.69368 L265.5 303.75" />
    <path d="M259.5 303.75 L262.8828 303.69368 L269.59087 303.24715 L276.20688 302.36429 L282.71237 301.05575 L289.08891 299.33219 L295.31805 297.20424 L301.38135 294.68255 L307.26036 291.77778 L312.93665 288.50058 L318.39176 284.86159 L323.60725 280.87146 L328.56468 276.54084 L333.2456 271.88038 L337.63158 266.90072 L341.70416 261.61253 L345.4449 256.02643 L347.18507 253.125 L348.94784 249.94896 L352.09341 243.532 L354.74125 237.04398 L356.90206 230.50342 L358.58657 223.92888 L359.80546 217.33888 L360.56944 210.75198 L360.88921 204.1867 L360.77548 197.6616 L360.23896 191.1952 L359.29034 184.80605 L357.94033 178.51268 L356.19963 172.33365 L354.07895 166.28747 L351.58899 160.39271 L348.74046 154.66789 L345.54405 149.13155 L342.01048 143.80224 L338.15044 138.69849 L333.97464 133.83884 L329.49379 129.24183 L324.71858 124.92601 L319.65973 120.90991 L314.32792 117.21206 L308.73388 113.85102 L302.8883 110.84531 L296.80188 108.21349 L290.48533 105.97408 L283.94936 104.14563 L277.20466 102.74667 L270.26195 101.79575 L263.13191 101.31141 L259.5 101.25" />
    <path d="M253.5 101.25 L257.13191 101.31141 L264.26195 101.79575 L271.20466 102.74667 L277.94936 104.14563 L284.48533 105.97408 L290.80188 108.21349 L296.8883 110.84531 L302.73388 113.85102 L308.32792 117.21206 L313.65973 120.90991 L318.71858 124.92601 L323.49379 129.24183 L327.97464 133.83884 L332.15044 138.69849 L336.01048 143.80224 L339.54405 149.13155 L342.74046 154.66789 L345.58899 160.39271 L348.07895 166.28747 L350.19963 172.33365 L351.94033 178.51268 L353.29034 184.80605 L354.23896 191.1952 L354.77548 197.6616 L354.88921 204.1867 L354.56944 210.75198 L353.80546 217.33888 L352.58657 223.92888 L350.90206 230.50342 L348.74125 237.04398 L346.09341 243.532 L342.94784 249.94896 L341.18507 253.125 L339.4449 256.02643 L335.70416 261.61253 L331.63158 266.90072 L327.2456 271.88038 L322.56468 276.54084 L317.60725 280.87146 L312.39176 284.86159 L306.93665 288.50058 L301.26036 291.77778 L295.38135 294.68255 L289.31805 297.20424 L283.08891 299.33219 L276.71237 301.05575 L270.20688 302.36429 L263.59087 303.24715 L256.8828 303.69368 L253.5 303.75" />
    <path d="M247.5 303.75 L250.8828 303.69368 L257.59087 303.24715 L264.20688 302.36429 L270.71237 301.05575 L277.08891 299.33219 L283.31805 297.20424 L289.38135 294.68255 L295.26036 291.77778 L300.93665 288.50058 L306.39176 284.86159 L311.60725 280.87146 L316.56468 276.54084 L321.2456 271.88038 L325.63158 266.90072 L329.70416 261.61253 L333.4449 256.02643 L335.18507 253.125 L336.94784 249.94896 L340.09341 243.532 L342.74125 237.04398 L344.90206 230.50342 L346.58657 223.92888 L347.80546 217.33888 L348.56944 210.75198 L348.88921 204.1867 L348.77548 197.6616 L348.23896 191.1952 L347.29034 184.80605 L345.94033 178.51268 L344.19963 172.33365 L342.07895 166.28747 L339.58899 160.39271 L336.74046 154.66789 L333.54405 149.13155 L330.01048 143.80224 L326.15044 138.69849 L321.97464 133.83884 L317.49379 129.24183 L312.71858 124.92601 L307.65973 120.90991 L302.32792 117.21206 L296.73388 113.85102 L290.8883 110.84531 L284.80188 108.21349 L278.48533 105.97408 L271.94936 104.14563 L265.20466 102.74667 L258.26195 101.79575 L251.13191 101.31141 L247.5 101.25" />
    <path d="M241.5 101.25 L245.13191 101.31141 L252.26195 101.79575 L259.20466 102.74667 L265.94936 104.14563 L272.48533 105.97408 L278.80188 108.21349 L284.8883 110.84531 L290.73388 113.85102 L296.32792 117.21206 L301.65973 120.90991 L306.71858 124.92601 L311.49379 129.24183 L315.97464 133.83884 L320.15044 138.69849 L324.01048 143.80224 L327.54405 149.13155 L330.74046 154.66789 L333.58899 160.39271 L336.07895 166.28747 L338.19963 172.33365 L339.94033 178.51268 L341.29034 184.80605 L342.23896 191.1952 L342.77548 197.6616 L342.88921 204.1867 L342.56944 210.75198 L341.80546 217.33888 L340.58657 223.92888 L338.90206 230.50342 L336.74125 237.04398 L334.09341 243.532 L330.94784 249.94896 L329.18507 253.125 L327.4449 256.02643 L323.70416 261.61253 L319.63158 266.90072 L315.2456 271.88038 L310.56468 276.54084 L305.60725 280.87146 L300.39176 284.86159 L294.93665 288.50058 L289.26036 291.77778 L283.38135 294.68255 L277.31805 297.20424 L271.08891 299.33219 L264.71237 301.05575 L258.20688 302.36429 L251.59087 303.24715 L244.8828 303.69368 L241.5 303.75" />
    <path d="M235.5 303.75 L238.8828 303.69368 L245.59087 303.24715 L252.20688 302.36429 L258.71237 301.05575 L265.08891 299.33219 L271.31805 297.20424 L277.38135 294.68255 L283.26036 291.77778 L288.93665 288.50058 L294.39176 284.86159 L299.60725 280.87146 L304.56468 276.54084 L309.2456 271.88038 L313.63158 266.90072 L317.70416 261.61253 L321.4449 256.02643 L323.18507 253.125 L324.94784 249.94896 L328.09341 243.532 L330.74125 237.04398 L332.90206 230.50342 L334.58657 223.92888 L335.80546 217.33888 L336.56944 210.75198 L336.88921 204.1867 L336.77548 197.6616 L336.23896 191.1952 L335.29034 184.80605 L333.94033 178.51268 L332.19963 172.33365 L330.07895 166.28747 L327.58899 160.39271 L324.74046 154.66789 L321.54405 149.13155 L318.01048 143.80224 L314.15044 138.69849 L309.97464 133.83884 L305.49379 129.24183 L300.71858 124.92601 L295.65973 120.90991 L290.32792 117.21206 L284.73388 113.85102 L278.8883 110.84531 L272.80188 108.21349 L266.48533 105.97408 L259.94936 104.14563 L253.20466 102.74667 L246.26195 101.79575 L239.13191 101.31141 L235.5 101.25" />
    <path d="M229.5 101.25 L233.13191 101.31141 L240.26195 101.79575 L247.20466 102.74667 L253.94936 104.14563 L260.48533 105.97408 L266.80188 108.21349 L272.8883 110.84531 L278.73388 113.85102 L284.32792 117.21206 L289.65973 120.90991 L294.71858 124.92601 L299.49379 129.24183 L303.97464 133.83884 L308.15044 138.69849 L312.01048 143.80224 L315.54405 149.13155 L318.74046 154.66789 L321.58899 160.39271 L324.07895 166.28747 L326.19963 172.33365 L327.94033 178.51268 L329.29034 184.80605 L330.23896 191.1952 L330.77548 197.6616 L330.88921 204.1867 L330.56944 210.75198 L329.80546 217.33888 L328.58657 223.92888 L326.90206 230.50342 L324.74125 237.04398 L322.09341 243.532 L318.94784 249.94896 L317.18507 253.125 L315.4449 256.02643 L311.70416 261.61253 L307.63158 266.90072 L303.2456 271.88038 L298.56468 276.54084 L293.60725 280.87146 L288.39176 284.86159 L282.93665 288.50058 L277.26036 291.77778 L271.38135 294.68255 L265.31805 297.20424 L259.08891 299.33219 L252.71237 301.05575 L246.20688 302.36429 L239.59087 303.24715 L232.8828 303.69368 L229.5 303.75" />
    <path d="M223.5 303.75 L226.8828 303.69368 L233.59087 303.24715 L240.20688 302.36429 L246.71237 301.05575 L253.08891 299.33219 L259.31805 297.20424 L265.38135 294.68255 L271.26036 291.77778 L276.93665 288.50058 L282.39176 284.86159 L287.60725 280.87146 L292.56468 276.54084 L297.2456 271.88038 L301.63158 266.90072 L305.70416 261.61253 L309.4449 256.02643 L311.18507 253.125 L312.94784 249.94896 L316.09341 243.532 L318.74125 237.04398 L320.90206 230.50342 L322.58657 223.92888 L323.80546 217.33888 L324.56944 210.75198 L324.88921 204.1867 L324.77548 197.6616 L324.23896 191.1952 L323.29034 184.80605 L321.94033 178.51268 L320.19963 172.33365 L318.07895 166.28747 L315.58899 160.39271 L312.74046 154.66789 L309.54405 149.13155 L306.01048 143.80224 L302.15044 138.69849 L297.97464 133.83884 L293.49379 129.24183 L288.71858 124.92601 L283.65973 120.90991 L278.32792 117.21206 L272.73388 113.85102 L266.8883 110.84531 L260.80188 108.21349 L254.48533 105.97408 L247.94936 104.14563 L241.20466 102.74667 L234.26195 101.79575 L227.13191 101.31141 L223.5 101.25" />
    <path d="M217.5 101.25 L221.13191 101.31141 L228.26195 101.79575 L235.20466 102.74667 L241.94936 104.14563 L248.48533 105.97408 L254.80188 108.21349 L260.8883 110.84531 L266.73388 113.85102 L272.32792 117.21206 L277.65973 120.90991 L282.71858 124.92601 L287.49379 129.24183 L291.97464 133.83884 L296.15044 138.69849 L300.01048 143.80224 L303.54405 149.13155 L306.74046 154.66789 L309.58899 160.39271 L312.07895 166.28747 L314.19963 172.33365 L315.94033 178.51268 L317.29034 184.80605 L318.23896 191.1952 L318.77548 197.6616 L318.88921 204.1867 L318.56944 210.75198 L317.80546 217.33888 L316.58657 223.92888 L314.90206 230.50342 L312.74125 237.04398 L310.09341 243.532 L306.94784 249.94896 L305.18507 253.125 L303.4449 256.02643 L299.70416 261.61253 L295.63158 266.90072 L291.2456 271.88038 L286.56468 276.54084 L281.60725 280.87146 L276.39176 284.86159 L270.93665 288.50058 L265.26036 291.77778 L259.38135 294.68255 L253.31805 297.20424 L247.08891 299.33219 L240.71237 301.05575 L234.20688 302.36429 L227.59087 303.24715 L220.8828 303.69368 L217.5 303.75" />
    <path d="M211.5 303.75 L214.8828 303.69368 L221.59087 303.24715 L228.20688 302.36429 L234.71237 301.05575 L241.08891 299.33219 L247.31805 297.20424 L253.38135 294.68255 L259.26036 291.77778 L264.93665 288.50058 L270.39176 284.86159 L275.60725 280.87146 L280.56468 276.54084 L285.2456 271.88038 L289.63158 266.90072 L293.70416 261.61253 L297.4449 256.02643 L299.18507 253.125 L300.94784 249.94896 L304.09341 243.532 L306.74125 237.04398 L308.90206 230.50342 L310.58657 223.92888 L311.80546 217.33888 L312.56944 210.75198 L312.88921 204.1867 L312.77548 197.6616 L312.23896 191.1952 L311.29034 184.80605 L309.94033 178.51268 L308.19963 172.33365 L306.07895 166.28747 L303.58899 160.39271 L300.74046 154.66789 L297.54405 149.13155 L294.01048 143.80224 L290.15044 138.69849 L285.97464 133.83884 L281.49379 129.24183 L276.71858 124.92601 L271.65973 120.90991 L266.32792 117.21206 L260.73388 113.85102 L254.8883 110.84531 L248.80188 108.21349 L242.48533 105.97408 L235.94936 104.14563 L229.20466 102.74667 L222.26195 101.79575 L215.13191 101.31141 L211.5 101.25" />
    <path d="M205.5 101.25 L209.13191 101.31141 L216.26195 101.79575 L223.20466 102.74667 L229.94936 104.14563 L236.48533 105.97408 L242.80188 108.21349 L248.8883 110.84531 L254.73388 113.85102 L260.32792 117.21206 L265.65973 120.90991 L270.71858 124.92601 L275.49379 129.24183 L279.97464 133.83884 L284.15044 138.69849 L288.01048 143.80224 L291.54405 149.13155 L294.74046 154.66789 L297.58899 160.39271 L300.07895 166.28747 L302.19963 172.33365 L303.94033 178.51268 L305.29034 184.80605 L306.23896 191.1952 L306.77548 197.6616 L306.88921 204.1867 L306.56944 210.75198 L305.80546 217.33888 L304.58657 223.92888 L302.90206 230.50342 L300.74125 237.04398 L298.09341 243.532 L294.94784 249.94896 L293.18507 253.125 L291.4449 256.02643 L287.70416 261.61253 L283.63158 266.90072 L279.2456 271.88038 L274.56468 276.54084 L269.60725 280.87146 L264.39176 284.86159 L258.93665 288.50058 L253.26036 291.77778 L247.38135 294.68255 L241.31805 297.20424 L235.08891 299.33219 L228.71237 301.05575 L222.20688 302.36429 L215.59087 303.24715 L208.8828 303.69368 L205.5 303.75" />
    <path d="M199.5 303.75 L202.8828 303.69368 L209.59087 303.24715 L216.20688 302.36429 L222.71237 301.05575 L229.08891 299.33219 L235.31805 297.20424 L241.38135 294.68255 L247.26036 291.77778 L252.93665 288.50058 L258.39176 284.86159 L263.60725 280.87146 L268.56468 276.54084 L273.2456 271.88038 L277.63158 266.90072 L281.70416 261.61253 L285.4449 256.02643 L287.18507 253.125 L288.94784 249.94896 L292.09341 243.532 L294.74125 237.04398 L296.90206 230.50342 L298.58657 223.92888 L299.80546 217.33888 L300.56944 210.75198 L300.88921 204.1867 L300.77548 197.6616 L300.23896 191.1952 L299.29034 184.80605 L297.94033 178.51268 L296.19963 172.33365 L294.07895 166.28747 L291.58899 160.39271 L288.74046 154.66789 L285.54405 149.13155 L282.01048 143.80224 L278.15044 138.69849 L273.97464 133.83884 L269.49379 129.24183 L264.71858 124.92601 L259.65973 120.90991 L254.32792 117.21206 L248.73388 113.85102 L242.8883 110.84531 L236.80188 108.21349 L230.48533 105.97408 L223.94936 104.14563 L217.20466 102.74667 L210.26195 101.79575 L203.13191 101.31141 L199.5 101.25" />
    <path d="M193.5 101.25 L197.13191 101.31141 L204.26195 101.79575 L211.20466 102.74667 L217.94936 104.14563 L224.48533 105.97408 L230.80188 108.21349 L236.8883 110.84531 L242.73388 113.85102 L248.32792 117.21206 L253.65973 120.90991 L258.71858 124.92601 L263.49379 129.24183 L267.97464 133.83884 L272.15044 138.69849 L276.01048 143.80224 L279.54405 149.13155 L282.74046 154.66789 L285.58899 160.39271 L288.07895 166.28747 L290.19963 172.33365 L291.94033 178.51268 L293.29034 184.80605 L294.23896 191.1952 L294.77548 197.6616 L294.88921 204.1867 L294.56944 210.75198 L293.80546 217.33888 L292.58657 223.92888 L290.90206 230.50342 L288.74125 237.04398 L286.09341 243.532 L282.94784 249.94896 L281.18507 253.125 L279.4449 256.02643 L275.70416 261.61253 L271.63158 266.90072 L267.2456 271.88038 L262.56468 276.54084 L257.60725 280.87146 L252.39176 284.86159 L246.93665 288.50058 L241.26036 291.77778 L235.38135 294.68255 L229.31805 297.20424 L223.08891 299.33219 L216.71237 301.05575 L210.20688 302.36429 L203.59087 303.24715 L196.8828 303.69368 L193.5 303.75" />
    <path d="M187.5 303.75 L190.8828 303.69368 L197.59087 303.24715 L204.20688 302.36429 L210.71237 301.05575 L217.08891 299.33219 L223.31805 297.20424 L229.38135 294.68255 L235.26036 291.77778 L240.93665 288.50058 L246.39176 284.86159 L251.60725 280.87146 L256.56468 276.54084 L261.2456 271.88038 L265.63158 266.90072 L269.70416 261.61253 L273.4449 256.02643 L275.18507 253.125 L276.94784 249.94896 L280.09341 243.532 L282.74125 237.04398 L284.90206 230.50342 L286.58657 223.92888 L287.80546 217.33888 L288.56944 210.75198 L288.88921 204.1867 L288.77548 197.6616 L288.23896 191.1952 L287.29034 184.80605 L285.94033 178.51268 L284.19963 172.33365 L282.07895 166.28747 L279.58899 160.39271 L276.74046 154.66789 L273.54405 149.13155 L270.01048 143.80224 L266.15044 138.69849 L261.97464 133.83884 L257.49379 129.24183 L252.71858 124.92601 L247.65973 120.90991 L242.32792 117.21206 L236.73388 113.85102 L230.8883 110.84531 L224.80188 108.21349 L218.48533 105.97408 L211.94936 104.14563 L205.20466 102.74667 L198.26195 101.79575 L191.13191 101.31141 L187.5 101.25" />
    <path d="M181.5 101.25 L185.13191 101.31141 L192.26195 101.79575 L199.20466 102.74667 L205.94936 104.14563 L212.48533 105.97408 L218.80188 108.21349 L224.8883 110.84531 L230.73388 113.85102 L236.32792 117.21206 L241.65973 120.90991 L246.71858 124.92601 L251.49379 129.24183 L255.97464 133.83884 L260.15044 138.69849 L264.01048 143.80224 L267.54405 149.13155 L270.74046 154.66789 L273.58899 160.39271 L276.07895 166.28747 L278.19963 172.33365 L279.94033 178.51268 L281.29034 184.80605 L282.23896 191.1952 L282.77548 197.6616 L282.88921 204.1867 L282.56944 210.75198 L281.80546 217.33888 L280.58657 223.92888 L278.90206 230.50342 L276.74125 237.04398 L274.09341 243.532 L270.94784 249.94896 L269.18507 253.125 L267.4449 256.02643 L263.70416 261.61253 L259.63158 266.90072 L255.2456 271.88038 L250.56468 276.54084 L245.60725 280.87146 L240.39176 284.86159 L234.93665 288.50058 L229.26036 291.77778 L223.38135 294.68255 L217.31805 297.20424 L211.08891 299.33219 L204.71237 301.05575 L198.20688 302.36429 L191.59087 303.24715 L184.8828 303.69368 L181.5 303.75" />
    <path d="M283.5 303.75 L286.8828 303.69368 L293.59087 303.24715 L300.20688 302.36429 L306.71237 301.05575 L313.08891 299.33219 L319.31805 297.20424 L325.38135 294.68255 L331.26036 291.77778 L336.93665 288.50058 L342.39176 284.86159 L347.60725 280.87146 L352.56468 276.54084 L357.2456 271.88038 L361.63158 266.90072 L365.70416 261.61253 L369.4449 256.02643 L371.18507 253.125 L372.94784 249.94896 L376.09341 243.532 L378.74125 237.04398 L380.90206 230.50342 L382.58657 223.92888 L383.80546 217.33888 L384.56944 210.75198 L384.88921 204.1867 L384.77548 197.6616 L384.23896 191.1952 L383.29034 184.80605 L381.94033 178.51268 L380.19963 172.33365 L378.07895 166.28747 L375.58899 160.39271 L372.74046 154.66789 L369.54405 149.13155 L366.01048 143.80224 L362.15044 138.69849 L357.97464 133.83884 L353.49379 129.24183 L348.71858 124.92601 L343.65973 120.90991 L338.32792 117.21206 L332.73388 113.85102 L326.8883 110.84531 L320.80188 108.21349 L314.48533 105.97408 L307.94936 104.14563 L301.20466 102.74667 L294.26195 101.79575 L287.13191 101.31141 L283.5 101.25" />
    <path d="M289.5 101.25 L293.13191 101.31141 L300.26195 101.79575 L307.20466 102.74667 L313.94936 104.14563 L320.48533 105.97408 L326.80188 108.21349 L332.8883 110.84531 L338.73388 113.85102 L344.32792 117.21206 L349.65973 120.90991 L354.71858 124.92601 L359.49379 129.24183 L363.97464 133.83884 L368.15044 138.69849 L372.01048 143.80224 L375.54405 149.13155 L378.74046 154.66789 L381.58899 160.39271 L384.07895 166.28747 L386.19963 172.33365 L387.94033 178.51268 L389.29034 184.80605 L390.23896 191.1952 L390.77548 197.6616 L390.88921 204.1867 L390.56944 210.75198 L389.80546 217.33888 L388.58657 223.92888 L386.90206 230.50342 L384.74125 237.04398 L382.09341 243.532 L378.94784 249.94896 L377.18507 253.125 L375.4449 256.02643 L371.70416 261.61253 L367.63158 266.90072 L363.2456 271.88038 L358.56468 276.54084 L353.60725 280.87146 L348.39176 284.86159 L342.93665 288.50058 L337.26036 291.77778 L331.38135 294.68255 L325.31805 297.20424 L319.08891 299.33219 L312.71237 301.05575 L306.20688 302.36429 L299.59087 303.24715 L292.8828 303.69368 L289.5 303.75" />
    <path d="M295.5 303.75 L298.8828 303.69368 L305.59087 303.24715 L312.20688 302.36429 L318.71237 301.05575 L325.08891 299.33219 L331.31805 297.20424 L337.38135 294.68255 L343.26036 291.77778 L348.93665 288.50058 L354.39176 284.86159 L359.60725 280.87146 L364.56468 276.54084 L369.2456 271.88038 L373.63158 266.90072 L377.70416 261.61253 L381.4449 256.02643 L383.18507 253.125 L384.94784 249.94896 L388.09341 243.532 L390.74125 237.04398 L392.90206 230.50342 L394.58657 223.92888 L395.80546 217.33888 L396.56944 210.75198 L396.88921 204.1867 L396.77548 197.6616 L396.23896 191.1952 L395.29034 184.80605 L393.94033 178.51268 L392.19963 172.33365 L390.07895 166.28747 L387.58899 160.39271 L384.74046 154.66789 L381.54405 149.13155 L378.01048 143.80224 L374.15044 138.69849 L369.97464 133.83884 L365.49379 129.24183 L360.71858 124.92601 L355.65973 120.90991 L350.32792 117.21206 L344.73388 113.85102 L338.8883 110.84531 L332.80188 108.21349 L326.48533 105.97408 L319.94936 104.14563 L313.20466 102.74667 L306.26195 101.79575 L299.13191 101.31141 L295.5 101.25" />
    <path d="M301.5 101.25 L305.13191 101.31141 L312.26195 101.79575 L319.20466 102.74667 L325.94936 104.14563 L332.48533 105.97408 L338.80188 108.21349 L344.8883 110.84531 L350.73388 113.85102 L356.32792 117.21206 L361.65973 120.90991 L366.71858 124.92601 L371.49379 129.24183 L375.97464 133.83884 L380.15044 138.69849 L384.01048 143.80224 L387.54405 149.13155 L390.74046 154.66789 L393.58899 160.39271 L396.07895 166.28747 L398.19963 172.33365 L399.94033 178.51268 L401.29034 184.80605 L402.23896 191.1952 L402.77548 197.6616 L402.88921 204.1867 L402.56944 210.75198 L401.80546 217.33888 L400.58657 223.92888 L398.90206 230.50342 L396.74125 237.04398 L394.09341 243.532 L390.94784 249.94896 L389.18507 253.125 L387.4449 256.02643 L383.70416 261.61253 L379.63158 266.90072 L375.2456 271.88038 L370.56468 276.54084 L365.60725 280.87146 L360.39176 284.86159 L354.93665 288.50058 L349.26036 291.77778 L343.38135 294.68255 L337.31805 297.20424 L331.08891 299.33219 L324.71237 301.05575 L318.20688 302.36429 L311.59087 303.24715 L304.8828 303.69368 L301.5 303.75" />
    <path d="M307.5 303.75 L310.8828 303.69368 L317.59087 303.24715 L324.20688 302.36429 L330.71237 301.05575 L337.08891 299.33219 L343.31805 297.20424 L349.38135 294.68255 L355.26036 291.77778 L360.93665 288.50058 L366.39176 284.86159 L371.60725 280.87146 L376.56468 276.54084 L381.2456 271.88038 L385.63158 266.90072 L389.70416 261.61253 L393.4449 256.02643 L395.18507 253.125 L396.94784 249.94896 L400.09341 243.532 L402.74125 237.04398 L404.90206 230.50342 L406.58657 223.92888 L407.80546 217.33888 L408.56944 210.75198 L408.88921 204.1867 L408.77548 197.6616 L408.23896 191.1952 L407.29034 184.80605 L405.94033 178.51268 L404.19963 172.33365 L402.07895 166.28747 L399.58899 160.39271 L396.74046 154.66789 L393.54405 149.13155 L390.01048 143.80224 L386.15044 138.69849 L381.97464 133.83884 L377.49379 129.24183 L372.71858 124.92601 L367.65973 120.90991 L362.32792 117.21206 L356.73388 113.85102 L350.8883 110.84531 L344.80188 108.21349 L338.48533 105.97408 L331.94936 104.14563 L325.20466 102.74667 L318.26195 101.79575 L311.13191 101.31141 L307.5 101.25" />
    <path d="M313.5 101.25 L317.13191 101.31141 L324.26195 101.79575 L331.20466 102.74667 L337.94936 104.14563 L344.48533 105.97408 L350.80188 108.21349 L356.8883 110.84531 L362.73388 113.85102 L368.32792 117.21206 L373.65973 120.90991 L378.71858 124.92601 L383.49379 129.24183 L387.97464 133.83884 L392.15044 138.69849 L396.01048 143.80224 L399.54405 149.13155 L402.74046 154.66789 L405.58899 160.39271 L408.07895 166.28747 L410.19963 172.33365 L411.94033 178.51268 L413.29034 184.80605 L414.23896 191.1952 L414.77548 197.6616 L414.88921 204.1867 L414.56944 210.75198 L413.80546 217.33888 L412.58657 223.92888 L410.90206 230.50342 L408.74125 237.04398 L406.09341 243.532 L402.94784 249.94896 L401.18507 253.125 L399.4449 256.02643 L395.70416 261.61253 L391.63158 266.90072 L387.2456 271.88038 L382.56468 276.54084 L377.60725 280.87146 L372.39176 284.86159 L366.93665 288.50058 L361.26036 291.77778 L355.38135 294.68255 L349.31805 297.20424 L343.08891 299.33219 L336.71237 301.05575 L330.20688 302.36429 L323.59087 303.24715 L316.8828 303.69368 L313.5 303.75" />
    <path d="M319.5 303.75 L322.8828 303.69368 L329.59087 303.24715 L336.20688 302.36429 L342.71237 301.05575 L349.08891 299.33219 L355.31805 297.20424 L361.38135 294.68255 L367.26036 291.77778 L372.93665 288.50058 L378.39176 284.86159 L383.60725 280.87146 L388.56468 276.54084 L393.2456 271.88038 L397.63158 266.90072 L401.70416 261.61253 L405.4449 256.02643 L407.18507 253.125 L408.94784 249.94896 L412.09341 243.532 L414.74125 237.04398 L416.90206 230.50342 L418.58657 223.92888 L419.80546 217.33888 L420.56944 210.75198 L420.88921 204.1867 L420.77548 197.6616 L420.23896 191.1952 L419.29034 184.80605 L417.94033 178.51268 L416.19963 172.33365 L414.07895 166.28747 L411.58899 160.39271 L408.74046 154.66789 L405.54405 149.13155 L402.01048 143.80224 L398.15044 138.69849 L393.97464 133.83884 L389.49379 129.24183 L384.71858 124.92601 L379.65973 120.90991 L374.32792 117.21206 L368.73388 113.85102 L362.8883 110.84531 L356.80188 108.21349 L350.48533 105.97408 L343.94936 104.14563 L337.20466 102.74667 L330.26195 101.79575 L323.13191 101.31141 L319.5 101.25" />
    <path d="M325.5 101.25 L329.13191 101.31141 L336.26195 101.79575 L343.20466 102.74667 L349.94936 104.14563 L356.48533 105.97408 L362.80188 108.21349 L368.8883 110.84531 L374.73388 113.85102 L380.32792 117.21206 L385.65973 120.90991 L390.71858 124.92601 L395.49379 129.24183 L399.97464 133.83884 L404.15044 138.69849 L408.01048 143.80224 L411.54405 149.13155 L414.74046 154.66789 L417.58899 160.39271 L420.07895 166.28747 L422.19963 172.33365 L423.94033 178.51268 L425.29034 184.80605 L426.23896 191.1952 L426.77548 197.6616 L426.88921 204.1867 L426.56944 210.75198 L425.80546 217.33888 L424.58657 223.92888 L422.90206 230.50342 L420.74125 237.04398 L418.09341 243.532 L414.94784 249.94896 L413.18507 253.125 L411.4449 256.02643 L407.70416 261.61253 L403.63158 266.90072 L399.2456 271.88038 L394.56468 276.54084 L389.60725 280.87146 L384.39176 284.86159 L378.93665 288.50058 L373.26036 291.77778 L367.38135 294.68255 L361.31805 297.20424 L355.08891 299.33219 L348.71237 301.05575 L342.20688 302.36429 L335.59087 303.24715 L328.8828 303.69368 L325.5 303.75" />
    <path d="M331.5 303.75 L334.8828 303.69368 L341.59087 303.24715 L348.20688 302.36429 L354.71237 301.05575 L361.08891 299.33219 L367.31805 297.20424 L373.38135 294.68255 L379.26036 291.77778 L384.93665 288.50058 L390.39176 284.86159 L395.60725 280.87146 L400.56468 276.54084 L405.2456 271.88038 L409.63158 266.90072 L413.70416 261.61253 L417.4449 256.02643 L419.18507 253.125 L420.94784 249.94896 L424.09341 243.532 L426.74125 237.04398 L428.90206 230.50342 L430.58657 223.92888 L431.80546 217.33888 L432.56944 210.75198 L432.88921 204.1867 L432.77548 197.6616 L432.23896 191.1952 L431.29034 184.80605 L429.94033 178.51268 L428.19963 172.33365 L426.07895 166.28747 L423.58899 160.39271 L420.74046 154.66789 L417.54405 149.13155 L414.01048 143.80224 L410.15044 138.69849 L405.97464 133.83884 L401.49379 129.24183 L396.71858 124.92601 L391.65973 120.90991 L386.32792 117.21206 L380.73388 113.85102 L374.8883 110.84531 L368.80188 108.21349 L362.48533 105.97408 L355.94936 104.14563 L349.20466 102.74667 L342.26195 101.79575 L335.13191 101.31141 L331.5 101.25" />
    <path d="M337.5 101.25 L341.13191 101.31141 L348.26195 101.79575 L355.20466 102.74667 L361.94936 104.14563 L368.48533 105.97408 L374.80188 108.21349 L380.8883 110.84531 L386.73388 113.85102 L392.32792 117.21206 L397.65973 120.90991 L402.71858 124.92601 L407.49379 129.24183 L411.97464 133.83884 L416.15044 138.69849 L420.01048 143.80224 L423.54405 149.13155 L426.74046 154.66789 L429.58899 160.39271 L432.07895 166.28747 L434.19963 172.33365 L435.94033 178.51268 L437.29034 184.80605 L438.23896 191.1952 L438.77548 197.6616 L438.88921 204.1867 L438.56944 210.75198 L437.80546 217.33888 L436.58657 223.92888 L434.90206 230.50342 L432.74125 237.04398 L430.09341 243.532 L426.94784 249.94896 L425.18507 253.125 L423.4449 256.02643 L419.70416 261.61253 L415.63158 266.90072 L411.2456 271.88038 L406.56468 276.54084 L401.60725 280.87146 L396.39176 284.86159 L390.93665 288.50058 L385.26036 291.77778 L379.38135 294.68255 L373.31805 297.20424 L367.08891 299.33219 L360.71237 301.05575 L354.20688 302.36429 L347.59087 303.24715 L340.8828 303.69368 L337.5 303.75" />
    <path d="M343.5 303.75 L346.8828 303.69368 L353.59087 303.24715 L360.20688 302.36429 L366.71237 301.05575 L373.08891 299.33219 L379.31805 297.20424 L385.38135 294.68255 L391.26036 291.77778 L396.93665 288.50058 L402.39176 284.86159 L407.60725 280.87146 L412.56468 276.54084 L417.2456 271.88038 L421.63158 266.90072 L425.70416 261.61253 L429.4449 256.02643 L431.18507 253.125 L432.94784 249.94896 L436.09341 243.532 L438.74125 237.04398 L440.90206 230.50342 L442.58657 223.92888 L443.80546 217.33888 L444.56944 210.75198 L444.88921 204.1867 L444.77548 197.6616 L444.23896 191.1952 L443.29034 184.80605 L441.94033 178.51268 L440.19963 172.33365 L438.07895 166.28747 L435.58899 160.39271 L432.74046 154.66789 L429.54405 149.13155 L426.01048 143.80224 L422.15044 138.69849 L417.97464 133.83884 L413.49379 129.24183 L408.71858 124.92601 L403.65973 120.90991 L398.32792 117.21206 L392.73388 113.85102 L386.8883 110.84531 L380.80188 108.21349 L374.48533 105.97408 L367.94936 104.14563 L361.20466 102.74667 L354.26195 101.79575 L347.13191 101.31141 L343.5 101.25" />
    <path d="M349.5 101.25 L353.13191 101.31141 L360.26195 101.79575 L367.20466 102.74667 L373.94936 104.14563 L380.48533 105.97408 L386.80188 108.21349 L392.8883 110.84531 L398.73388 113.85102 L404.32792 117.21206 L409.65973 120.90991 L414.71858 124.92601 L419.49379 129.24183 L423.97464 133.83884 L428.15044 138.69849 L432.01048 143.80224 L435.54405 149.13155 L438.74046 154.66789 L441.58899 160.39271 L444.07895 166.28747 L446.19963 172.33365 L447.94033 178.51268 L449.29034 184.80605 L450.23896 191.1952 L450.77548 197.6616 L450.88921 204.1867 L450.56944 210.75198 L449.80546 217.33888 L448.58657 223.92888 L446.90206 230.50342 L444.74125 237.04398 L442.09341 243.532 L438.94784 249.94896 L437.18507 253.125 L435.4449 256.02643 L431.70416 261.61253 L427.63158 266.90072 L423.2456 271.88038 L418.56468 276.54084 L413.60725 280.87146 L408.39176 284.86159 L402.93665 288.50058 L397.26036 291.77778 L391.38135 294.68255 L385.31805 297.20424 L379.08891 299.33219 L372.71237 301.05575 L366.20688 302.36429 L359.59087 303.24715 L352.8828 303.69368 L349.5 303.75" />
    <path d="M355.5 303.75 L358.8828 303.69368 L365.59087 303.24715 L372.20688 302.36429 L378.71237 301.05575 L385.08891 299.33219 L391.31805 297.20424 L397.38135 294.68255 L403.26036 291.77778 L408.93665 288.50058 L414.39176 284.86159 L419.60725 280.87146 L424.56468 276.54084 L429.2456 271.88038 L433.63158 266.90072 L437.70416 261.61253 L441.4449 256.02643 L443.18507 253.125 L444.94784 249.94896 L448.09341 243.532 L450.74125 237.04398 L452.90206 230.50342 L454.58657 223.92888 L455.80546 217.33888 L456.56944 210.75198 L456.88921 204.1867 L456.77548 197.6616 L456.23896 191.1952 L455.29034 184.80605 L453.94033 178.51268 L452.19963 172.33365 L450.07895 166.28747 L447.58899 160.39271 L444.74046 154.66789 L441.54405 149.13155 L438.01048 143.80224 L434.15044 138.69849 L429.97464 133.83884 L425.49379 129.24183 L420.71858 124.92601 L415.65973 120.90991 L410.32792 117.21206 L404.73388 113.85102 L398.8883 110.84531 L392.80188 108.21349 L386.48533 105.97408 L379.94936 104.14563 L373.20466 102.74667 L366.26195 101.79575 L359.13191 101.31141 L355.5 101.25" />
    <path d="M361.5 101.25 L365.13191 101.31141 L372.26195 101.79575 L379.20466 102.74667 L385.94936 104.14563 L392.48533 105.97408 L398.80188 108.21349 L404.8883 110.84531 L410.73388 113.85102 L416.32792 117.21206 L421.65973 120.90991 L426.71858 124.92601 L431.49379 129.24183 L435.97464 133.83884 L440.15044 138.69849 L444.01048 143.80224 L447.54405 149.13155 L450.74046 154.66789 L453.58899 160.39271 L456.07895 166.28747 L458.19963 172.33365 L459.94033 178.51268 L461.29034 184.80605 L462.23896 191.1952 L462.77548 197.6616 L462.88921 204.1867 L462.56944 210.75198 L461.80546 217.33888 L460.58657 223.92888 L458.90206 230.50342 L456.74125 237.04398 L454.09341 243.532 L450.94784 249.94896 L449.18507 253.125 L447.4449 256.02643 L443.70416 261.61253 L439.63158 266.90072 L435.2456 271.88038 L430.56468 276.54084 L425.60725 280.87146 L420.39176 284.86159 L414.93665 288.50058 L409.26036 291.77778 L403.38135 294.68255 L397.31805 297.20424 L391.08891 299.33219 L384.71237 301.05575 L378.20688 302.36429 L371.59087 303.24715 L364.8828 303.69368 L361.5 303.75" />
    <path d="M367.5 303.75 L370.8828 303.69368 L377.59087 303.24715 L384.20688 302.36429 L390.71237 301.05575 L397.08891 299.33219 L403.31805 297.20424 L409.38135 294.68255 L415.26036 291.77778 L420.93665 288.50058 L426.39176 284.86159 L431.60725 280.87146 L436.56468 276.54084 L441.2456 271.88038 L445.63158 266.90072 L449.70416 261.61253 L453.4449 256.02643 L455.18507 253.125 L456.94784 249.94896 L460.09341 243.532 L462.74125 237.04398 L464.90206 230.50342 L466.58657 223.92888 L467.80546 217.33888 L468.56944 210.75198 L468.88921 204.1867 L468.77548 197.6616 L468.23896 191.1952 L467.29034 184.80605 L465.94033 178.51268 L464.19963 172.33365 L462.07895 166.28747 L459.58899 160.39271 L456.74046 154.66789 L453.54405 149.13155 L450.01048 143.80224 L446.15044 138.69849 L441.97464 133.83884 L437.49379 129.24183 L432.71858 124.92601 L427.65973 120.90991 L422.32792 117.21206 L416.73388 113.85102 L410.8883 110.84531 L404.80188 108.21349 L398.48533 105.97408 L391.94936 104.14563 L385.20466 102.74667 L378.26195 101.79575 L371.13191 101.31141 L367.5 101.25" />
    <path d="M373.5 101.25 L377.13191 101.31141 L384.26195 101.79575 L391.20466 102.74667 L397.94936 104.14563 L404.48533 105.97408 L410.80188 108.21349 L416.8883 110.84531 L422.73388 113.85102 L428.32792 117.21206 L433.65973 120.90991 L438.71858 124.92601 L443.49379 129.24183 L447.97464 133.83884 L452.15044 138.69849 L456.01048 143.80224 L459.54405 149.13155 L462.74046 154.66789 L465.58899 160.39271 L468.07895 166.28747 L470.19963 172.33365 L471.94033 178.51268 L473.29034 184.80605 L474.23896 191.1952 L474.77548 197.6616 L474.88921 204.1867 L474.56944 210.75198 L473.80546 217.33888 L472.58657 223.92888 L470.90206 230.50342 L468.74125 237.04398 L466.09341 243.532 L462.94784 249.94896 L461.18507 253.125 L459.4449 256.02643 L455.70416 261.61253 L451.63158 266.90072 L447.2456 271.88038 L442.56468 276.54084 L437.60725 280.87146 L432.39176 284.86159 L426.93665 288.50058 L421.26036 291.77778 L415.38135 294.68255 L409.31805 297.20424 L403.08891 299.33219 L396.71237 301.05575 L390.20688 302.36429 L383.59087 303.24715 L376.8828 303.69368 L373.5 303.75" />
    <path d="M379.5 303.75 L382.8828 303.69368 L389.59087 303.24715 L396.20688 302.36429 L402.71237 301.05575 L409.08891 299.33219 L415.31805 297.20424 L421.38135 294.68255 L427.26036 291.77778 L432.93665 288.50058 L438.39176 284.86159 L443.60725 280.87146 L448.56468 276.54084 L453.2456 271.88038 L457.63158 266.90072 L461.70416 261.61253 L465.4449 256.02643 L467.18507 253.125 L468.94784 249.94896 L472.09341 243.532 L474.74125 237.04398 L476.90206 230.50342 L478.58657 223.92888 L479.80546 217.33888 L480.56944 210.75198 L480.88921 204.1867 L480.77548 197.6616 L480.23896 191.1952 L479.29034 184.80605 L477.94033 178.51268 L476.19963 172.33365 L474.07895 166.28747 L471.58899 160.39271 L468.74046 154.66789 L465.54405 149.13155 L462.01048 143.80224 L458.15044 138.69849 L453.97464 133.83884 L449.49379 129.24183 L444.71858 124.92601 L439.65973 120.90991 L434.32792 117.21206 L428.73388 113.85102 L422.8883 110.84531 L416.80188 108.21349 L410.48533 105.97408 L403.94936 104.14563 L397.20466 102.74667 L390.26195 101.79575 L383.13191 101.31141 L379.5 101.25" />
    <path d="M385.5 101.25 L389.13191 101.31141 L396.26195 101.79575 L403.20466 102.74667 L409.94936 104.14563 L416.48533 105.97408 L422.80188 108.21349 L428.8883 110.84531 L434.73388 113.85102 L440.32792 117.21206 L445.65973 120.90991 L450.71858 124.92601 L455.49379 129.24183 L459.97464 133.83884 L464.15044 138.69849 L468.01048 143.80224 L471.54405 149.13155 L474.74046 154.66789 L477.58899 160.39271 L480.07895 166.28747 L482.19963 172.33365 L483.94033 178.51268 L485.29034 184.80605 L486.23896 191.1952 L486.77548 197.6616 L486.88921 204.1867 L486.56944 210.75198 L485.80546 217.33888 L484.58657 223.92888 L482.90206 230.50342 L480.74125 237.04398 L478.09341 243.532 L474.94784 249.94896 L473.18507 253.125 L471.4449 256.02643 L467.70416 261.61253 L463.63158 266.90072 L459.2456 271.88038 L454.56468 276.54084 L449.60725 280.87146 L444.39176 284.86159 L438.93665 288.50058 L433.26036 291.77778 L427.38135 294.68255 L421.31805 297.20424 L415.08891 299.33219 L408.71237 301.05575 L402.20688 302.36429 L395.59087 303.24715 L388.8828 303.69368 L385.5 303.75" />
    <path d="M391.5 303.75 L394.8828 303.69368 L401.59087 303.24715 L408.20688 302.36429 L414.71237 301.05575 L421.08891 299.33219 L427.31805 297.20424 L433.38135 294.68255 L439.26036 291.77778 L444.93665 288.50058 L450.39176 284.86159 L455.60725 280.87146 L460.56468 276.54084 L465.2456 271.88038 L469.63158 266.90072 L473.70416 261.61253 L477.4449 256.02643 L479.18507 253.125 L480.94784 249.94896 L484.09341 243.532 L486.74125 237.04398 L488.90206 230.50342 L490.58657 223.92888 L491.80546 217.33888 L492.56944 210.75198 L492.88921 204.1867 L492.77548 197.6616 L492.23896 191.1952 L491.29034 184.80605 L489.94033 178.51268 L488.19963 172.33365 L486.07895 166.28747 L483.58899 160.39271 L480.74046 154.66789 L477.54405 149.13155 L474.01048 143.80224 L470.15044 138.69849 L465.97464 133.83884 L461.49379 129.24183 L456.71858 124.92601 L451.65973 120.90991 L446.32792 117.21206 L440.73388 113.85102 L434.8883 110.84531 L428.80188 108.21349 L422.48533 105.97408 L415.94936 104.14563 L409.20466 102.74667 L402.26195 101.79575 L395.13191 101.31141 L391.5 101.25" />
    <path d="M397.5 101.25 L401.13191 101.31141 L408.26195 101.79575 L415.20466 102.74667 L421.94936 104.14563 L428.48533 105.97408 L434.80188 108.21349 L440.8883 110.84531 L446.73388 113.85102 L452.32792 117.21206 L457.65973 120.90991 L462.71858 124.92601 L467.49379 129.24183 L471.97464 133.83884 L476.15044 138.69849 L480.01048 143.80224 L483.54405 149.13155 L486.74046 154.66789 L489.58899 160.39271 L492.07895 166.28747 L494.19963 172.33365 L495.94033 178.51268 L497.29034 184.80605 L498.23896 191.1952 L498.77548 197.6616 L498.88921 204.1867 L498.56944 210.75198 L497.80546 217.33888 L496.58657 223.92888 L494.90206 230.50342 L492.74125 237.04398 L490.09341 243.532 L486.94784 249.94896 L485.18507 253.125 L483.4449 256.02643 L479.70416 261.61253 L475.63158 266.90072 L471.2456 271.88038 L466.56468 276.54084 L461.60725 280.87146 L456.39176 284.86159 L450.93665 288.50058 L445.26036 291.77778 L439.38135 294.68255 L433.31805 297.20424 L427.08891 299.33219 L420.71237 301.05575 L414.20688 302.36429 L407.59087 303.24715 L400.8828 303.69368 L397.5 303.75" />
    <path d="M403.5 303.75 L406.8828 303.69368 L413.59087 303.24715 L420.20688 302.36429 L426.71237 301.05575 L433.08891 299.33219 L439.31805 297.20424 L445.38135 294.68255 L451.26036 291.77778 L456.93665 288.50058 L462.39176 284.86159 L467.60725 280.87146 L472.56468 276.54084 L477.2456 271.88038 L481.63158 266.90072 L485.70416 261.61253 L489.4449 256.02643 L491.18507 253.125 L492.94784 249.94896 L496.09341 243.532 L498.74125 237.04398 L500.90206 230.50342 L502.58657 223.92888 L503.80546 217.33888 L504.56944 210.75198 L504.88921 204.1867 L504.77548 197.6616 L504.23896 191.1952 L503.29034 184.80605 L501.94033 178.51268 L500.19963 172.33365 L498.07895 166.28747 L495.58899 160.39271 L492.74046 154.66789 L489.54405 149.13155 L486.01048 143.80224 L482.15044 138.69849 L477.97464 133.83884 L473.49379 129.24183 L468.71858 124.92601 L463.65973 120.90991 L458.32792 117.21206 L452.73388 113.85102 L446.8883 110.84531 L440.80188 108.21349 L434.48533 105.97408 L427.94936 104.14563 L421.20466 102.74667 L414.26195 101.79575 L407.13191 101.31141 L403.5 101.25" />
    <path d="M409.5 101.25 L413.13191 101.31141 L420.26195 101.79575 L427.20466 102.74667 L433.94936 104.14563 L440.48533 105.97408 L446.80188 108.21349 L452.8883 110.84531 L458.73388 113.85102 L464.32792 117.21206 L469.65973 120.90991 L474.71858 124.92601 L479.49379 129.24183 L483.97464 133.83884 L488.15044 138.69849 L492.01048 143.80224 L495.54405 149.13155 L498.74046 154.66789 L501.58899 160.39271 L504.07895 166.28747 L506.19963 172.33365 L507.94033 178.51268 L509.29034 184.80605 L510.23896 191.1952 L510.77548 197.6616 L510.88921 204.1867 L510.56944 210.75198 L509.80546 217.33888 L508.58657 223.92888 L506.90206 230.50342 L504.74125 237.04398 L502.09341 243.532 L498.94784 249.94896 L497.18507 253.125 L495.4449 256.02643 L491.70416 261.61253 L487.63158 266.90072 L483.2456 271.88038 L478.56468 276.54084 L473.60725 280.87146 L468.39176 284.86159 L462.93665 288.50058 L457.26036 291.77778 L451.38135 294.68255 L445.31805 297.20424 L439.08891 299.33219 L432.71237 301.05575 L426.20688 302.36429 L419.59087 303.24715 L412.8828 303.69368 L409.5 303.75" />
  </g>
</svg>