<?xml version="1.0" standalone="no"?>
<!DOCTYPE svg PUBLIC "-//W3C//DTD SVG 1.1//EN" 
    "http://www.w3.org/Graphics/SVG/1.1/DTD/svg11.dtd">
<svg width="6.5in" height="4.5in"
    xmlns="http://www.w3.org/2000/svg" version="1.1" viewBox="0 0 585 405">
  <g fill="none" stroke="black" stroke-width="0.01in">
    <path d="M117 81 L117 324 L468 324 L468 81 L117 81 L119.7 81 L122.4 81.9 L125.1 83.7 L127.8 83.7 L133.2 87.3 L135.9 87.3 L138.6 88.2 L144 93.6 L146.7 94.5 L149.4 98.1 L154.8 99.9 L157.5 101.7 L160.2 104.4 L162.9 108 L165.6 110.7 L168.3 114.3 L171 116.1 L176.4 125.1 L179.1 128.7 L189.9 132.3 L192.6 136.8 L195.3 136.8 L200.7 142.2 L203.4 145.8 L206.1 146.7 L208.8 146.7 L211.5 148.5 L214.2 148.5 L216.9 153 L219.6 154.8 L222.3 157.5 L225 158.4 L227.7 162 L233.1 165.6 L235.8 166.5 L241.2 173.7 L243.9 176.4 L246.6 176.4 L249.3 180.9 L252 182.7 L254.7 187.2 L257.4 190.8 L260.1 193.5 L262.8 197.1 L265.5 199.8 L268.2 203.4 L270.9 206.1 L273.6 206.1 L276.3 207 L284.4 217.8 L287.1 218.7 L289.8 222.3 L292.5 225 L295.2 225.9 L300.6 231.3 L303.3 234.9 L306 234.9 L308.7 239.4 L311.4 240.3 L314.1 242.1 L319.5 243.9 L324.9 247.5 L327.6 248.4 L330.3 248.4 L338.4 251.1 L341.1 253.8 L343.8 255.6 L346.5 259.2 L349.2 261.9 L351.9 265.5 L354.6 266.4 L357.3 268.2 L360 271.8 L362.7 276.3 L365.4 279.9 L370.8 281.7 L376.2 281.7 L378.9 282.6 L384.3 286.2 L389.7 291.6 L392.4 296.1 L395.1 296.1 L397.8 299.7 L400.5 301.5 L403.2 302.4 L405.9 302.4 L408.6 306 L411.3 306.9 L414 310.5 L416.7 313.2 L419.4 317.7 L422.1 320.4 L424.8 321.3 L427.5 324 L468 324" />
  </g>
</svg>