<?xml version="1.0" standalone="no"?>
<!DOCTYPE svg PUBLIC "-//W3C//DTD SVG 1.1//EN" 
    "http://www.w3.org/Graphics/SVG/1.1/DTD/svg11.dtd">
<svg width="6.5in" height="4.5in"
    xmlns="http://www.w3.org/2000/svg" version="1.1" viewBox="0 0 585 405">
  <g fill="none" stroke="black" stroke-width="0.01in">
    <path d="M114.08625 73.305 L111.68416 79.10416 L105.885 81.50625 L100.08584 79.10416 L97.68375 73.305 L100.08584 67.50584 L105.885 65.10375 L111.68416 67.50584 L114.08625 73.305" />
    <path d="M118.67895 73.305 L114.93169 82.35169 L105.885 86.09895 L96.83831 82.35169 L93.09105 73.305 L96.83831 64.25831 L105.885 60.51105 L114.93169 64.25831 L118.67895 73.305" />
    <path d="M123.27165 73.305 L118.17922 85.59922 L105.885 90.69165 L93.59078 85.59922 L88.49835 73.305 L93.59078 61.01078 L105.885 55.91835 L118.17922 61.01078 L123.27165 73.305" />
    <path d="M127.86435 73.305 L121.42675 88.84675 L105.885 95.28435 L90.34325 88.84675 L83.90565 73.305 L90.34325 57.76325 L105.885 51.32565 L121.42675 57.76325 L127.86435 73.305" />
    <path d="M132.45705 73.305 L124.67428 92.09428 L105.885 99.87705 L87.09572 92.09428 L79.31295 73.305 L87.09572 54.51572 L105.885 46.73295 L124.67428 54.51572 L132.45705 73.305" />
    <path d="M132.45705 138.105 L124.67428 156.89428 L105.885 164.67705 L87.09572 156.89428 L79.31295 138.105 L87.09572 119.31572 L105.885 111.53295 L124.67428 119.31572 L132.45705 138.105" />
    <path d="M127.86435 138.105 L121.42675 153.64675 L105.885 160.08435 L90.34325 153.64675 L83.90565 138.105 L90.34325 122.56325 L105.885 116.12565 L121.42675 122.56325 L127.86435 138.105" />
    <path d="M123.27165 138.105 L118.17922 150.39922 L105.885 155.49165 L93.59078 150.39922 L88.49835 138.105 L93.59078 125.81078 L105.885 120.71835 L118.17922 125.81078 L123.27165 138.105" />
    <path d="M118.67895 138.105 L114.93169 147.15169 L105.885 150.89895 L96.83831 147.15169 L93.09105 138.105 L96.83831 129.05831 L105.885 125.31105 L114.93169 129.05831 L118.67895 138.105" />
    <path d="M114.08625 138.105 L111.68416 143.90416 L105.885 146.30625 L100.08584 143.90416 L97.68375 138.105 L100.08584 132.30584 L105.885 129.90375 L111.68416 132.30584 L114.08625 138.105" />
    <path d="M114.08625 202.905 L111.68416 208.70416 L105.885 211.10625 L100.08584 208.70416 L97.68375 202.905 L100.08584 197.10584 L105.885 194.70375 L111.68416 197.10584 L114.08625 202.905" />
    <path d="M118.67895 202.905 L114.93169 211.95169 L105.885 215.69895 L96.83831 211.95169 L93.09105 202.905 L96.83831 193.85831 L105.885 190.11105 L114.93169 193.85831 L118.67895 202.905" />
    <path d="M123.27165 202.905 L118.17922 215.19922 L105.885 220.29165 L93.59078 215.19922 L88.49835 202.905 L93.59078 190.61078 L105.885 185.51835 L118.17922 190.61078 L123.27165 202.905" />
    <path d="M127.86435 202.905 L121.42675 218.44675 L105.885 224.88435 L90.34325 218.44675 L83.90565 202.905 L90.34325 187.36325 L105.885 180.92565 L121.42675 187.36325 L127.86435 202.905" />
    <path d="M132.45705 202.905 L124.67428 221.69428 L105.885 229.47705 L87.09572 221.69428 L79.31295 202.905 L87.09572 184.11572 L105.885 176.33295 L124.67428 184.11572 L132.45705 202.905" />
    <path d="M132.45705 267.705 L124.67428 286.49428 L105.885 294.27705 L87.09572 286.49428 L79.31295 267.705 L87.09572 248.91572 L105.885 241.13295 L124.67428 248.91572 L132.45705 267.705" />
    <path d="M127.86435 267.705 L121.42675 283.24675 L105.885 289.68435 L90.34325 283.24675 L83.90565 267.705 L90.34325 252.16325 L105.885 245.72565 L121.42675 252.16325 L127.86435 267.705" />
    <path d="M123.27165 267.705 L118.17922 279.99922 L105.885 285.09165 L93.59078 279.99922 L88.49835 267.705 L93.59078 255.41078 L105.885 250.31835 L118.17922 255.41078 L123.27165 267.705" />
    <path d="M118.67895 267.705 L114.93169 276.75169 L105.885 280.49895 L96.83831 276.75169 L93.09105 267.705 L96.83831 258.65831 L105.885 254.91105 L114.93169 258.65831 L118.67895 267.705" />
    <path d="M114.08625 267.705 L111.68416 273.50416 L105.885 275.90625 L100.08584 273.50416 L97.68375 267.705 L100.08584 261.90584 L105.885 259.50375 L111.68416 261.90584 L114.08625 267.705" />
    <path d="M114.08625 332.505 L111.68416 338.30416 L105.885 340.70625 L100.08584 338.30416 L97.68375 332.505 L100.08584 326.70584 L105.885 324.30375 L111.68416 326.70584 L114.08625 332.505" />
    <path d="M118.67895 332.505 L114.93169 341.55169 L105.885 345.29895 L96.83831 341.55169 L93.09105 332.505 L96.83831 323.45831 L105.885 319.71105 L114.93169 323.45831 L118.67895 332.505" />
    <path d="M123.27165 332.505 L118.17922 344.79922 L105.885 349.89165 L93.59078 344.79922 L88.49835 332.505 L93.59078 320.21078 L105.885 315.11835 L118.17922 320.21078 L123.27165 332.505" />
    <path d="M127.86435 332.505 L121.42675 348.04675 L105.885 354.48435 L90.34325 348.04675 L83.90565 332.505 L90.34325 316.96325 L105.885 310.52565 L121.42675 316.96325 L127.86435 332.505" />
    <path d="M132.45705 332.505 L124.67428 351.29428 L105.885 359.07705 L87.09572 351.29428 L79.31295 332.505 L87.09572 313.71572 L105.885 305.93295 L124.67428 313.71572 L132.45705 332.505" />
    <path d="M207.68625 332.505 L205.28416 338.30416 L199.485 340.70625 L193.68584 338.30416 L191.28375 332.505 L193.68584 326.70584 L199.485 324.30375 L205.28416 326.70584 L207.68625 332.505" />
    <path d="M212.27895 332.505 L208.53169 341.55169 L199.485 345.29895 L190.43831 341.55169 L186.69105 332.505 L190.43831 323.45831 L199.485 319.71105 L208.53169 323.45831 L212.27895 332.505" />
    <path d="M216.87165 332.505 L211.77922 344.79922 L199.485 349.89165 L187.19078 344.79922 L182.09835 332.505 L187.19078 320.21078 L199.485 315.11835 L211.77922 320.21078 L216.87165 332.505" />
    <path d="M221.46435 332.505 L215.02675 348.04675 L199.485 354.48435 L183.94325 348.04675 L177.50565 332.505 L183.94325 316.96325 L199.485 310.52565 L215.02675 316.96325 L221.46435 332.505" />
    <path d="M226.05705 332.505 L218.27428 351.29428 L199.485 359.07705 L180.69572 351.29428 L172.91295 332.505 L180.69572 313.71572 L199.485 305.93295 L218.27428 313.71572 L226.05705 332.505" />
    <path d="M226.05705 267.705 L218.27428 286.49428 L199.485 294.27705 L180.69572 286.49428 L172.91295 267.705 L180.69572 248.91572 L199.485 241.13295 L218.27428 248.91572 L226.05705 267.705" />
    <path d="M221.46435 267.705 L215.02675 283.24675 L199.485 289.68435 L183.94325 283.24675 L177.50565 267.705 L183.94325 252.16325 L199.485 245.72565 L215.02675 252.16325 L221.46435 267.705" />
    <path d="M216.87165 267.705 L211.77922 279.99922 L199.485 285.09165 L187.19078 279.99922 L182.09835 267.705 L187.19078 255.41078 L199.485 250.31835 L211.77922 255.41078 L216.87165 267.705" />
    <path d="M212.27895 267.705 L208.53169 276.75169 L199.485 280.49895 L190.43831 276.75169 L186.69105 267.705 L190.43831 258.65831 L199.485 254.91105 L208.53169 258.65831 L212.27895 267.705" />
    <path d="M207.68625 267.705 L205.28416 273.50416 L199.485 275.90625 L193.68584 273.50416 L191.28375 267.705 L193.68584 261.90584 L199.485 259.50375 L205.28416 261.90584 L207.68625 267.705" />
    <path d="M207.68625 202.905 L205.28416 208.70416 L199.485 211.10625 L193.68584 208.70416 L191.28375 202.905 L193.68584 197.10584 L199.485 194.70375 L205.28416 197.10584 L207.68625 202.905" />
    <path d="M212.27895 202.905 L208.53169 211.95169 L199.485 215.69895 L190.43831 211.95169 L186.69105 202.905 L190.43831 193.85831 L199.485 190.11105 L208.53169 193.85831 L212.27895 202.905" />
    <path d="M216.87165 202.905 L211.77922 215.19922 L199.485 220.29165 L187.19078 215.19922 L182.09835 202.905 L187.19078 190.61078 L199.485 185.51835 L211.77922 190.61078 L216.87165 202.905" />
    <path d="M221.46435 202.905 L215.02675 218.44675 L199.485 224.88435 L183.94325 218.44675 L177.50565 202.905 L183.94325 187.36325 L199.485 180.92565 L215.02675 187.36325 L221.46435 202.905" />
    <path d="M226.05705 202.905 L218.27428 221.69428 L199.485 229.47705 L180.69572 221.69428 L172.91295 202.905 L180.69572 184.11572 L199.485 176.33295 L218.27428 184.11572 L226.05705 202.905" />
    <path d="M226.05705 138.105 L218.27428 156.89428 L199.485 164.67705 L180.69572 156.89428 L172.91295 138.105 L180.69572 119.31572 L199.485 111.53295 L218.27428 119.31572 L226.05705 138.105" />
    <path d="M221.46435 138.105 L215.02675 153.64675 L199.485 160.08435 L183.94325 153.64675 L177.50565 138.105 L183.94325 122.56325 L199.485 116.12565 L215.02675 122.56325 L221.46435 138.105" />
    <path d="M216.87165 138.105 L211.77922 150.39922 L199.485 155.49165 L187.19078 150.39922 L182.09835 138.105 L187.19078 125.81078 L199.485 120.71835 L211.77922 125.81078 L216.87165 138.105" />
    <path d="M212.27895 138.105 L208.53169 147.15169 L199.485 150.89895 L190.43831 147.15169 L186.69105 138.105 L190.43831 129.05831 L199.485 125.31105 L208.53169 129.05831 L212.27895 138.105" />
    <path d="M207.68625 138.105 L205.28416 143.90416 L199.485 146.30625 L193.68584 143.90416 L191.28375 138.105 L193.68584 132.30584 L199.485 129.90375 L205.28416 132.30584 L207.68625 138.105" />
    <path d="M207.68625 73.305 L205.28416 79.10416 L199.485 81.50625 L193.68584 79.10416 L191.28375 73.305 L193.68584 67.50584 L199.485 65.10375 L205.28416 67.50584 L207.68625 73.305" />
    <path d="M212.27895 73.305 L208.53169 82.35169 L199.485 86.09895 L190.43831 82.35169 L186.69105 73.305 L190.43831 64.25831 L199.485 60.51105 L208.53169 64.25831 L212.27895 73.305" />
    <path d="M216.87165 73.305 L211.77922 85.59922 L199.485 90.69165 L187.19078 85.59922 L182.09835 73.305 L187.19078 61.01078 L199.485 55.91835 L211.77922 61.01078 L216.87165 73.305" />
    <path d="M221.46435 73.305 L215.02675 88.84675 L199.485 95.28435 L183.94325 88.84675 L177.50565 73.305 L183.94325 57.76325 L199.485 51.32565 L215.02675 57.76325 L221.46435 73.305" />
    <path d="M226.05705 73.305 L218.27428 92.09428 L199.485 99.87705 L180.69572 92.09428 L172.91295 73.305 L180.69572 54.51572 L199.485 46.73295 L218.27428 54.51572 L226.05705 73.305" />
    <path d="M301.28625 73.305 L298.88416 79.10416 L293.085 81.50625 L287.28584 79.10416 L284.88375 73.305 L287.28584 67.50584 L293.085 65.10375 L298.88416 67.50584 L301.28625 73.305" />
    <path d="M305.87895 73.305 L302.13169 82.35169 L293.085 86.09895 L284.03831 82.35169 L280.29105 73.305 L284.03831 64.25831 L293.085 60.51105 L302.13169 64.25831 L305.87895 73.305" />
    <path d="M310.47165 73.305 L305.37922 85.59922 L293.085 90.69165 L280.79078 85.59922 L275.69835 73.305 L280.79078 61.01078 L293.085 55.91835 L305.37922 61.01078 L310.47165 73.305" />
    <path d="M315.06435 73.305 L308.62675 88.84675 L293.085 95.28435 L277.54325 88.84675 L271.10565 73.305 L277.54325 57.76325 L293.085 51.32565 L308.62675 57.76325 L315.06435 73.305" />
    <path d="M319.65705 73.305 L311.87428 92.09428 L293.085 99.87705 L274.29572 92.09428 L266.51295 73.305 L274.29572 54.51572 L293.085 46.73295 L311.87428 54.51572 L319.65705 73.305" />
    <path d="M319.65705 138.105 L311.87428 156.89428 L293.085 164.67705 L274.29572 156.89428 L266.51295 138.105 L274.29572 119.31572 L293.085 111.53295 L311.87428 119.31572 L319.65705 138.105" />
    <path d="M315.06435 138.105 L308.62675 153.64675 L293.085 160.08435 L277.54325 153.64675 L271.10565 138.105 L277.54325 122.56325 L293.085 116.12565 L308.62675 122.56325 L315.06435 138.105" />
    <path d="M310.47165 138.105 L305.37922 150.39922 L293.085 155.49165 L280.79078 150.39922 L275.69835 138.105 L280.79078 125.81078 L293.085 120.71835 L305.37922 125.81078 L310.47165 138.105" />
    <path d="M305.87895 138.105 L302.13169 147.15169 L293.085 150.89895 L284.03831 147.15169 L280.29105 138.105 L284.03831 129.05831 L293.085 125.31105 L302.13169 129.05831 L305.87895 138.105" />
    <path d="M301.28625 138.105 L298.88416 143.90416 L293.085 146.30625 L287.28584 143.90416 L284.88375 138.105 L287.28584 132.30584 L293.085 129.90375 L298.88416 132.30584 L301.28625 138.105" />
    <path d="M301.28625 202.905 L298.88416 208.70416 L293.085 211.10625 L287.28584 208.70416 L284.88375 202.905 L287.28584 197.10584 L293.085 194.70375 L298.88416 197.10584 L301.28625 202.905" />
    <path d="M305.87895 202.905 L302.13169 211.95169 L293.085 215.69895 L284.03831 211.95169 L280.29105 202.905 L284.03831 193.85831 L293.085 190.11105 L302.13169 193.85831 L305.87895 202.905" />
    <path d="M310.47165 202.905 L305.37922 215.19922 L293.085 220.29165 L280.79078 215.19922 L275.69835 202.905 L280.79078 190.61078 L293.085 185.51835 L305.37922 190.61078 L310.47165 202.905" />
    <path d="M315.06435 202.905 L308.62675 218.44675 L293.085 224.88435 L277.54325 218.44675 L271.10565 202.905 L277.54325 187.36325 L293.085 180.92565 L308.62675 187.36325 L315.06435 202.905" />
    <path d="M319.65705 202.905 L311.87428 221.69428 L293.085 229.47705 L274.29572 221.69428 L266.51295 202.905 L274.29572 184.11572 L293.085 176.33295 L311.87428 184.11572 L319.65705 202.905" />
    <path d="M319.65705 267.705 L311.87428 286.49428 L293.085 294.27705 L274.29572 286.49428 L266.51295 267.705 L274.29572 248.91572 L293.085 241.13295 L311.87428 248.91572 L319.65705 267.705" />
    <path d="M315.06435 267.705 L308.62675 283.24675 L293.085 289.68435 L277.54325 283.24675 L271.10565 267.705 L277.54325 252.16325 L293.085 245.72565 L308.62675 252.16325 L315.06435 267.705" />
    <path d="M310.47165 267.705 L305.37922 279.99922 L293.085 285.09165 L280.79078 279.99922 L275.69835 267.705 L280.79078 255.41078 L293.085 250.31835 L305.37922 255.41078 L310.47165 267.705" />
    <path d="M305.87895 267.705 L302.13169 276.75169 L293.085 280.49895 L284.03831 276.75169 L280.29105 267.705 L284.03831 258.65831 L293.085 254.91105 L302.13169 258.65831 L305.87895 267.705" />
    <path d="M301.28625 267.705 L298.88416 273.50416 L293.085 275.90625 L287.28584 273.50416 L284.88375 267.705 L287.28584 261.90584 L293.085 259.50375 L298.88416 261.90584 L301.28625 267.705" />
    <path d="M301.28625 332.505 L298.88416 338.30416 L293.085 340.70625 L287.28584 338.30416 L284.88375 332.505 L287.28584 326.70584 L293.085 324.30375 L298.88416 326.70584 L301.28625 332.505" />
    <path d="M305.87895 332.505 L302.13169 341.55169 L293.085 345.29895 L284.03831 341.55169 L280.29105 332.505 L284.03831 323.45831 L293.085 319.71105 L302.13169 323.45831 L305.87895 332.505" />
    <path d="M310.47165 332.505 L305.37922 344.79922 L293.085 349.89165 L280.79078 344.79922 L275.69835 332.505 L280.79078 320.21078 L293.085 315.11835 L305.37922 320.21078 L310.47165 332.505" />
    <path d="M315.06435 332.505 L308.62675 348.04675 L293.085 354.48435 L277.54325 348.04675 L271.10565 332.505 L277.54325 316.96325 L293.085 310.52565 L308.62675 316.96325 L315.06435 332.505" />
    <path d="M319.65705 332.505 L311.87428 351.29428 L293.085 359.07705 L274.29572 351.29428 L266.51295 332.505 L274.29572 313.71572 L293.085 305.93295 L311.87428 313.71572 L319.65705 332.505" />
    <path d="M394.88625 332.505 L392.48416 338.30416 L386.685 340.70625 L380.88584 338.30416 L378.48375 332.505 L380.88584 326.70584 L386.685 324.30375 L392.48416 326.70584 L394.88625 332.505" />
    <path d="M399.47895 332.505 L395.73169 341.55169 L386.685 345.29895 L377.63831 341.55169 L373.89105 332.505 L377.63831 323.45831 L386.685 319.71105 L395.73169 323.45831 L399.47895 332.505" />
    <path d="M404.07165 332.505 L399.44917 343.66464 L398.97922 344.79922 L386.685 349.89165 L374.39078 344.79922 L369.29835 332.505 L373.92083 321.34536 L374.39078 320.21078 L386.685 315.11835 L398.97922 320.21078 L404.07165 332.505" />
    <path d="M408.66435 332.505 L402.22675 348.04675 L386.685 354.48435 L371.14325 348.04675 L364.70565 332.505 L371.14325 316.96325 L386.685 310.52565 L402.22675 316.96325 L408.66435 332.505" />
    <path d="M413.25705 332.505 L405.47428 351.29428 L386.685 359.07705 L367.89572 351.29428 L360.11295 332.505 L367.89572 313.71572 L386.685 305.93295 L405.47428 313.71572 L413.25705 332.505" />
    <path d="M413.25705 267.705 L405.47428 286.49428 L386.685 294.27705 L367.89572 286.49428 L360.11295 267.705 L367.89572 248.91572 L386.685 241.13295 L405.47428 248.91572 L413.25705 267.705" />
    <path d="M408.66435 267.705 L402.22675 283.24675 L386.685 289.68435 L371.14325 283.24675 L364.70565 267.705 L371.14325 252.16325 L386.685 245.72565 L402.22675 252.16325 L408.66435 267.705" />
    <path d="M404.07165 267.705 L399.44917 278.86464 L398.97922 279.99922 L386.685 285.09165 L374.39078 279.99922 L369.29835 267.705 L373.92083 256.54536 L374.39078 255.41078 L386.685 250.31835 L398.97922 255.41078 L404.07165 267.705" />
    <path d="M399.47895 267.705 L395.73169 276.75169 L386.685 280.49895 L377.63831 276.75169 L373.89105 267.705 L377.63831 258.65831 L386.685 254.91105 L395.73169 258.65831 L399.47895 267.705" />
    <path d="M394.88625 267.705 L392.48416 273.50416 L386.685 275.90625 L380.88584 273.50416 L378.48375 267.705 L380.88584 261.90584 L386.685 259.50375 L392.48416 261.90584 L394.88625 267.705" />
    <path d="M394.88625 202.905 L392.48416 208.70416 L386.685 211.10625 L380.88584 208.70416 L378.48375 202.905 L380.88584 197.10584 L386.685 194.70375 L392.48416 197.10584 L394.88625 202.905" />
    <path d="M399.47895 202.905 L395.73169 211.95169 L386.685 215.69895 L377.63831 211.95169 L373.89105 202.905 L377.63831 193.85831 L386.685 190.11105 L395.73169 193.85831 L399.47895 202.905" />
    <path d="M404.07165 202.905 L399.44917 214.06464 L398.97922 215.19922 L386.685 220.29165 L374.39078 215.19922 L369.29835 202.905 L373.92083 191.74536 L374.39078 190.61078 L386.685 185.51835 L398.97922 190.61078 L404.07165 202.905" />
    <path d="M408.66435 202.905 L402.22675 218.44675 L386.685 224.88435 L371.14325 218.44675 L364.70565 202.905 L371.14325 187.36325 L386.685 180.92565 L402.22675 187.36325 L408.66435 202.905" />
    <path d="M413.25705 202.905 L405.47428 221.69428 L386.685 229.47705 L367.89572 221.69428 L360.11295 202.905 L367.89572 184.11572 L386.685 176.33295 L405.47428 184.11572 L413.25705 202.905" />
    <path d="M413.25705 138.105 L405.47428 156.89428 L386.685 164.67705 L367.89572 156.89428 L360.11295 138.105 L367.89572 119.31572 L386.685 111.53295 L405.47428 119.31572 L413.25705 138.105" />
    <path d="M408.66435 138.105 L402.22675 153.64675 L386.685 160.08435 L371.14325 153.64675 L364.70565 138.105 L371.14325 122.56325 L386.685 116.12565 L402.22675 122.56325 L408.66435 138.105" />
    <path d="M404.07165 138.105 L398.97922 150.39922 L386.685 155.49165 L374.39078 150.39922 L369.29835 138.105 L374.39078 125.81078 L386.685 120.71835 L398.97922 125.81078 L404.07165 138.105" />
    <path d="M399.47895 138.105 L395.73169 147.15169 L386.685 150.89895 L377.63831 147.15169 L373.89105 138.105 L377.63831 129.05831 L386.685 125.31105 L395.73169 129.05831 L399.47895 138.105" />
    <path d="M394.88625 138.105 L392.48416 143.90416 L386.685 146.30625 L380.88584 143.90416 L378.48375 138.105 L380.88584 132.30584 L386.685 129.90375 L392.48416 132.30584 L394.88625 138.105" />
    <path d="M394.88625 73.305 L392.48416 79.10416 L386.685 81.50625 L380.88584 79.10416 L378.48375 73.305 L380.88584 67.50584 L386.685 65.10375 L392.48416 67.50584 L394.88625 73.305" />
    <path d="M399.47895 73.305 L395.73169 82.35169 L386.685 86.09895 L377.63831 82.35169 L373.89105 73.305 L377.63831 64.25831 L386.685 60.51105 L395.73169 64.25831 L399.47895 73.305" />
    <path d="M404.07165 73.305 L399.44917 84.46464 L398.97922 85.59922 L386.685 90.69165 L374.39078 85.59922 L369.29835 73.305 L373.92083 62.14536 L374.39078 61.01078 L386.685 55.91835 L398.97922 61.01078 L404.07165 73.305" />
    <path d="M408.66435 73.305 L402.22675 88.84675 L386.685 95.28435 L371.14325 88.84675 L364.70565 73.305 L371.14325 57.76325 L386.685 51.32565 L402.22675 57.76325 L408.66435 73.305" />
    <path d="M413.25705 73.305 L405.47428 92.09428 L386.685 99.87705 L367.89572 92.09428 L360.11295 73.305 L367.89572 54.51572 L386.685 46.73295 L405.47428 54.51572 L413.25705 73.305" />
    <path d="M488.48625 73.305 L486.08416 79.10416 L480.285 81.50625 L474.48584 79.10416 L472.08375 73.305 L474.48584 67.50584 L480.285 65.10375 L486.08416 67.50584 L488.48625 73.305" />
    <path d="M493.07895 73.305 L489.33169 82.35169 L480.285 86.09895 L471.23831 82.35169 L467.49105 73.305 L471.23831 64.25831 L480.285 60.51105 L489.33169 64.25831 L493.07895 73.305" />
    <path d="M497.67165 73.305 L493.04917 84.46464 L492.57922 85.59922 L480.285 90.69165 L467.99078 85.59922 L462.89835 73.305 L467.52083 62.14536 L467.99078 61.01078 L480.285 55.91835 L492.57922 61.01078 L497.67165 73.305" />
    <path d="M502.26435 73.305 L495.82675 88.84675 L480.285 95.28435 L464.74325 88.84675 L458.30565 73.305 L464.74325 57.76325 L480.285 51.32565 L495.82675 57.76325 L502.26435 73.305" />
    <path d="M506.85705 73.305 L499.07428 92.09428 L480.285 99.87705 L461.49572 92.09428 L453.71295 73.305 L461.49572 54.51572 L480.285 46.73295 L499.07428 54.51572 L506.85705 73.305" />
    <path d="M506.85705 138.105 L499.07428 156.89428 L480.285 164.67705 L461.49572 156.89428 L453.71295 138.105 L461.49572 119.31572 L480.285 111.53295 L499.07428 119.31572 L506.85705 138.105" />
    <path d="M502.26435 138.105 L495.82675 153.64675 L480.285 160.08435 L464.74325 153.64675 L458.30565 138.105 L464.74325 122.56325 L480.285 116.12565 L495.82675 122.56325 L502.26435 138.105" />
    <path d="M497.67165 138.105 L492.57922 150.39922 L480.285 155.49165 L467.99078 150.39922 L462.89835 138.105 L467.99078 125.81078 L480.285 120.71835 L492.57922 125.81078 L497.67165 138.105" />
    <path d="M493.07895 138.105 L489.33169 147.15169 L480.285 150.89895 L471.23831 147.15169 L467.49105 138.105 L471.23831 129.05831 L480.285 125.31105 L489.33169 129.05831 L493.07895 138.105" />
    <path d="M488.48625 138.105 L486.08416 143.90416 L480.285 146.30625 L474.48584 143.90416 L472.08375 138.105 L474.48584 132.30584 L480.285 129.90375 L486.08416 132.30584 L488.48625 138.105" />
    <path d="M488.48625 202.905 L486.08416 208.70416 L480.285 211.10625 L474.48584 208.70416 L472.08375 202.905 L474.48584 197.10584 L480.285 194.70375 L486.08416 197.10584 L488.48625 202.905" />
    <path d="M493.07895 202.905 L489.33169 211.95169 L480.285 215.69895 L471.23831 211.95169 L467.49105 202.905 L471.23831 193.85831 L480.285 190.11105 L489.33169 193.85831 L493.07895 202.905" />
    <path d="M497.67165 202.905 L493.04917 214.06464 L492.57922 215.19922 L480.285 220.29165 L467.99078 215.19922 L462.89835 202.905 L467.52083 191.74536 L467.99078 190.61078 L480.285 185.51835 L492.57922 190.61078 L497.67165 202.905" />
    <path d="M502.26435 202.905 L495.82675 218.44675 L480.285 224.88435 L464.74325 218.44675 L458.30565 202.905 L464.74325 187.36325 L480.285 180.92565 L495.82675 187.36325 L502.26435 202.905" />
    <path d="M506.85705 202.905 L499.07428 221.69428 L480.285 229.47705 L461.49572 221.69428 L453.71295 202.905 L461.49572 184.11572 L480.285 176.33295 L499.07428 184.11572 L506.85705 202.905" />
    <path d="M506.85705 267.705 L499.07428 286.49428 L480.285 294.27705 L461.49572 286.49428 L453.71295 267.705 L461.49572 248.91572 L480.285 241.13295 L499.07428 248.91572 L506.85705 267.705" />
    <path d="M502.26435 267.705 L495.82675 283.24675 L480.285 289.68435 L464.74325 283.24675 L458.30565 267.705 L464.74325 252.16325 L480.285 245.72565 L495.82675 252.16325 L502.26435 267.705" />
    <path d="M497.67165 267.705 L493.04917 278.86464 L492.57922 279.99922 L480.285 285.09165 L467.99078 279.99922 L462.89835 267.705 L467.52083 256.54536 L467.99078 255.41078 L480.285 250.31835 L492.57922 255.41078 L497.67165 267.705" />
    <path d="M493.07895 267.705 L489.33169 276.75169 L480.285 280.49895 L471.23831 276.75169 L467.49105 267.705 L471.23831 258.65831 L480.285 254.91105 L489.33169 258.65831 L493.07895 267.705" />
    <path d="M488.48625 267.705 L486.08416 273.50416 L480.285 275.90625 L474.48584 273.50416 L472.08375 267.705 L474.48584 261.90584 L480.285 259.50375 L486.08416 261.90584 L488.48625 267.705" />
    <path d="M488.48625 332.505 L486.08416 338.30416 L480.285 340.70625 L474.48584 338.30416 L472.08375 332.505 L474.48584 326.70584 L480.285 324.30375 L486.08416 326.70584 L488.48625 332.505" />
    <path d="M493.07895 332.505 L489.33169 341.55169 L480.285 345.29895 L471.23831 341.55169 L467.49105 332.505 L471.23831 323.45831 L480.285 319.71105 L489.33169 323.45831 L493.07895 332.505" />
    <path d="M497.67165 332.505 L493.04917 343.66464 L492.57922 344.79922 L480.285 349.89165 L467.99078 344.79922 L462.89835 332.505 L467.52083 321.34536 L467.99078 320.21078 L480.285 315.11835 L492.57922 320.21078 L497.67165 332.505" />
    <path d="M502.26435 332.505 L495.82675 348.04675 L480.285 354.48435 L464.74325 348.04675 L458.30565 332.505 L464.74325 316.96325 L480.285 310.52565 L495.82675 316.96325 L502.26435 332.505" />
    <path d="M506.85705 332.505 L499.07428 351.29428 L480.285 359.07705 L461.49572 351.29428 L453.71295 332.505 L461.49572 313.71572 L480.285 305.93295 L499.07428 313.71572 L506.85705 332.505" />
  </g>
</svg>