<?xml version="1.0" standalone="no"?>
<!DOCTYPE svg PUBLIC "-//W3C//DTD SVG 1.1//EN" 
    "http://www.w3.org/Graphics/SVG/1.1/DTD/svg11.dtd">
<svg width="6.5in" height="4.5in"
    xmlns="http://www.w3.org/2000/svg" version="1.1" viewBox="0 0 585 405">
  <g fill="none" stroke="black" stroke-width="0.01in">
    <path d="M272.25 182.25 L272.25 222.75 L312.75 222.75 L312.75 182.25 L272.25 182.25" />
    <path d="M270.61364 180.61364 L270.61364 224.38636 L314.38636 224.38636 L314.38636 180.61364 L270.61364 180.61364" />
    <path d="M268.97727 178.97727 L268.97727 226.02273 L316.02273 226.02273 L316.02273 178.97727 L268.97727 178.97727" />
    <path d="M267.34091 177.34091 L267.34091 227.65909 L317.65909 227.65909 L317.65909 177.34091 L267.34091 177.34091" />
    <path d="M265.70455 175.70455 L265.70455 229.29545 L319.29545 229.29545 L319.29545 175.70455 L265.70455 175.70455" />
    <path d="M264.06818 174.06818 L264.06818 230.93182 L320.93182 230.93182 L320.93182 174.06818 L264.06818 174.06818" />
    <path d="M262.43182 172.43182 L262.43182 232.56818 L322.56818 232.56818 L322.56818 172.43182 L262.43182 172.43182" />
    <path d="M260.79545 170.79545 L260.79545 234.20455 L324.20455 234.20455 L324.20455 170.79545 L260.79545 170.79545" />
    <path d="M259.15909 169.15909 L259.15909 235.84091 L325.84091 235.84091 L325.84091 169.15909 L259.15909 169.15909" />
    <path d="M257.52273 167.52273 L257.52273 237.47727 L327.47727 237.47727 L327.47727 167.52273 L257.52273 167.52273" />
    <path d="M255.88636 165.88636 L255.88636 239.11364 L329.11364 239.11364 L329.11364 165.88636 L255.88636 165.88636" />
    <path d="M254.25 164.25 L254.25 240.75 L330.75 240.75 L330.75 164.25 L254.25 164.25" />
    <path d="M252.61364 162.61364 L252.61364 242.38636 L332.38636 242.38636 L332.38636 162.61364 L252.61364 162.61364" />
    <path d="M250.97727 160.97727 L250.97727 244.02273 L334.02273 244.02273 L334.02273 160.97727 L250.97727 160.97727" />
    <path d="M249.34091 159.34091 L249.34091 245.65909 L335.65909 245.65909 L335.65909 159.34091 L249.34091 159.34091" />
    <path d="M247.70455 157.70455 L247.70455 247.29545 L337.29545 247.29545 L337.29545 157.70455 L247.70455 157.70455" />
    <path d="M246.06818 156.06818 L246.06818 248.93182 L338.93182 248.93182 L338.93182 156.06818 L246.06818 156.06818" />
    <path d="M244.43182 154.43182 L244.43182 250.56818 L340.56818 250.56818 L340.56818 154.43182 L244.43182 154.43182" />
    <path d="M242.79545 152.79545 L242.79545 252.20455 L342.20455 252.20455 L342.20455 152.79545 L242.79545 152.79545" />
    <path d="M241.15909 151.15909 L241.15909 253.84091 L343.84091 253.84091 L343.84091 151.15909 L241.15909 151.15909" />
    <path d="M239.52273 149.52273 L239.52273 255.47727 L345.47727 255.47727 L345.47727 149.52273 L239.52273 149.52273" />
    <path d="M237.88636 147.88636 L237.88636 257.11364 L347.11364 257.11364 L347.11364 147.88636 L237.88636 147.88636" />
    <path d="M236.25 146.25 L236.25 258.75 L348.75 258.75 L348.75 146.25 L236.25 146.25" />
    <path d="M234.61364 144.61364 L234.61364 260.38636 L350.38636 260.38636 L350.38636 144.61364 L234.61364 144.61364" />
    <path d="M232.97727 142.97727 L232.97727 262.02273 L352.02273 262.02273 L352.02273 142.97727 L232.97727 142.97727" />
    <path d="M231.34091 141.34091 L231.34091 263.65909 L353.65909 263.65909 L353.65909 141.34091 L231.34091 141.34091" />
    <path d="M229.70455 139.70455 L229.70455 265.29545 L355.29545 265.29545 L355.29545 139.70455 L229.70455 139.70455" />
    <path d="M228.06818 138.06818 L228.06818 266.93182 L356.93182 266.93182 L356.93182 138.06818 L228.06818 138.06818" />
    <path d="M226.43182 136.43182 L226.43182 268.56818 L358.56818 268.56818 L358.56818 136.43182 L226.43182 136.43182" />
    <path d="M224.79545 134.79545 L224.79545 270.20455 L360.20455 270.20455 L360.20455 134.79545 L224.79545 134.79545" />
    <path d="M223.15909 133.15909 L223.15909 271.84091 L361.84091 271.84091 L361.84091 133.15909 L223.15909 133.15909" />
    <path d="M221.52273 131.52273 L221.52273 273.47727 L363.47727 273.47727 L363.47727 131.52273 L221.52273 131.52273" />
    <path d="M219.88636 129.88636 L219.88636 275.11364 L365.11364 275.11364 L365.11364 129.88636 L219.88636 129.88636" />
    <path d="M218.25 128.25 L218.25 276.75 L366.75 276.75 L366.75 128.25 L218.25 128.25" />
    <path d="M216.61364 126.61364 L216.61364 278.38636 L368.38636 278.38636 L368.38636 126.61364 L216.61364 126.61364" />
    <path d="M214.97727 124.97727 L214.97727 280.02273 L370.02273 280.02273 L370.02273 124.97727 L214.97727 124.97727" />
    <path d="M213.34091 123.34091 L213.34091 281.65909 L371.65909 281.65909 L371.65909 123.34091 L213.34091 123.34091" />
    <path d="M211.70455 121.70455 L211.70455 283.29545 L373.29545 283.29545 L373.29545 121.70455 L211.70455 121.70455" />
    <path d="M210.06818 120.06818 L210.06818 284.93182 L374.93182 284.93182 L374.93182 120.06818 L210.06818 120.06818" />
    <path d="M208.43182 118.43182 L208.43182 286.56818 L376.56818 286.56818 L376.56818 118.43182 L208.43182 118.43182" />
    <path d="M206.79545 116.79545 L206.79545 288.20455 L378.20455 288.20455 L378.20455 116.79545 L206.79545 116.79545" />
    <path d="M205.15909 115.15909 L205.15909 289.84091 L379.84091 289.84091 L379.84091 115.15909 L205.15909 115.15909" />
    <path d="M203.52273 113.52273 L203.52273 291.47727 L381.47727 291.47727 L381.47727 113.52273 L203.52273 113.52273" />
    <path d="M201.88636 111.88636 L201.88636 293.11364 L383.11364 293.11364 L383.11364 111.88636 L201.88636 111.88636" />
    <path d="M200.25 110.25 L200.25 294.75 L384.75 294.75 L384.75 110.25 L200.25 110.25" />
    <path d="M198.61364 108.61364 L198.61364 296.38636 L386.38636 296.38636 L386.38636 108.61364 L198.61364 108.61364" />
    <path d="M196.97727 106.97727 L196.97727 298.02273 L388.02273 298.02273 L388.02273 106.97727 L196.97727 106.97727" />
    <path d="M195.34091 105.34091 L195.34091 299.65909 L389.65909 299.65909 L389.65909 105.34091 L195.34091 105.34091" />
    <path d="M193.70455 103.70455 L193.70455 301.29545 L391.29545 301.29545 L391.29545 103.70455 L193.70455 103.70455" />
    <path d="M192.06818 102.06818 L192.06818 302.93182 L392.93182 302.93182 L392.93182 102.06818 L192.06818 102.06818" />
    <path d="M190.43182 100.43182 L190.43182 304.56818 L394.56818 304.56818 L394.56818 100.43182 L190.43182 100.43182" />
    <path d="M188.79545 98.79545 L188.79545 306.20455 L396.20455 306.20455 L396.20455 98.79545 L188.79545 98.79545" />
    <path d="M187.15909 97.15909 L187.15909 307.84091 L397.84091 307.84091 L397.84091 97.15909 L187.15909 97.15909" />
    <path d="M185.52273 95.52273 L185.52273 309.47727 L399.47727 309.47727 L399.47727 95.52273 L185.52273 95.52273" />
    <path d="M183.88636 93.88636 L183.88636 311.11364 L401.11364 311.11364 L401.11364 93.88636 L183.88636 93.88636" />
    <path d="M182.25 92.25 L182.25 312.75 L402.75 312.75 L402.75 92.25 L182.25 92.25" />
    <path d="M180.61364 90.61364 L180.61364 314.38636 L404.38636 314.38636 L404.38636 90.61364 L180.61364 90.61364" />
    <path d="M178.97727 88.97727 L178.97727 316.02273 L406.02273 316.02273 L406.02273 88.97727 L178.97727 88.97727" />
    <path d="M177.34091 87.34091 L177.34091 317.65909 L407.65909 317.65909 L407.65909 87.34091 L177.34091 87.34091" />
    <path d="M175.70455 85.70455 L175.70455 319.29545 L409.29545 319.29545 L409.29545 85.70455 L175.70455 85.70455" />
    <path d="M174.06818 84.06818 L174.06818 320.93182 L410.93182 320.93182 L410.93182 84.06818 L174.06818 84.06818" />
    <path d="M172.43182 82.43182 L172.43182 322.56818 L412.56818 322.56818 L412.56818 82.43182 L172.43182 82.43182" />
    <path d="M170.79545 80.79545 L170.79545 324.20455 L414.20455 324.20455 L414.20455 80.79545 L170.79545 80.79545" />
    <path d="M169.15909 79.15909 L169.15909 325.84091 L415.84091 325.84091 L415.84091 79.15909 L169.15909 79.15909" />
    <path d="M167.52273 77.52273 L167.52273 327.47727 L417.47727 327.47727 L417.47727 77.52273 L167.52273 77.52273" />
    <path d="M165.88636 75.88636 L165.88636 329.11364 L419.11364 329.11364 L419.11364 75.88636 L165.88636 75.88636" />
    <path d="M164.25 74.25 L164.25 330.75 L420.75 330.75 L420.75 74.25 L164.25 74.25" />
    <path d="M162.61364 72.61364 L162.61364 332.38636 L422.38636 332.38636 L422.38636 72.61364 L162.61364 72.61364" />
    <path d="M160.97727 70.97727 L160.97727 334.02273 L424.02273 334.02273 L424.02273 70.97727 L160.97727 70.97727" />
    <path d="M159.34091 69.34091 L159.34091 335.65909 L425.65909 335.65909 L425.65909 69.34091 L159.34091 69.34091" />
    <path d="M157.70455 67.70455 L157.70455 337.29545 L427.29545 337.29545 L427.29545 67.70455 L157.70455 67.70455" />
    <path d="M156.06818 66.06818 L156.06818 338.93182 L428.93182 338.93182 L428.93182 66.06818 L156.06818 66.06818" />
    <path d="M154.43182 64.43182 L154.43182 340.56818 L430.56818 340.56818 L430.56818 64.43182 L154.43182 64.43182" />
    <path d="M152.79545 62.79545 L152.79545 342.20455 L432.20455 342.20455 L432.20455 62.79545 L152.79545 62.79545" />
    <path d="M151.15909 61.15909 L151.15909 343.84091 L433.84091 343.84091 L433.84091 61.15909 L151.15909 61.15909" />
    <path d="M149.52273 59.52273 L149.52273 345.47727 L435.47727 345.47727 L435.47727 59.52273 L149.52273 59.52273" />
    <path d="M147.88636 57.88636 L147.88636 347.11364 L437.11364 347.11364 L437.11364 57.88636 L147.88636 57.88636" />
    <path d="M146.25 56.25 L146.25 348.75 L438.75 348.75 L438.75 56.25 L146.25 56.25" />
    <path d="M144.61364 54.61364 L144.61364 350.38636 L440.38636 350.38636 L440.38636 54.61364 L144.61364 54.61364" />
    <path d="M142.97727 52.97727 L142.97727 352.02273 L442.02273 352.02273 L442.02273 52.97727 L142.97727 52.97727" />
    <path d="M141.34091 51.34091 L141.34091 353.65909 L443.65909 353.65909 L443.65909 51.34091 L141.34091 51.34091" />
    <path d="M139.70455 49.70455 L139.70455 355.29545 L445.29545 355.29545 L445.29545 49.70455 L139.70455 49.70455" />
    <path d="M138.06818 48.06818 L138.06818 356.93182 L446.93182 356.93182 L446.93182 48.06818 L138.06818 48.06818" />
    <path d="M136.43182 46.43182 L136.43182 358.56818 L448.56818 358.56818 L448.56818 46.43182 L136.43182 46.43182" />
    <path d="M134.79545 44.79545 L134.79545 360.20455 L450.20455 360.20455 L450.20455 44.79545 L134.79545 44.79545" />
    <path d="M133.15909 43.15909 L133.15909 361.84091 L451.84091 361.84091 L451.84091 43.15909 L133.15909 43.15909" />
    <path d="M131.52273 41.52273 L131.52273 363.47727 L453.47727 363.47727 L453.47727 41.52273 L131.52273 41.52273" />
    <path d="M129.88636 39.88636 L129.88636 365.11364 L455.11364 365.11364 L455.11364 39.88636 L129.88636 39.88636" />
    <path d="M128.25 38.25 L128.25 366.75 L456.75 366.75 L456.75 38.25 L128.25 38.25" />
    <path d="M126.61364 36.61364 L126.61364 368.38636 L458.38636 368.38636 L458.38636 36.61364 L126.61364 36.61364" />
    <path d="M124.97727 34.97727 L124.97727 370.02273 L460.02273 370.02273 L460.02273 34.97727 L124.97727 34.97727" />
    <path d="M123.34091 33.34091 L123.34091 371.65909 L461.65909 371.65909 L461.65909 33.34091 L123.34091 33.34091" />
    <path d="M121.70455 31.70455 L121.70455 373.29545 L463.29545 373.29545 L463.29545 31.70455 L121.70455 31.70455" />
    <path d="M120.06818 30.06818 L120.06818 374.93182 L464.93182 374.93182 L464.93182 30.06818 L120.06818 30.06818" />
    <path d="M118.43182 28.43182 L118.43182 376.56818 L466.56818 376.56818 L466.56818 28.43182 L118.43182 28.43182" />
    <path d="M116.79545 26.79545 L116.79545 378.20455 L468.20455 378.20455 L468.20455 26.79545 L116.79545 26.79545" />
    <path d="M115.15909 25.15909 L115.15909 379.84091 L469.84091 379.84091 L469.84091 25.15909 L115.15909 25.15909" />
    <path d="M113.52273 23.52273 L113.52273 381.47727 L471.47727 381.47727 L471.47727 23.52273 L113.52273 23.52273" />
    <path d="M111.88636 21.88636 L111.88636 383.11364 L473.11364 383.11364 L473.11364 21.88636 L111.88636 21.88636" />
  </g>
</svg>