<?xml version="1.0" standalone="no"?>
<!DOCTYPE svg PUBLIC "-//W3C//DTD SVG 1.1//EN" 
    "http://www.w3.org/Graphics/SVG/1.1/DTD/svg11.dtd">
<svg width="6.5in" height="4.5in"
    xmlns="http://www.w3.org/2000/svg" version="1.1" viewBox="0 0 585 405">
  <g fill="none" stroke="black" stroke-width="0.01in">
    <path d="M58.5 202.5 L58.5 162" />
    <path d="M63.22727 162.81 L63.22727 202.5" />
    <path d="M67.95455 202.5 L67.95455 163.62" />
    <path d="M72.68182 164.43 L72.68182 202.5" />
    <path d="M77.40909 202.5 L77.40909 165.24" />
    <path d="M82.13636 166.05 L82.13636 202.5" />
    <path d="M86.86364 202.5 L86.86364 166.86" />
    <path d="M91.59091 167.67 L91.59091 202.5" />
    <path d="M96.31818 202.5 L96.31818 168.48" />
    <path d="M101.04545 169.29 L101.04545 202.5" />
    <path d="M105.77273 202.5 L105.77273 170.1" />
    <path d="M110.5 170.91 L110.5 202.5" />
    <path d="M115.22727 202.5 L115.22727 171.72" />
    <path d="M119.95455 172.53 L119.95455 202.5" />
    <path d="M124.68182 202.5 L124.68182 173.34" />
    <path d="M129.40909 174.15 L129.40909 202.5" />
    <path d="M134.13636 202.5 L134.13636 174.96" />
    <path d="M138.86364 175.77 L138.86364 202.5" />
    <path d="M143.59091 202.5 L143.59091 176.58" />
    <path d="M148.31818 177.39 L148.31818 202.5" />
    <path d="M153.04545 202.5 L153.04545 178.2" />
    <path d="M157.77273 179.01 L157.77273 202.5" />
    <path d="M162.5 202.5 L162.5 179.82" />
    <path d="M167.22727 180.63 L167.22727 202.5" />
    <path d="M171.95455 202.5 L171.95455 181.44" />
    <path d="M176.68182 182.25 L176.68182 202.5" />
    <path d="M181.40909 202.5 L181.40909 183.06" />
    <path d="M186.13636 183.87 L186.13636 202.5" />
    <path d="M190.86364 202.5 L190.86364 184.68" />
    <path d="M195.59091 185.49 L195.59091 202.5" />
    <path d="M200.31818 202.5 L200.31818 186.3" />
    <path d="M205.04545 187.11 L205.04545 202.5" />
    <path d="M209.77273 202.5 L209.77273 187.92" />
    <path d="M214.5 188.73 L214.5 202.5" />
    <path d="M219.22727 202.5 L219.22727 189.54" />
    <path d="M223.95455 190.35 L223.95455 202.5" />
    <path d="M228.68182 202.5 L228.68182 191.16" />
    <path d="M233.40909 191.97 L233.40909 202.5" />
    <path d="M238.13636 202.5 L238.13636 192.78" />
    <path d="M242.86364 193.59 L242.86364 202.5" />
    <path d="M247.59091 202.5 L247.59091 194.4" />
    <path d="M252.31818 195.21 L252.31818 202.5" />
    <path d="M257.04545 202.5 L257.04545 196.02" />
    <path d="M261.77273 196.83 L261.77273 202.5" />
    <path d="M266.5 202.5 L266.5 197.64" />
    <path d="M271.22727 198.45 L271.22727 202.5" />
    <path d="M275.95455 202.5 L275.95455 199.26" />
    <path d="M280.68182 200.07 L280.68182 202.5" />
    <path d="M285.40909 202.5 L285.40909 200.88" />
    <path d="M290.13636 201.69 L290.13636 202.5" />
    <path d="M294.86364 202.5" />
    <path d="M299.59091 202.5 L299.59091 203.31" />
    <path d="M304.31818 202.5 L304.31818 204.12" />
    <path d="M309.04545 204.93 L309.04545 202.5" />
    <path d="M313.77273 202.5 L313.77273 205.74" />
    <path d="M318.5 206.55 L318.5 202.5" />
    <path d="M323.22727 202.5 L323.22727 207.36" />
    <path d="M327.95455 208.17 L327.95455 202.5" />
    <path d="M332.68182 202.5 L332.68182 208.98" />
    <path d="M337.40909 209.79 L337.40909 202.5" />
    <path d="M342.13636 202.5 L342.13636 210.6" />
    <path d="M346.86364 211.41 L346.86364 202.5" />
    <path d="M351.59091 202.5 L351.59091 212.22" />
    <path d="M356.31818 213.03 L356.31818 202.5" />
    <path d="M361.04545 202.5 L361.04545 213.84" />
    <path d="M365.77273 214.65 L365.77273 202.5" />
    <path d="M370.5 202.5 L370.5 215.46" />
    <path d="M375.22727 216.27 L375.22727 202.5" />
    <path d="M379.95455 202.5 L379.95455 217.08" />
    <path d="M384.68182 217.89 L384.68182 202.5" />
    <path d="M389.40909 202.5 L389.40909 218.7" />
    <path d="M394.13636 219.51 L394.13636 202.5" />
    <path d="M398.86364 202.5 L398.86364 220.32" />
    <path d="M403.59091 221.13 L403.59091 202.5" />
    <path d="M408.31818 202.5 L408.31818 221.94" />
    <path d="M413.04545 222.75 L413.04545 202.5" />
    <path d="M417.77273 202.5 L417.77273 223.56" />
    <path d="M422.5 224.37 L422.5 202.5" />
    <path d="M427.22727 202.5 L427.22727 225.18" />
    <path d="M431.95455 225.99 L431.95455 202.5" />
    <path d="M436.68182 202.5 L436.68182 226.8" />
    <path d="M441.40909 227.61 L441.40909 202.5" />
    <path d="M446.13636 202.5 L446.13636 228.42" />
    <path d="M450.86364 229.23 L450.86364 202.5" />
    <path d="M455.59091 202.5 L455.59091 230.04" />
    <path d="M460.31818 230.85 L460.31818 202.5" />
    <path d="M465.04545 202.5 L465.04545 231.66" />
    <path d="M469.77273 232.47 L469.77273 202.5" />
    <path d="M474.5 202.5 L474.5 233.28" />
    <path d="M479.22727 234.09 L479.22727 202.5" />
    <path d="M483.95455 202.5 L483.95455 234.9" />
    <path d="M488.68182 235.71 L488.68182 202.5" />
    <path d="M493.40909 202.5 L493.40909 236.52" />
    <path d="M498.13636 237.33 L498.13636 202.5" />
    <path d="M502.86364 202.5 L502.86364 238.14" />
    <path d="M507.59091 238.95 L507.59091 202.5" />
    <path d="M512.31818 202.5 L512.31818 239.76" />
    <path d="M517.04545 240.57 L517.04545 202.5" />
    <path d="M521.77273 202.5 L521.77273 241.38" />
  </g>
</svg>